<?xml version="1.0" encoding="utf-8" standalone="no"?>
<!DOCTYPE svg PUBLIC "-//W3C//DTD SVG 1.1//EN"
  "http://www.w3.org/Graphics/SVG/1.1/DTD/svg11.dtd">
<svg xmlns:xlink="http://www.w3.org/1999/xlink" width="720pt" height="432pt" viewBox="0 0 720 432" xmlns="http://www.w3.org/2000/svg" version="1.1">
 <metadata>
  <rdf:RDF xmlns:dc="http://purl.org/dc/elements/1.1/" xmlns:cc="http://creativecommons.org/ns#" xmlns:rdf="http://www.w3.org/1999/02/22-rdf-syntax-ns#">
   <cc:Work>
    <dc:type rdf:resource="http://purl.org/dc/dcmitype/StillImage"/>
    <dc:date>2023-11-01T20:20:21.299693</dc:date>
    <dc:format>image/svg+xml</dc:format>
    <dc:creator>
     <cc:Agent>
      <dc:title>Matplotlib v3.7.2, https://matplotlib.org/</dc:title>
     </cc:Agent>
    </dc:creator>
   </cc:Work>
  </rdf:RDF>
 </metadata>
 <defs>
  <style type="text/css">*{stroke-linejoin: round; stroke-linecap: butt}</style>
 </defs>
 <g id="figure_1">
  <g id="patch_1">
   <path d="M 0 432 
L 720 432 
L 720 0 
L 0 0 
L 0 432 
z
" style="fill: none"/>
  </g>
  <g id="axes_1">
   <g id="patch_2">
    <path d="M 90 384.48 
L 648 384.48 
L 648 51.84 
L 90 51.84 
L 90 384.48 
z
" style="fill: none"/>
   </g>
   <g id="matplotlib.axis_1">
    <g id="xtick_1">
     <g id="line2d_1">
      <defs>
       <path id="mc6829caf77" d="M 0 0 
L 0 -3.5 
" style="stroke: #000000; stroke-width: 0.8"/>
      </defs>
      <g>
       <use xlink:href="#mc6829caf77" x="171.727273" y="384.48" style="stroke: #000000; stroke-width: 0.8"/>
      </g>
     </g>
     <g id="text_1">
      <!-- 1000 -->
      <g transform="translate(161.727273 394.855) scale(0.1 -0.1)">
       <defs>
        <path id="SimHei-31" d="M 1400 3600 
Q 1075 3275 575 2975 
L 575 3450 
Q 1200 3875 1600 4450 
L 1900 4450 
L 1900 150 
L 1400 150 
L 1400 3600 
z
" transform="scale(0.015625)"/>
        <path id="SimHei-30" d="M 225 2537 
Q 250 3200 412 3587 
Q 575 3975 875 4225 
Q 1175 4475 1612 4475 
Q 2050 4475 2375 4112 
Q 2700 3750 2800 3200 
Q 2900 2650 2862 1937 
Q 2825 1225 2612 775 
Q 2400 325 1975 150 
Q 1550 -25 1125 187 
Q 700 400 525 750 
Q 350 1100 275 1487 
Q 200 1875 225 2537 
z
M 750 2687 
Q 675 2000 800 1462 
Q 925 925 1212 700 
Q 1500 475 1800 612 
Q 2100 750 2237 1162 
Q 2375 1575 2375 2062 
Q 2375 2550 2337 2950 
Q 2300 3350 2112 3675 
Q 1925 4000 1612 4012 
Q 1300 4025 1062 3700 
Q 825 3375 750 2687 
z
" transform="scale(0.015625)"/>
       </defs>
       <use xlink:href="#SimHei-31"/>
       <use xlink:href="#SimHei-30" x="50"/>
       <use xlink:href="#SimHei-30" x="100"/>
       <use xlink:href="#SimHei-30" x="150"/>
      </g>
     </g>
    </g>
    <g id="xtick_2">
     <g id="line2d_2">
      <g>
       <use xlink:href="#mc6829caf77" x="284.454545" y="384.48" style="stroke: #000000; stroke-width: 0.8"/>
      </g>
     </g>
     <g id="text_2">
      <!-- 2000 -->
      <g transform="translate(274.454545 394.855) scale(0.1 -0.1)">
       <defs>
        <path id="SimHei-32" d="M 300 250 
Q 325 625 650 925 
Q 975 1225 1475 1862 
Q 1975 2500 2125 2850 
Q 2275 3200 2237 3450 
Q 2200 3700 2000 3862 
Q 1800 4025 1537 4000 
Q 1275 3975 1037 3800 
Q 800 3625 675 3275 
L 200 3350 
Q 400 3925 712 4187 
Q 1025 4450 1450 4475 
Q 1700 4500 1900 4462 
Q 2100 4425 2312 4287 
Q 2525 4150 2662 3875 
Q 2800 3600 2762 3212 
Q 2725 2825 2375 2287 
Q 2025 1750 1025 600 
L 2825 600 
L 2825 150 
L 300 150 
L 300 250 
z
" transform="scale(0.015625)"/>
       </defs>
       <use xlink:href="#SimHei-32"/>
       <use xlink:href="#SimHei-30" x="50"/>
       <use xlink:href="#SimHei-30" x="100"/>
       <use xlink:href="#SimHei-30" x="150"/>
      </g>
     </g>
    </g>
    <g id="xtick_3">
     <g id="line2d_3">
      <g>
       <use xlink:href="#mc6829caf77" x="397.181818" y="384.48" style="stroke: #000000; stroke-width: 0.8"/>
      </g>
     </g>
     <g id="text_3">
      <!-- 3000 -->
      <g transform="translate(387.181818 394.855) scale(0.1 -0.1)">
       <defs>
        <path id="SimHei-33" d="M 250 1225 
L 700 1300 
Q 800 975 1025 762 
Q 1250 550 1587 562 
Q 1925 575 2125 837 
Q 2325 1100 2300 1437 
Q 2275 1775 2037 1962 
Q 1800 2150 1275 2225 
L 1275 2550 
Q 1800 2600 2037 2825 
Q 2275 3050 2250 3412 
Q 2225 3775 1925 3937 
Q 1625 4100 1287 3975 
Q 950 3850 750 3275 
L 300 3350 
Q 450 3800 712 4100 
Q 975 4400 1425 4450 
Q 1875 4500 2212 4337 
Q 2550 4175 2687 3837 
Q 2825 3500 2725 3100 
Q 2625 2700 2150 2400 
Q 2500 2250 2687 1950 
Q 2875 1650 2812 1162 
Q 2750 675 2375 375 
Q 2000 75 1525 87 
Q 1050 100 700 387 
Q 350 675 250 1225 
z
" transform="scale(0.015625)"/>
       </defs>
       <use xlink:href="#SimHei-33"/>
       <use xlink:href="#SimHei-30" x="50"/>
       <use xlink:href="#SimHei-30" x="100"/>
       <use xlink:href="#SimHei-30" x="150"/>
      </g>
     </g>
    </g>
    <g id="xtick_4">
     <g id="line2d_4">
      <g>
       <use xlink:href="#mc6829caf77" x="509.909091" y="384.48" style="stroke: #000000; stroke-width: 0.8"/>
      </g>
     </g>
     <g id="text_4">
      <!-- 4000 -->
      <g transform="translate(499.909091 394.855) scale(0.1 -0.1)">
       <defs>
        <path id="SimHei-34" d="M 2000 1100 
L 75 1100 
L 75 1525 
L 2100 4450 
L 2475 4450 
L 2475 1525 
L 3075 1525 
L 3075 1100 
L 2475 1100 
L 2475 150 
L 2000 150 
L 2000 1100 
z
M 2000 1525 
L 2000 3500 
L 600 1525 
L 2000 1525 
z
" transform="scale(0.015625)"/>
       </defs>
       <use xlink:href="#SimHei-34"/>
       <use xlink:href="#SimHei-30" x="50"/>
       <use xlink:href="#SimHei-30" x="100"/>
       <use xlink:href="#SimHei-30" x="150"/>
      </g>
     </g>
    </g>
    <g id="xtick_5">
     <g id="line2d_5">
      <g>
       <use xlink:href="#mc6829caf77" x="622.636364" y="384.48" style="stroke: #000000; stroke-width: 0.8"/>
      </g>
     </g>
     <g id="text_5">
      <!-- 5000 -->
      <g transform="translate(612.636364 394.855) scale(0.1 -0.1)">
       <defs>
        <path id="SimHei-35" d="M 550 1325 
Q 725 650 1150 575 
Q 1575 500 1837 662 
Q 2100 825 2212 1087 
Q 2325 1350 2312 1675 
Q 2300 2000 2137 2225 
Q 1975 2450 1725 2525 
Q 1475 2600 1162 2525 
Q 850 2450 650 2175 
L 225 2225 
Q 275 2375 700 4375 
L 2675 4375 
L 2675 3925 
L 1075 3925 
Q 950 3250 825 2850 
Q 1200 3025 1525 3012 
Q 1850 3000 2150 2862 
Q 2450 2725 2587 2487 
Q 2725 2250 2787 2012 
Q 2850 1775 2837 1500 
Q 2825 1225 2725 937 
Q 2625 650 2425 462 
Q 2225 275 1937 162 
Q 1650 50 1275 75 
Q 900 100 562 350 
Q 225 600 100 1200 
L 550 1325 
z
" transform="scale(0.015625)"/>
       </defs>
       <use xlink:href="#SimHei-35"/>
       <use xlink:href="#SimHei-30" x="50"/>
       <use xlink:href="#SimHei-30" x="100"/>
       <use xlink:href="#SimHei-30" x="150"/>
      </g>
     </g>
    </g>
    <g id="text_6">
     <!-- 搜索结点数/个 -->
     <g transform="translate(330 409.808125) scale(0.12 -0.12)">
      <defs>
       <path id="KaiTi-641c" d="M 4100 2750 
Q 4450 2800 4800 2900 
Q 4900 3150 4925 3300 
Q 4625 3275 4475 3275 
Q 4350 3275 4312 3350 
Q 4275 3425 4450 3475 
Q 4625 3525 4975 3600 
Q 5000 3775 5025 3887 
Q 5050 4000 4875 3962 
Q 4700 3925 4587 3912 
Q 4475 3900 4362 3987 
Q 4250 4075 4400 4075 
Q 4550 4075 4787 4187 
Q 5025 4300 5087 4312 
Q 5150 4325 5450 4125 
Q 5750 3925 5650 3875 
Q 5550 3825 5387 3512 
Q 5225 3200 5087 2812 
Q 4950 2425 4800 2675 
Q 4675 2650 4100 2550 
L 4100 2050 
Q 4325 2100 4412 2187 
Q 4500 2275 4737 2125 
Q 4975 1975 4925 1900 
Q 4875 1825 4775 1687 
Q 4675 1550 4587 1287 
Q 4500 1025 4300 700 
Q 4675 375 5125 200 
Q 5575 25 5887 -12 
Q 6200 -50 6050 -112 
Q 5900 -175 5412 -225 
Q 4925 -275 4762 -150 
Q 4600 -25 4050 475 
Q 3650 150 3262 50 
Q 2875 -50 2587 -37 
Q 2300 -25 2587 50 
Q 2875 125 3212 275 
Q 3550 425 3850 700 
Q 3700 875 3462 1075 
Q 3225 1275 3062 1362 
Q 2900 1450 3050 1500 
Q 3200 1550 3400 1387 
Q 3600 1225 4025 900 
Q 4200 1125 4287 1425 
Q 4375 1725 4362 1800 
Q 4350 1875 3987 1800 
Q 3625 1725 3437 1700 
Q 3250 1675 3037 1775 
Q 2825 1875 3112 1887 
Q 3400 1900 3850 2000 
L 3850 2475 
Q 3700 2450 3200 2375 
Q 3100 2075 3000 2400 
Q 2900 2725 2800 3062 
Q 2700 3400 2587 3550 
Q 2475 3700 2612 3737 
Q 2750 3775 2875 3775 
Q 3000 3825 3137 3962 
Q 3275 4100 3312 4250 
Q 3350 4400 3462 4375 
Q 3575 4350 3737 4200 
Q 3900 4050 3650 3962 
Q 3400 3875 3000 3675 
L 3050 3150 
Q 3275 3225 3375 3287 
Q 3475 3350 3587 3225 
Q 3700 3100 3500 3062 
Q 3300 3025 3100 2975 
L 3150 2575 
Q 3525 2625 3850 2700 
L 3850 3900 
Q 3850 4700 3762 4887 
Q 3675 5075 3737 5112 
Q 3800 5150 4050 5037 
Q 4300 4925 4275 4862 
Q 4250 4800 4200 4600 
Q 4150 4400 4137 4000 
Q 4125 3600 4100 2750 
z
M 2075 3400 
Q 2525 3500 2475 3325 
Q 2425 3150 2075 3075 
L 2075 2250 
Q 2475 2500 2512 2475 
Q 2550 2450 2075 1975 
L 2075 525 
Q 2075 175 1962 -137 
Q 1850 -450 1737 -237 
Q 1625 -25 1350 200 
Q 1075 425 1337 350 
Q 1600 275 1675 337 
Q 1750 400 1775 762 
Q 1800 1125 1800 1775 
Q 975 1225 812 1012 
Q 650 800 450 1000 
Q 250 1200 275 1237 
Q 300 1275 475 1325 
Q 650 1375 962 1562 
Q 1275 1750 1800 2075 
L 1800 3000 
Q 1550 2950 1375 2925 
Q 1200 2900 1000 3000 
Q 800 3100 1012 3125 
Q 1225 3150 1800 3325 
Q 1825 3900 1800 4262 
Q 1775 4625 1712 4762 
Q 1650 4900 1637 4962 
Q 1625 5025 1812 4975 
Q 2000 4925 2137 4850 
Q 2275 4775 2175 4587 
Q 2075 4400 2075 3400 
z
" transform="scale(0.015625)"/>
       <path id="KaiTi-7d22" d="M 3325 4350 
Q 3475 4375 3775 4450 
Q 4075 4525 4212 4437 
Q 4350 4350 4087 4250 
Q 3825 4150 3275 4050 
L 3200 3450 
Q 3775 3525 4125 3587 
Q 4475 3650 4625 3700 
Q 4775 3750 5125 3537 
Q 5475 3325 5587 3100 
Q 5700 2875 5487 2912 
Q 5275 2950 4975 2900 
Q 4675 2850 4487 2800 
Q 4300 2750 4612 3050 
Q 4925 3350 4575 3375 
Q 4225 3400 2950 3225 
Q 3050 3025 2925 2950 
Q 2800 2875 2587 2650 
Q 2375 2425 2375 2375 
Q 2375 2350 3100 2425 
Q 3450 2825 3475 2962 
Q 3500 3100 3775 2912 
Q 4050 2725 3900 2637 
Q 3750 2550 3575 2437 
Q 3400 2325 2525 1525 
Q 2750 1550 3750 1750 
Q 3400 2150 3662 2100 
Q 3925 2050 4162 1862 
Q 4400 1675 4325 1462 
Q 4250 1250 4100 1362 
Q 3950 1475 3850 1600 
Q 3225 1475 3075 1425 
Q 3325 1250 3300 1187 
Q 3275 1125 3275 875 
Q 3275 625 3300 212 
Q 3325 -200 3162 -487 
Q 3000 -775 2862 -525 
Q 2725 -275 2562 -100 
Q 2400 75 2412 125 
Q 2425 175 2687 62 
Q 2950 -50 2975 100 
Q 3000 250 2975 587 
Q 2950 925 2937 1062 
Q 2925 1200 2800 1350 
Q 2400 1225 2237 1112 
Q 2075 1000 2000 1062 
Q 1925 1125 1837 1287 
Q 1750 1450 2062 1525 
Q 2375 1600 2975 2250 
Q 2325 2125 2212 2037 
Q 2100 1950 2025 2050 
Q 1950 2150 1900 2250 
Q 1850 2350 2100 2512 
Q 2350 2675 2625 3175 
Q 2375 3150 2012 3100 
Q 1650 3050 1275 3050 
Q 1225 2700 1087 2412 
Q 950 2125 837 2362 
Q 725 2600 825 2712 
Q 925 2825 987 3000 
Q 1050 3175 1087 3362 
Q 1125 3550 1275 3225 
Q 1550 3225 2950 3425 
L 2975 4000 
Q 2725 3950 2575 3950 
Q 2425 3950 2262 4050 
Q 2100 4150 2275 4162 
Q 2450 4175 3000 4275 
L 3000 4650 
Q 3000 4925 2925 5050 
Q 2850 5175 2925 5187 
Q 3000 5200 3250 5100 
Q 3500 5000 3425 4887 
Q 3350 4775 3325 4350 
z
M 3975 650 
Q 3725 925 3687 987 
Q 3650 1050 4075 925 
Q 4500 800 4687 537 
Q 4875 275 4775 75 
Q 4675 -125 4450 125 
Q 4225 375 3975 650 
z
M 1675 600 
Q 1775 775 1850 850 
Q 1925 925 1912 575 
Q 1900 225 1675 -12 
Q 1450 -250 1337 -100 
Q 1225 50 1412 250 
Q 1600 450 1675 600 
z
" transform="scale(0.015625)"/>
       <path id="KaiTi-7ed3" d="M 5175 575 
Q 5475 375 5225 337 
Q 4975 300 3775 250 
Q 3700 -125 3562 175 
Q 3425 475 3325 775 
Q 3225 1075 3150 1200 
Q 3075 1325 3187 1337 
Q 3300 1350 3462 1337 
Q 3625 1325 3975 1375 
Q 4325 1425 4537 1462 
Q 4750 1500 4887 1550 
Q 5025 1600 5212 1525 
Q 5400 1450 5575 1312 
Q 5750 1175 5562 1100 
Q 5375 1025 5175 575 
z
M 4475 3300 
Q 5125 3425 5387 3487 
Q 5650 3550 5862 3387 
Q 6075 3225 5737 3200 
Q 5400 3175 4475 3050 
L 4475 2275 
Q 4750 2325 4987 2362 
Q 5225 2400 5412 2237 
Q 5600 2075 5350 2075 
Q 5100 2075 4600 2012 
Q 4100 1950 3737 1900 
Q 3375 1850 3200 1975 
Q 3025 2100 3300 2125 
Q 3575 2150 4150 2225 
L 4150 2975 
Q 3450 2875 3275 2837 
Q 3100 2800 2900 2937 
Q 2700 3075 2987 3087 
Q 3275 3100 4150 3225 
Q 4150 4075 4100 4312 
Q 4050 4550 3937 4762 
Q 3825 4975 4300 4825 
Q 4675 4675 4575 4525 
Q 4475 4375 4475 3300 
z
M 1975 3000 
Q 2350 3525 2312 3700 
Q 2275 3875 2462 3800 
Q 2650 3725 2812 3612 
Q 2975 3500 2800 3412 
Q 2625 3325 2250 2825 
Q 1875 2325 1725 2125 
Q 1675 2050 1650 2025 
Q 2825 2300 2612 2162 
Q 2400 2025 1925 1837 
Q 1450 1650 1300 1500 
Q 1150 1350 1075 1475 
Q 1000 1600 987 1737 
Q 975 1875 1175 1975 
Q 1375 2075 1875 2825 
Q 1150 2675 987 2587 
Q 825 2500 775 2587 
Q 725 2675 725 2825 
Q 725 2975 937 3037 
Q 1150 3100 1525 3787 
Q 1900 4475 1825 4675 
Q 1750 4875 2125 4675 
Q 2450 4425 2250 4300 
Q 2050 4175 1275 2950 
L 1975 3000 
z
M 3625 1125 
Q 3675 725 3750 425 
Q 4075 450 4412 487 
Q 4750 525 4925 525 
Q 5000 925 5012 1075 
Q 5025 1225 4950 1250 
Q 4875 1275 4575 1250 
Q 4275 1225 3625 1125 
z
M 1625 1025 
Q 2575 1450 2775 1500 
Q 2975 1550 2637 1325 
Q 2300 1100 1762 787 
Q 1225 475 1125 337 
Q 1025 200 700 437 
Q 375 675 637 700 
Q 900 725 1625 1025 
z
" transform="scale(0.015625)"/>
       <path id="KaiTi-70b9" d="M 3375 3925 
Q 4025 4025 4337 4150 
Q 4650 4275 4887 4112 
Q 5125 3950 4412 3800 
Q 3700 3650 3350 3750 
L 3325 2800 
Q 3825 2850 3987 2925 
Q 4150 3000 4400 2912 
Q 4650 2825 4825 2700 
Q 5000 2575 4862 2462 
Q 4725 2350 4625 2262 
Q 4525 2175 4350 1750 
Q 4625 1450 4375 1462 
Q 4125 1475 2400 1300 
Q 2350 1125 2275 1175 
Q 2200 1225 2137 1412 
Q 2075 1600 1987 2000 
Q 1900 2400 1800 2562 
Q 1700 2725 1850 2712 
Q 2000 2700 2087 2675 
Q 2175 2650 2375 2662 
Q 2575 2675 3000 2750 
Q 3000 3850 2975 4212 
Q 2950 4575 2812 4775 
Q 2675 4975 2925 4937 
Q 3175 4900 3350 4825 
Q 3525 4750 3462 4612 
Q 3400 4475 3375 3925 
z
M 2350 2025 
L 2400 1500 
Q 2875 1575 4000 1700 
Q 4100 2200 4125 2425 
Q 4150 2650 3975 2650 
Q 3800 2650 3225 2575 
L 2300 2450 
L 2350 2025 
z
M 4975 1025 
Q 5450 825 5662 575 
Q 5875 325 5812 37 
Q 5750 -250 5475 12 
Q 5200 275 4775 775 
Q 4350 1275 4975 1025 
z
M 1125 750 
Q 1325 1275 1362 750 
Q 1400 225 1137 -187 
Q 875 -600 775 -350 
Q 675 -100 775 87 
Q 875 275 1125 750 
z
M 4000 675 
Q 4175 475 4100 225 
Q 4025 -25 3862 125 
Q 3700 275 3587 462 
Q 3475 650 3400 837 
Q 3325 1025 3575 950 
Q 3825 875 4000 675 
z
M 2350 300 
Q 2175 650 2175 775 
Q 2175 900 2425 775 
Q 2675 650 2762 425 
Q 2850 200 2700 0 
Q 2550 -200 2350 300 
z
" transform="scale(0.015625)"/>
       <path id="KaiTi-6570" d="M 4100 1300 
Q 4275 1625 4312 1987 
Q 4350 2350 4325 2725 
Q 4125 2700 3875 2725 
Q 3575 2375 3325 2225 
Q 3075 2075 3387 2462 
Q 3700 2850 3912 3487 
Q 4125 4125 4100 4275 
Q 4075 4425 4062 4537 
Q 4050 4650 4362 4487 
Q 4675 4325 4562 4175 
Q 4450 4025 4337 3712 
Q 4225 3400 3925 2850 
Q 4525 2975 4912 3162 
Q 5300 3350 5512 3212 
Q 5725 3075 5450 2975 
Q 5175 2875 4425 2725 
Q 4800 2600 4712 2350 
Q 4625 2100 4562 1775 
Q 4500 1450 4325 1025 
Q 4550 750 4837 512 
Q 5125 275 5437 150 
Q 5750 25 5975 -62 
Q 6200 -150 5737 -187 
Q 5275 -225 5037 -187 
Q 4800 -150 4687 25 
Q 4575 200 4125 800 
Q 3900 550 3675 400 
Q 3450 250 3175 175 
Q 2900 100 3162 262 
Q 3425 425 3625 625 
Q 3825 825 3975 1050 
Q 3800 1350 3637 1562 
Q 3475 1775 3362 1900 
Q 3250 2025 3387 2037 
Q 3525 2050 3612 1950 
Q 3700 1850 4100 1300 
z
M 2575 1600 
Q 2625 1750 2612 1862 
Q 2600 1975 2750 1875 
Q 2900 1775 2962 1700 
Q 3025 1625 2962 1500 
Q 2900 1375 2800 1112 
Q 2700 850 2525 550 
Q 2700 425 2837 300 
Q 2975 175 2925 -62 
Q 2875 -300 2712 -100 
Q 2550 100 2325 275 
Q 1925 -25 1587 -150 
Q 1250 -275 912 -300 
Q 575 -325 850 -212 
Q 1125 -100 1450 50 
Q 1775 200 2050 475 
Q 1750 700 1637 750 
Q 1525 800 1587 900 
Q 1650 1000 1700 1250 
Q 1050 1175 862 1062 
Q 675 950 425 1150 
Q 175 1350 500 1337 
Q 825 1325 1775 1475 
Q 1850 1800 1800 1987 
Q 1750 2175 2025 2037 
Q 2300 1900 2250 1825 
Q 2200 1750 2075 1525 
L 2575 1600 
z
M 2875 3425 
Q 3125 3475 3225 3387 
Q 3325 3300 3100 3225 
Q 2875 3150 2350 3075 
L 2350 2875 
Q 2775 2825 2975 2687 
Q 3175 2550 3112 2350 
Q 3050 2150 2812 2412 
Q 2575 2675 2350 2800 
Q 2350 2500 2300 2287 
Q 2250 2075 2137 2262 
Q 2025 2450 2062 2600 
Q 2100 2750 2075 2950 
Q 1475 2175 975 1937 
Q 475 1700 762 1925 
Q 1050 2150 1362 2475 
Q 1675 2800 1800 3050 
Q 1450 2925 1312 2900 
Q 1175 2875 975 3012 
Q 775 3150 1050 3137 
Q 1325 3125 2100 3275 
L 2100 4175 
Q 2100 4700 2012 4837 
Q 1925 4975 1987 4987 
Q 2050 5000 2300 4887 
Q 2550 4775 2462 4625 
Q 2375 4475 2375 3325 
L 2875 3425 
z
M 2250 675 
Q 2450 925 2575 1425 
L 2000 1325 
Q 1825 925 1837 875 
Q 1850 825 1937 800 
Q 2025 775 2250 675 
z
M 3250 4275 
Q 3450 4150 3300 4087 
Q 3150 4025 2762 3737 
Q 2375 3450 2600 3737 
Q 2825 4025 2900 4237 
Q 2975 4450 3025 4425 
Q 3075 4400 3250 4275 
z
M 1550 3600 
Q 1350 3875 1287 4000 
Q 1225 4125 1537 4050 
Q 1850 3975 1812 3662 
Q 1775 3350 1550 3600 
z
" transform="scale(0.015625)"/>
       <path id="KaiTi-2f" d="M 3000 4550 
L 350 -175 
L 100 -25 
L 2750 4700 
L 3000 4550 
z
" transform="scale(0.015625)"/>
       <path id="KaiTi-4e2a" d="M 3175 4425 
Q 4050 3500 4400 3200 
Q 4750 2900 5125 2687 
Q 5500 2475 5950 2337 
Q 6400 2200 6037 2137 
Q 5675 2075 5225 2100 
Q 4775 2125 4600 2350 
Q 4425 2575 4075 3037 
Q 3725 3500 3075 4275 
Q 2750 3675 2437 3237 
Q 2125 2800 1675 2325 
Q 1225 1850 675 1575 
Q 125 1300 587 1675 
Q 1050 2050 1475 2537 
Q 1900 3025 2200 3487 
Q 2500 3950 2650 4362 
Q 2800 4775 2737 4975 
Q 2675 5175 2887 5100 
Q 3100 5025 3275 4887 
Q 3450 4750 3362 4662 
Q 3275 4575 3175 4425 
z
M 3225 2875 
Q 3425 2800 3337 2650 
Q 3250 2500 3275 1275 
Q 3300 50 3212 -350 
Q 3125 -750 2962 -437 
Q 2800 -125 2837 62 
Q 2875 250 2925 850 
Q 2975 1450 2912 2075 
Q 2850 2700 2712 2862 
Q 2575 3025 2812 3000 
Q 3050 2975 3225 2875 
z
" transform="scale(0.015625)"/>
      </defs>
      <use xlink:href="#KaiTi-641c"/>
      <use xlink:href="#KaiTi-7d22" x="100"/>
      <use xlink:href="#KaiTi-7ed3" x="200"/>
      <use xlink:href="#KaiTi-70b9" x="300"/>
      <use xlink:href="#KaiTi-6570" x="400"/>
      <use xlink:href="#KaiTi-2f" x="500"/>
      <use xlink:href="#KaiTi-4e2a" x="550"/>
     </g>
    </g>
   </g>
   <g id="matplotlib.axis_2">
    <g id="ytick_1">
     <g id="line2d_6">
      <defs>
       <path id="m820264c8d1" d="M 0 0 
L 3.5 0 
" style="stroke: #000000; stroke-width: 0.8"/>
      </defs>
      <g>
       <use xlink:href="#m820264c8d1" x="90" y="369.36" style="stroke: #000000; stroke-width: 0.8"/>
      </g>
     </g>
     <g id="text_7">
      <!-- 0 -->
      <g transform="translate(81.5 372.7975) scale(0.1 -0.1)">
       <use xlink:href="#SimHei-30"/>
      </g>
     </g>
    </g>
    <g id="ytick_2">
     <g id="line2d_7">
      <g>
       <use xlink:href="#m820264c8d1" x="90" y="328.627241" style="stroke: #000000; stroke-width: 0.8"/>
      </g>
     </g>
     <g id="text_8">
      <!-- 250 -->
      <g transform="translate(71.5 332.064741) scale(0.1 -0.1)">
       <use xlink:href="#SimHei-32"/>
       <use xlink:href="#SimHei-35" x="50"/>
       <use xlink:href="#SimHei-30" x="100"/>
      </g>
     </g>
    </g>
    <g id="ytick_3">
     <g id="line2d_8">
      <g>
       <use xlink:href="#m820264c8d1" x="90" y="287.894483" style="stroke: #000000; stroke-width: 0.8"/>
      </g>
     </g>
     <g id="text_9">
      <!-- 500 -->
      <g transform="translate(71.5 291.331983) scale(0.1 -0.1)">
       <use xlink:href="#SimHei-35"/>
       <use xlink:href="#SimHei-30" x="50"/>
       <use xlink:href="#SimHei-30" x="100"/>
      </g>
     </g>
    </g>
    <g id="ytick_4">
     <g id="line2d_9">
      <g>
       <use xlink:href="#m820264c8d1" x="90" y="247.161724" style="stroke: #000000; stroke-width: 0.8"/>
      </g>
     </g>
     <g id="text_10">
      <!-- 750 -->
      <g transform="translate(71.5 250.599224) scale(0.1 -0.1)">
       <defs>
        <path id="SimHei-37" d="M 850 150 
Q 1300 2050 2425 3925 
L 275 3925 
L 275 4375 
L 2950 4375 
L 2950 3950 
Q 1775 2050 1400 150 
L 850 150 
z
" transform="scale(0.015625)"/>
       </defs>
       <use xlink:href="#SimHei-37"/>
       <use xlink:href="#SimHei-35" x="50"/>
       <use xlink:href="#SimHei-30" x="100"/>
      </g>
     </g>
    </g>
    <g id="ytick_5">
     <g id="line2d_10">
      <g>
       <use xlink:href="#m820264c8d1" x="90" y="206.428966" style="stroke: #000000; stroke-width: 0.8"/>
      </g>
     </g>
     <g id="text_11">
      <!-- 1000 -->
      <g transform="translate(66.5 209.866466) scale(0.1 -0.1)">
       <use xlink:href="#SimHei-31"/>
       <use xlink:href="#SimHei-30" x="50"/>
       <use xlink:href="#SimHei-30" x="100"/>
       <use xlink:href="#SimHei-30" x="150"/>
      </g>
     </g>
    </g>
    <g id="ytick_6">
     <g id="line2d_11">
      <g>
       <use xlink:href="#m820264c8d1" x="90" y="165.696207" style="stroke: #000000; stroke-width: 0.8"/>
      </g>
     </g>
     <g id="text_12">
      <!-- 1250 -->
      <g transform="translate(66.5 169.133707) scale(0.1 -0.1)">
       <use xlink:href="#SimHei-31"/>
       <use xlink:href="#SimHei-32" x="50"/>
       <use xlink:href="#SimHei-35" x="100"/>
       <use xlink:href="#SimHei-30" x="150"/>
      </g>
     </g>
    </g>
    <g id="ytick_7">
     <g id="line2d_12">
      <g>
       <use xlink:href="#m820264c8d1" x="90" y="124.963448" style="stroke: #000000; stroke-width: 0.8"/>
      </g>
     </g>
     <g id="text_13">
      <!-- 1500 -->
      <g transform="translate(66.5 128.400948) scale(0.1 -0.1)">
       <use xlink:href="#SimHei-31"/>
       <use xlink:href="#SimHei-35" x="50"/>
       <use xlink:href="#SimHei-30" x="100"/>
       <use xlink:href="#SimHei-30" x="150"/>
      </g>
     </g>
    </g>
    <g id="ytick_8">
     <g id="line2d_13">
      <g>
       <use xlink:href="#m820264c8d1" x="90" y="84.23069" style="stroke: #000000; stroke-width: 0.8"/>
      </g>
     </g>
     <g id="text_14">
      <!-- 1750 -->
      <g transform="translate(66.5 87.66819) scale(0.1 -0.1)">
       <use xlink:href="#SimHei-31"/>
       <use xlink:href="#SimHei-37" x="50"/>
       <use xlink:href="#SimHei-35" x="100"/>
       <use xlink:href="#SimHei-30" x="150"/>
      </g>
     </g>
    </g>
    <g id="text_15">
     <!-- Elo分数/分 -->
     <g transform="translate(61 248.16) rotate(-90) scale(0.12 -0.12)">
      <defs>
       <path id="KaiTi-45" d="M 2900 125 
L 350 125 
L 350 4400 
L 2775 4400 
L 2775 3925 
L 925 3925 
L 925 2600 
L 2625 2600 
L 2625 2125 
L 925 2125 
L 925 600 
L 2900 600 
L 2900 125 
z
" transform="scale(0.015625)"/>
       <path id="KaiTi-6c" d="M 1825 125 
L 1325 125 
L 1325 4400 
L 1825 4400 
L 1825 125 
z
" transform="scale(0.015625)"/>
       <path id="KaiTi-6f" d="M 2925 1525 
Q 2925 875 2525 475 
Q 2125 75 1575 75 
Q 1025 75 625 475 
Q 225 875 225 1525 
Q 225 2175 625 2575 
Q 1025 2975 1575 2975 
Q 2125 2975 2525 2575 
Q 2925 2175 2925 1525 
z
M 2375 1525 
Q 2375 2025 2125 2275 
Q 1875 2525 1575 2525 
Q 1275 2525 1025 2275 
Q 775 2025 775 1525 
Q 775 1025 1025 775 
Q 1275 525 1575 525 
Q 1875 525 2125 775 
Q 2375 1025 2375 1525 
z
" transform="scale(0.015625)"/>
       <path id="KaiTi-5206" d="M 4250 2425 
Q 4625 2175 4462 2025 
Q 4300 1875 4200 1600 
Q 4125 625 3900 200 
Q 3675 -225 3325 -387 
Q 2975 -550 2962 -300 
Q 2950 -50 2762 212 
Q 2575 475 2737 400 
Q 2900 325 3200 200 
Q 3475 200 3637 662 
Q 3800 1125 3825 1512 
Q 3850 1900 3825 2075 
Q 3800 2250 3612 2237 
Q 3425 2225 2600 2075 
Q 2925 1925 2800 1775 
Q 2675 1625 2612 1450 
Q 2550 1275 2262 862 
Q 1975 450 1600 162 
Q 1225 -125 950 -162 
Q 675 -200 887 -75 
Q 1100 50 1425 350 
Q 1750 650 2050 1162 
Q 2350 1675 2300 2000 
Q 2075 1950 1875 1887 
Q 1675 1825 1450 2000 
Q 1250 2150 1600 2162 
Q 1950 2175 2750 2300 
Q 3475 2425 3662 2550 
Q 3850 2675 4250 2425 
z
M 2775 5075 
Q 3150 5075 3325 4787 
Q 3500 4500 3950 4025 
Q 4400 3550 4825 3187 
Q 5250 2825 5762 2625 
Q 6275 2425 6062 2375 
Q 5850 2325 5300 2350 
Q 4750 2375 4625 2550 
Q 4500 2725 4187 3175 
Q 3875 3625 3662 3912 
Q 3450 4200 3250 4475 
Q 3050 4750 2912 4825 
Q 2775 4900 2687 4925 
Q 2600 4950 2575 5012 
Q 2550 5075 2775 5075 
z
M 2350 3575 
Q 2000 3050 1637 2700 
Q 1275 2350 950 2137 
Q 625 1925 475 1887 
Q 325 1850 475 1987 
Q 625 2125 950 2412 
Q 1275 2700 1600 3162 
Q 1925 3625 1962 3825 
Q 2000 4025 1962 4150 
Q 1925 4275 2050 4275 
Q 2175 4275 2462 4162 
Q 2750 4050 2600 3912 
Q 2450 3775 2350 3575 
z
" transform="scale(0.015625)"/>
      </defs>
      <use xlink:href="#KaiTi-45"/>
      <use xlink:href="#KaiTi-6c" x="50"/>
      <use xlink:href="#KaiTi-6f" x="100"/>
      <use xlink:href="#KaiTi-5206" x="150"/>
      <use xlink:href="#KaiTi-6570" x="250"/>
      <use xlink:href="#KaiTi-2f" x="350"/>
      <use xlink:href="#KaiTi-5206" x="400"/>
     </g>
    </g>
   </g>
   <g id="line2d_14">
    <path d="M 115.363636 369.36 
L 171.727273 345.246207 
L 284.454545 342.313448 
L 622.636364 327.812586 
" clip-path="url(#p981f9efb10)" style="fill: none; stroke: #1f77b4; stroke-width: 2; stroke-linecap: square"/>
    <defs>
     <path id="mc4ef6f8116" d="M 0 3 
C 0.795609 3 1.55874 2.683901 2.12132 2.12132 
C 2.683901 1.55874 3 0.795609 3 0 
C 3 -0.795609 2.683901 -1.55874 2.12132 -2.12132 
C 1.55874 -2.683901 0.795609 -3 0 -3 
C -0.795609 -3 -1.55874 -2.683901 -2.12132 -2.12132 
C -2.683901 -1.55874 -3 -0.795609 -3 0 
C -3 0.795609 -2.683901 1.55874 -2.12132 2.12132 
C -1.55874 2.683901 -0.795609 3 0 3 
z
" style="stroke: #1f77b4"/>
    </defs>
    <g clip-path="url(#p981f9efb10)">
     <use xlink:href="#mc4ef6f8116" x="115.363636" y="369.36" style="fill: #1f77b4; stroke: #1f77b4"/>
     <use xlink:href="#mc4ef6f8116" x="171.727273" y="345.246207" style="fill: #1f77b4; stroke: #1f77b4"/>
     <use xlink:href="#mc4ef6f8116" x="284.454545" y="342.313448" style="fill: #1f77b4; stroke: #1f77b4"/>
     <use xlink:href="#mc4ef6f8116" x="622.636364" y="327.812586" style="fill: #1f77b4; stroke: #1f77b4"/>
    </g>
   </g>
   <g id="line2d_15">
    <path d="M 115.363636 241.459138 
L 171.727273 219.78931 
L 284.454545 207.243621 
L 622.636364 197.467759 
" clip-path="url(#p981f9efb10)" style="fill: none; stroke: #ff7f0e; stroke-width: 2; stroke-linecap: square"/>
    <defs>
     <path id="m260883c9f7" d="M -3 3 
L 3 3 
L 3 -3 
L -3 -3 
z
" style="stroke: #ff7f0e; stroke-linejoin: miter"/>
    </defs>
    <g clip-path="url(#p981f9efb10)">
     <use xlink:href="#m260883c9f7" x="115.363636" y="241.459138" style="fill: #ff7f0e; stroke: #ff7f0e; stroke-linejoin: miter"/>
     <use xlink:href="#m260883c9f7" x="171.727273" y="219.78931" style="fill: #ff7f0e; stroke: #ff7f0e; stroke-linejoin: miter"/>
     <use xlink:href="#m260883c9f7" x="284.454545" y="207.243621" style="fill: #ff7f0e; stroke: #ff7f0e; stroke-linejoin: miter"/>
     <use xlink:href="#m260883c9f7" x="622.636364" y="197.467759" style="fill: #ff7f0e; stroke: #ff7f0e; stroke-linejoin: miter"/>
    </g>
   </g>
   <g id="line2d_16">
    <path d="M 115.363636 81.135 
L 171.727273 78.365172 
L 284.454545 77.550517 
L 622.636364 75.269483 
" clip-path="url(#p981f9efb10)" style="fill: none; stroke: #2ca02c; stroke-width: 2; stroke-linecap: square"/>
    <defs>
     <path id="m47ea378ff3" d="M 0 -3 
L -3 3 
L 3 3 
z
" style="stroke: #2ca02c; stroke-linejoin: miter"/>
    </defs>
    <g clip-path="url(#p981f9efb10)">
     <use xlink:href="#m47ea378ff3" x="115.363636" y="81.135" style="fill: #2ca02c; stroke: #2ca02c; stroke-linejoin: miter"/>
     <use xlink:href="#m47ea378ff3" x="171.727273" y="78.365172" style="fill: #2ca02c; stroke: #2ca02c; stroke-linejoin: miter"/>
     <use xlink:href="#m47ea378ff3" x="284.454545" y="77.550517" style="fill: #2ca02c; stroke: #2ca02c; stroke-linejoin: miter"/>
     <use xlink:href="#m47ea378ff3" x="622.636364" y="75.269483" style="fill: #2ca02c; stroke: #2ca02c; stroke-linejoin: miter"/>
    </g>
   </g>
   <g id="line2d_17">
    <path d="M 115.363636 81.135 
L 171.727273 80.972069 
L 284.454545 80.646207 
L 622.636364 77.387586 
" clip-path="url(#p981f9efb10)" style="fill: none; stroke: #d62728; stroke-width: 2; stroke-linecap: square"/>
    <defs>
     <path id="m5623a5fd18" d="M 0 4.242641 
L 4.242641 0 
L 0 -4.242641 
L -4.242641 0 
z
" style="stroke: #d62728; stroke-linejoin: miter"/>
    </defs>
    <g clip-path="url(#p981f9efb10)">
     <use xlink:href="#m5623a5fd18" x="115.363636" y="81.135" style="fill: #d62728; stroke: #d62728; stroke-linejoin: miter"/>
     <use xlink:href="#m5623a5fd18" x="171.727273" y="80.972069" style="fill: #d62728; stroke: #d62728; stroke-linejoin: miter"/>
     <use xlink:href="#m5623a5fd18" x="284.454545" y="80.646207" style="fill: #d62728; stroke: #d62728; stroke-linejoin: miter"/>
     <use xlink:href="#m5623a5fd18" x="622.636364" y="77.387586" style="fill: #d62728; stroke: #d62728; stroke-linejoin: miter"/>
    </g>
   </g>
   <g id="line2d_18">
    <path d="M 115.363636 79.342759 
L 171.727273 75.269483 
L 284.454545 72.010862 
L 622.636364 66.96 
" clip-path="url(#p981f9efb10)" style="fill: none; stroke: #9467bd; stroke-width: 2; stroke-linecap: square"/>
    <defs>
     <path id="m3c1d0d25a4" d="M -1 3 
L 1 3 
L 1 1 
L 3 1 
L 3 -1 
L 1 -1 
L 1 -3 
L -1 -3 
L -1 -1 
L -3 -1 
L -3 1 
L -1 1 
z
" style="stroke: #9467bd; stroke-linejoin: miter"/>
    </defs>
    <g clip-path="url(#p981f9efb10)">
     <use xlink:href="#m3c1d0d25a4" x="115.363636" y="79.342759" style="fill: #9467bd; stroke: #9467bd; stroke-linejoin: miter"/>
     <use xlink:href="#m3c1d0d25a4" x="171.727273" y="75.269483" style="fill: #9467bd; stroke: #9467bd; stroke-linejoin: miter"/>
     <use xlink:href="#m3c1d0d25a4" x="284.454545" y="72.010862" style="fill: #9467bd; stroke: #9467bd; stroke-linejoin: miter"/>
     <use xlink:href="#m3c1d0d25a4" x="622.636364" y="66.96" style="fill: #9467bd; stroke: #9467bd; stroke-linejoin: miter"/>
    </g>
   </g>
   <g id="patch_3">
    <path d="M 90 384.48 
L 90 51.84 
" style="fill: none; stroke: #000000; stroke-width: 0.8; stroke-linejoin: miter; stroke-linecap: square"/>
   </g>
   <g id="patch_4">
    <path d="M 648 384.48 
L 648 51.84 
" style="fill: none; stroke: #000000; stroke-width: 0.8; stroke-linejoin: miter; stroke-linecap: square"/>
   </g>
   <g id="patch_5">
    <path d="M 90 384.48 
L 648 384.48 
" style="fill: none; stroke: #000000; stroke-width: 0.8; stroke-linejoin: miter; stroke-linecap: square"/>
   </g>
   <g id="patch_6">
    <path d="M 90 51.84 
L 648 51.84 
" style="fill: none; stroke: #000000; stroke-width: 0.8; stroke-linejoin: miter; stroke-linecap: square"/>
   </g>
   <g id="legend_1">
    <g id="patch_7">
     <path d="M 559 175.986 
L 641 175.986 
Q 643 175.986 643 173.986 
L 643 108.736 
Q 643 106.736 641 106.736 
L 559 106.736 
Q 557 106.736 557 108.736 
L 557 173.986 
Q 557 175.986 559 175.986 
z
" style="fill: #ffffff; opacity: 0.8; stroke: #cccccc; stroke-linejoin: miter"/>
    </g>
    <g id="line2d_19">
     <path d="M 561 114.236 
L 571 114.236 
L 581 114.236 
" style="fill: none; stroke: #1f77b4; stroke-width: 2; stroke-linecap: square"/>
     <g>
      <use xlink:href="#mc4ef6f8116" x="571" y="114.236" style="fill: #1f77b4; stroke: #1f77b4"/>
     </g>
    </g>
    <g id="text_16">
     <!-- Minimax -->
     <g transform="translate(589 117.736) scale(0.1 -0.1)">
      <defs>
       <path id="SimHei-4d" d="M 2925 125 
L 2425 125 
L 2425 3175 
L 2375 3175 
L 1775 125 
L 1375 125 
L 775 3175 
L 725 3175 
L 725 125 
L 225 125 
L 225 4400 
L 1000 4400 
L 1550 1575 
L 1600 1575 
L 2150 4400 
L 2925 4400 
L 2925 125 
z
" transform="scale(0.015625)"/>
       <path id="SimHei-69" d="M 1800 3725 
L 1300 3725 
L 1300 4375 
L 1800 4375 
L 1800 3725 
z
M 1800 125 
L 1300 125 
L 1300 2925 
L 1800 2925 
L 1800 125 
z
" transform="scale(0.015625)"/>
       <path id="SimHei-6e" d="M 2800 125 
L 2300 125 
L 2300 1925 
Q 2300 2225 2150 2400 
Q 2000 2575 1750 2575 
Q 1425 2575 1137 2237 
Q 850 1900 850 1400 
L 850 125 
L 350 125 
L 350 2925 
L 850 2925 
L 850 2400 
Q 1050 2675 1287 2825 
Q 1525 2975 1900 2975 
Q 2350 2975 2575 2725 
Q 2800 2475 2800 2100 
L 2800 125 
z
" transform="scale(0.015625)"/>
       <path id="SimHei-6d" d="M 3050 125 
L 2550 125 
L 2550 2150 
Q 2550 2300 2500 2400 
Q 2450 2500 2300 2500 
Q 2125 2500 1975 2312 
Q 1825 2125 1825 1825 
L 1825 125 
L 1325 125 
L 1325 2150 
Q 1325 2300 1275 2400 
Q 1225 2500 1075 2500 
Q 900 2500 750 2312 
Q 600 2125 600 1825 
L 600 125 
L 100 125 
L 100 2925 
L 600 2925 
L 600 2550 
Q 725 2750 900 2862 
Q 1075 2975 1275 2975 
Q 1475 2975 1612 2862 
Q 1750 2750 1800 2550 
Q 1925 2750 2087 2862 
Q 2250 2975 2450 2975 
Q 2750 2975 2900 2812 
Q 3050 2650 3050 2350 
L 3050 125 
z
" transform="scale(0.015625)"/>
       <path id="SimHei-61" d="M 2875 125 
L 2275 125 
Q 2225 175 2200 262 
Q 2175 350 2175 475 
Q 2000 275 1750 175 
Q 1500 75 1225 75 
Q 825 75 550 275 
Q 275 475 275 850 
Q 275 1225 525 1450 
Q 775 1675 1300 1750 
Q 1650 1800 1912 1875 
Q 2175 1950 2175 2075 
Q 2175 2225 2062 2375 
Q 1950 2525 1575 2525 
Q 1275 2525 1137 2412 
Q 1000 2300 950 2100 
L 400 2100 
Q 450 2500 762 2737 
Q 1075 2975 1575 2975 
Q 2125 2975 2400 2725 
Q 2675 2475 2675 2025 
L 2675 650 
Q 2675 500 2725 375 
Q 2775 250 2875 125 
z
M 2175 1050 
L 2175 1550 
Q 2025 1500 1887 1462 
Q 1750 1425 1425 1375 
Q 1050 1325 937 1200 
Q 825 1075 825 900 
Q 825 750 937 637 
Q 1050 525 1275 525 
Q 1500 525 1762 650 
Q 2025 775 2175 1050 
z
" transform="scale(0.015625)"/>
       <path id="SimHei-78" d="M 2875 125 
L 2275 125 
L 1550 1200 
L 825 125 
L 225 125 
L 1250 1550 
L 300 2925 
L 900 2925 
L 1550 1875 
L 2200 2925 
L 2800 2925 
L 1850 1550 
L 2875 125 
z
" transform="scale(0.015625)"/>
      </defs>
      <use xlink:href="#SimHei-4d"/>
      <use xlink:href="#SimHei-69" x="50"/>
      <use xlink:href="#SimHei-6e" x="100"/>
      <use xlink:href="#SimHei-69" x="150"/>
      <use xlink:href="#SimHei-6d" x="200"/>
      <use xlink:href="#SimHei-61" x="250"/>
      <use xlink:href="#SimHei-78" x="300"/>
     </g>
    </g>
    <g id="line2d_20">
     <path d="M 561 127.486 
L 571 127.486 
L 581 127.486 
" style="fill: none; stroke: #ff7f0e; stroke-width: 2; stroke-linecap: square"/>
     <g>
      <use xlink:href="#m260883c9f7" x="571" y="127.486" style="fill: #ff7f0e; stroke: #ff7f0e; stroke-linejoin: miter"/>
     </g>
    </g>
    <g id="text_17">
     <!-- Alpha-Beta -->
     <g transform="translate(589 130.986) scale(0.1 -0.1)">
      <defs>
       <path id="SimHei-41" d="M 3075 125 
L 2475 125 
L 2125 1450 
L 1025 1450 
L 675 125 
L 75 125 
L 1325 4450 
L 1825 4450 
L 3075 125 
z
M 2000 1925 
L 1600 3450 
L 1550 3450 
L 1150 1925 
L 2000 1925 
z
" transform="scale(0.015625)"/>
       <path id="SimHei-6c" d="M 1825 125 
L 1325 125 
L 1325 4400 
L 1825 4400 
L 1825 125 
z
" transform="scale(0.015625)"/>
       <path id="SimHei-70" d="M 2825 1525 
Q 2825 800 2475 425 
Q 2125 50 1625 50 
Q 1350 50 1150 162 
Q 950 275 800 500 
L 800 -800 
L 300 -800 
L 300 2925 
L 800 2925 
L 800 2550 
Q 950 2775 1150 2875 
Q 1350 2975 1625 2975 
Q 2125 2975 2475 2612 
Q 2825 2250 2825 1525 
z
M 2275 1525 
Q 2275 2000 2087 2262 
Q 1900 2525 1525 2525 
Q 1225 2525 1012 2262 
Q 800 2000 800 1525 
Q 800 1050 1012 775 
Q 1225 500 1525 500 
Q 1900 500 2087 775 
Q 2275 1050 2275 1525 
z
" transform="scale(0.015625)"/>
       <path id="SimHei-68" d="M 2800 125 
L 2300 125 
L 2300 1925 
Q 2300 2225 2150 2400 
Q 2000 2575 1750 2575 
Q 1425 2575 1137 2237 
Q 850 1900 850 1400 
L 850 125 
L 350 125 
L 350 4400 
L 850 4400 
L 850 2400 
Q 1050 2675 1287 2825 
Q 1525 2975 1900 2975 
Q 2350 2975 2575 2725 
Q 2800 2475 2800 2100 
L 2800 125 
z
" transform="scale(0.015625)"/>
       <path id="SimHei-2d" d="M 2975 2125 
L 125 2125 
L 125 2525 
L 2975 2525 
L 2975 2125 
z
" transform="scale(0.015625)"/>
       <path id="SimHei-42" d="M 2950 1400 
Q 2950 675 2550 400 
Q 2150 125 1525 125 
L 275 125 
L 275 4400 
L 1575 4400 
Q 2200 4400 2512 4075 
Q 2825 3750 2825 3300 
Q 2825 2850 2612 2637 
Q 2400 2425 2175 2350 
Q 2475 2275 2712 2037 
Q 2950 1800 2950 1400 
z
M 2250 3300 
Q 2250 3625 2062 3775 
Q 1875 3925 1600 3925 
L 850 3925 
L 850 2600 
L 1575 2600 
Q 1850 2600 2050 2762 
Q 2250 2925 2250 3300 
z
M 2350 1400 
Q 2350 1800 2087 1962 
Q 1825 2125 1500 2125 
L 850 2125 
L 850 600 
L 1425 600 
Q 1875 600 2112 775 
Q 2350 950 2350 1400 
z
" transform="scale(0.015625)"/>
       <path id="SimHei-65" d="M 2850 1075 
Q 2800 625 2450 350 
Q 2100 75 1625 75 
Q 1025 75 637 462 
Q 250 850 250 1525 
Q 250 2200 637 2587 
Q 1025 2975 1625 2975 
Q 2150 2975 2487 2637 
Q 2825 2300 2825 1525 
L 800 1525 
Q 800 975 1037 750 
Q 1275 525 1625 525 
Q 1900 525 2075 662 
Q 2250 800 2300 1075 
L 2850 1075 
z
M 2250 1925 
Q 2200 2275 2025 2412 
Q 1850 2550 1575 2550 
Q 1325 2550 1125 2412 
Q 925 2275 825 1925 
L 2250 1925 
z
" transform="scale(0.015625)"/>
       <path id="SimHei-74" d="M 2750 200 
Q 2625 150 2462 112 
Q 2300 75 2025 75 
Q 1575 75 1300 325 
Q 1025 575 1025 1025 
L 1025 2525 
L 175 2525 
L 175 2925 
L 1025 2925 
L 1025 3900 
L 1525 3900 
L 1525 2925 
L 2550 2925 
L 2550 2525 
L 1525 2525 
L 1525 1000 
Q 1525 800 1625 662 
Q 1725 525 2000 525 
Q 2275 525 2450 575 
Q 2625 625 2750 700 
L 2750 200 
z
" transform="scale(0.015625)"/>
      </defs>
      <use xlink:href="#SimHei-41"/>
      <use xlink:href="#SimHei-6c" x="50"/>
      <use xlink:href="#SimHei-70" x="100"/>
      <use xlink:href="#SimHei-68" x="150"/>
      <use xlink:href="#SimHei-61" x="200"/>
      <use xlink:href="#SimHei-2d" x="250"/>
      <use xlink:href="#SimHei-42" x="300"/>
      <use xlink:href="#SimHei-65" x="350"/>
      <use xlink:href="#SimHei-74" x="400"/>
      <use xlink:href="#SimHei-61" x="450"/>
     </g>
    </g>
    <g id="line2d_21">
     <path d="M 561 140.736 
L 571 140.736 
L 581 140.736 
" style="fill: none; stroke: #2ca02c; stroke-width: 2; stroke-linecap: square"/>
     <g>
      <use xlink:href="#m47ea378ff3" x="571" y="140.736" style="fill: #2ca02c; stroke: #2ca02c; stroke-linejoin: miter"/>
     </g>
    </g>
    <g id="text_18">
     <!-- MCTS -->
     <g transform="translate(589 144.236) scale(0.1 -0.1)">
      <defs>
       <path id="SimHei-43" d="M 2975 1825 
Q 2950 875 2575 475 
Q 2200 75 1675 75 
Q 1075 75 650 562 
Q 225 1050 225 2125 
Q 225 3300 637 3875 
Q 1050 4450 1700 4450 
Q 2250 4450 2612 4037 
Q 2975 3625 2950 2875 
L 2400 2875 
Q 2400 3425 2225 3700 
Q 2050 3975 1700 3975 
Q 1300 3975 1062 3562 
Q 825 3150 825 2175 
Q 825 1275 1062 912 
Q 1300 550 1675 550 
Q 1950 550 2175 812 
Q 2400 1075 2400 1825 
L 2975 1825 
z
" transform="scale(0.015625)"/>
       <path id="SimHei-54" d="M 2850 3925 
L 1850 3925 
L 1850 125 
L 1275 125 
L 1275 3925 
L 275 3925 
L 275 4400 
L 2850 4400 
L 2850 3925 
z
" transform="scale(0.015625)"/>
       <path id="SimHei-53" d="M 2900 1325 
Q 2900 750 2537 412 
Q 2175 75 1550 75 
Q 925 75 575 425 
Q 225 775 225 1300 
L 225 1475 
L 800 1475 
L 800 1325 
Q 800 950 1025 750 
Q 1250 550 1550 550 
Q 1950 550 2137 762 
Q 2325 975 2325 1275 
Q 2325 1525 2100 1737 
Q 1875 1950 1450 2125 
Q 850 2350 587 2625 
Q 325 2900 325 3275 
Q 325 3800 687 4125 
Q 1050 4450 1550 4450 
Q 2200 4450 2487 4062 
Q 2775 3675 2775 3225 
L 2200 3225 
Q 2225 3500 2050 3725 
Q 1875 3950 1550 3950 
Q 1250 3950 1075 3787 
Q 900 3625 900 3350 
Q 900 3125 1037 2962 
Q 1175 2800 1750 2575 
Q 2300 2350 2600 2037 
Q 2900 1725 2900 1325 
z
" transform="scale(0.015625)"/>
      </defs>
      <use xlink:href="#SimHei-4d"/>
      <use xlink:href="#SimHei-43" x="50"/>
      <use xlink:href="#SimHei-54" x="100"/>
      <use xlink:href="#SimHei-53" x="150"/>
     </g>
    </g>
    <g id="line2d_22">
     <path d="M 561 153.986 
L 571 153.986 
L 581 153.986 
" style="fill: none; stroke: #d62728; stroke-width: 2; stroke-linecap: square"/>
     <g>
      <use xlink:href="#m5623a5fd18" x="571" y="153.986" style="fill: #d62728; stroke: #d62728; stroke-linejoin: miter"/>
     </g>
    </g>
    <g id="text_19">
     <!-- MCGS -->
     <g transform="translate(589 157.486) scale(0.1 -0.1)">
      <defs>
       <path id="SimHei-47" d="M 2850 75 
L 2425 75 
L 2350 425 
Q 2250 275 2037 175 
Q 1825 75 1575 75 
Q 1050 75 637 562 
Q 225 1050 225 2125 
Q 225 3300 600 3875 
Q 975 4450 1625 4450 
Q 2200 4450 2525 4025 
Q 2850 3600 2850 2925 
L 2300 2925 
Q 2300 3450 2125 3712 
Q 1950 3975 1625 3975 
Q 1225 3975 1025 3562 
Q 825 3150 825 2175 
Q 825 1250 1075 900 
Q 1325 550 1650 550 
Q 1975 550 2162 787 
Q 2350 1025 2350 1525 
L 2350 1800 
L 1575 1800 
L 1575 2275 
L 2850 2275 
L 2850 75 
z
" transform="scale(0.015625)"/>
      </defs>
      <use xlink:href="#SimHei-4d"/>
      <use xlink:href="#SimHei-43" x="50"/>
      <use xlink:href="#SimHei-47" x="100"/>
      <use xlink:href="#SimHei-53" x="150"/>
     </g>
    </g>
    <g id="line2d_23">
     <path d="M 561 167.236 
L 571 167.236 
L 581 167.236 
" style="fill: none; stroke: #9467bd; stroke-width: 2; stroke-linecap: square"/>
     <g>
      <use xlink:href="#m3c1d0d25a4" x="571" y="167.236" style="fill: #9467bd; stroke: #9467bd; stroke-linejoin: miter"/>
     </g>
    </g>
    <g id="text_20">
     <!-- MCGSG -->
     <g transform="translate(589 170.736) scale(0.1 -0.1)">
      <use xlink:href="#SimHei-4d"/>
      <use xlink:href="#SimHei-43" x="50"/>
      <use xlink:href="#SimHei-47" x="100"/>
      <use xlink:href="#SimHei-53" x="150"/>
      <use xlink:href="#SimHei-47" x="200"/>
     </g>
    </g>
   </g>
  </g>
 </g>
 <defs>
  <clipPath id="p981f9efb10">
   <rect x="90" y="51.84" width="558" height="332.64"/>
  </clipPath>
 </defs>
</svg>
