<?xml version="1.0" encoding="utf-8" standalone="no"?>
<!DOCTYPE svg PUBLIC "-//W3C//DTD SVG 1.1//EN"
  "http://www.w3.org/Graphics/SVG/1.1/DTD/svg11.dtd">
<svg xmlns:xlink="http://www.w3.org/1999/xlink" width="864pt" height="432pt" viewBox="0 0 864 432" xmlns="http://www.w3.org/2000/svg" version="1.1">
 <metadata>
  <rdf:RDF xmlns:dc="http://purl.org/dc/elements/1.1/" xmlns:cc="http://creativecommons.org/ns#" xmlns:rdf="http://www.w3.org/1999/02/22-rdf-syntax-ns#">
   <cc:Work>
    <dc:type rdf:resource="http://purl.org/dc/dcmitype/StillImage"/>
    <dc:date>2023-10-19T14:47:28.702914</dc:date>
    <dc:format>image/svg+xml</dc:format>
    <dc:creator>
     <cc:Agent>
      <dc:title>Matplotlib v3.7.2, https://matplotlib.org/</dc:title>
     </cc:Agent>
    </dc:creator>
   </cc:Work>
  </rdf:RDF>
 </metadata>
 <defs>
  <style type="text/css">*{stroke-linejoin: round; stroke-linecap: butt}</style>
 </defs>
 <g id="figure_1">
  <g id="patch_1">
   <path d="M 0 432 
L 864 432 
L 864 0 
L 0 0 
L 0 432 
z
" style="fill: none"/>
  </g>
  <g id="axes_1">
   <g id="patch_2">
    <path d="M 108 384.48 
L 777.6 384.48 
L 777.6 51.84 
L 108 51.84 
L 108 384.48 
z
" style="fill: none"/>
   </g>
   <g id="matplotlib.axis_1">
    <g id="xtick_1">
     <g id="line2d_1">
      <path d="M 114.087273 384.48 
L 114.087273 51.84 
" clip-path="url(#pc68817d9a1)" style="fill: none; stroke: #ffffff; stroke-width: 0.8; stroke-linecap: square"/>
     </g>
     <g id="line2d_2">
      <defs>
       <path id="m0e4e0e73fe" d="M 0 0 
L 0 3.5 
" style="stroke: #555555; stroke-width: 0.8"/>
      </defs>
      <g>
       <use xlink:href="#m0e4e0e73fe" x="114.087273" y="384.48" style="fill: #555555; stroke: #555555; stroke-width: 0.8"/>
      </g>
     </g>
     <g id="text_1">
      <!-- 0 -->
      <g style="fill: #555555" transform="translate(111.587273 398.355) scale(0.1 -0.1)">
       <defs>
        <path id="SimHei-30" d="M 225 2537 
Q 250 3200 412 3587 
Q 575 3975 875 4225 
Q 1175 4475 1612 4475 
Q 2050 4475 2375 4112 
Q 2700 3750 2800 3200 
Q 2900 2650 2862 1937 
Q 2825 1225 2612 775 
Q 2400 325 1975 150 
Q 1550 -25 1125 187 
Q 700 400 525 750 
Q 350 1100 275 1487 
Q 200 1875 225 2537 
z
M 750 2687 
Q 675 2000 800 1462 
Q 925 925 1212 700 
Q 1500 475 1800 612 
Q 2100 750 2237 1162 
Q 2375 1575 2375 2062 
Q 2375 2550 2337 2950 
Q 2300 3350 2112 3675 
Q 1925 4000 1612 4012 
Q 1300 4025 1062 3700 
Q 825 3375 750 2687 
z
" transform="scale(0.015625)"/>
       </defs>
       <use xlink:href="#SimHei-30"/>
      </g>
     </g>
    </g>
    <g id="xtick_2">
     <g id="line2d_3">
      <path d="M 235.832727 384.48 
L 235.832727 51.84 
" clip-path="url(#pc68817d9a1)" style="fill: none; stroke: #ffffff; stroke-width: 0.8; stroke-linecap: square"/>
     </g>
     <g id="line2d_4">
      <g>
       <use xlink:href="#m0e4e0e73fe" x="235.832727" y="384.48" style="fill: #555555; stroke: #555555; stroke-width: 0.8"/>
      </g>
     </g>
     <g id="text_2">
      <!-- 5 -->
      <g style="fill: #555555" transform="translate(233.332727 398.355) scale(0.1 -0.1)">
       <defs>
        <path id="SimHei-35" d="M 550 1325 
Q 725 650 1150 575 
Q 1575 500 1837 662 
Q 2100 825 2212 1087 
Q 2325 1350 2312 1675 
Q 2300 2000 2137 2225 
Q 1975 2450 1725 2525 
Q 1475 2600 1162 2525 
Q 850 2450 650 2175 
L 225 2225 
Q 275 2375 700 4375 
L 2675 4375 
L 2675 3925 
L 1075 3925 
Q 950 3250 825 2850 
Q 1200 3025 1525 3012 
Q 1850 3000 2150 2862 
Q 2450 2725 2587 2487 
Q 2725 2250 2787 2012 
Q 2850 1775 2837 1500 
Q 2825 1225 2725 937 
Q 2625 650 2425 462 
Q 2225 275 1937 162 
Q 1650 50 1275 75 
Q 900 100 562 350 
Q 225 600 100 1200 
L 550 1325 
z
" transform="scale(0.015625)"/>
       </defs>
       <use xlink:href="#SimHei-35"/>
      </g>
     </g>
    </g>
    <g id="xtick_3">
     <g id="line2d_5">
      <path d="M 357.578182 384.48 
L 357.578182 51.84 
" clip-path="url(#pc68817d9a1)" style="fill: none; stroke: #ffffff; stroke-width: 0.8; stroke-linecap: square"/>
     </g>
     <g id="line2d_6">
      <g>
       <use xlink:href="#m0e4e0e73fe" x="357.578182" y="384.48" style="fill: #555555; stroke: #555555; stroke-width: 0.8"/>
      </g>
     </g>
     <g id="text_3">
      <!-- 10 -->
      <g style="fill: #555555" transform="translate(352.578182 398.355) scale(0.1 -0.1)">
       <defs>
        <path id="SimHei-31" d="M 1400 3600 
Q 1075 3275 575 2975 
L 575 3450 
Q 1200 3875 1600 4450 
L 1900 4450 
L 1900 150 
L 1400 150 
L 1400 3600 
z
" transform="scale(0.015625)"/>
       </defs>
       <use xlink:href="#SimHei-31"/>
       <use xlink:href="#SimHei-30" x="50"/>
      </g>
     </g>
    </g>
    <g id="xtick_4">
     <g id="line2d_7">
      <path d="M 479.323636 384.48 
L 479.323636 51.84 
" clip-path="url(#pc68817d9a1)" style="fill: none; stroke: #ffffff; stroke-width: 0.8; stroke-linecap: square"/>
     </g>
     <g id="line2d_8">
      <g>
       <use xlink:href="#m0e4e0e73fe" x="479.323636" y="384.48" style="fill: #555555; stroke: #555555; stroke-width: 0.8"/>
      </g>
     </g>
     <g id="text_4">
      <!-- 15 -->
      <g style="fill: #555555" transform="translate(474.323636 398.355) scale(0.1 -0.1)">
       <use xlink:href="#SimHei-31"/>
       <use xlink:href="#SimHei-35" x="50"/>
      </g>
     </g>
    </g>
    <g id="xtick_5">
     <g id="line2d_9">
      <path d="M 601.069091 384.48 
L 601.069091 51.84 
" clip-path="url(#pc68817d9a1)" style="fill: none; stroke: #ffffff; stroke-width: 0.8; stroke-linecap: square"/>
     </g>
     <g id="line2d_10">
      <g>
       <use xlink:href="#m0e4e0e73fe" x="601.069091" y="384.48" style="fill: #555555; stroke: #555555; stroke-width: 0.8"/>
      </g>
     </g>
     <g id="text_5">
      <!-- 20 -->
      <g style="fill: #555555" transform="translate(596.069091 398.355) scale(0.1 -0.1)">
       <defs>
        <path id="SimHei-32" d="M 300 250 
Q 325 625 650 925 
Q 975 1225 1475 1862 
Q 1975 2500 2125 2850 
Q 2275 3200 2237 3450 
Q 2200 3700 2000 3862 
Q 1800 4025 1537 4000 
Q 1275 3975 1037 3800 
Q 800 3625 675 3275 
L 200 3350 
Q 400 3925 712 4187 
Q 1025 4450 1450 4475 
Q 1700 4500 1900 4462 
Q 2100 4425 2312 4287 
Q 2525 4150 2662 3875 
Q 2800 3600 2762 3212 
Q 2725 2825 2375 2287 
Q 2025 1750 1025 600 
L 2825 600 
L 2825 150 
L 300 150 
L 300 250 
z
" transform="scale(0.015625)"/>
       </defs>
       <use xlink:href="#SimHei-32"/>
       <use xlink:href="#SimHei-30" x="50"/>
      </g>
     </g>
    </g>
    <g id="xtick_6">
     <g id="line2d_11">
      <path d="M 722.814545 384.48 
L 722.814545 51.84 
" clip-path="url(#pc68817d9a1)" style="fill: none; stroke: #ffffff; stroke-width: 0.8; stroke-linecap: square"/>
     </g>
     <g id="line2d_12">
      <g>
       <use xlink:href="#m0e4e0e73fe" x="722.814545" y="384.48" style="fill: #555555; stroke: #555555; stroke-width: 0.8"/>
      </g>
     </g>
     <g id="text_6">
      <!-- 25 -->
      <g style="fill: #555555" transform="translate(717.814545 398.355) scale(0.1 -0.1)">
       <use xlink:href="#SimHei-32"/>
       <use xlink:href="#SimHei-35" x="50"/>
      </g>
     </g>
    </g>
    <g id="text_7">
     <!-- 搜索次数/次 -->
     <g style="fill: #555555" transform="translate(409.8 413.1675) scale(0.12 -0.12)">
      <defs>
       <path id="SimHei-641c" d="M 2525 1975 
Q 2850 1950 3225 1950 
L 3900 1950 
L 3900 2450 
L 2500 2450 
Q 2525 2800 2525 3075 
L 2525 4200 
Q 2525 4475 2500 4775 
Q 3175 4850 3450 5000 
Q 3600 4650 3675 4550 
Q 3450 4525 2975 4500 
L 2975 3900 
L 3525 3900 
L 3525 3475 
L 2975 3475 
L 2975 2875 
L 3900 2875 
L 3900 4575 
Q 3900 4850 3875 5225 
L 4375 5225 
Q 4350 4925 4350 4600 
L 4350 2875 
L 5275 2875 
L 5275 3475 
L 4650 3475 
L 4650 3900 
L 5275 3900 
L 5275 4500 
Q 4975 4500 4675 4475 
L 4675 4925 
Q 4975 4900 5200 4900 
L 5750 4900 
Q 5725 4600 5725 4300 
L 5725 3100 
Q 5725 2675 5750 2450 
L 4350 2450 
L 4350 1950 
L 5675 1950 
Q 5550 1600 5275 1150 
Q 5000 700 4500 200 
Q 4775 25 5275 -62 
Q 5775 -150 6175 -150 
Q 6000 -300 5875 -650 
Q 5175 -550 4812 -425 
Q 4450 -300 4125 -100 
Q 3700 -300 3350 -412 
Q 3000 -525 2375 -675 
Q 2325 -450 2075 -200 
Q 3125 -100 3725 200 
Q 3450 475 3275 762 
Q 3100 1050 2925 1525 
L 2525 1525 
L 2525 1975 
z
M 1150 4550 
Q 1150 4925 1125 5225 
L 1675 5225 
Q 1600 4925 1600 4600 
L 1600 3950 
Q 1925 3950 2150 3975 
L 2150 3500 
Q 1900 3525 1600 3525 
L 1600 2500 
Q 2000 2650 2175 2800 
Q 2175 2675 2200 2325 
Q 2075 2275 1600 2075 
L 1600 0 
Q 1600 -300 1350 -387 
Q 1100 -475 650 -550 
Q 625 -300 450 0 
Q 900 0 1025 25 
Q 1150 50 1150 225 
L 1150 1900 
Q 650 1675 450 1525 
Q 325 1950 250 2100 
Q 550 2125 1150 2350 
L 1150 3525 
Q 625 3525 350 3500 
L 350 3975 
Q 625 3950 1150 3950 
L 1150 4550 
z
M 3400 1525 
Q 3750 775 4150 450 
Q 4700 1000 4950 1525 
L 3400 1525 
z
" transform="scale(0.015625)"/>
       <path id="SimHei-7d22" d="M 3275 3000 
Q 3100 2925 2850 2775 
Q 2600 2625 2200 2375 
L 3425 2375 
Q 3825 2575 4175 2900 
Q 4475 2700 4775 2525 
Q 4325 2400 3937 2187 
Q 3550 1975 2300 1375 
Q 3375 1425 4600 1475 
Q 4400 1650 4200 1800 
Q 4475 1925 4575 2075 
Q 5025 1825 5675 1125 
Q 5425 975 5275 800 
Q 5050 1000 4900 1150 
Q 4400 1150 3450 1075 
L 3450 -25 
Q 3450 -400 3212 -475 
Q 2975 -550 2450 -625 
Q 2425 -350 2250 -100 
Q 2600 -100 2775 -75 
Q 2950 -50 2950 125 
L 2950 1025 
Q 2175 1025 1700 962 
Q 1225 900 975 850 
Q 900 1100 825 1300 
Q 1425 1400 1837 1550 
Q 2250 1700 2875 2050 
Q 2300 2050 2012 2025 
Q 1725 2000 1325 1900 
Q 1250 2175 1175 2350 
Q 1525 2375 1925 2612 
Q 2325 2850 2675 3275 
Q 2975 3125 3275 3000 
z
M 2900 4625 
Q 2900 4925 2875 5150 
L 3425 5150 
Q 3400 4850 3400 4625 
L 4775 4625 
Q 5050 4625 5575 4650 
L 5575 4250 
Q 5100 4275 4750 4275 
L 3400 4275 
L 3400 3750 
L 5900 3750 
Q 5875 3550 5875 3250 
Q 5875 2950 5900 2700 
L 5375 2700 
L 5375 3375 
L 975 3375 
L 975 2525 
L 475 2525 
L 475 3750 
L 2900 3750 
L 2900 4275 
L 1750 4275 
Q 1050 4275 825 4250 
L 825 4650 
Q 1150 4625 1725 4625 
L 2900 4625 
z
M 4525 800 
Q 5175 375 5875 -75 
Q 5650 -250 5475 -450 
Q 4800 100 4125 500 
Q 4350 675 4525 800 
z
M 2125 450 
Q 1900 325 1575 75 
Q 1250 -175 775 -475 
Q 650 -275 375 -125 
Q 1100 225 1700 775 
Q 1900 600 2125 450 
z
" transform="scale(0.015625)"/>
       <path id="SimHei-6b21" d="M 4150 3025 
Q 4000 2550 4050 2187 
Q 4100 1825 4275 1450 
Q 4450 1075 4800 750 
Q 5150 425 5475 212 
Q 5800 0 6150 -150 
Q 5875 -350 5750 -625 
Q 5250 -325 4887 -25 
Q 4525 275 4275 612 
Q 4025 950 3825 1425 
Q 3525 625 2950 125 
Q 2375 -375 1850 -650 
Q 1675 -400 1475 -225 
Q 2025 0 2487 362 
Q 2950 725 3162 1100 
Q 3375 1475 3450 1825 
Q 3525 2175 3537 2400 
Q 3550 2625 3525 3125 
Q 3825 3050 4150 3025 
z
M 3700 4975 
Q 3625 4900 3475 4575 
Q 3325 4250 3250 4075 
L 5775 4075 
Q 5650 3725 5550 3362 
Q 5450 3000 5275 2500 
Q 5000 2575 4775 2600 
Q 5025 3350 5100 3650 
L 3100 3650 
Q 2975 3400 2812 3100 
Q 2650 2800 2425 2450 
Q 2275 2600 1975 2700 
Q 2300 3050 2625 3762 
Q 2950 4475 3125 5200 
Q 3450 5025 3700 4975 
z
M 2025 2000 
Q 1825 1675 1475 1087 
Q 1125 500 725 -200 
Q 500 -25 250 175 
Q 725 725 1037 1262 
Q 1350 1800 1575 2325 
Q 1750 2175 2025 2000 
z
M 900 4750 
Q 1725 3725 1950 3375 
Q 1750 3250 1500 3050 
Q 1250 3525 500 4425 
Q 700 4575 900 4750 
z
" transform="scale(0.015625)"/>
       <path id="SimHei-6570" d="M 4525 4925 
Q 4475 4800 4400 4587 
Q 4325 4375 4175 3825 
L 5325 3825 
Q 5575 3825 5925 3850 
L 5925 3400 
Q 5650 3425 5500 3425 
Q 5500 3025 5362 2162 
Q 5225 1300 4875 675 
Q 5125 375 5437 137 
Q 5750 -100 6025 -200 
Q 5725 -425 5625 -625 
Q 5325 -450 5075 -225 
Q 4825 0 4575 325 
Q 4300 25 3987 -187 
Q 3675 -400 3200 -650 
Q 3075 -425 2850 -300 
Q 3225 -150 3650 125 
Q 4075 400 4300 675 
Q 4125 1025 3962 1425 
Q 3800 1825 3675 2475 
Q 3600 2275 3425 1950 
Q 3250 2050 3000 2150 
Q 3400 2850 3650 3675 
Q 3900 4500 3975 5100 
Q 4275 4975 4525 4925 
z
M 2100 2250 
Q 2000 2150 1875 1925 
L 3250 1925 
Q 3100 1300 2725 675 
Q 3125 525 3350 400 
Q 3225 225 3125 25 
Q 2900 175 2450 325 
Q 1950 -225 725 -650 
Q 600 -375 400 -275 
Q 1575 0 2000 475 
Q 1300 650 850 775 
Q 1000 1000 1250 1525 
Q 1000 1525 425 1500 
L 425 1950 
Q 900 1925 1400 1925 
Q 1500 2150 1550 2425 
Q 1825 2325 2100 2250 
z
M 1775 3950 
Q 1775 4550 1750 5100 
L 2250 5100 
Q 2225 4575 2225 3950 
Q 3075 3950 3425 3975 
L 3425 3525 
Q 3075 3550 2225 3550 
Q 2225 2825 2250 2425 
L 1750 2425 
Q 1775 2775 1775 3300 
Q 1650 3100 1300 2787 
Q 950 2475 650 2300 
Q 525 2525 275 2625 
Q 500 2700 875 2975 
Q 1250 3250 1450 3550 
Q 950 3550 500 3525 
L 500 3975 
Q 925 3950 1775 3950 
z
M 3975 3175 
Q 4200 1700 4600 1125 
Q 4850 1700 4937 2287 
Q 5025 2875 5050 3425 
L 4075 3425 
L 3975 3175 
z
M 1450 1000 
Q 1750 925 2275 800 
Q 2475 1050 2650 1525 
L 1725 1525 
Q 1600 1275 1450 1000 
z
M 3325 4825 
Q 3200 4625 3125 4450 
Q 3050 4275 2925 4025 
Q 2725 4125 2525 4175 
Q 2725 4500 2900 5000 
Q 3150 4875 3325 4825 
z
M 2575 3375 
Q 2900 3050 3200 2725 
Q 3050 2600 2875 2425 
Q 2525 2850 2300 3100 
Q 2450 3225 2575 3375 
z
M 925 5000 
Q 1275 4650 1500 4300 
L 1125 4075 
Q 950 4425 600 4725 
Q 825 4875 925 5000 
z
" transform="scale(0.015625)"/>
       <path id="SimHei-2f" d="M 3000 4550 
L 350 -175 
L 100 -25 
L 2750 4700 
L 3000 4550 
z
" transform="scale(0.015625)"/>
      </defs>
      <use xlink:href="#SimHei-641c"/>
      <use xlink:href="#SimHei-7d22" x="100"/>
      <use xlink:href="#SimHei-6b21" x="200"/>
      <use xlink:href="#SimHei-6570" x="300"/>
      <use xlink:href="#SimHei-2f" x="400"/>
      <use xlink:href="#SimHei-6b21" x="450"/>
     </g>
    </g>
   </g>
   <g id="matplotlib.axis_2">
    <g id="ytick_1">
     <g id="line2d_13">
      <path d="M 108 369.626676 
L 777.6 369.626676 
" clip-path="url(#pc68817d9a1)" style="fill: none; stroke: #ffffff; stroke-width: 0.8; stroke-linecap: square"/>
     </g>
     <g id="line2d_14">
      <defs>
       <path id="m376a0f5aaf" d="M 0 0 
L -3.5 0 
" style="stroke: #555555; stroke-width: 0.8"/>
      </defs>
      <g>
       <use xlink:href="#m376a0f5aaf" x="108" y="369.626676" style="fill: #555555; stroke: #555555; stroke-width: 0.8"/>
      </g>
     </g>
     <g id="text_8">
      <!-- 0 -->
      <g style="fill: #555555" transform="translate(96 373.064176) scale(0.1 -0.1)">
       <use xlink:href="#SimHei-30"/>
      </g>
     </g>
    </g>
    <g id="ytick_2">
     <g id="line2d_15">
      <path d="M 108 314.299617 
L 777.6 314.299617 
" clip-path="url(#pc68817d9a1)" style="fill: none; stroke: #ffffff; stroke-width: 0.8; stroke-linecap: square"/>
     </g>
     <g id="line2d_16">
      <g>
       <use xlink:href="#m376a0f5aaf" x="108" y="314.299617" style="fill: #555555; stroke: #555555; stroke-width: 0.8"/>
      </g>
     </g>
     <g id="text_9">
      <!-- 50000 -->
      <g style="fill: #555555" transform="translate(76 317.737117) scale(0.1 -0.1)">
       <use xlink:href="#SimHei-35"/>
       <use xlink:href="#SimHei-30" x="50"/>
       <use xlink:href="#SimHei-30" x="100"/>
       <use xlink:href="#SimHei-30" x="150"/>
       <use xlink:href="#SimHei-30" x="200"/>
      </g>
     </g>
    </g>
    <g id="ytick_3">
     <g id="line2d_17">
      <path d="M 108 258.972558 
L 777.6 258.972558 
" clip-path="url(#pc68817d9a1)" style="fill: none; stroke: #ffffff; stroke-width: 0.8; stroke-linecap: square"/>
     </g>
     <g id="line2d_18">
      <g>
       <use xlink:href="#m376a0f5aaf" x="108" y="258.972558" style="fill: #555555; stroke: #555555; stroke-width: 0.8"/>
      </g>
     </g>
     <g id="text_10">
      <!-- 100000 -->
      <g style="fill: #555555" transform="translate(71 262.410058) scale(0.1 -0.1)">
       <use xlink:href="#SimHei-31"/>
       <use xlink:href="#SimHei-30" x="50"/>
       <use xlink:href="#SimHei-30" x="100"/>
       <use xlink:href="#SimHei-30" x="150"/>
       <use xlink:href="#SimHei-30" x="200"/>
       <use xlink:href="#SimHei-30" x="250"/>
      </g>
     </g>
    </g>
    <g id="ytick_4">
     <g id="line2d_19">
      <path d="M 108 203.645499 
L 777.6 203.645499 
" clip-path="url(#pc68817d9a1)" style="fill: none; stroke: #ffffff; stroke-width: 0.8; stroke-linecap: square"/>
     </g>
     <g id="line2d_20">
      <g>
       <use xlink:href="#m376a0f5aaf" x="108" y="203.645499" style="fill: #555555; stroke: #555555; stroke-width: 0.8"/>
      </g>
     </g>
     <g id="text_11">
      <!-- 150000 -->
      <g style="fill: #555555" transform="translate(71 207.082999) scale(0.1 -0.1)">
       <use xlink:href="#SimHei-31"/>
       <use xlink:href="#SimHei-35" x="50"/>
       <use xlink:href="#SimHei-30" x="100"/>
       <use xlink:href="#SimHei-30" x="150"/>
       <use xlink:href="#SimHei-30" x="200"/>
       <use xlink:href="#SimHei-30" x="250"/>
      </g>
     </g>
    </g>
    <g id="ytick_5">
     <g id="line2d_21">
      <path d="M 108 148.31844 
L 777.6 148.31844 
" clip-path="url(#pc68817d9a1)" style="fill: none; stroke: #ffffff; stroke-width: 0.8; stroke-linecap: square"/>
     </g>
     <g id="line2d_22">
      <g>
       <use xlink:href="#m376a0f5aaf" x="108" y="148.31844" style="fill: #555555; stroke: #555555; stroke-width: 0.8"/>
      </g>
     </g>
     <g id="text_12">
      <!-- 200000 -->
      <g style="fill: #555555" transform="translate(71 151.75594) scale(0.1 -0.1)">
       <use xlink:href="#SimHei-32"/>
       <use xlink:href="#SimHei-30" x="50"/>
       <use xlink:href="#SimHei-30" x="100"/>
       <use xlink:href="#SimHei-30" x="150"/>
       <use xlink:href="#SimHei-30" x="200"/>
       <use xlink:href="#SimHei-30" x="250"/>
      </g>
     </g>
    </g>
    <g id="ytick_6">
     <g id="line2d_23">
      <path d="M 108 92.991381 
L 777.6 92.991381 
" clip-path="url(#pc68817d9a1)" style="fill: none; stroke: #ffffff; stroke-width: 0.8; stroke-linecap: square"/>
     </g>
     <g id="line2d_24">
      <g>
       <use xlink:href="#m376a0f5aaf" x="108" y="92.991381" style="fill: #555555; stroke: #555555; stroke-width: 0.8"/>
      </g>
     </g>
     <g id="text_13">
      <!-- 250000 -->
      <g style="fill: #555555" transform="translate(71 96.428881) scale(0.1 -0.1)">
       <use xlink:href="#SimHei-32"/>
       <use xlink:href="#SimHei-35" x="50"/>
       <use xlink:href="#SimHei-30" x="100"/>
       <use xlink:href="#SimHei-30" x="150"/>
       <use xlink:href="#SimHei-30" x="200"/>
       <use xlink:href="#SimHei-30" x="250"/>
      </g>
     </g>
    </g>
    <g id="text_14">
     <!-- 边数/条 -->
     <g style="fill: #555555" transform="translate(65.5 239.16) rotate(-90) scale(0.12 -0.12)">
      <defs>
       <path id="SimHei-8fb9" d="M 3450 3950 
Q 3450 4750 3425 5250 
Q 3800 5175 4050 5175 
Q 3975 4825 3950 3950 
L 5725 3950 
Q 5650 3525 5625 3100 
L 5500 1150 
Q 5475 725 5062 612 
Q 4650 500 4300 400 
Q 4275 725 4050 1050 
Q 4650 1075 4837 1137 
Q 5025 1200 5050 1450 
L 5175 3500 
L 3925 3500 
Q 3825 2500 3525 1837 
Q 3225 1175 2625 500 
Q 2400 725 2075 900 
Q 2625 1275 2987 1937 
Q 3350 2600 3425 3500 
Q 2825 3500 2275 3450 
L 2275 3975 
Q 2725 3950 3450 3950 
z
M 1625 2900 
Q 1600 2475 1600 2125 
L 1600 675 
Q 2225 50 3775 0 
Q 5325 -50 6200 50 
Q 5950 -150 5925 -550 
Q 5125 -550 4350 -525 
Q 3575 -500 2925 -387 
Q 2275 -275 1850 75 
Q 1425 425 1187 175 
Q 950 -75 725 -550 
Q 500 -325 225 -150 
Q 875 350 1100 625 
L 1100 2450 
Q 650 2450 225 2425 
L 225 2925 
Q 725 2900 1150 2900 
L 1625 2900 
z
M 1150 5075 
Q 1600 4200 1700 3900 
Q 1450 3825 1175 3675 
Q 1150 3925 650 4875 
Q 925 4975 1150 5075 
z
" transform="scale(0.015625)"/>
       <path id="SimHei-6761" d="M 2700 5075 
Q 2600 5000 2400 4700 
L 5225 4700 
Q 4975 4300 4625 3875 
Q 4275 3450 3750 3050 
Q 4100 2850 4750 2687 
Q 5400 2525 6200 2525 
Q 5950 2275 5925 2000 
Q 5000 2100 4387 2300 
Q 3775 2500 3275 2825 
Q 2500 2375 1837 2175 
Q 1175 1975 575 1850 
Q 500 2125 275 2300 
Q 1250 2400 1912 2625 
Q 2575 2850 2825 3075 
Q 2400 3425 1925 3975 
Q 1600 3550 1150 3075 
Q 925 3300 725 3350 
Q 1225 3775 1625 4350 
Q 2025 4925 2125 5300 
Q 2525 5125 2700 5075 
z
M 2950 1775 
Q 2950 2000 2925 2400 
L 3475 2400 
Q 3450 1975 3450 1775 
L 4500 1775 
Q 5025 1775 5550 1800 
L 5550 1325 
Q 5025 1350 4525 1350 
L 3450 1350 
L 3450 -50 
Q 3475 -575 2450 -625 
Q 2375 -375 2225 -75 
Q 2975 -150 2950 200 
L 2950 1350 
L 1850 1350 
Q 1350 1350 825 1325 
L 825 1800 
Q 1350 1775 1850 1775 
L 2950 1775 
z
M 3300 3300 
Q 4025 3775 4325 4275 
L 2250 4275 
Q 2700 3675 3300 3300 
z
M 4200 1000 
Q 4950 575 5800 0 
Q 5650 -175 5500 -400 
Q 5150 -150 4787 100 
Q 4425 350 3925 600 
Q 4075 775 4200 1000 
z
M 2375 700 
Q 2275 600 1800 250 
Q 1325 -100 850 -400 
Q 700 -200 500 -50 
Q 825 100 1287 437 
Q 1750 775 1950 1050 
L 2375 700 
z
" transform="scale(0.015625)"/>
      </defs>
      <use xlink:href="#SimHei-8fb9"/>
      <use xlink:href="#SimHei-6570" x="100"/>
      <use xlink:href="#SimHei-2f" x="200"/>
      <use xlink:href="#SimHei-6761" x="250"/>
     </g>
    </g>
   </g>
   <g id="PolyCollection_1">
    <defs>
     <path id="me2cbbfef6c" d="M 138.436364 -62.64 
L 138.436364 -88.845108 
L 140.472241 -92.254601 
L 142.508118 -95.377205 
L 144.543995 -98.230318 
L 146.579872 -100.831338 
L 148.615749 -103.197662 
L 150.651627 -105.346689 
L 152.687504 -107.295815 
L 154.723381 -109.062439 
L 156.759258 -110.663957 
L 158.795135 -112.117769 
L 160.831012 -113.441271 
L 162.86689 -114.651861 
L 164.902767 -115.766937 
L 166.938644 -116.803896 
L 168.974521 -117.780136 
L 171.010398 -118.713055 
L 173.046275 -119.620051 
L 175.082153 -120.51852 
L 177.11803 -121.425862 
L 179.153907 -122.359473 
L 181.189784 -123.336751 
L 183.225661 -124.375093 
L 185.261538 -125.491898 
L 187.297416 -126.704561 
L 189.333293 -128.023824 
L 191.36917 -129.439471 
L 193.405047 -130.937167 
L 195.440924 -132.502577 
L 197.476801 -134.121365 
L 199.512679 -135.779196 
L 201.548556 -137.461735 
L 203.584433 -139.154646 
L 205.62031 -140.843595 
L 207.656187 -142.514247 
L 209.692064 -144.152265 
L 211.727942 -145.743322 
L 213.763819 -147.278538 
L 215.799696 -148.764304 
L 217.835573 -150.209668 
L 219.87145 -151.623679 
L 221.907327 -153.015383 
L 223.943205 -154.393829 
L 225.979082 -155.768064 
L 228.014959 -157.147137 
L 230.050836 -158.540096 
L 232.086713 -159.955987 
L 234.12259 -161.403859 
L 236.158468 -162.892752 
L 238.194345 -164.428856 
L 240.230222 -166.011239 
L 242.266099 -167.637878 
L 244.301976 -169.306746 
L 246.337853 -171.01582 
L 248.373731 -172.763073 
L 250.409608 -174.546481 
L 252.445485 -176.364019 
L 254.481362 -178.213661 
L 256.517239 -180.093384 
L 258.553116 -182.001161 
L 260.588994 -183.934956 
L 262.624871 -185.890066 
L 264.660748 -187.855841 
L 266.696625 -189.820829 
L 268.732502 -191.773577 
L 270.768379 -193.702631 
L 272.804257 -195.596538 
L 274.840134 -197.443844 
L 276.876011 -199.233096 
L 278.911888 -200.952842 
L 280.947765 -202.591627 
L 282.983642 -204.137999 
L 285.01952 -205.580573 
L 287.055397 -206.917224 
L 289.091274 -208.16431 
L 291.127151 -209.340384 
L 293.163028 -210.463999 
L 295.198905 -211.553709 
L 297.234783 -212.628067 
L 299.27066 -213.705627 
L 301.306537 -214.804941 
L 303.342414 -215.944563 
L 305.378291 -217.143047 
L 307.414168 -218.418945 
L 309.450046 -219.790636 
L 311.485923 -221.260465 
L 313.5218 -222.802088 
L 315.557677 -224.386181 
L 317.593554 -225.983421 
L 319.629431 -227.564487 
L 321.665309 -229.100056 
L 323.701186 -230.560804 
L 325.737063 -231.917409 
L 327.77294 -233.140549 
L 329.808817 -234.2009 
L 331.844694 -235.06914 
L 333.880572 -235.716196 
L 335.916449 -236.129536 
L 337.952326 -236.3232 
L 339.988203 -236.313623 
L 342.02408 -236.117243 
L 344.059957 -235.750496 
L 346.095835 -235.229819 
L 348.131712 -234.571647 
L 350.167589 -233.792419 
L 352.203466 -232.908571 
L 354.239343 -231.936539 
L 356.27522 -230.892759 
L 358.311098 -229.793652 
L 360.346975 -228.654751 
L 362.382852 -227.490316 
L 364.418729 -226.314505 
L 366.454606 -225.141476 
L 368.490483 -223.98539 
L 370.526361 -222.860405 
L 372.562238 -221.78068 
L 374.598115 -220.760373 
L 376.633992 -219.813644 
L 378.669869 -218.954652 
L 380.705746 -218.197556 
L 382.741624 -217.556299 
L 384.777501 -217.036498 
L 386.813378 -216.632944 
L 388.849255 -216.339709 
L 390.885132 -216.150861 
L 392.921009 -216.06047 
L 394.956887 -216.062608 
L 396.992764 -216.151342 
L 399.028641 -216.320745 
L 401.064518 -216.564885 
L 403.100395 -216.877832 
L 405.136272 -217.253657 
L 407.17215 -217.686315 
L 409.208027 -218.16625 
L 411.243904 -218.679792 
L 413.279781 -219.213039 
L 415.315658 -219.752089 
L 417.351535 -220.283039 
L 419.387413 -220.791988 
L 421.42329 -221.265032 
L 423.459167 -221.688271 
L 425.495044 -222.047801 
L 427.530921 -222.32972 
L 429.566798 -222.520126 
L 431.602676 -222.605853 
L 433.638553 -222.592377 
L 435.67443 -222.504815 
L 437.710307 -222.36922 
L 439.746184 -222.211643 
L 441.782061 -222.058137 
L 443.817939 -221.934756 
L 445.853816 -221.867552 
L 447.889693 -221.882578 
L 449.92557 -222.005886 
L 451.961447 -222.263529 
L 453.997324 -222.68156 
L 456.033202 -223.284523 
L 458.069079 -224.065351 
L 460.104956 -224.986965 
L 462.140833 -226.011103 
L 464.17671 -227.099502 
L 466.212587 -228.2139 
L 468.248465 -229.316034 
L 470.284342 -230.367642 
L 472.320219 -231.330461 
L 474.356096 -232.166228 
L 476.391973 -232.836681 
L 478.42785 -233.303558 
L 480.463728 -233.530646 
L 482.499605 -233.517883 
L 484.535482 -233.296109 
L 486.571359 -232.89716 
L 488.607236 -232.35287 
L 490.643113 -231.695077 
L 492.678991 -230.955614 
L 494.714868 -230.166319 
L 496.750745 -229.359027 
L 498.786622 -228.565574 
L 500.822499 -227.817795 
L 502.858376 -227.147525 
L 504.894254 -226.58515 
L 506.930131 -226.139343 
L 508.966008 -225.802061 
L 511.001885 -225.564833 
L 513.037762 -225.419189 
L 515.073639 -225.356657 
L 517.109517 -225.368765 
L 519.145394 -225.447043 
L 521.181271 -225.583019 
L 523.217148 -225.768222 
L 525.253025 -225.99418 
L 527.288902 -226.252422 
L 529.32478 -226.534771 
L 531.360657 -226.836815 
L 533.396534 -227.156753 
L 535.432411 -227.492835 
L 537.468288 -227.84331 
L 539.504165 -228.20643 
L 541.540043 -228.580443 
L 543.57592 -228.9636 
L 545.611797 -229.354152 
L 547.647674 -229.750348 
L 549.683551 -230.150439 
L 551.719428 -230.552674 
L 553.755306 -230.955667 
L 555.791183 -231.362052 
L 557.82706 -231.776966 
L 559.862937 -232.205583 
L 561.898814 -232.653078 
L 563.934691 -233.124627 
L 565.970569 -233.625404 
L 568.006446 -234.160584 
L 570.042323 -234.735342 
L 572.0782 -235.354854 
L 574.114077 -236.024292 
L 576.149954 -236.748834 
L 578.185832 -237.533039 
L 580.221709 -238.375553 
L 582.257586 -239.271718 
L 584.293463 -240.216839 
L 586.32934 -241.206219 
L 588.365217 -242.235163 
L 590.401095 -243.298977 
L 592.436972 -244.392964 
L 594.472849 -245.512429 
L 596.508726 -246.652678 
L 598.544603 -247.809014 
L 600.58048 -248.976742 
L 602.616358 -250.15138 
L 604.652235 -251.330242 
L 606.688112 -252.511539 
L 608.723989 -253.693491 
L 610.759866 -254.874316 
L 612.795743 -256.052234 
L 614.831621 -257.225463 
L 616.867498 -258.392223 
L 618.903375 -259.550733 
L 620.939252 -260.699212 
L 622.975129 -261.835878 
L 625.011006 -262.958951 
L 627.046884 -264.067036 
L 629.082761 -265.161586 
L 631.118638 -266.245335 
L 633.154515 -267.321021 
L 635.190392 -268.39138 
L 637.226269 -269.459152 
L 639.262147 -270.527074 
L 641.298024 -271.597885 
L 643.333901 -272.674322 
L 645.369778 -273.759124 
L 647.405655 -274.855029 
L 649.441532 -275.964775 
L 651.47741 -277.091017 
L 653.513287 -278.235879 
L 655.549164 -279.401269 
L 657.585041 -280.589097 
L 659.620918 -281.801269 
L 661.656795 -283.039696 
L 663.692673 -284.306286 
L 665.72855 -285.602946 
L 667.764427 -286.931586 
L 669.800304 -288.294114 
L 671.836181 -289.692438 
L 673.872058 -291.128467 
L 675.907936 -292.60185 
L 677.943813 -294.099238 
L 679.97969 -295.602647 
L 682.015567 -297.094087 
L 684.051444 -298.555568 
L 686.087321 -299.9691 
L 688.123199 -301.316692 
L 690.159076 -302.580355 
L 692.194953 -303.742098 
L 694.23083 -304.783932 
L 696.266707 -305.687866 
L 698.302584 -306.43591 
L 700.338462 -307.013661 
L 702.374339 -307.42497 
L 704.410216 -307.679481 
L 706.446093 -307.786842 
L 708.48197 -307.756699 
L 710.517847 -307.598698 
L 712.553725 -307.322487 
L 714.589602 -306.937711 
L 716.625479 -306.454019 
L 718.661356 -305.881055 
L 720.697233 -305.228468 
L 722.73311 -304.505903 
L 724.768988 -303.723008 
L 726.804865 -302.889429 
L 728.840742 -302.014813 
L 730.876619 -301.108806 
L 732.912496 -300.181055 
L 734.948373 -299.241207 
L 736.984251 -298.298909 
L 739.020128 -297.363807 
L 741.056005 -296.445548 
L 743.091882 -295.553779 
L 745.127759 -294.698146 
L 747.163636 -293.888296 
L 747.163636 -365.04 
L 747.163636 -365.04 
L 745.127759 -363.649423 
L 743.091882 -362.358589 
L 741.056005 -361.15923 
L 739.020128 -360.043078 
L 736.984251 -359.001866 
L 734.948373 -358.027325 
L 732.912496 -357.111188 
L 730.876619 -356.245188 
L 728.840742 -355.421056 
L 726.804865 -354.630525 
L 724.768988 -353.865327 
L 722.73311 -353.117194 
L 720.697233 -352.377859 
L 718.661356 -351.639053 
L 716.625479 -350.89251 
L 714.589602 -350.129961 
L 712.553725 -349.343138 
L 710.517847 -348.523774 
L 708.48197 -347.663602 
L 706.446093 -346.754352 
L 704.410216 -345.787758 
L 702.374339 -344.755552 
L 700.338462 -343.649466 
L 698.302584 -342.461236 
L 696.266707 -341.189036 
L 694.23083 -339.851341 
L 692.194953 -338.470615 
L 690.159076 -337.069318 
L 688.123199 -335.669914 
L 686.087321 -334.294864 
L 684.051444 -332.966631 
L 682.015567 -331.707678 
L 679.97969 -330.540467 
L 677.943813 -329.487459 
L 675.907936 -328.571118 
L 673.872058 -327.813893 
L 671.836181 -327.228588 
L 669.800304 -326.80096 
L 667.764427 -326.512065 
L 665.72855 -326.342956 
L 663.692673 -326.274691 
L 661.656795 -326.288323 
L 659.620918 -326.364908 
L 657.585041 -326.4855 
L 655.549164 -326.631156 
L 653.513287 -326.782929 
L 651.47741 -326.921876 
L 649.441532 -327.029066 
L 647.405655 -327.091144 
L 645.369778 -327.108686 
L 643.333901 -327.084408 
L 641.298024 -327.021023 
L 639.262147 -326.921248 
L 637.226269 -326.787796 
L 635.190392 -326.623384 
L 633.154515 -326.430727 
L 631.118638 -326.212538 
L 629.082761 -325.971534 
L 627.046884 -325.71043 
L 625.011006 -325.43194 
L 622.975129 -325.138661 
L 620.939252 -324.832932 
L 618.903375 -324.517054 
L 616.867498 -324.19333 
L 614.831621 -323.864062 
L 612.795743 -323.531552 
L 610.759866 -323.198102 
L 608.723989 -322.866015 
L 606.688112 -322.537593 
L 604.652235 -322.215138 
L 602.616358 -321.900952 
L 600.58048 -321.597329 
L 598.544603 -321.3053 
L 596.508726 -321.023381 
L 594.472849 -320.749788 
L 592.436972 -320.482738 
L 590.401095 -320.220449 
L 588.365217 -319.961136 
L 586.32934 -319.703016 
L 584.293463 -319.444305 
L 582.257586 -319.183222 
L 580.221709 -318.917981 
L 578.185832 -318.6468 
L 576.149954 -318.367885 
L 574.114077 -318.078454 
L 572.0782 -317.773959 
L 570.042323 -317.44967 
L 568.006446 -317.100855 
L 565.970569 -316.722782 
L 563.934691 -316.310721 
L 561.898814 -315.859941 
L 559.862937 -315.365709 
L 557.82706 -314.823296 
L 555.791183 -314.227969 
L 553.755306 -313.574998 
L 551.719428 -312.859706 
L 549.683551 -312.081022 
L 547.647674 -311.243665 
L 545.611797 -310.352879 
L 543.57592 -309.413908 
L 541.540043 -308.431993 
L 539.504165 -307.412379 
L 537.468288 -306.360308 
L 535.432411 -305.281023 
L 533.396534 -304.179768 
L 531.360657 -303.061785 
L 529.32478 -301.932317 
L 527.288902 -300.796553 
L 525.253025 -299.656894 
L 523.217148 -298.511727 
L 521.181271 -297.359123 
L 519.145394 -296.197153 
L 517.109517 -295.023889 
L 515.073639 -293.837402 
L 513.037762 -292.635765 
L 511.001885 -291.417047 
L 508.966008 -290.179322 
L 506.930131 -288.92066 
L 504.894254 -287.639133 
L 502.858376 -286.332747 
L 500.822499 -284.996953 
L 498.786622 -283.623883 
L 496.750745 -282.20545 
L 494.714868 -280.733564 
L 492.678991 -279.200137 
L 490.643113 -277.597079 
L 488.607236 -275.916301 
L 486.571359 -274.149716 
L 484.535482 -272.289233 
L 482.499605 -270.326764 
L 480.463728 -268.25422 
L 478.42785 -266.064075 
L 476.391973 -263.76628 
L 474.356096 -261.391226 
L 472.320219 -258.970465 
L 470.284342 -256.535549 
L 468.248465 -254.11803 
L 466.212587 -251.749459 
L 464.17671 -249.461389 
L 462.140833 -247.285371 
L 460.104956 -245.252957 
L 458.069079 -243.3957 
L 456.033202 -241.74515 
L 453.997324 -240.331575 
L 451.961447 -239.152725 
L 449.92557 -238.172092 
L 447.889693 -237.351532 
L 445.853816 -236.652904 
L 443.817939 -236.038065 
L 441.782061 -235.468874 
L 439.746184 -234.907186 
L 437.710307 -234.314861 
L 435.67443 -233.653757 
L 433.638553 -232.885729 
L 431.602676 -231.972638 
L 429.566798 -230.877837 
L 427.530921 -229.596104 
L 425.495044 -228.152038 
L 423.459167 -226.571417 
L 421.42329 -224.880018 
L 419.387413 -223.10362 
L 417.351535 -221.267999 
L 415.315658 -219.398934 
L 413.279781 -217.522202 
L 411.243904 -215.663581 
L 409.208027 -213.848849 
L 407.17215 -212.103784 
L 405.136272 -210.453013 
L 403.100395 -208.900908 
L 401.064518 -207.434522 
L 399.028641 -206.04035 
L 396.992764 -204.704887 
L 394.956887 -203.414629 
L 392.921009 -202.15607 
L 390.885132 -200.915706 
L 388.849255 -199.680032 
L 386.813378 -198.435543 
L 384.777501 -197.168735 
L 382.741624 -195.866101 
L 380.705746 -194.514401 
L 378.669869 -193.104307 
L 376.633992 -191.629511 
L 374.598115 -190.083781 
L 372.562238 -188.460885 
L 370.526361 -186.754591 
L 368.490483 -184.958667 
L 366.454606 -183.066882 
L 364.418729 -181.073003 
L 362.382852 -178.970798 
L 360.346975 -176.754036 
L 358.311098 -174.416484 
L 356.27522 -171.952809 
L 354.239343 -169.369187 
L 352.203466 -166.679767 
L 350.167589 -163.898858 
L 348.131712 -161.04077 
L 346.095835 -158.119811 
L 344.059957 -155.150292 
L 342.02408 -152.146519 
L 339.988203 -149.122804 
L 337.952326 -146.093454 
L 335.916449 -143.07278 
L 333.880572 -140.075089 
L 331.844694 -137.114807 
L 329.808817 -134.207625 
L 327.77294 -131.370026 
L 325.737063 -128.618506 
L 323.701186 -125.969559 
L 321.665309 -123.439681 
L 319.629431 -121.045365 
L 317.593554 -118.803108 
L 315.557677 -116.729403 
L 313.5218 -114.840747 
L 311.485923 -113.153632 
L 309.450046 -111.684556 
L 307.414168 -110.447152 
L 305.378291 -109.427508 
L 303.342414 -108.596315 
L 301.306537 -107.924095 
L 299.27066 -107.381373 
L 297.234783 -106.93867 
L 295.198905 -106.566511 
L 293.163028 -106.235418 
L 291.127151 -105.915915 
L 289.091274 -105.578524 
L 287.055397 -105.193769 
L 285.01952 -104.732173 
L 282.983642 -104.16778 
L 280.947765 -103.504289 
L 278.911888 -102.76025 
L 276.876011 -101.954324 
L 274.840134 -101.105173 
L 272.804257 -100.231458 
L 270.768379 -99.351842 
L 268.732502 -98.484986 
L 266.696625 -97.649552 
L 264.660748 -96.8642 
L 262.624871 -96.147594 
L 260.588994 -95.518393 
L 258.553116 -94.992685 
L 256.517239 -94.567519 
L 254.481362 -94.231412 
L 252.445485 -93.972842 
L 250.409608 -93.780286 
L 248.373731 -93.642221 
L 246.337853 -93.547125 
L 244.301976 -93.483475 
L 242.266099 -93.439748 
L 240.230222 -93.404422 
L 238.194345 -93.365973 
L 236.158468 -93.31288 
L 234.12259 -93.234592 
L 232.086713 -93.126898 
L 230.050836 -92.988121 
L 228.014959 -92.816592 
L 225.979082 -92.610642 
L 223.943205 -92.368601 
L 221.907327 -92.0888 
L 219.87145 -91.769569 
L 217.835573 -91.409239 
L 215.799696 -91.006142 
L 213.763819 -90.558607 
L 211.727942 -90.064965 
L 209.692064 -89.52457 
L 207.656187 -88.942654 
L 205.62031 -88.326549 
L 203.584433 -87.683589 
L 201.548556 -87.021108 
L 199.512679 -86.346438 
L 197.476801 -85.666914 
L 195.440924 -84.98987 
L 193.405047 -84.322638 
L 191.36917 -83.672554 
L 189.333293 -83.04695 
L 187.297416 -82.453161 
L 185.261538 -81.896575 
L 183.225661 -81.372686 
L 181.189784 -80.873848 
L 179.153907 -80.392411 
L 177.11803 -79.920729 
L 175.082153 -79.451152 
L 173.046275 -78.976034 
L 171.010398 -78.487724 
L 168.974521 -77.978577 
L 166.938644 -77.440942 
L 164.902767 -76.867173 
L 162.86689 -76.24962 
L 160.831012 -75.580637 
L 158.795135 -74.852574 
L 156.759258 -74.057785 
L 154.723381 -73.188619 
L 152.687504 -72.23743 
L 150.651627 -71.196569 
L 148.615749 -70.058388 
L 146.579872 -68.815239 
L 144.543995 -67.459474 
L 142.508118 -65.983444 
L 140.472241 -64.379503 
L 138.436364 -62.64 
z
" style="stroke: #008000; stroke-width: 0.5"/>
    </defs>
    <g clip-path="url(#pc68817d9a1)">
     <use xlink:href="#me2cbbfef6c" x="0" y="432" style="fill: #008000; stroke: #008000; stroke-width: 0.5"/>
    </g>
   </g>
   <g id="line2d_25">
    <path d="M 138.436364 343.154892 
L 140.472241 339.745399 
L 142.508118 336.622795 
L 144.543995 333.769682 
L 146.579872 331.168662 
L 148.615749 328.802338 
L 150.651627 326.653311 
L 152.687504 324.704185 
L 154.723381 322.937561 
L 156.759258 321.336043 
L 160.831012 318.558729 
L 164.902767 316.233063 
L 168.974521 314.219864 
L 183.225661 307.624907 
L 187.297416 305.295439 
L 191.36917 302.560529 
L 195.440924 299.497423 
L 201.548556 294.538265 
L 209.692064 287.847735 
L 213.763819 284.721462 
L 219.87145 280.376321 
L 234.12259 270.596141 
L 238.194345 267.571144 
L 244.301976 262.693254 
L 250.409608 257.453519 
L 256.517239 251.906616 
L 264.660748 244.144159 
L 272.804257 236.403462 
L 276.876011 232.766904 
L 280.947765 229.408373 
L 285.01952 226.419427 
L 289.091274 223.83569 
L 293.163028 221.536001 
L 303.342414 216.055437 
L 307.414168 213.581055 
L 311.485923 210.739535 
L 325.737063 200.082591 
L 327.77294 198.859451 
L 329.808817 197.7991 
L 331.844694 196.93086 
L 333.880572 196.283804 
L 335.916449 195.870464 
L 337.952326 195.6768 
L 339.988203 195.686377 
L 342.02408 195.882757 
L 344.059957 196.249504 
L 346.095835 196.770181 
L 348.131712 197.428353 
L 352.203466 199.091429 
L 356.27522 201.107241 
L 362.382852 204.509684 
L 370.526361 209.139595 
L 374.598115 211.239627 
L 378.669869 213.045348 
L 382.741624 214.443701 
L 384.777501 214.963502 
L 388.849255 215.660291 
L 392.921009 215.93953 
L 396.992764 215.848658 
L 401.064518 215.435115 
L 405.136272 214.746343 
L 409.208027 213.83375 
L 423.459167 210.311729 
L 427.530921 209.67028 
L 431.602676 209.394147 
L 435.67443 209.495185 
L 445.853816 210.132448 
L 449.92557 209.994114 
L 451.961447 209.736471 
L 453.997324 209.31844 
L 456.033202 208.715477 
L 458.069079 207.934649 
L 462.140833 205.988897 
L 472.320219 200.669539 
L 474.356096 199.833772 
L 476.391973 199.163319 
L 478.42785 198.696442 
L 480.463728 198.469354 
L 482.499605 198.482117 
L 484.535482 198.703891 
L 486.571359 199.10284 
L 490.643113 200.304923 
L 496.750745 202.640973 
L 500.822499 204.182205 
L 504.894254 205.41485 
L 508.966008 206.197939 
L 513.037762 206.580811 
L 517.109517 206.631235 
L 521.181271 206.416981 
L 525.253025 206.00582 
L 531.360657 205.163185 
L 539.504165 203.79357 
L 551.719428 201.447326 
L 561.898814 199.346922 
L 568.006446 197.839416 
L 572.0782 196.645146 
L 576.149954 195.251166 
L 580.221709 193.624447 
L 584.293463 191.783161 
L 590.401095 188.701023 
L 596.508726 185.347322 
L 610.759866 177.125684 
L 622.975129 170.164122 
L 631.118638 165.754665 
L 651.47741 154.908983 
L 657.585041 151.410903 
L 663.692673 147.693714 
L 669.800304 143.705886 
L 675.907936 139.39815 
L 686.087321 132.0309 
L 690.159076 129.419645 
L 694.23083 127.216068 
L 696.266707 126.312134 
L 698.302584 125.56409 
L 700.338462 124.986339 
L 702.374339 124.57503 
L 704.410216 124.320519 
L 706.446093 124.213158 
L 708.48197 124.243301 
L 710.517847 124.401302 
L 714.589602 125.062289 
L 718.661356 126.118945 
L 722.73311 127.494097 
L 726.804865 129.110571 
L 732.912496 131.818945 
L 743.091882 136.446221 
L 747.163636 138.111704 
L 747.163636 138.111704 
" clip-path="url(#pc68817d9a1)" style="fill: none; stroke: #0000ff; stroke-width: 2; stroke-linecap: square"/>
   </g>
   <g id="line2d_26">
    <path d="M 138.436364 369.36 
L 142.508118 366.016556 
L 146.579872 363.184761 
L 150.651627 360.803431 
L 154.723381 358.811381 
L 158.795135 357.147426 
L 162.86689 355.75038 
L 166.938644 354.559058 
L 173.046275 353.023966 
L 185.261538 350.103425 
L 191.36917 348.327446 
L 211.727942 341.935035 
L 215.799696 340.993858 
L 219.87145 340.230431 
L 223.943205 339.631399 
L 230.050836 339.011879 
L 236.158468 338.68712 
L 250.409608 338.219714 
L 254.481362 337.768588 
L 258.553116 337.007315 
L 262.624871 335.852406 
L 266.696625 334.350448 
L 274.840134 330.894827 
L 278.911888 329.23975 
L 282.983642 327.83222 
L 287.055397 326.806231 
L 293.163028 325.764582 
L 297.234783 325.06133 
L 301.306537 324.075905 
L 303.342414 323.403685 
L 305.378291 322.572492 
L 307.414168 321.552848 
L 309.450046 320.315444 
L 311.485923 318.846368 
L 313.5218 317.159253 
L 315.557677 315.270597 
L 317.593554 313.196892 
L 321.665309 308.560319 
L 325.737063 303.381494 
L 329.808817 297.792375 
L 335.916449 288.92722 
L 348.131712 270.95923 
L 352.203466 265.320233 
L 356.27522 260.047191 
L 360.346975 255.245964 
L 364.418729 250.926997 
L 368.490483 247.041333 
L 372.562238 243.539115 
L 376.633992 240.370489 
L 380.705746 237.485599 
L 384.777501 234.831265 
L 399.028641 225.95965 
L 403.100395 223.099092 
L 407.17215 219.896216 
L 411.243904 216.336419 
L 421.42329 207.119982 
L 425.495044 203.847962 
L 427.530921 202.403896 
L 429.566798 201.122163 
L 431.602676 200.027362 
L 433.638553 199.114271 
L 437.710307 197.685139 
L 447.889693 194.648468 
L 449.92557 193.827908 
L 451.961447 192.847275 
L 453.997324 191.668425 
L 456.033202 190.25485 
L 458.069079 188.6043 
L 460.104956 186.747043 
L 464.17671 182.538611 
L 468.248465 177.88197 
L 478.42785 165.935925 
L 482.499605 161.673236 
L 486.571359 157.850284 
L 490.643113 154.402921 
L 494.714868 151.266436 
L 498.786622 148.376117 
L 504.894254 144.360867 
L 513.037762 139.364235 
L 521.181271 134.640877 
L 533.396534 127.820232 
L 539.504165 124.587621 
L 545.611797 121.647121 
L 549.683551 119.918978 
L 553.755306 118.425002 
L 557.82706 117.176704 
L 561.898814 116.140059 
L 568.006446 114.899145 
L 574.114077 113.921546 
L 586.32934 112.296984 
L 600.58048 110.402671 
L 610.759866 108.801898 
L 625.011006 106.56806 
L 631.118638 105.787462 
L 637.226269 105.212204 
L 643.333901 104.915592 
L 647.405655 104.908856 
L 651.47741 105.078124 
L 661.656795 105.711677 
L 665.72855 105.657044 
L 667.764427 105.487935 
L 669.800304 105.19904 
L 671.836181 104.771412 
L 673.872058 104.186107 
L 675.907936 103.428882 
L 677.943813 102.512541 
L 682.015567 100.292322 
L 686.087321 97.705136 
L 698.302584 89.538764 
L 702.374339 87.244448 
L 706.446093 85.245648 
L 710.517847 83.476226 
L 716.625479 81.10749 
L 728.840742 76.578944 
L 732.912496 74.888812 
L 736.984251 72.998134 
L 741.056005 70.84077 
L 745.127759 68.350577 
L 747.163636 66.96 
L 747.163636 66.96 
" clip-path="url(#pc68817d9a1)" style="fill: none; stroke: #ff0000; stroke-width: 2; stroke-linecap: square"/>
   </g>
   <g id="patch_3">
    <path d="M 108 384.48 
L 108 51.84 
" style="fill: none; stroke: #ffffff; stroke-linejoin: miter; stroke-linecap: square"/>
   </g>
   <g id="patch_4">
    <path d="M 777.6 384.48 
L 777.6 51.84 
" style="fill: none; stroke: #ffffff; stroke-linejoin: miter; stroke-linecap: square"/>
   </g>
   <g id="patch_5">
    <path d="M 108 384.48 
L 777.6 384.48 
" style="fill: none; stroke: #ffffff; stroke-linejoin: miter; stroke-linecap: square"/>
   </g>
   <g id="patch_6">
    <path d="M 108 51.84 
L 777.6 51.84 
" style="fill: none; stroke: #ffffff; stroke-linejoin: miter; stroke-linecap: square"/>
   </g>
   <g id="text_15">
    <!-- 边数变化图 -->
    <g transform="translate(402.8 45.84) scale(0.16 -0.16)">
     <defs>
      <path id="SimHei-53d8" d="M 5200 1975 
Q 4950 1600 4537 1137 
Q 4125 675 3675 375 
Q 3925 225 4600 87 
Q 5275 -50 6000 -75 
Q 5700 -400 5650 -625 
Q 4850 -525 4212 -312 
Q 3575 -100 3225 125 
Q 2800 -125 2150 -325 
Q 1500 -525 700 -675 
Q 600 -425 400 -175 
Q 950 -150 1687 12 
Q 2425 175 2825 375 
Q 2275 775 1675 1575 
Q 1350 1575 1000 1550 
L 1000 2000 
Q 1450 1975 2075 1975 
L 5200 1975 
z
M 3225 5275 
Q 3400 4900 3550 4475 
L 4675 4475 
Q 5400 4475 5975 4500 
L 5975 4025 
Q 5375 4050 4725 4050 
L 4125 4050 
L 4125 2950 
Q 4125 2550 4150 2150 
L 3600 2150 
Q 3625 2550 3625 2950 
L 3625 4050 
L 2750 4050 
L 2750 2950 
Q 2750 2675 2775 2150 
L 2225 2150 
Q 2250 2675 2250 2950 
L 2250 4050 
L 1700 4050 
Q 975 4050 425 4025 
L 425 4500 
Q 950 4475 1700 4475 
L 2975 4475 
Q 2925 4675 2700 5125 
Q 2950 5150 3225 5275 
z
M 2200 1575 
Q 2650 975 3250 600 
Q 3850 1000 4275 1575 
L 2200 1575 
z
M 4850 3750 
Q 5375 3275 5950 2675 
Q 5750 2525 5500 2300 
Q 5075 2800 4450 3400 
Q 4675 3575 4850 3750 
z
M 1825 3500 
Q 1700 3375 1425 3025 
Q 1150 2675 825 2300 
Q 575 2475 375 2600 
Q 975 3150 1300 3825 
Q 1525 3650 1825 3500 
z
" transform="scale(0.015625)"/>
      <path id="SimHei-5316" d="M 3925 5025 
Q 3900 4900 3900 4400 
L 3900 2625 
Q 4375 3025 4775 3450 
Q 5175 3875 5400 4300 
Q 5600 4100 5900 3925 
Q 5700 3700 5225 3212 
Q 4750 2725 4487 2512 
Q 4225 2300 3900 2025 
L 3900 450 
Q 3900 50 4225 50 
L 5200 50 
Q 5400 75 5462 262 
Q 5525 450 5575 850 
Q 5800 650 6150 600 
Q 6000 -100 5825 -250 
Q 5650 -400 5350 -400 
L 3950 -400 
Q 3425 -400 3400 200 
L 3400 1675 
Q 3225 1525 2962 1350 
Q 2700 1175 2375 975 
Q 2225 1225 2025 1400 
Q 2350 1550 2737 1787 
Q 3125 2025 3400 2250 
L 3400 4500 
Q 3400 4800 3375 5025 
L 3925 5025 
z
M 2400 4850 
Q 2175 4550 2075 4337 
Q 1975 4125 1825 3775 
L 1825 675 
Q 1825 -75 1850 -550 
L 1325 -550 
Q 1350 -125 1350 650 
L 1350 3050 
Q 1125 2725 962 2525 
Q 800 2325 675 2175 
Q 500 2375 275 2525 
Q 625 2850 875 3212 
Q 1125 3575 1312 3912 
Q 1500 4250 1625 4575 
Q 1750 4900 1825 5100 
Q 1975 4975 2400 4850 
z
" transform="scale(0.015625)"/>
      <path id="SimHei-56fe" d="M 5800 4975 
Q 5775 4350 5775 3600 
L 5775 925 
Q 5775 150 5800 -600 
L 5300 -600 
L 5300 -275 
L 1125 -275 
L 1125 -650 
L 625 -650 
Q 650 125 650 950 
L 650 3600 
Q 650 4325 625 4975 
L 5800 4975 
z
M 5300 150 
L 5300 4575 
L 1125 4575 
L 1125 150 
L 5300 150 
z
M 3225 4250 
Q 3075 4100 2950 3925 
L 4625 3925 
Q 4525 3700 4300 3375 
Q 4075 3050 3600 2600 
Q 4350 2225 5075 2150 
Q 4900 1925 4775 1675 
Q 3850 1950 3225 2350 
Q 2500 1875 1675 1650 
Q 1600 1875 1400 2075 
Q 2200 2200 2875 2600 
Q 2525 2925 2375 3150 
Q 2150 2900 1900 2650 
Q 1725 2850 1525 2950 
Q 1950 3300 2250 3737 
Q 2550 4175 2675 4475 
Q 2925 4350 3225 4250 
z
M 2450 1275 
Q 3550 950 4100 725 
Q 3975 525 3850 300 
Q 2825 725 2275 850 
Q 2375 1050 2450 1275 
z
M 2925 2050 
Q 3775 1700 4075 1600 
Q 3950 1400 3850 1150 
Q 3000 1550 2700 1650 
Q 2825 1825 2925 2050 
z
M 2625 3450 
Q 3000 3025 3275 2850 
Q 3600 3100 3875 3525 
L 2675 3525 
L 2625 3450 
z
" transform="scale(0.015625)"/>
     </defs>
     <use xlink:href="#SimHei-8fb9"/>
     <use xlink:href="#SimHei-6570" x="100"/>
     <use xlink:href="#SimHei-53d8" x="200"/>
     <use xlink:href="#SimHei-5316" x="300"/>
     <use xlink:href="#SimHei-56fe" x="400"/>
    </g>
   </g>
   <g id="legend_1">
    <g id="patch_7">
     <path d="M 116.4 95.84625 
L 238.8 95.84625 
Q 241.2 95.84625 241.2 93.44625 
L 241.2 60.24 
Q 241.2 57.84 238.8 57.84 
L 116.4 57.84 
Q 114 57.84 114 60.24 
L 114 93.44625 
Q 114 95.84625 116.4 95.84625 
z
" style="fill: #e5e5e5; opacity: 0.8; stroke: #cccccc; stroke-width: 0.5; stroke-linejoin: miter"/>
    </g>
    <g id="line2d_27">
     <path d="M 118.8 68.09625 
L 130.8 68.09625 
L 142.8 68.09625 
" style="fill: none; stroke: #0000ff; stroke-width: 2; stroke-linecap: square"/>
    </g>
    <g id="text_16">
     <!-- 图中当前节点数 -->
     <g transform="translate(152.4 72.29625) scale(0.12 -0.12)">
      <defs>
       <path id="SimHei-4e2d" d="M 3475 5200 
Q 3450 4500 3450 3875 
L 5625 3875 
Q 5600 3375 5600 2500 
Q 5600 1650 5625 1225 
L 5075 1225 
L 5075 1600 
L 3450 1600 
L 3450 525 
Q 3450 225 3475 -600 
L 2875 -600 
Q 2925 -150 2925 450 
L 2925 1600 
L 1300 1600 
L 1300 1225 
L 750 1225 
Q 775 1600 775 2500 
Q 775 3425 750 3875 
L 2925 3875 
Q 2925 4550 2900 5200 
L 3475 5200 
z
M 5075 2000 
L 5075 3475 
L 3450 3475 
L 3450 2000 
L 5075 2000 
z
M 2925 2000 
L 2925 3475 
L 1300 3475 
L 1300 2000 
L 2925 2000 
z
" transform="scale(0.015625)"/>
       <path id="SimHei-5f53" d="M 3550 5125 
Q 3525 4825 3525 4275 
L 3525 2925 
L 5625 2925 
Q 5600 2425 5600 2100 
L 5600 175 
Q 5600 -150 5625 -650 
L 5075 -650 
L 5075 -125 
L 1675 -125 
Q 1150 -125 675 -150 
L 675 325 
Q 1150 300 1675 300 
L 5075 300 
L 5075 1200 
L 2000 1200 
Q 1425 1200 900 1175 
L 900 1675 
Q 1425 1650 2000 1650 
L 5075 1650 
L 5075 2500 
L 1700 2500 
Q 1250 2500 750 2475 
L 750 2950 
Q 1250 2925 1700 2925 
L 3000 2925 
L 3000 4275 
Q 3000 4725 2975 5125 
L 3550 5125 
z
M 5700 4500 
Q 5525 4300 5287 4000 
Q 5050 3700 4650 3225 
Q 4450 3400 4225 3575 
Q 4725 4050 5175 4850 
Q 5425 4650 5700 4500 
z
M 1325 4800 
Q 1875 4175 2275 3600 
Q 2025 3450 1775 3250 
Q 1375 3925 875 4450 
Q 1150 4625 1325 4800 
z
" transform="scale(0.015625)"/>
       <path id="SimHei-524d" d="M 2075 -100 
Q 2400 -100 2537 -87 
Q 2675 -75 2675 100 
L 2675 875 
L 1325 875 
L 1325 -650 
L 800 -650 
Q 850 -200 850 350 
L 850 2350 
Q 850 2850 825 3300 
L 3175 3300 
Q 3150 2875 3150 2375 
L 3150 -150 
Q 3150 -400 2950 -475 
Q 2750 -550 2275 -625 
Q 2200 -350 2075 -100 
z
M 4950 5075 
Q 4825 4975 4687 4750 
Q 4550 4525 4375 4225 
L 5400 4225 
Q 5750 4225 6175 4250 
L 6175 3775 
Q 5775 3825 5300 3825 
L 1350 3825 
Q 700 3825 250 3775 
L 250 4250 
Q 775 4225 1350 4225 
L 3875 4225 
Q 4300 5025 4350 5300 
Q 4625 5150 4950 5075 
z
M 4375 -75 
Q 4825 -100 4937 -75 
Q 5050 -50 5050 150 
L 5050 2750 
Q 5050 3050 5025 3400 
L 5550 3400 
Q 5525 3075 5525 2750 
L 5525 -25 
Q 5525 -350 5362 -450 
Q 5200 -550 4600 -600 
Q 4550 -275 4375 -75 
z
M 3775 575 
Q 3800 950 3800 1225 
L 3800 2375 
Q 3800 2775 3775 3075 
L 4300 3075 
Q 4275 2775 4275 2375 
L 4275 1250 
Q 4275 875 4300 575 
L 3775 575 
z
M 2675 2250 
L 2675 2925 
L 1325 2925 
L 1325 2250 
L 2675 2250 
z
M 2675 1250 
L 2675 1875 
L 1325 1875 
L 1325 1250 
L 2675 1250 
z
M 2225 4300 
Q 2125 4575 1750 5050 
Q 2025 5175 2200 5300 
Q 2550 4850 2725 4550 
Q 2500 4450 2225 4300 
z
" transform="scale(0.015625)"/>
       <path id="SimHei-8282" d="M 4200 200 
Q 4150 500 3950 800 
Q 4450 800 4712 850 
Q 4975 900 5000 1150 
L 5050 2500 
L 2925 2500 
L 2925 325 
Q 2925 -125 2950 -600 
L 2375 -600 
Q 2425 -150 2425 325 
L 2425 2500 
L 1875 2500 
Q 1050 2500 550 2475 
L 550 2950 
Q 1075 2925 1625 2925 
L 5625 2925 
Q 5550 1875 5525 1225 
Q 5500 575 5150 412 
Q 4800 250 4200 200 
z
M 2475 3950 
Q 2475 3500 2500 3175 
L 1950 3175 
Q 1975 3550 1975 3950 
L 1125 3950 
Q 775 3950 350 3900 
L 350 4400 
Q 775 4375 1125 4375 
L 1975 4375 
Q 1975 4850 1950 5175 
L 2500 5175 
Q 2475 4850 2475 4375 
L 3800 4375 
Q 3800 4875 3775 5175 
L 4350 5175 
Q 4325 4875 4325 4375 
L 5125 4375 
Q 5600 4375 6000 4400 
L 6000 3925 
Q 5600 3950 5125 3950 
L 4325 3950 
Q 4325 3550 4350 3175 
L 3775 3175 
Q 3800 3575 3800 3950 
L 2475 3950 
z
" transform="scale(0.015625)"/>
       <path id="SimHei-70b9" d="M 3325 5200 
Q 3300 4925 3300 4375 
L 4900 4375 
Q 5275 4375 5725 4400 
L 5725 3925 
Q 5300 3950 4900 3950 
L 3300 3950 
L 3300 3225 
L 5225 3225 
Q 5200 2700 5200 2150 
Q 5200 1625 5225 1175 
L 1175 1175 
Q 1200 1625 1200 2175 
Q 1200 2725 1175 3225 
L 2775 3225 
L 2775 4500 
Q 2775 4900 2750 5200 
L 3325 5200 
z
M 4700 1600 
L 4700 2800 
L 1725 2800 
L 1725 1600 
L 4700 1600 
z
M 1500 750 
Q 1025 -250 825 -625 
Q 625 -475 325 -375 
Q 650 50 950 925 
Q 1200 800 1500 750 
z
M 5325 850 
Q 5775 150 6075 -350 
Q 5925 -425 5575 -625 
Q 5375 -150 4900 575 
Q 5150 700 5325 850 
z
M 3975 -575 
Q 3775 -100 3400 575 
Q 3575 675 3825 825 
Q 4350 -75 4450 -325 
Q 4200 -450 3975 -575 
z
M 2375 -575 
Q 2350 -300 1975 550 
Q 2200 625 2425 775 
Q 2800 -75 2900 -350 
Q 2625 -450 2375 -575 
z
" transform="scale(0.015625)"/>
      </defs>
      <use xlink:href="#SimHei-56fe"/>
      <use xlink:href="#SimHei-4e2d" x="100"/>
      <use xlink:href="#SimHei-5f53" x="200"/>
      <use xlink:href="#SimHei-524d" x="300"/>
      <use xlink:href="#SimHei-8282" x="400"/>
      <use xlink:href="#SimHei-70b9" x="500"/>
      <use xlink:href="#SimHei-6570" x="600"/>
     </g>
    </g>
    <g id="line2d_28">
     <path d="M 118.8 85.34625 
L 130.8 85.34625 
L 142.8 85.34625 
" style="fill: none; stroke: #ff0000; stroke-width: 2; stroke-linecap: square"/>
    </g>
    <g id="text_17">
     <!-- 累计剪枝节点数 -->
     <g transform="translate(152.4 89.54625) scale(0.12 -0.12)">
      <defs>
       <path id="SimHei-7d2f" d="M 5475 5000 
Q 5450 4600 5450 3975 
Q 5450 3350 5475 2950 
L 4675 2950 
Q 4850 2775 5075 2600 
Q 4800 2525 4237 2275 
Q 3675 2025 3262 1837 
Q 2850 1650 2400 1425 
Q 3850 1525 4650 1575 
Q 4425 1725 4200 1850 
Q 4375 2000 4500 2175 
Q 5125 1800 5900 1300 
Q 5750 1125 5575 900 
Q 5375 1075 5100 1250 
Q 4250 1175 3475 1125 
L 3475 50 
Q 3475 -350 3212 -462 
Q 2950 -575 2600 -600 
Q 2575 -375 2375 -50 
Q 2800 -75 2900 -25 
Q 3000 25 3000 125 
L 3000 1075 
Q 2400 1050 1987 1012 
Q 1575 975 850 875 
Q 775 1125 700 1350 
Q 1150 1400 1575 1512 
Q 2000 1625 3025 2125 
Q 1775 2025 1250 1925 
Q 1200 2200 1100 2375 
Q 1325 2375 1737 2537 
Q 2150 2700 2475 2950 
L 950 2950 
Q 975 3375 975 3975 
Q 975 4600 950 5000 
L 5475 5000 
z
M 2425 525 
Q 2200 400 1762 137 
Q 1325 -125 850 -425 
Q 700 -225 500 -25 
Q 850 125 1250 362 
Q 1650 600 2025 900 
Q 2150 725 2425 525 
z
M 2975 4100 
L 2975 4650 
L 1450 4650 
L 1450 4100 
L 2975 4100 
z
M 4975 4100 
L 4975 4650 
L 3450 4650 
L 3450 4100 
L 4975 4100 
z
M 4275 850 
Q 4750 650 5050 500 
L 5850 100 
Q 5675 -125 5575 -375 
Q 5150 -100 4775 100 
Q 4400 300 4050 450 
Q 4200 675 4275 850 
z
M 2975 3275 
L 2975 3750 
L 1450 3750 
L 1450 3275 
L 2975 3275 
z
M 4975 3275 
L 4975 3750 
L 3450 3750 
L 3450 3275 
L 4975 3275 
z
M 3700 2475 
Q 4200 2700 4575 2950 
L 3225 2950 
Q 2900 2750 2300 2425 
Q 3075 2450 3700 2475 
z
" transform="scale(0.015625)"/>
       <path id="SimHei-8ba1" d="M 3925 3100 
L 3925 4350 
Q 3925 4850 3900 5125 
L 4425 5125 
Q 4400 4800 4400 4550 
L 4400 3100 
L 5425 3100 
Q 5725 3100 6075 3125 
L 6075 2650 
Q 5700 2675 5450 2675 
L 4400 2675 
L 4400 175 
Q 4400 -125 4425 -550 
L 3900 -550 
Q 3925 -125 3925 150 
L 3925 2675 
L 2950 2675 
Q 2575 2675 2200 2650 
L 2200 3125 
Q 2575 3100 2900 3100 
L 3925 3100 
z
M 1775 3150 
Q 1750 2675 1750 2150 
L 1750 625 
Q 2175 1050 2425 1400 
Q 2575 1200 2775 1000 
L 2075 300 
Q 1750 -25 1450 -350 
Q 1275 -125 1125 50 
Q 1300 250 1275 650 
L 1275 2725 
Q 600 2725 275 2700 
L 275 3175 
Q 675 3150 825 3150 
L 1775 3150 
z
M 1150 5050 
Q 1475 4725 2175 4000 
Q 1950 3800 1750 3625 
Q 1425 4100 775 4750 
Q 950 4875 1150 5050 
z
" transform="scale(0.015625)"/>
       <path id="SimHei-526a" d="M 2400 1900 
Q 2700 1900 2800 1925 
Q 2900 1950 2900 2025 
L 2900 2150 
L 1375 2150 
L 1375 1575 
L 900 1575 
Q 925 1825 925 2150 
L 925 3100 
Q 925 3450 900 3750 
L 3325 3750 
L 3325 2050 
Q 3350 1675 3125 1600 
Q 2900 1525 2550 1475 
Q 2500 1675 2400 1900 
z
M 4050 -575 
Q 3950 -275 3825 -50 
Q 4625 -25 4712 37 
Q 4800 100 4825 350 
L 4875 875 
L 3050 875 
Q 2875 350 2575 87 
Q 2275 -175 1900 -350 
Q 1525 -525 900 -700 
Q 825 -450 625 -225 
Q 1375 -125 1887 125 
Q 2400 375 2550 875 
L 1850 875 
Q 1325 875 775 850 
L 775 1300 
Q 1325 1275 1875 1275 
L 5425 1275 
L 5300 225 
Q 5250 -175 5075 -312 
Q 4900 -450 4050 -575 
z
M 4525 4800 
Q 4400 4675 4250 4475 
L 4800 4475 
Q 5450 4475 6025 4500 
L 6025 4075 
Q 5450 4100 4800 4100 
L 2175 4100 
Q 1450 4100 375 4075 
L 375 4500 
Q 1450 4475 2150 4475 
L 3750 4475 
Q 3900 4675 4037 4887 
Q 4175 5100 4250 5275 
Q 4475 5150 4750 5025 
L 4525 4800 
z
M 5475 3875 
Q 5450 3625 5450 3150 
L 5450 2000 
Q 5450 1650 5200 1587 
Q 4950 1525 4650 1475 
Q 4600 1700 4500 1950 
Q 4775 1950 4900 1975 
Q 5025 2000 5000 2175 
L 5000 3150 
Q 5000 3525 4975 3875 
L 5475 3875 
z
M 4300 3625 
Q 4275 3400 4275 3150 
L 4275 2400 
Q 4275 2225 4300 1975 
L 3850 1975 
Q 3875 2225 3875 2425 
L 3875 3175 
Q 3875 3425 3850 3625 
L 4300 3625 
z
M 2900 3100 
L 2900 3400 
L 1375 3400 
L 1375 3100 
L 2900 3100 
z
M 2900 2475 
L 2900 2750 
L 1375 2750 
L 1375 2475 
L 2900 2475 
z
M 2450 4800 
Q 2275 4675 2125 4500 
Q 1925 4725 1600 5000 
Q 1800 5175 1900 5300 
Q 2375 4850 2450 4800 
z
" transform="scale(0.015625)"/>
       <path id="SimHei-679d" d="M 2750 2900 
Q 3050 2875 3350 2875 
L 3950 2875 
L 3950 3900 
L 3225 3900 
Q 2950 3900 2675 3875 
L 2675 4325 
Q 2925 4300 3225 4300 
L 3950 4300 
Q 3950 4650 3925 5150 
L 4450 5150 
Q 4425 4900 4425 4300 
L 5325 4300 
Q 5600 4300 5900 4325 
L 5900 3875 
Q 5675 3900 5375 3900 
L 4425 3900 
L 4425 2875 
L 5625 2875 
Q 5525 2525 5425 2225 
Q 5325 1925 5175 1637 
Q 5025 1350 4875 1112 
Q 4725 875 4550 675 
Q 4850 425 5300 262 
Q 5750 100 6150 50 
Q 5925 -200 5875 -450 
Q 5250 -250 4887 -62 
Q 4525 125 4225 350 
Q 3850 0 3475 -212 
Q 3100 -425 2625 -625 
Q 2525 -375 2275 -200 
Q 2875 -75 3275 200 
Q 3675 475 3875 675 
Q 3250 1400 3000 2450 
L 2750 2450 
L 2750 2900 
z
M 2150 2725 
Q 2300 2475 2400 2262 
Q 2500 2050 2650 1800 
Q 2375 1675 2150 1550 
Q 2025 1875 1925 2075 
Q 1825 2275 1725 2450 
L 1725 475 
Q 1725 -25 1750 -575 
L 1250 -575 
Q 1275 0 1275 475 
L 1275 2225 
Q 1000 1500 525 775 
Q 400 1075 200 1325 
Q 325 1425 562 1800 
Q 800 2175 950 2587 
Q 1100 3000 1200 3425 
Q 800 3425 375 3400 
L 375 3850 
Q 800 3825 1275 3825 
L 1275 4450 
Q 1275 4825 1250 5175 
L 1750 5175 
Q 1725 4875 1725 4450 
L 1725 3825 
Q 2050 3825 2425 3850 
L 2425 3400 
Q 2050 3425 1725 3425 
L 1725 2500 
Q 1925 2600 2150 2725 
z
M 3450 2475 
Q 3700 1525 4225 1025 
Q 4750 1650 5000 2475 
L 3450 2475 
z
" transform="scale(0.015625)"/>
      </defs>
      <use xlink:href="#SimHei-7d2f"/>
      <use xlink:href="#SimHei-8ba1" x="100"/>
      <use xlink:href="#SimHei-526a" x="200"/>
      <use xlink:href="#SimHei-679d" x="300"/>
      <use xlink:href="#SimHei-8282" x="400"/>
      <use xlink:href="#SimHei-70b9" x="500"/>
      <use xlink:href="#SimHei-6570" x="600"/>
     </g>
    </g>
   </g>
  </g>
 </g>
 <defs>
  <clipPath id="pc68817d9a1">
   <rect x="108" y="51.84" width="669.6" height="332.64"/>
  </clipPath>
 </defs>
</svg>
