<?xml version="1.0" encoding="utf-8" standalone="no"?>
<!DOCTYPE svg PUBLIC "-//W3C//DTD SVG 1.1//EN"
  "http://www.w3.org/Graphics/SVG/1.1/DTD/svg11.dtd">
<svg xmlns:xlink="http://www.w3.org/1999/xlink" width="864pt" height="432pt" viewBox="0 0 864 432" xmlns="http://www.w3.org/2000/svg" version="1.1">
 <metadata>
  <rdf:RDF xmlns:dc="http://purl.org/dc/elements/1.1/" xmlns:cc="http://creativecommons.org/ns#" xmlns:rdf="http://www.w3.org/1999/02/22-rdf-syntax-ns#">
   <cc:Work>
    <dc:type rdf:resource="http://purl.org/dc/dcmitype/StillImage"/>
    <dc:date>2023-10-19T14:47:28.607913</dc:date>
    <dc:format>image/svg+xml</dc:format>
    <dc:creator>
     <cc:Agent>
      <dc:title>Matplotlib v3.7.2, https://matplotlib.org/</dc:title>
     </cc:Agent>
    </dc:creator>
   </cc:Work>
  </rdf:RDF>
 </metadata>
 <defs>
  <style type="text/css">*{stroke-linejoin: round; stroke-linecap: butt}</style>
 </defs>
 <g id="figure_1">
  <g id="patch_1">
   <path d="M 0 432 
L 864 432 
L 864 0 
L 0 0 
L 0 432 
z
" style="fill: none"/>
  </g>
  <g id="axes_1">
   <g id="patch_2">
    <path d="M 108 384.48 
L 777.6 384.48 
L 777.6 51.84 
L 108 51.84 
L 108 384.48 
z
" style="fill: none"/>
   </g>
   <g id="matplotlib.axis_1">
    <g id="xtick_1">
     <g id="line2d_1">
      <path d="M 114.087273 384.48 
L 114.087273 51.84 
" clip-path="url(#pe55fc02610)" style="fill: none; stroke: #ffffff; stroke-width: 0.8; stroke-linecap: square"/>
     </g>
     <g id="line2d_2">
      <defs>
       <path id="m9e5b44ab5d" d="M 0 0 
L 0 3.5 
" style="stroke: #555555; stroke-width: 0.8"/>
      </defs>
      <g>
       <use xlink:href="#m9e5b44ab5d" x="114.087273" y="384.48" style="fill: #555555; stroke: #555555; stroke-width: 0.8"/>
      </g>
     </g>
     <g id="text_1">
      <!-- 0 -->
      <g style="fill: #555555" transform="translate(111.587273 398.355) scale(0.1 -0.1)">
       <defs>
        <path id="SimHei-30" d="M 225 2537 
Q 250 3200 412 3587 
Q 575 3975 875 4225 
Q 1175 4475 1612 4475 
Q 2050 4475 2375 4112 
Q 2700 3750 2800 3200 
Q 2900 2650 2862 1937 
Q 2825 1225 2612 775 
Q 2400 325 1975 150 
Q 1550 -25 1125 187 
Q 700 400 525 750 
Q 350 1100 275 1487 
Q 200 1875 225 2537 
z
M 750 2687 
Q 675 2000 800 1462 
Q 925 925 1212 700 
Q 1500 475 1800 612 
Q 2100 750 2237 1162 
Q 2375 1575 2375 2062 
Q 2375 2550 2337 2950 
Q 2300 3350 2112 3675 
Q 1925 4000 1612 4012 
Q 1300 4025 1062 3700 
Q 825 3375 750 2687 
z
" transform="scale(0.015625)"/>
       </defs>
       <use xlink:href="#SimHei-30"/>
      </g>
     </g>
    </g>
    <g id="xtick_2">
     <g id="line2d_3">
      <path d="M 235.832727 384.48 
L 235.832727 51.84 
" clip-path="url(#pe55fc02610)" style="fill: none; stroke: #ffffff; stroke-width: 0.8; stroke-linecap: square"/>
     </g>
     <g id="line2d_4">
      <g>
       <use xlink:href="#m9e5b44ab5d" x="235.832727" y="384.48" style="fill: #555555; stroke: #555555; stroke-width: 0.8"/>
      </g>
     </g>
     <g id="text_2">
      <!-- 5 -->
      <g style="fill: #555555" transform="translate(233.332727 398.355) scale(0.1 -0.1)">
       <defs>
        <path id="SimHei-35" d="M 550 1325 
Q 725 650 1150 575 
Q 1575 500 1837 662 
Q 2100 825 2212 1087 
Q 2325 1350 2312 1675 
Q 2300 2000 2137 2225 
Q 1975 2450 1725 2525 
Q 1475 2600 1162 2525 
Q 850 2450 650 2175 
L 225 2225 
Q 275 2375 700 4375 
L 2675 4375 
L 2675 3925 
L 1075 3925 
Q 950 3250 825 2850 
Q 1200 3025 1525 3012 
Q 1850 3000 2150 2862 
Q 2450 2725 2587 2487 
Q 2725 2250 2787 2012 
Q 2850 1775 2837 1500 
Q 2825 1225 2725 937 
Q 2625 650 2425 462 
Q 2225 275 1937 162 
Q 1650 50 1275 75 
Q 900 100 562 350 
Q 225 600 100 1200 
L 550 1325 
z
" transform="scale(0.015625)"/>
       </defs>
       <use xlink:href="#SimHei-35"/>
      </g>
     </g>
    </g>
    <g id="xtick_3">
     <g id="line2d_5">
      <path d="M 357.578182 384.48 
L 357.578182 51.84 
" clip-path="url(#pe55fc02610)" style="fill: none; stroke: #ffffff; stroke-width: 0.8; stroke-linecap: square"/>
     </g>
     <g id="line2d_6">
      <g>
       <use xlink:href="#m9e5b44ab5d" x="357.578182" y="384.48" style="fill: #555555; stroke: #555555; stroke-width: 0.8"/>
      </g>
     </g>
     <g id="text_3">
      <!-- 10 -->
      <g style="fill: #555555" transform="translate(352.578182 398.355) scale(0.1 -0.1)">
       <defs>
        <path id="SimHei-31" d="M 1400 3600 
Q 1075 3275 575 2975 
L 575 3450 
Q 1200 3875 1600 4450 
L 1900 4450 
L 1900 150 
L 1400 150 
L 1400 3600 
z
" transform="scale(0.015625)"/>
       </defs>
       <use xlink:href="#SimHei-31"/>
       <use xlink:href="#SimHei-30" x="50"/>
      </g>
     </g>
    </g>
    <g id="xtick_4">
     <g id="line2d_7">
      <path d="M 479.323636 384.48 
L 479.323636 51.84 
" clip-path="url(#pe55fc02610)" style="fill: none; stroke: #ffffff; stroke-width: 0.8; stroke-linecap: square"/>
     </g>
     <g id="line2d_8">
      <g>
       <use xlink:href="#m9e5b44ab5d" x="479.323636" y="384.48" style="fill: #555555; stroke: #555555; stroke-width: 0.8"/>
      </g>
     </g>
     <g id="text_4">
      <!-- 15 -->
      <g style="fill: #555555" transform="translate(474.323636 398.355) scale(0.1 -0.1)">
       <use xlink:href="#SimHei-31"/>
       <use xlink:href="#SimHei-35" x="50"/>
      </g>
     </g>
    </g>
    <g id="xtick_5">
     <g id="line2d_9">
      <path d="M 601.069091 384.48 
L 601.069091 51.84 
" clip-path="url(#pe55fc02610)" style="fill: none; stroke: #ffffff; stroke-width: 0.8; stroke-linecap: square"/>
     </g>
     <g id="line2d_10">
      <g>
       <use xlink:href="#m9e5b44ab5d" x="601.069091" y="384.48" style="fill: #555555; stroke: #555555; stroke-width: 0.8"/>
      </g>
     </g>
     <g id="text_5">
      <!-- 20 -->
      <g style="fill: #555555" transform="translate(596.069091 398.355) scale(0.1 -0.1)">
       <defs>
        <path id="SimHei-32" d="M 300 250 
Q 325 625 650 925 
Q 975 1225 1475 1862 
Q 1975 2500 2125 2850 
Q 2275 3200 2237 3450 
Q 2200 3700 2000 3862 
Q 1800 4025 1537 4000 
Q 1275 3975 1037 3800 
Q 800 3625 675 3275 
L 200 3350 
Q 400 3925 712 4187 
Q 1025 4450 1450 4475 
Q 1700 4500 1900 4462 
Q 2100 4425 2312 4287 
Q 2525 4150 2662 3875 
Q 2800 3600 2762 3212 
Q 2725 2825 2375 2287 
Q 2025 1750 1025 600 
L 2825 600 
L 2825 150 
L 300 150 
L 300 250 
z
" transform="scale(0.015625)"/>
       </defs>
       <use xlink:href="#SimHei-32"/>
       <use xlink:href="#SimHei-30" x="50"/>
      </g>
     </g>
    </g>
    <g id="xtick_6">
     <g id="line2d_11">
      <path d="M 722.814545 384.48 
L 722.814545 51.84 
" clip-path="url(#pe55fc02610)" style="fill: none; stroke: #ffffff; stroke-width: 0.8; stroke-linecap: square"/>
     </g>
     <g id="line2d_12">
      <g>
       <use xlink:href="#m9e5b44ab5d" x="722.814545" y="384.48" style="fill: #555555; stroke: #555555; stroke-width: 0.8"/>
      </g>
     </g>
     <g id="text_6">
      <!-- 25 -->
      <g style="fill: #555555" transform="translate(717.814545 398.355) scale(0.1 -0.1)">
       <use xlink:href="#SimHei-32"/>
       <use xlink:href="#SimHei-35" x="50"/>
      </g>
     </g>
    </g>
    <g id="text_7">
     <!-- 搜索次数/次 -->
     <g style="fill: #555555" transform="translate(409.8 413.1675) scale(0.12 -0.12)">
      <defs>
       <path id="SimHei-641c" d="M 2525 1975 
Q 2850 1950 3225 1950 
L 3900 1950 
L 3900 2450 
L 2500 2450 
Q 2525 2800 2525 3075 
L 2525 4200 
Q 2525 4475 2500 4775 
Q 3175 4850 3450 5000 
Q 3600 4650 3675 4550 
Q 3450 4525 2975 4500 
L 2975 3900 
L 3525 3900 
L 3525 3475 
L 2975 3475 
L 2975 2875 
L 3900 2875 
L 3900 4575 
Q 3900 4850 3875 5225 
L 4375 5225 
Q 4350 4925 4350 4600 
L 4350 2875 
L 5275 2875 
L 5275 3475 
L 4650 3475 
L 4650 3900 
L 5275 3900 
L 5275 4500 
Q 4975 4500 4675 4475 
L 4675 4925 
Q 4975 4900 5200 4900 
L 5750 4900 
Q 5725 4600 5725 4300 
L 5725 3100 
Q 5725 2675 5750 2450 
L 4350 2450 
L 4350 1950 
L 5675 1950 
Q 5550 1600 5275 1150 
Q 5000 700 4500 200 
Q 4775 25 5275 -62 
Q 5775 -150 6175 -150 
Q 6000 -300 5875 -650 
Q 5175 -550 4812 -425 
Q 4450 -300 4125 -100 
Q 3700 -300 3350 -412 
Q 3000 -525 2375 -675 
Q 2325 -450 2075 -200 
Q 3125 -100 3725 200 
Q 3450 475 3275 762 
Q 3100 1050 2925 1525 
L 2525 1525 
L 2525 1975 
z
M 1150 4550 
Q 1150 4925 1125 5225 
L 1675 5225 
Q 1600 4925 1600 4600 
L 1600 3950 
Q 1925 3950 2150 3975 
L 2150 3500 
Q 1900 3525 1600 3525 
L 1600 2500 
Q 2000 2650 2175 2800 
Q 2175 2675 2200 2325 
Q 2075 2275 1600 2075 
L 1600 0 
Q 1600 -300 1350 -387 
Q 1100 -475 650 -550 
Q 625 -300 450 0 
Q 900 0 1025 25 
Q 1150 50 1150 225 
L 1150 1900 
Q 650 1675 450 1525 
Q 325 1950 250 2100 
Q 550 2125 1150 2350 
L 1150 3525 
Q 625 3525 350 3500 
L 350 3975 
Q 625 3950 1150 3950 
L 1150 4550 
z
M 3400 1525 
Q 3750 775 4150 450 
Q 4700 1000 4950 1525 
L 3400 1525 
z
" transform="scale(0.015625)"/>
       <path id="SimHei-7d22" d="M 3275 3000 
Q 3100 2925 2850 2775 
Q 2600 2625 2200 2375 
L 3425 2375 
Q 3825 2575 4175 2900 
Q 4475 2700 4775 2525 
Q 4325 2400 3937 2187 
Q 3550 1975 2300 1375 
Q 3375 1425 4600 1475 
Q 4400 1650 4200 1800 
Q 4475 1925 4575 2075 
Q 5025 1825 5675 1125 
Q 5425 975 5275 800 
Q 5050 1000 4900 1150 
Q 4400 1150 3450 1075 
L 3450 -25 
Q 3450 -400 3212 -475 
Q 2975 -550 2450 -625 
Q 2425 -350 2250 -100 
Q 2600 -100 2775 -75 
Q 2950 -50 2950 125 
L 2950 1025 
Q 2175 1025 1700 962 
Q 1225 900 975 850 
Q 900 1100 825 1300 
Q 1425 1400 1837 1550 
Q 2250 1700 2875 2050 
Q 2300 2050 2012 2025 
Q 1725 2000 1325 1900 
Q 1250 2175 1175 2350 
Q 1525 2375 1925 2612 
Q 2325 2850 2675 3275 
Q 2975 3125 3275 3000 
z
M 2900 4625 
Q 2900 4925 2875 5150 
L 3425 5150 
Q 3400 4850 3400 4625 
L 4775 4625 
Q 5050 4625 5575 4650 
L 5575 4250 
Q 5100 4275 4750 4275 
L 3400 4275 
L 3400 3750 
L 5900 3750 
Q 5875 3550 5875 3250 
Q 5875 2950 5900 2700 
L 5375 2700 
L 5375 3375 
L 975 3375 
L 975 2525 
L 475 2525 
L 475 3750 
L 2900 3750 
L 2900 4275 
L 1750 4275 
Q 1050 4275 825 4250 
L 825 4650 
Q 1150 4625 1725 4625 
L 2900 4625 
z
M 4525 800 
Q 5175 375 5875 -75 
Q 5650 -250 5475 -450 
Q 4800 100 4125 500 
Q 4350 675 4525 800 
z
M 2125 450 
Q 1900 325 1575 75 
Q 1250 -175 775 -475 
Q 650 -275 375 -125 
Q 1100 225 1700 775 
Q 1900 600 2125 450 
z
" transform="scale(0.015625)"/>
       <path id="SimHei-6b21" d="M 4150 3025 
Q 4000 2550 4050 2187 
Q 4100 1825 4275 1450 
Q 4450 1075 4800 750 
Q 5150 425 5475 212 
Q 5800 0 6150 -150 
Q 5875 -350 5750 -625 
Q 5250 -325 4887 -25 
Q 4525 275 4275 612 
Q 4025 950 3825 1425 
Q 3525 625 2950 125 
Q 2375 -375 1850 -650 
Q 1675 -400 1475 -225 
Q 2025 0 2487 362 
Q 2950 725 3162 1100 
Q 3375 1475 3450 1825 
Q 3525 2175 3537 2400 
Q 3550 2625 3525 3125 
Q 3825 3050 4150 3025 
z
M 3700 4975 
Q 3625 4900 3475 4575 
Q 3325 4250 3250 4075 
L 5775 4075 
Q 5650 3725 5550 3362 
Q 5450 3000 5275 2500 
Q 5000 2575 4775 2600 
Q 5025 3350 5100 3650 
L 3100 3650 
Q 2975 3400 2812 3100 
Q 2650 2800 2425 2450 
Q 2275 2600 1975 2700 
Q 2300 3050 2625 3762 
Q 2950 4475 3125 5200 
Q 3450 5025 3700 4975 
z
M 2025 2000 
Q 1825 1675 1475 1087 
Q 1125 500 725 -200 
Q 500 -25 250 175 
Q 725 725 1037 1262 
Q 1350 1800 1575 2325 
Q 1750 2175 2025 2000 
z
M 900 4750 
Q 1725 3725 1950 3375 
Q 1750 3250 1500 3050 
Q 1250 3525 500 4425 
Q 700 4575 900 4750 
z
" transform="scale(0.015625)"/>
       <path id="SimHei-6570" d="M 4525 4925 
Q 4475 4800 4400 4587 
Q 4325 4375 4175 3825 
L 5325 3825 
Q 5575 3825 5925 3850 
L 5925 3400 
Q 5650 3425 5500 3425 
Q 5500 3025 5362 2162 
Q 5225 1300 4875 675 
Q 5125 375 5437 137 
Q 5750 -100 6025 -200 
Q 5725 -425 5625 -625 
Q 5325 -450 5075 -225 
Q 4825 0 4575 325 
Q 4300 25 3987 -187 
Q 3675 -400 3200 -650 
Q 3075 -425 2850 -300 
Q 3225 -150 3650 125 
Q 4075 400 4300 675 
Q 4125 1025 3962 1425 
Q 3800 1825 3675 2475 
Q 3600 2275 3425 1950 
Q 3250 2050 3000 2150 
Q 3400 2850 3650 3675 
Q 3900 4500 3975 5100 
Q 4275 4975 4525 4925 
z
M 2100 2250 
Q 2000 2150 1875 1925 
L 3250 1925 
Q 3100 1300 2725 675 
Q 3125 525 3350 400 
Q 3225 225 3125 25 
Q 2900 175 2450 325 
Q 1950 -225 725 -650 
Q 600 -375 400 -275 
Q 1575 0 2000 475 
Q 1300 650 850 775 
Q 1000 1000 1250 1525 
Q 1000 1525 425 1500 
L 425 1950 
Q 900 1925 1400 1925 
Q 1500 2150 1550 2425 
Q 1825 2325 2100 2250 
z
M 1775 3950 
Q 1775 4550 1750 5100 
L 2250 5100 
Q 2225 4575 2225 3950 
Q 3075 3950 3425 3975 
L 3425 3525 
Q 3075 3550 2225 3550 
Q 2225 2825 2250 2425 
L 1750 2425 
Q 1775 2775 1775 3300 
Q 1650 3100 1300 2787 
Q 950 2475 650 2300 
Q 525 2525 275 2625 
Q 500 2700 875 2975 
Q 1250 3250 1450 3550 
Q 950 3550 500 3525 
L 500 3975 
Q 925 3950 1775 3950 
z
M 3975 3175 
Q 4200 1700 4600 1125 
Q 4850 1700 4937 2287 
Q 5025 2875 5050 3425 
L 4075 3425 
L 3975 3175 
z
M 1450 1000 
Q 1750 925 2275 800 
Q 2475 1050 2650 1525 
L 1725 1525 
Q 1600 1275 1450 1000 
z
M 3325 4825 
Q 3200 4625 3125 4450 
Q 3050 4275 2925 4025 
Q 2725 4125 2525 4175 
Q 2725 4500 2900 5000 
Q 3150 4875 3325 4825 
z
M 2575 3375 
Q 2900 3050 3200 2725 
Q 3050 2600 2875 2425 
Q 2525 2850 2300 3100 
Q 2450 3225 2575 3375 
z
M 925 5000 
Q 1275 4650 1500 4300 
L 1125 4075 
Q 950 4425 600 4725 
Q 825 4875 925 5000 
z
" transform="scale(0.015625)"/>
       <path id="SimHei-2f" d="M 3000 4550 
L 350 -175 
L 100 -25 
L 2750 4700 
L 3000 4550 
z
" transform="scale(0.015625)"/>
      </defs>
      <use xlink:href="#SimHei-641c"/>
      <use xlink:href="#SimHei-7d22" x="100"/>
      <use xlink:href="#SimHei-6b21" x="200"/>
      <use xlink:href="#SimHei-6570" x="300"/>
      <use xlink:href="#SimHei-2f" x="400"/>
      <use xlink:href="#SimHei-6b21" x="450"/>
     </g>
    </g>
   </g>
   <g id="matplotlib.axis_2">
    <g id="ytick_1">
     <g id="line2d_13">
      <path d="M 108 369.430441 
L 777.6 369.430441 
" clip-path="url(#pe55fc02610)" style="fill: none; stroke: #ffffff; stroke-width: 0.8; stroke-linecap: square"/>
     </g>
     <g id="line2d_14">
      <defs>
       <path id="mfcc588f2fb" d="M 0 0 
L -3.5 0 
" style="stroke: #555555; stroke-width: 0.8"/>
      </defs>
      <g>
       <use xlink:href="#mfcc588f2fb" x="108" y="369.430441" style="fill: #555555; stroke: #555555; stroke-width: 0.8"/>
      </g>
     </g>
     <g id="text_8">
      <!-- 0 -->
      <g style="fill: #555555" transform="translate(96 372.867941) scale(0.1 -0.1)">
       <use xlink:href="#SimHei-30"/>
      </g>
     </g>
    </g>
    <g id="ytick_2">
     <g id="line2d_15">
      <path d="M 108 311.692089 
L 777.6 311.692089 
" clip-path="url(#pe55fc02610)" style="fill: none; stroke: #ffffff; stroke-width: 0.8; stroke-linecap: square"/>
     </g>
     <g id="line2d_16">
      <g>
       <use xlink:href="#mfcc588f2fb" x="108" y="311.692089" style="fill: #555555; stroke: #555555; stroke-width: 0.8"/>
      </g>
     </g>
     <g id="text_9">
      <!-- 50000 -->
      <g style="fill: #555555" transform="translate(76 315.129589) scale(0.1 -0.1)">
       <use xlink:href="#SimHei-35"/>
       <use xlink:href="#SimHei-30" x="50"/>
       <use xlink:href="#SimHei-30" x="100"/>
       <use xlink:href="#SimHei-30" x="150"/>
       <use xlink:href="#SimHei-30" x="200"/>
      </g>
     </g>
    </g>
    <g id="ytick_3">
     <g id="line2d_17">
      <path d="M 108 253.953737 
L 777.6 253.953737 
" clip-path="url(#pe55fc02610)" style="fill: none; stroke: #ffffff; stroke-width: 0.8; stroke-linecap: square"/>
     </g>
     <g id="line2d_18">
      <g>
       <use xlink:href="#mfcc588f2fb" x="108" y="253.953737" style="fill: #555555; stroke: #555555; stroke-width: 0.8"/>
      </g>
     </g>
     <g id="text_10">
      <!-- 100000 -->
      <g style="fill: #555555" transform="translate(71 257.391237) scale(0.1 -0.1)">
       <use xlink:href="#SimHei-31"/>
       <use xlink:href="#SimHei-30" x="50"/>
       <use xlink:href="#SimHei-30" x="100"/>
       <use xlink:href="#SimHei-30" x="150"/>
       <use xlink:href="#SimHei-30" x="200"/>
       <use xlink:href="#SimHei-30" x="250"/>
      </g>
     </g>
    </g>
    <g id="ytick_4">
     <g id="line2d_19">
      <path d="M 108 196.215385 
L 777.6 196.215385 
" clip-path="url(#pe55fc02610)" style="fill: none; stroke: #ffffff; stroke-width: 0.8; stroke-linecap: square"/>
     </g>
     <g id="line2d_20">
      <g>
       <use xlink:href="#mfcc588f2fb" x="108" y="196.215385" style="fill: #555555; stroke: #555555; stroke-width: 0.8"/>
      </g>
     </g>
     <g id="text_11">
      <!-- 150000 -->
      <g style="fill: #555555" transform="translate(71 199.652885) scale(0.1 -0.1)">
       <use xlink:href="#SimHei-31"/>
       <use xlink:href="#SimHei-35" x="50"/>
       <use xlink:href="#SimHei-30" x="100"/>
       <use xlink:href="#SimHei-30" x="150"/>
       <use xlink:href="#SimHei-30" x="200"/>
       <use xlink:href="#SimHei-30" x="250"/>
      </g>
     </g>
    </g>
    <g id="ytick_5">
     <g id="line2d_21">
      <path d="M 108 138.477032 
L 777.6 138.477032 
" clip-path="url(#pe55fc02610)" style="fill: none; stroke: #ffffff; stroke-width: 0.8; stroke-linecap: square"/>
     </g>
     <g id="line2d_22">
      <g>
       <use xlink:href="#mfcc588f2fb" x="108" y="138.477032" style="fill: #555555; stroke: #555555; stroke-width: 0.8"/>
      </g>
     </g>
     <g id="text_12">
      <!-- 200000 -->
      <g style="fill: #555555" transform="translate(71 141.914532) scale(0.1 -0.1)">
       <use xlink:href="#SimHei-32"/>
       <use xlink:href="#SimHei-30" x="50"/>
       <use xlink:href="#SimHei-30" x="100"/>
       <use xlink:href="#SimHei-30" x="150"/>
       <use xlink:href="#SimHei-30" x="200"/>
       <use xlink:href="#SimHei-30" x="250"/>
      </g>
     </g>
    </g>
    <g id="ytick_6">
     <g id="line2d_23">
      <path d="M 108 80.73868 
L 777.6 80.73868 
" clip-path="url(#pe55fc02610)" style="fill: none; stroke: #ffffff; stroke-width: 0.8; stroke-linecap: square"/>
     </g>
     <g id="line2d_24">
      <g>
       <use xlink:href="#mfcc588f2fb" x="108" y="80.73868" style="fill: #555555; stroke: #555555; stroke-width: 0.8"/>
      </g>
     </g>
     <g id="text_13">
      <!-- 250000 -->
      <g style="fill: #555555" transform="translate(71 84.17618) scale(0.1 -0.1)">
       <use xlink:href="#SimHei-32"/>
       <use xlink:href="#SimHei-35" x="50"/>
       <use xlink:href="#SimHei-30" x="100"/>
       <use xlink:href="#SimHei-30" x="150"/>
       <use xlink:href="#SimHei-30" x="200"/>
       <use xlink:href="#SimHei-30" x="250"/>
      </g>
     </g>
    </g>
    <g id="text_14">
     <!-- 节点数/个 -->
     <g style="fill: #555555" transform="translate(65.5 245.16) rotate(-90) scale(0.12 -0.12)">
      <defs>
       <path id="SimHei-8282" d="M 4200 200 
Q 4150 500 3950 800 
Q 4450 800 4712 850 
Q 4975 900 5000 1150 
L 5050 2500 
L 2925 2500 
L 2925 325 
Q 2925 -125 2950 -600 
L 2375 -600 
Q 2425 -150 2425 325 
L 2425 2500 
L 1875 2500 
Q 1050 2500 550 2475 
L 550 2950 
Q 1075 2925 1625 2925 
L 5625 2925 
Q 5550 1875 5525 1225 
Q 5500 575 5150 412 
Q 4800 250 4200 200 
z
M 2475 3950 
Q 2475 3500 2500 3175 
L 1950 3175 
Q 1975 3550 1975 3950 
L 1125 3950 
Q 775 3950 350 3900 
L 350 4400 
Q 775 4375 1125 4375 
L 1975 4375 
Q 1975 4850 1950 5175 
L 2500 5175 
Q 2475 4850 2475 4375 
L 3800 4375 
Q 3800 4875 3775 5175 
L 4350 5175 
Q 4325 4875 4325 4375 
L 5125 4375 
Q 5600 4375 6000 4400 
L 6000 3925 
Q 5600 3950 5125 3950 
L 4325 3950 
Q 4325 3550 4350 3175 
L 3775 3175 
Q 3800 3575 3800 3950 
L 2475 3950 
z
" transform="scale(0.015625)"/>
       <path id="SimHei-70b9" d="M 3325 5200 
Q 3300 4925 3300 4375 
L 4900 4375 
Q 5275 4375 5725 4400 
L 5725 3925 
Q 5300 3950 4900 3950 
L 3300 3950 
L 3300 3225 
L 5225 3225 
Q 5200 2700 5200 2150 
Q 5200 1625 5225 1175 
L 1175 1175 
Q 1200 1625 1200 2175 
Q 1200 2725 1175 3225 
L 2775 3225 
L 2775 4500 
Q 2775 4900 2750 5200 
L 3325 5200 
z
M 4700 1600 
L 4700 2800 
L 1725 2800 
L 1725 1600 
L 4700 1600 
z
M 1500 750 
Q 1025 -250 825 -625 
Q 625 -475 325 -375 
Q 650 50 950 925 
Q 1200 800 1500 750 
z
M 5325 850 
Q 5775 150 6075 -350 
Q 5925 -425 5575 -625 
Q 5375 -150 4900 575 
Q 5150 700 5325 850 
z
M 3975 -575 
Q 3775 -100 3400 575 
Q 3575 675 3825 825 
Q 4350 -75 4450 -325 
Q 4200 -450 3975 -575 
z
M 2375 -575 
Q 2350 -300 1975 550 
Q 2200 625 2425 775 
Q 2800 -75 2900 -350 
Q 2625 -450 2375 -575 
z
" transform="scale(0.015625)"/>
       <path id="SimHei-4e2a" d="M 3425 4825 
Q 4475 3275 6150 2775 
Q 5900 2475 5775 2200 
Q 4150 2900 3150 4425 
Q 2225 2950 675 2125 
Q 550 2350 250 2600 
Q 1450 3100 2112 3875 
Q 2775 4650 3000 5275 
Q 3300 5150 3600 5050 
Q 3500 4925 3425 4825 
z
M 2925 2350 
Q 2925 2750 2875 3375 
L 3450 3375 
Q 3425 2950 3425 2325 
L 3425 550 
Q 3425 -25 3450 -625 
L 2900 -625 
Q 2925 0 2925 525 
L 2925 2350 
z
" transform="scale(0.015625)"/>
      </defs>
      <use xlink:href="#SimHei-8282"/>
      <use xlink:href="#SimHei-70b9" x="100"/>
      <use xlink:href="#SimHei-6570" x="200"/>
      <use xlink:href="#SimHei-2f" x="300"/>
      <use xlink:href="#SimHei-4e2a" x="350"/>
     </g>
    </g>
   </g>
   <g id="PolyCollection_1">
    <defs>
     <path id="mc13bb8087b" d="M 138.436364 -62.64 
L 138.436364 -90.071491 
L 140.472241 -92.858608 
L 142.508118 -95.527373 
L 144.543995 -98.083752 
L 146.579872 -100.533709 
L 148.615749 -102.883207 
L 150.651627 -105.138212 
L 152.687504 -107.304686 
L 154.723381 -109.388596 
L 156.759258 -111.395904 
L 158.795135 -113.332575 
L 160.831012 -115.204574 
L 162.86689 -117.017864 
L 164.902767 -118.77841 
L 166.938644 -120.492176 
L 168.974521 -122.165126 
L 171.010398 -123.803225 
L 173.046275 -125.412437 
L 175.082153 -126.998726 
L 177.11803 -128.568056 
L 179.153907 -130.126392 
L 181.189784 -131.679697 
L 183.225661 -133.233937 
L 185.261538 -134.795075 
L 187.297416 -136.369075 
L 189.333293 -137.959983 
L 191.36917 -139.565806 
L 193.405047 -141.183363 
L 195.440924 -142.809474 
L 197.476801 -144.440958 
L 199.512679 -146.074635 
L 201.548556 -147.707323 
L 203.584433 -149.335843 
L 205.62031 -150.957014 
L 207.656187 -152.567656 
L 209.692064 -154.164587 
L 211.727942 -155.74463 
L 213.763819 -157.306057 
L 215.799696 -158.851214 
L 217.835573 -160.383151 
L 219.87145 -161.904922 
L 221.907327 -163.419578 
L 223.943205 -164.930171 
L 225.979082 -166.439755 
L 228.014959 -167.95138 
L 230.050836 -169.468099 
L 232.086713 -170.992965 
L 234.12259 -172.529028 
L 236.158468 -174.079341 
L 238.194345 -175.646172 
L 240.230222 -177.229845 
L 242.266099 -178.830383 
L 244.301976 -180.44781 
L 246.337853 -182.082149 
L 248.373731 -183.733424 
L 250.409608 -185.40166 
L 252.445485 -187.086878 
L 254.481362 -188.789103 
L 256.517239 -190.508359 
L 258.553116 -192.244669 
L 260.588994 -193.998049 
L 262.624871 -195.767021 
L 264.660748 -197.546766 
L 266.696625 -199.332017 
L 268.732502 -201.117504 
L 270.768379 -202.89796 
L 272.804257 -204.668114 
L 274.840134 -206.422699 
L 276.876011 -208.156446 
L 278.911888 -209.864085 
L 280.947765 -211.540349 
L 282.983642 -213.179969 
L 285.01952 -214.777702 
L 287.055397 -216.331962 
L 289.091274 -217.848455 
L 291.127151 -219.333753 
L 293.163028 -220.794429 
L 295.198905 -222.237055 
L 297.234783 -223.668205 
L 299.27066 -225.09445 
L 301.306537 -226.522364 
L 303.342414 -227.958519 
L 305.378291 -229.409488 
L 307.414168 -230.881844 
L 309.450046 -232.38209 
L 311.485923 -233.910507 
L 313.5218 -235.45623 
L 315.557677 -237.007242 
L 317.593554 -238.551524 
L 319.629431 -240.077057 
L 321.665309 -241.571823 
L 323.701186 -243.023802 
L 325.737063 -244.420976 
L 327.77294 -245.751326 
L 329.808817 -247.002833 
L 331.844694 -248.163479 
L 333.880572 -249.221327 
L 335.916449 -250.16983 
L 337.952326 -251.011106 
L 339.988203 -251.748053 
L 342.02408 -252.383568 
L 344.059957 -252.92055 
L 346.095835 -253.361896 
L 348.131712 -253.710505 
L 350.167589 -253.969275 
L 352.203466 -254.141103 
L 354.239343 -254.228888 
L 356.27522 -254.235528 
L 358.311098 -254.163965 
L 360.346975 -254.019359 
L 362.382852 -253.810073 
L 364.418729 -253.544717 
L 366.454606 -253.231904 
L 368.490483 -252.880245 
L 370.526361 -252.498353 
L 372.562238 -252.094838 
L 374.598115 -251.678312 
L 376.633992 -251.257387 
L 378.669869 -250.840675 
L 380.705746 -250.436786 
L 382.741624 -250.054254 
L 384.777501 -249.698502 
L 386.813378 -249.370918 
L 388.849255 -249.07262 
L 390.885132 -248.804726 
L 392.921009 -248.568354 
L 394.956887 -248.364621 
L 396.992764 -248.194646 
L 399.028641 -248.059547 
L 401.064518 -247.960442 
L 403.100395 -247.898448 
L 405.136272 -247.874683 
L 407.17215 -247.890159 
L 409.208027 -247.942535 
L 411.243904 -248.025556 
L 413.279781 -248.132745 
L 415.315658 -248.257623 
L 417.351535 -248.393713 
L 419.387413 -248.534536 
L 421.42329 -248.673615 
L 423.459167 -248.804471 
L 425.495044 -248.920627 
L 427.530921 -249.015605 
L 429.566798 -249.082926 
L 431.602676 -249.116421 
L 433.638553 -249.117686 
L 435.67443 -249.096505 
L 437.710307 -249.063051 
L 439.746184 -249.027499 
L 441.782061 -249.00002 
L 443.817939 -248.990789 
L 445.853816 -249.00998 
L 447.889693 -249.067765 
L 449.92557 -249.174318 
L 451.961447 -249.339812 
L 453.997324 -249.574421 
L 456.033202 -249.887734 
L 458.069079 -250.277086 
L 460.104956 -250.728182 
L 462.140833 -251.226264 
L 464.17671 -251.756578 
L 466.212587 -252.304368 
L 468.248465 -252.854879 
L 470.284342 -253.393354 
L 472.320219 -253.905038 
L 474.356096 -254.375175 
L 476.391973 -254.789011 
L 478.42785 -255.131788 
L 480.463728 -255.389454 
L 482.499605 -255.560307 
L 484.535482 -255.653213 
L 486.571359 -255.677375 
L 488.607236 -255.641997 
L 490.643113 -255.556284 
L 492.678991 -255.429438 
L 494.714868 -255.270664 
L 496.750745 -255.089166 
L 498.786622 -254.894148 
L 500.822499 -254.694814 
L 502.858376 -254.500368 
L 504.894254 -254.319683 
L 506.930131 -254.156694 
L 508.966008 -254.011529 
L 511.001885 -253.884223 
L 513.037762 -253.774806 
L 515.073639 -253.683311 
L 517.109517 -253.609772 
L 519.145394 -253.55422 
L 521.181271 -253.516687 
L 523.217148 -253.497207 
L 525.253025 -253.49581 
L 527.288902 -253.512531 
L 529.32478 -253.547371 
L 531.360657 -253.599945 
L 533.396534 -253.6696 
L 535.432411 -253.755677 
L 537.468288 -253.857519 
L 539.504165 -253.974465 
L 541.540043 -254.105858 
L 543.57592 -254.25104 
L 545.611797 -254.409351 
L 547.647674 -254.580133 
L 549.683551 -254.762728 
L 551.719428 -254.956477 
L 553.755306 -255.16087 
L 555.791183 -255.377037 
L 557.82706 -255.607132 
L 559.862937 -255.853323 
L 561.898814 -256.117779 
L 563.934691 -256.402668 
L 565.970569 -256.710158 
L 568.006446 -257.042418 
L 570.042323 -257.401616 
L 572.0782 -257.789921 
L 574.114077 -258.2095 
L 576.149954 -258.662523 
L 578.185832 -259.150945 
L 580.221709 -259.674663 
L 582.257586 -260.232426 
L 584.293463 -260.822971 
L 586.32934 -261.445033 
L 588.365217 -262.09735 
L 590.401095 -262.778656 
L 592.436972 -263.487688 
L 594.472849 -264.223183 
L 596.508726 -264.983877 
L 598.544603 -265.768505 
L 600.58048 -266.575804 
L 602.616358 -267.404497 
L 604.652235 -268.253194 
L 606.688112 -269.120449 
L 608.723989 -270.004815 
L 610.759866 -270.904846 
L 612.795743 -271.819094 
L 614.831621 -272.746113 
L 616.867498 -273.684457 
L 618.903375 -274.632679 
L 620.939252 -275.589331 
L 622.975129 -276.552969 
L 625.011006 -277.522144 
L 627.046884 -278.495562 
L 629.082761 -279.47305 
L 631.118638 -280.454936 
L 633.154515 -281.441553 
L 635.190392 -282.433231 
L 637.226269 -283.430302 
L 639.262147 -284.433098 
L 641.298024 -285.44195 
L 643.333901 -286.45719 
L 645.369778 -287.479149 
L 647.405655 -288.508159 
L 649.441532 -289.544552 
L 651.47741 -290.588802 
L 653.513287 -291.642323 
L 655.549164 -292.706902 
L 657.585041 -293.78433 
L 659.620918 -294.876396 
L 661.656795 -295.984887 
L 663.692673 -297.111594 
L 665.72855 -298.258306 
L 667.764427 -299.426812 
L 669.800304 -300.618901 
L 671.836181 -301.836362 
L 673.872058 -303.080984 
L 675.907936 -304.353241 
L 677.943813 -305.646039 
L 679.97969 -306.949584 
L 682.015567 -308.25408 
L 684.051444 -309.549731 
L 686.087321 -310.826739 
L 688.123199 -312.075308 
L 690.159076 -313.285641 
L 692.194953 -314.447942 
L 694.23083 -315.552414 
L 696.266707 -316.589261 
L 698.302584 -317.548685 
L 700.338462 -318.422042 
L 702.374339 -319.206548 
L 704.410216 -319.901278 
L 706.446093 -320.505309 
L 708.48197 -321.017717 
L 710.517847 -321.43758 
L 712.553725 -321.763973 
L 714.589602 -321.995973 
L 716.625479 -322.132657 
L 718.661356 -322.173102 
L 720.697233 -322.116383 
L 722.73311 -321.961578 
L 724.768988 -321.707762 
L 726.804865 -321.354013 
L 728.840742 -320.899408 
L 730.876619 -320.343022 
L 732.912496 -319.683932 
L 734.948373 -318.921214 
L 736.984251 -318.053947 
L 739.020128 -317.081205 
L 741.056005 -316.002065 
L 743.091882 -314.815604 
L 745.127759 -313.520899 
L 747.163636 -312.117026 
L 747.163636 -365.04 
L 747.163636 -365.04 
L 745.127759 -363.996946 
L 743.091882 -362.980127 
L 741.056005 -361.987958 
L 739.020128 -361.01885 
L 736.984251 -360.071216 
L 734.948373 -359.14347 
L 732.912496 -358.234023 
L 730.876619 -357.341289 
L 728.840742 -356.46368 
L 726.804865 -355.599609 
L 724.768988 -354.747489 
L 722.73311 -353.905733 
L 720.697233 -353.072753 
L 718.661356 -352.246963 
L 716.625479 -351.426774 
L 714.589602 -350.6106 
L 712.553725 -349.796853 
L 710.517847 -348.983947 
L 708.48197 -348.170293 
L 706.446093 -347.354305 
L 704.410216 -346.534396 
L 702.374339 -345.708978 
L 700.338462 -344.876464 
L 698.302584 -344.035267 
L 696.266707 -343.185688 
L 694.23083 -342.333972 
L 692.194953 -341.487534 
L 690.159076 -340.653786 
L 688.123199 -339.840143 
L 686.087321 -339.054018 
L 684.051444 -338.302825 
L 682.015567 -337.593979 
L 679.97969 -336.934892 
L 677.943813 -336.332978 
L 675.907936 -335.795651 
L 673.872058 -335.330321 
L 671.836181 -334.940547 
L 669.800304 -334.619099 
L 667.764427 -334.356872 
L 665.72855 -334.14476 
L 663.692673 -333.973657 
L 661.656795 -333.834457 
L 659.620918 -333.718055 
L 657.585041 -333.615344 
L 655.549164 -333.517218 
L 653.513287 -333.414573 
L 651.47741 -333.298301 
L 649.441532 -333.159306 
L 647.405655 -332.991251 
L 645.369778 -332.794708 
L 643.333901 -332.571309 
L 641.298024 -332.322686 
L 639.262147 -332.050471 
L 637.226269 -331.756294 
L 635.190392 -331.441788 
L 633.154515 -331.108585 
L 631.118638 -330.758316 
L 629.082761 -330.392614 
L 627.046884 -330.013109 
L 625.011006 -329.621432 
L 622.975129 -329.218868 
L 620.939252 -328.805928 
L 618.903375 -328.38302 
L 616.867498 -327.950554 
L 614.831621 -327.508936 
L 612.795743 -327.058576 
L 610.759866 -326.59988 
L 608.723989 -326.133258 
L 606.688112 -325.659116 
L 604.652235 -325.177864 
L 602.616358 -324.689908 
L 600.58048 -324.195654 
L 598.544603 -323.694888 
L 596.508726 -323.186169 
L 594.472849 -322.66791 
L 592.436972 -322.138524 
L 590.401095 -321.596422 
L 588.365217 -321.040019 
L 586.32934 -320.467726 
L 584.293463 -319.877957 
L 582.257586 -319.269124 
L 580.221709 -318.63964 
L 578.185832 -317.987917 
L 576.149954 -317.312369 
L 574.114077 -316.611507 
L 572.0782 -315.884018 
L 570.042323 -315.128605 
L 568.006446 -314.343972 
L 565.970569 -313.528823 
L 563.934691 -312.681861 
L 561.898814 -311.80179 
L 559.862937 -310.887315 
L 557.82706 -309.937139 
L 555.791183 -308.949966 
L 553.755306 -307.924499 
L 551.719428 -306.859463 
L 549.683551 -305.754874 
L 547.647674 -304.612831 
L 545.611797 -303.435617 
L 543.57592 -302.225517 
L 541.540043 -300.984815 
L 539.504165 -299.715797 
L 537.468288 -298.420746 
L 535.432411 -297.101948 
L 533.396534 -295.761686 
L 531.360657 -294.402246 
L 529.32478 -293.025912 
L 527.288902 -291.634944 
L 525.253025 -290.230399 
L 523.217148 -288.811591 
L 521.181271 -287.377703 
L 519.145394 -285.927913 
L 517.109517 -284.461403 
L 515.073639 -282.977354 
L 513.037762 -281.474946 
L 511.001885 -279.953359 
L 508.966008 -278.411773 
L 506.930131 -276.84937 
L 504.894254 -275.26533 
L 502.858376 -273.658845 
L 500.822499 -272.029555 
L 498.786622 -270.377681 
L 496.750745 -268.703483 
L 494.714868 -267.007222 
L 492.678991 -265.289159 
L 490.643113 -263.549552 
L 488.607236 -261.788663 
L 486.571359 -260.006752 
L 484.535482 -258.204079 
L 482.499605 -256.380905 
L 480.463728 -254.537489 
L 478.42785 -252.674218 
L 476.391973 -250.79535 
L 474.356096 -248.909676 
L 472.320219 -247.026247 
L 470.284342 -245.15411 
L 468.248465 -243.302314 
L 466.212587 -241.479907 
L 464.17671 -239.695939 
L 462.140833 -237.959459 
L 460.104956 -236.279514 
L 458.069079 -234.665153 
L 456.033202 -233.125426 
L 453.997324 -231.668943 
L 451.961447 -230.293227 
L 449.92557 -228.98412 
L 447.889693 -227.726908 
L 445.853816 -226.506875 
L 443.817939 -225.309308 
L 441.782061 -224.11949 
L 439.746184 -222.922708 
L 437.710307 -221.704245 
L 435.67443 -220.449389 
L 433.638553 -219.143423 
L 431.602676 -217.771633 
L 429.566798 -216.319887 
L 427.530921 -214.786266 
L 425.495044 -213.180444 
L 423.459167 -211.512557 
L 421.42329 -209.792735 
L 419.387413 -208.031112 
L 417.351535 -206.237822 
L 415.315658 -204.422996 
L 413.279781 -202.596769 
L 411.243904 -200.769273 
L 409.208027 -198.950642 
L 407.17215 -197.151007 
L 405.136272 -195.380018 
L 403.100395 -193.638784 
L 401.064518 -191.921115 
L 399.028641 -190.220584 
L 396.992764 -188.530765 
L 394.956887 -186.845233 
L 392.921009 -185.157561 
L 390.885132 -183.461324 
L 388.849255 -181.750095 
L 386.813378 -180.01745 
L 384.777501 -178.256961 
L 382.741624 -176.462203 
L 380.705746 -174.627022 
L 378.669869 -172.74933 
L 376.633992 -170.830173 
L 374.598115 -168.870673 
L 372.562238 -166.871957 
L 370.526361 -164.835147 
L 368.490483 -162.761369 
L 366.454606 -160.651747 
L 364.418729 -158.507406 
L 362.382852 -156.32947 
L 360.346975 -154.119063 
L 358.311098 -151.87731 
L 356.27522 -149.605668 
L 354.239343 -147.309863 
L 352.203466 -144.998574 
L 350.167589 -142.680542 
L 348.131712 -140.364508 
L 346.095835 -138.059211 
L 344.059957 -135.773392 
L 342.02408 -133.51579 
L 339.988203 -131.295146 
L 337.952326 -129.1202 
L 335.916449 -126.999691 
L 333.880572 -124.942361 
L 331.844694 -122.956628 
L 329.808817 -121.047359 
L 327.77294 -119.217208 
L 325.737063 -117.468795 
L 323.701186 -115.804741 
L 321.665309 -114.227666 
L 319.629431 -112.740192 
L 317.593554 -111.344939 
L 315.557677 -110.044528 
L 313.5218 -108.841579 
L 311.485923 -107.738713 
L 309.450046 -106.738551 
L 307.414168 -105.842809 
L 305.378291 -105.044501 
L 303.342414 -104.331775 
L 301.306537 -103.692728 
L 299.27066 -103.115453 
L 297.234783 -102.588048 
L 295.198905 -102.098608 
L 293.163028 -101.635228 
L 291.127151 -101.186004 
L 289.091274 -100.739031 
L 287.055397 -100.282405 
L 285.01952 -99.804221 
L 282.983642 -99.293946 
L 280.947765 -98.752579 
L 278.911888 -98.1869 
L 276.876011 -97.603731 
L 274.840134 -97.009894 
L 272.804257 -96.412211 
L 270.768379 -95.817504 
L 268.732502 -95.232595 
L 266.696625 -94.664306 
L 264.660748 -94.11946 
L 262.624871 -93.604877 
L 260.588994 -93.127381 
L 258.553116 -92.692719 
L 256.517239 -92.298698 
L 254.481362 -91.939565 
L 252.445485 -91.609551 
L 250.409608 -91.302887 
L 248.373731 -91.013804 
L 246.337853 -90.736532 
L 244.301976 -90.465303 
L 242.266099 -90.194348 
L 240.230222 -89.917896 
L 238.194345 -89.630179 
L 236.158468 -89.325428 
L 234.12259 -88.998496 
L 232.086713 -88.64829 
L 230.050836 -88.275337 
L 228.014959 -87.88017 
L 225.979082 -87.463322 
L 223.943205 -87.025326 
L 221.907327 -86.566713 
L 219.87145 -86.088017 
L 217.835573 -85.589771 
L 215.799696 -85.072506 
L 213.763819 -84.536756 
L 211.727942 -83.983053 
L 209.692064 -83.412136 
L 207.656187 -82.82592 
L 205.62031 -82.226745 
L 203.584433 -81.616948 
L 201.548556 -80.99887 
L 199.512679 -80.374847 
L 197.476801 -79.74722 
L 195.440924 -79.118326 
L 193.405047 -78.490504 
L 191.36917 -77.866093 
L 189.333293 -77.247431 
L 187.297416 -76.636858 
L 185.261538 -76.036264 
L 183.225661 -75.445269 
L 181.189784 -74.862771 
L 179.153907 -74.287667 
L 177.11803 -73.718853 
L 175.082153 -73.155228 
L 173.046275 -72.595688 
L 171.010398 -72.03913 
L 168.974521 -71.484453 
L 166.938644 -70.930553 
L 164.902767 -70.376327 
L 162.86689 -69.820672 
L 160.831012 -69.262487 
L 158.795135 -68.700667 
L 156.759258 -68.134111 
L 154.723381 -67.561716 
L 152.687504 -66.982378 
L 150.651627 -66.394995 
L 148.615749 -65.798465 
L 146.579872 -65.191684 
L 144.543995 -64.57355 
L 142.508118 -63.94296 
L 140.472241 -63.298811 
L 138.436364 -62.64 
z
" style="stroke: #008000; stroke-width: 0.5"/>
    </defs>
    <g clip-path="url(#pe55fc02610)">
     <use xlink:href="#mc13bb8087b" x="0" y="432" style="fill: #008000; stroke: #008000; stroke-width: 0.5"/>
    </g>
   </g>
   <g id="line2d_25">
    <path d="M 138.436364 341.928509 
L 142.508118 336.472627 
L 146.579872 331.466291 
L 150.651627 326.861788 
L 154.723381 322.611404 
L 158.795135 318.667425 
L 162.86689 314.982136 
L 168.974521 309.834874 
L 175.082153 305.001274 
L 195.440924 289.190526 
L 211.727942 276.25537 
L 221.907327 268.580422 
L 236.158468 257.920659 
L 244.301976 251.55219 
L 252.445485 244.913122 
L 260.588994 238.001951 
L 278.911888 222.135915 
L 285.01952 217.222298 
L 291.127151 212.666247 
L 301.306537 205.477636 
L 309.450046 199.61791 
L 323.701186 188.976198 
L 327.77294 186.248674 
L 331.844694 183.836521 
L 335.916449 181.83017 
L 339.988203 180.251947 
L 344.059957 179.07945 
L 348.131712 178.289495 
L 352.203466 177.858897 
L 356.27522 177.764472 
L 360.346975 177.980641 
L 364.418729 178.455283 
L 370.526361 179.501647 
L 386.813378 182.629082 
L 392.921009 183.431646 
L 399.028641 183.940453 
L 403.100395 184.101552 
L 407.17215 184.109841 
L 413.279781 183.867255 
L 429.566798 182.917074 
L 435.67443 182.903495 
L 445.853816 182.99002 
L 449.92557 182.825682 
L 453.997324 182.425579 
L 458.069079 181.722914 
L 462.140833 180.773736 
L 474.356096 177.624825 
L 478.42785 176.868212 
L 482.499605 176.439693 
L 486.571359 176.322625 
L 490.643113 176.443716 
L 496.750745 176.910834 
L 508.966008 177.988471 
L 517.109517 178.390228 
L 525.253025 178.50419 
L 533.396534 178.3304 
L 541.540043 177.894142 
L 549.683551 177.237272 
L 557.82706 176.392868 
L 563.934691 175.597332 
L 570.042323 174.598384 
L 576.149954 173.337477 
L 582.257586 171.767574 
L 588.365217 169.90265 
L 594.472849 167.776817 
L 600.58048 165.424196 
L 608.723989 161.995185 
L 616.867498 158.315543 
L 629.082761 152.52695 
L 643.333901 145.54281 
L 655.549164 139.293098 
L 663.692673 134.888406 
L 669.800304 131.381099 
L 675.907936 127.646759 
L 690.159076 118.714359 
L 694.23083 116.447586 
L 698.302584 114.451315 
L 702.374339 112.793452 
L 706.446093 111.494691 
L 710.517847 110.56242 
L 714.589602 110.004027 
L 718.661356 109.826898 
L 722.73311 110.038422 
L 726.804865 110.645987 
L 730.876619 111.656978 
L 734.948373 113.078786 
L 739.020128 114.918795 
L 743.091882 117.184396 
L 747.163636 119.882974 
L 747.163636 119.882974 
" clip-path="url(#pe55fc02610)" style="fill: none; stroke: #0000ff; stroke-width: 2; stroke-linecap: square"/>
   </g>
   <g id="line2d_26">
    <path d="M 138.436364 369.36 
L 146.579872 366.808316 
L 156.759258 363.865889 
L 191.36917 354.133907 
L 209.692064 348.587864 
L 217.835573 346.410229 
L 223.943205 344.974674 
L 230.050836 343.724663 
L 236.158468 342.674572 
L 244.301976 341.534697 
L 252.445485 340.390449 
L 258.553116 339.307281 
L 262.624871 338.395123 
L 268.732502 336.767405 
L 285.01952 332.195779 
L 301.306537 328.307272 
L 305.378291 326.955499 
L 309.450046 325.261449 
L 313.5218 323.158421 
L 317.593554 320.655061 
L 321.665309 317.772334 
L 325.737063 314.531205 
L 329.808817 310.952641 
L 333.880572 307.057639 
L 337.952326 302.8798 
L 344.059957 296.226608 
L 364.418729 273.492594 
L 370.526361 267.164853 
L 376.633992 261.169827 
L 382.741624 255.537797 
L 388.849255 250.249905 
L 409.208027 233.049358 
L 421.42329 222.207265 
L 425.495044 218.819556 
L 429.566798 215.680113 
L 433.638553 212.856577 
L 437.710307 210.295755 
L 451.961447 201.706773 
L 456.033202 198.874574 
L 460.104956 195.720486 
L 464.17671 192.304061 
L 470.284342 186.84589 
L 486.571359 171.993248 
L 494.714868 164.992778 
L 502.858376 158.341155 
L 511.001885 152.046641 
L 519.145394 146.072087 
L 527.288902 140.365056 
L 535.432411 134.898052 
L 541.540043 131.015185 
L 547.647674 127.387169 
L 553.755306 124.075501 
L 559.862937 121.112685 
L 565.970569 118.471177 
L 572.0782 116.115982 
L 578.185832 114.012083 
L 584.293463 112.122043 
L 592.436972 109.861476 
L 602.616358 107.310092 
L 614.831621 104.491064 
L 625.011006 102.378568 
L 633.154515 100.891415 
L 639.262147 99.949529 
L 645.369778 99.205292 
L 651.47741 98.701699 
L 665.72855 97.85524 
L 669.800304 97.380901 
L 673.872058 96.669679 
L 677.943813 95.667022 
L 682.015567 94.406021 
L 686.087321 92.945982 
L 692.194953 90.512466 
L 708.48197 83.829707 
L 726.804865 76.400391 
L 734.948373 72.85653 
L 741.056005 70.012042 
L 747.163636 66.96 
L 747.163636 66.96 
" clip-path="url(#pe55fc02610)" style="fill: none; stroke: #ff0000; stroke-width: 2; stroke-linecap: square"/>
   </g>
   <g id="patch_3">
    <path d="M 108 384.48 
L 108 51.84 
" style="fill: none; stroke: #ffffff; stroke-linejoin: miter; stroke-linecap: square"/>
   </g>
   <g id="patch_4">
    <path d="M 777.6 384.48 
L 777.6 51.84 
" style="fill: none; stroke: #ffffff; stroke-linejoin: miter; stroke-linecap: square"/>
   </g>
   <g id="patch_5">
    <path d="M 108 384.48 
L 777.6 384.48 
" style="fill: none; stroke: #ffffff; stroke-linejoin: miter; stroke-linecap: square"/>
   </g>
   <g id="patch_6">
    <path d="M 108 51.84 
L 777.6 51.84 
" style="fill: none; stroke: #ffffff; stroke-linejoin: miter; stroke-linecap: square"/>
   </g>
   <g id="text_15">
    <!-- 节点数变化图 -->
    <g transform="translate(394.8 45.84) scale(0.16 -0.16)">
     <defs>
      <path id="SimHei-53d8" d="M 5200 1975 
Q 4950 1600 4537 1137 
Q 4125 675 3675 375 
Q 3925 225 4600 87 
Q 5275 -50 6000 -75 
Q 5700 -400 5650 -625 
Q 4850 -525 4212 -312 
Q 3575 -100 3225 125 
Q 2800 -125 2150 -325 
Q 1500 -525 700 -675 
Q 600 -425 400 -175 
Q 950 -150 1687 12 
Q 2425 175 2825 375 
Q 2275 775 1675 1575 
Q 1350 1575 1000 1550 
L 1000 2000 
Q 1450 1975 2075 1975 
L 5200 1975 
z
M 3225 5275 
Q 3400 4900 3550 4475 
L 4675 4475 
Q 5400 4475 5975 4500 
L 5975 4025 
Q 5375 4050 4725 4050 
L 4125 4050 
L 4125 2950 
Q 4125 2550 4150 2150 
L 3600 2150 
Q 3625 2550 3625 2950 
L 3625 4050 
L 2750 4050 
L 2750 2950 
Q 2750 2675 2775 2150 
L 2225 2150 
Q 2250 2675 2250 2950 
L 2250 4050 
L 1700 4050 
Q 975 4050 425 4025 
L 425 4500 
Q 950 4475 1700 4475 
L 2975 4475 
Q 2925 4675 2700 5125 
Q 2950 5150 3225 5275 
z
M 2200 1575 
Q 2650 975 3250 600 
Q 3850 1000 4275 1575 
L 2200 1575 
z
M 4850 3750 
Q 5375 3275 5950 2675 
Q 5750 2525 5500 2300 
Q 5075 2800 4450 3400 
Q 4675 3575 4850 3750 
z
M 1825 3500 
Q 1700 3375 1425 3025 
Q 1150 2675 825 2300 
Q 575 2475 375 2600 
Q 975 3150 1300 3825 
Q 1525 3650 1825 3500 
z
" transform="scale(0.015625)"/>
      <path id="SimHei-5316" d="M 3925 5025 
Q 3900 4900 3900 4400 
L 3900 2625 
Q 4375 3025 4775 3450 
Q 5175 3875 5400 4300 
Q 5600 4100 5900 3925 
Q 5700 3700 5225 3212 
Q 4750 2725 4487 2512 
Q 4225 2300 3900 2025 
L 3900 450 
Q 3900 50 4225 50 
L 5200 50 
Q 5400 75 5462 262 
Q 5525 450 5575 850 
Q 5800 650 6150 600 
Q 6000 -100 5825 -250 
Q 5650 -400 5350 -400 
L 3950 -400 
Q 3425 -400 3400 200 
L 3400 1675 
Q 3225 1525 2962 1350 
Q 2700 1175 2375 975 
Q 2225 1225 2025 1400 
Q 2350 1550 2737 1787 
Q 3125 2025 3400 2250 
L 3400 4500 
Q 3400 4800 3375 5025 
L 3925 5025 
z
M 2400 4850 
Q 2175 4550 2075 4337 
Q 1975 4125 1825 3775 
L 1825 675 
Q 1825 -75 1850 -550 
L 1325 -550 
Q 1350 -125 1350 650 
L 1350 3050 
Q 1125 2725 962 2525 
Q 800 2325 675 2175 
Q 500 2375 275 2525 
Q 625 2850 875 3212 
Q 1125 3575 1312 3912 
Q 1500 4250 1625 4575 
Q 1750 4900 1825 5100 
Q 1975 4975 2400 4850 
z
" transform="scale(0.015625)"/>
      <path id="SimHei-56fe" d="M 5800 4975 
Q 5775 4350 5775 3600 
L 5775 925 
Q 5775 150 5800 -600 
L 5300 -600 
L 5300 -275 
L 1125 -275 
L 1125 -650 
L 625 -650 
Q 650 125 650 950 
L 650 3600 
Q 650 4325 625 4975 
L 5800 4975 
z
M 5300 150 
L 5300 4575 
L 1125 4575 
L 1125 150 
L 5300 150 
z
M 3225 4250 
Q 3075 4100 2950 3925 
L 4625 3925 
Q 4525 3700 4300 3375 
Q 4075 3050 3600 2600 
Q 4350 2225 5075 2150 
Q 4900 1925 4775 1675 
Q 3850 1950 3225 2350 
Q 2500 1875 1675 1650 
Q 1600 1875 1400 2075 
Q 2200 2200 2875 2600 
Q 2525 2925 2375 3150 
Q 2150 2900 1900 2650 
Q 1725 2850 1525 2950 
Q 1950 3300 2250 3737 
Q 2550 4175 2675 4475 
Q 2925 4350 3225 4250 
z
M 2450 1275 
Q 3550 950 4100 725 
Q 3975 525 3850 300 
Q 2825 725 2275 850 
Q 2375 1050 2450 1275 
z
M 2925 2050 
Q 3775 1700 4075 1600 
Q 3950 1400 3850 1150 
Q 3000 1550 2700 1650 
Q 2825 1825 2925 2050 
z
M 2625 3450 
Q 3000 3025 3275 2850 
Q 3600 3100 3875 3525 
L 2675 3525 
L 2625 3450 
z
" transform="scale(0.015625)"/>
     </defs>
     <use xlink:href="#SimHei-8282"/>
     <use xlink:href="#SimHei-70b9" x="100"/>
     <use xlink:href="#SimHei-6570" x="200"/>
     <use xlink:href="#SimHei-53d8" x="300"/>
     <use xlink:href="#SimHei-5316" x="400"/>
     <use xlink:href="#SimHei-56fe" x="500"/>
    </g>
   </g>
   <g id="legend_1">
    <g id="patch_7">
     <path d="M 116.4 95.84625 
L 238.8 95.84625 
Q 241.2 95.84625 241.2 93.44625 
L 241.2 60.24 
Q 241.2 57.84 238.8 57.84 
L 116.4 57.84 
Q 114 57.84 114 60.24 
L 114 93.44625 
Q 114 95.84625 116.4 95.84625 
z
" style="fill: #e5e5e5; opacity: 0.8; stroke: #cccccc; stroke-width: 0.5; stroke-linejoin: miter"/>
    </g>
    <g id="line2d_27">
     <path d="M 118.8 68.09625 
L 130.8 68.09625 
L 142.8 68.09625 
" style="fill: none; stroke: #0000ff; stroke-width: 2; stroke-linecap: square"/>
    </g>
    <g id="text_16">
     <!-- 图中当前节点数 -->
     <g transform="translate(152.4 72.29625) scale(0.12 -0.12)">
      <defs>
       <path id="SimHei-4e2d" d="M 3475 5200 
Q 3450 4500 3450 3875 
L 5625 3875 
Q 5600 3375 5600 2500 
Q 5600 1650 5625 1225 
L 5075 1225 
L 5075 1600 
L 3450 1600 
L 3450 525 
Q 3450 225 3475 -600 
L 2875 -600 
Q 2925 -150 2925 450 
L 2925 1600 
L 1300 1600 
L 1300 1225 
L 750 1225 
Q 775 1600 775 2500 
Q 775 3425 750 3875 
L 2925 3875 
Q 2925 4550 2900 5200 
L 3475 5200 
z
M 5075 2000 
L 5075 3475 
L 3450 3475 
L 3450 2000 
L 5075 2000 
z
M 2925 2000 
L 2925 3475 
L 1300 3475 
L 1300 2000 
L 2925 2000 
z
" transform="scale(0.015625)"/>
       <path id="SimHei-5f53" d="M 3550 5125 
Q 3525 4825 3525 4275 
L 3525 2925 
L 5625 2925 
Q 5600 2425 5600 2100 
L 5600 175 
Q 5600 -150 5625 -650 
L 5075 -650 
L 5075 -125 
L 1675 -125 
Q 1150 -125 675 -150 
L 675 325 
Q 1150 300 1675 300 
L 5075 300 
L 5075 1200 
L 2000 1200 
Q 1425 1200 900 1175 
L 900 1675 
Q 1425 1650 2000 1650 
L 5075 1650 
L 5075 2500 
L 1700 2500 
Q 1250 2500 750 2475 
L 750 2950 
Q 1250 2925 1700 2925 
L 3000 2925 
L 3000 4275 
Q 3000 4725 2975 5125 
L 3550 5125 
z
M 5700 4500 
Q 5525 4300 5287 4000 
Q 5050 3700 4650 3225 
Q 4450 3400 4225 3575 
Q 4725 4050 5175 4850 
Q 5425 4650 5700 4500 
z
M 1325 4800 
Q 1875 4175 2275 3600 
Q 2025 3450 1775 3250 
Q 1375 3925 875 4450 
Q 1150 4625 1325 4800 
z
" transform="scale(0.015625)"/>
       <path id="SimHei-524d" d="M 2075 -100 
Q 2400 -100 2537 -87 
Q 2675 -75 2675 100 
L 2675 875 
L 1325 875 
L 1325 -650 
L 800 -650 
Q 850 -200 850 350 
L 850 2350 
Q 850 2850 825 3300 
L 3175 3300 
Q 3150 2875 3150 2375 
L 3150 -150 
Q 3150 -400 2950 -475 
Q 2750 -550 2275 -625 
Q 2200 -350 2075 -100 
z
M 4950 5075 
Q 4825 4975 4687 4750 
Q 4550 4525 4375 4225 
L 5400 4225 
Q 5750 4225 6175 4250 
L 6175 3775 
Q 5775 3825 5300 3825 
L 1350 3825 
Q 700 3825 250 3775 
L 250 4250 
Q 775 4225 1350 4225 
L 3875 4225 
Q 4300 5025 4350 5300 
Q 4625 5150 4950 5075 
z
M 4375 -75 
Q 4825 -100 4937 -75 
Q 5050 -50 5050 150 
L 5050 2750 
Q 5050 3050 5025 3400 
L 5550 3400 
Q 5525 3075 5525 2750 
L 5525 -25 
Q 5525 -350 5362 -450 
Q 5200 -550 4600 -600 
Q 4550 -275 4375 -75 
z
M 3775 575 
Q 3800 950 3800 1225 
L 3800 2375 
Q 3800 2775 3775 3075 
L 4300 3075 
Q 4275 2775 4275 2375 
L 4275 1250 
Q 4275 875 4300 575 
L 3775 575 
z
M 2675 2250 
L 2675 2925 
L 1325 2925 
L 1325 2250 
L 2675 2250 
z
M 2675 1250 
L 2675 1875 
L 1325 1875 
L 1325 1250 
L 2675 1250 
z
M 2225 4300 
Q 2125 4575 1750 5050 
Q 2025 5175 2200 5300 
Q 2550 4850 2725 4550 
Q 2500 4450 2225 4300 
z
" transform="scale(0.015625)"/>
      </defs>
      <use xlink:href="#SimHei-56fe"/>
      <use xlink:href="#SimHei-4e2d" x="100"/>
      <use xlink:href="#SimHei-5f53" x="200"/>
      <use xlink:href="#SimHei-524d" x="300"/>
      <use xlink:href="#SimHei-8282" x="400"/>
      <use xlink:href="#SimHei-70b9" x="500"/>
      <use xlink:href="#SimHei-6570" x="600"/>
     </g>
    </g>
    <g id="line2d_28">
     <path d="M 118.8 85.34625 
L 130.8 85.34625 
L 142.8 85.34625 
" style="fill: none; stroke: #ff0000; stroke-width: 2; stroke-linecap: square"/>
    </g>
    <g id="text_17">
     <!-- 累计剪枝节点数 -->
     <g transform="translate(152.4 89.54625) scale(0.12 -0.12)">
      <defs>
       <path id="SimHei-7d2f" d="M 5475 5000 
Q 5450 4600 5450 3975 
Q 5450 3350 5475 2950 
L 4675 2950 
Q 4850 2775 5075 2600 
Q 4800 2525 4237 2275 
Q 3675 2025 3262 1837 
Q 2850 1650 2400 1425 
Q 3850 1525 4650 1575 
Q 4425 1725 4200 1850 
Q 4375 2000 4500 2175 
Q 5125 1800 5900 1300 
Q 5750 1125 5575 900 
Q 5375 1075 5100 1250 
Q 4250 1175 3475 1125 
L 3475 50 
Q 3475 -350 3212 -462 
Q 2950 -575 2600 -600 
Q 2575 -375 2375 -50 
Q 2800 -75 2900 -25 
Q 3000 25 3000 125 
L 3000 1075 
Q 2400 1050 1987 1012 
Q 1575 975 850 875 
Q 775 1125 700 1350 
Q 1150 1400 1575 1512 
Q 2000 1625 3025 2125 
Q 1775 2025 1250 1925 
Q 1200 2200 1100 2375 
Q 1325 2375 1737 2537 
Q 2150 2700 2475 2950 
L 950 2950 
Q 975 3375 975 3975 
Q 975 4600 950 5000 
L 5475 5000 
z
M 2425 525 
Q 2200 400 1762 137 
Q 1325 -125 850 -425 
Q 700 -225 500 -25 
Q 850 125 1250 362 
Q 1650 600 2025 900 
Q 2150 725 2425 525 
z
M 2975 4100 
L 2975 4650 
L 1450 4650 
L 1450 4100 
L 2975 4100 
z
M 4975 4100 
L 4975 4650 
L 3450 4650 
L 3450 4100 
L 4975 4100 
z
M 4275 850 
Q 4750 650 5050 500 
L 5850 100 
Q 5675 -125 5575 -375 
Q 5150 -100 4775 100 
Q 4400 300 4050 450 
Q 4200 675 4275 850 
z
M 2975 3275 
L 2975 3750 
L 1450 3750 
L 1450 3275 
L 2975 3275 
z
M 4975 3275 
L 4975 3750 
L 3450 3750 
L 3450 3275 
L 4975 3275 
z
M 3700 2475 
Q 4200 2700 4575 2950 
L 3225 2950 
Q 2900 2750 2300 2425 
Q 3075 2450 3700 2475 
z
" transform="scale(0.015625)"/>
       <path id="SimHei-8ba1" d="M 3925 3100 
L 3925 4350 
Q 3925 4850 3900 5125 
L 4425 5125 
Q 4400 4800 4400 4550 
L 4400 3100 
L 5425 3100 
Q 5725 3100 6075 3125 
L 6075 2650 
Q 5700 2675 5450 2675 
L 4400 2675 
L 4400 175 
Q 4400 -125 4425 -550 
L 3900 -550 
Q 3925 -125 3925 150 
L 3925 2675 
L 2950 2675 
Q 2575 2675 2200 2650 
L 2200 3125 
Q 2575 3100 2900 3100 
L 3925 3100 
z
M 1775 3150 
Q 1750 2675 1750 2150 
L 1750 625 
Q 2175 1050 2425 1400 
Q 2575 1200 2775 1000 
L 2075 300 
Q 1750 -25 1450 -350 
Q 1275 -125 1125 50 
Q 1300 250 1275 650 
L 1275 2725 
Q 600 2725 275 2700 
L 275 3175 
Q 675 3150 825 3150 
L 1775 3150 
z
M 1150 5050 
Q 1475 4725 2175 4000 
Q 1950 3800 1750 3625 
Q 1425 4100 775 4750 
Q 950 4875 1150 5050 
z
" transform="scale(0.015625)"/>
       <path id="SimHei-526a" d="M 2400 1900 
Q 2700 1900 2800 1925 
Q 2900 1950 2900 2025 
L 2900 2150 
L 1375 2150 
L 1375 1575 
L 900 1575 
Q 925 1825 925 2150 
L 925 3100 
Q 925 3450 900 3750 
L 3325 3750 
L 3325 2050 
Q 3350 1675 3125 1600 
Q 2900 1525 2550 1475 
Q 2500 1675 2400 1900 
z
M 4050 -575 
Q 3950 -275 3825 -50 
Q 4625 -25 4712 37 
Q 4800 100 4825 350 
L 4875 875 
L 3050 875 
Q 2875 350 2575 87 
Q 2275 -175 1900 -350 
Q 1525 -525 900 -700 
Q 825 -450 625 -225 
Q 1375 -125 1887 125 
Q 2400 375 2550 875 
L 1850 875 
Q 1325 875 775 850 
L 775 1300 
Q 1325 1275 1875 1275 
L 5425 1275 
L 5300 225 
Q 5250 -175 5075 -312 
Q 4900 -450 4050 -575 
z
M 4525 4800 
Q 4400 4675 4250 4475 
L 4800 4475 
Q 5450 4475 6025 4500 
L 6025 4075 
Q 5450 4100 4800 4100 
L 2175 4100 
Q 1450 4100 375 4075 
L 375 4500 
Q 1450 4475 2150 4475 
L 3750 4475 
Q 3900 4675 4037 4887 
Q 4175 5100 4250 5275 
Q 4475 5150 4750 5025 
L 4525 4800 
z
M 5475 3875 
Q 5450 3625 5450 3150 
L 5450 2000 
Q 5450 1650 5200 1587 
Q 4950 1525 4650 1475 
Q 4600 1700 4500 1950 
Q 4775 1950 4900 1975 
Q 5025 2000 5000 2175 
L 5000 3150 
Q 5000 3525 4975 3875 
L 5475 3875 
z
M 4300 3625 
Q 4275 3400 4275 3150 
L 4275 2400 
Q 4275 2225 4300 1975 
L 3850 1975 
Q 3875 2225 3875 2425 
L 3875 3175 
Q 3875 3425 3850 3625 
L 4300 3625 
z
M 2900 3100 
L 2900 3400 
L 1375 3400 
L 1375 3100 
L 2900 3100 
z
M 2900 2475 
L 2900 2750 
L 1375 2750 
L 1375 2475 
L 2900 2475 
z
M 2450 4800 
Q 2275 4675 2125 4500 
Q 1925 4725 1600 5000 
Q 1800 5175 1900 5300 
Q 2375 4850 2450 4800 
z
" transform="scale(0.015625)"/>
       <path id="SimHei-679d" d="M 2750 2900 
Q 3050 2875 3350 2875 
L 3950 2875 
L 3950 3900 
L 3225 3900 
Q 2950 3900 2675 3875 
L 2675 4325 
Q 2925 4300 3225 4300 
L 3950 4300 
Q 3950 4650 3925 5150 
L 4450 5150 
Q 4425 4900 4425 4300 
L 5325 4300 
Q 5600 4300 5900 4325 
L 5900 3875 
Q 5675 3900 5375 3900 
L 4425 3900 
L 4425 2875 
L 5625 2875 
Q 5525 2525 5425 2225 
Q 5325 1925 5175 1637 
Q 5025 1350 4875 1112 
Q 4725 875 4550 675 
Q 4850 425 5300 262 
Q 5750 100 6150 50 
Q 5925 -200 5875 -450 
Q 5250 -250 4887 -62 
Q 4525 125 4225 350 
Q 3850 0 3475 -212 
Q 3100 -425 2625 -625 
Q 2525 -375 2275 -200 
Q 2875 -75 3275 200 
Q 3675 475 3875 675 
Q 3250 1400 3000 2450 
L 2750 2450 
L 2750 2900 
z
M 2150 2725 
Q 2300 2475 2400 2262 
Q 2500 2050 2650 1800 
Q 2375 1675 2150 1550 
Q 2025 1875 1925 2075 
Q 1825 2275 1725 2450 
L 1725 475 
Q 1725 -25 1750 -575 
L 1250 -575 
Q 1275 0 1275 475 
L 1275 2225 
Q 1000 1500 525 775 
Q 400 1075 200 1325 
Q 325 1425 562 1800 
Q 800 2175 950 2587 
Q 1100 3000 1200 3425 
Q 800 3425 375 3400 
L 375 3850 
Q 800 3825 1275 3825 
L 1275 4450 
Q 1275 4825 1250 5175 
L 1750 5175 
Q 1725 4875 1725 4450 
L 1725 3825 
Q 2050 3825 2425 3850 
L 2425 3400 
Q 2050 3425 1725 3425 
L 1725 2500 
Q 1925 2600 2150 2725 
z
M 3450 2475 
Q 3700 1525 4225 1025 
Q 4750 1650 5000 2475 
L 3450 2475 
z
" transform="scale(0.015625)"/>
      </defs>
      <use xlink:href="#SimHei-7d2f"/>
      <use xlink:href="#SimHei-8ba1" x="100"/>
      <use xlink:href="#SimHei-526a" x="200"/>
      <use xlink:href="#SimHei-679d" x="300"/>
      <use xlink:href="#SimHei-8282" x="400"/>
      <use xlink:href="#SimHei-70b9" x="500"/>
      <use xlink:href="#SimHei-6570" x="600"/>
     </g>
    </g>
   </g>
  </g>
 </g>
 <defs>
  <clipPath id="pe55fc02610">
   <rect x="108" y="51.84" width="669.6" height="332.64"/>
  </clipPath>
 </defs>
</svg>
