<?xml version="1.0" encoding="utf-8" standalone="no"?>
<!DOCTYPE svg PUBLIC "-//W3C//DTD SVG 1.1//EN"
  "http://www.w3.org/Graphics/SVG/1.1/DTD/svg11.dtd">
<svg xmlns:xlink="http://www.w3.org/1999/xlink" width="720pt" height="432pt" viewBox="0 0 720 432" xmlns="http://www.w3.org/2000/svg" version="1.1">
 <metadata>
  <rdf:RDF xmlns:dc="http://purl.org/dc/elements/1.1/" xmlns:cc="http://creativecommons.org/ns#" xmlns:rdf="http://www.w3.org/1999/02/22-rdf-syntax-ns#">
   <cc:Work>
    <dc:type rdf:resource="http://purl.org/dc/dcmitype/StillImage"/>
    <dc:date>2023-10-19T14:47:28.787916</dc:date>
    <dc:format>image/svg+xml</dc:format>
    <dc:creator>
     <cc:Agent>
      <dc:title>Matplotlib v3.7.2, https://matplotlib.org/</dc:title>
     </cc:Agent>
    </dc:creator>
   </cc:Work>
  </rdf:RDF>
 </metadata>
 <defs>
  <style type="text/css">*{stroke-linejoin: round; stroke-linecap: butt}</style>
 </defs>
 <g id="figure_1">
  <g id="patch_1">
   <path d="M 0 432 
L 720 432 
L 720 0 
L 0 0 
L 0 432 
z
" style="fill: none"/>
  </g>
  <g id="axes_1">
   <g id="patch_2">
    <path d="M 90 384.48 
L 648 384.48 
L 648 51.84 
L 90 51.84 
L 90 384.48 
z
" style="fill: none"/>
   </g>
   <g id="matplotlib.axis_1">
    <g id="xtick_1">
     <g id="line2d_1">
      <path d="M 95.072727 384.48 
L 95.072727 51.84 
" clip-path="url(#p1715dabed9)" style="fill: none; stroke: #ffffff; stroke-width: 0.8; stroke-linecap: square"/>
     </g>
     <g id="line2d_2">
      <defs>
       <path id="m442ea30251" d="M 0 0 
L 0 3.5 
" style="stroke: #555555; stroke-width: 0.8"/>
      </defs>
      <g>
       <use xlink:href="#m442ea30251" x="95.072727" y="384.48" style="fill: #555555; stroke: #555555; stroke-width: 0.8"/>
      </g>
     </g>
     <g id="text_1">
      <!-- 0 -->
      <g style="fill: #555555" transform="translate(92.572727 398.355) scale(0.1 -0.1)">
       <defs>
        <path id="SimHei-30" d="M 225 2537 
Q 250 3200 412 3587 
Q 575 3975 875 4225 
Q 1175 4475 1612 4475 
Q 2050 4475 2375 4112 
Q 2700 3750 2800 3200 
Q 2900 2650 2862 1937 
Q 2825 1225 2612 775 
Q 2400 325 1975 150 
Q 1550 -25 1125 187 
Q 700 400 525 750 
Q 350 1100 275 1487 
Q 200 1875 225 2537 
z
M 750 2687 
Q 675 2000 800 1462 
Q 925 925 1212 700 
Q 1500 475 1800 612 
Q 2100 750 2237 1162 
Q 2375 1575 2375 2062 
Q 2375 2550 2337 2950 
Q 2300 3350 2112 3675 
Q 1925 4000 1612 4012 
Q 1300 4025 1062 3700 
Q 825 3375 750 2687 
z
" transform="scale(0.015625)"/>
       </defs>
       <use xlink:href="#SimHei-30"/>
      </g>
     </g>
    </g>
    <g id="xtick_2">
     <g id="line2d_3">
      <path d="M 196.527273 384.48 
L 196.527273 51.84 
" clip-path="url(#p1715dabed9)" style="fill: none; stroke: #ffffff; stroke-width: 0.8; stroke-linecap: square"/>
     </g>
     <g id="line2d_4">
      <g>
       <use xlink:href="#m442ea30251" x="196.527273" y="384.48" style="fill: #555555; stroke: #555555; stroke-width: 0.8"/>
      </g>
     </g>
     <g id="text_2">
      <!-- 5 -->
      <g style="fill: #555555" transform="translate(194.027273 398.355) scale(0.1 -0.1)">
       <defs>
        <path id="SimHei-35" d="M 550 1325 
Q 725 650 1150 575 
Q 1575 500 1837 662 
Q 2100 825 2212 1087 
Q 2325 1350 2312 1675 
Q 2300 2000 2137 2225 
Q 1975 2450 1725 2525 
Q 1475 2600 1162 2525 
Q 850 2450 650 2175 
L 225 2225 
Q 275 2375 700 4375 
L 2675 4375 
L 2675 3925 
L 1075 3925 
Q 950 3250 825 2850 
Q 1200 3025 1525 3012 
Q 1850 3000 2150 2862 
Q 2450 2725 2587 2487 
Q 2725 2250 2787 2012 
Q 2850 1775 2837 1500 
Q 2825 1225 2725 937 
Q 2625 650 2425 462 
Q 2225 275 1937 162 
Q 1650 50 1275 75 
Q 900 100 562 350 
Q 225 600 100 1200 
L 550 1325 
z
" transform="scale(0.015625)"/>
       </defs>
       <use xlink:href="#SimHei-35"/>
      </g>
     </g>
    </g>
    <g id="xtick_3">
     <g id="line2d_5">
      <path d="M 297.981818 384.48 
L 297.981818 51.84 
" clip-path="url(#p1715dabed9)" style="fill: none; stroke: #ffffff; stroke-width: 0.8; stroke-linecap: square"/>
     </g>
     <g id="line2d_6">
      <g>
       <use xlink:href="#m442ea30251" x="297.981818" y="384.48" style="fill: #555555; stroke: #555555; stroke-width: 0.8"/>
      </g>
     </g>
     <g id="text_3">
      <!-- 10 -->
      <g style="fill: #555555" transform="translate(292.981818 398.355) scale(0.1 -0.1)">
       <defs>
        <path id="SimHei-31" d="M 1400 3600 
Q 1075 3275 575 2975 
L 575 3450 
Q 1200 3875 1600 4450 
L 1900 4450 
L 1900 150 
L 1400 150 
L 1400 3600 
z
" transform="scale(0.015625)"/>
       </defs>
       <use xlink:href="#SimHei-31"/>
       <use xlink:href="#SimHei-30" x="50"/>
      </g>
     </g>
    </g>
    <g id="xtick_4">
     <g id="line2d_7">
      <path d="M 399.436364 384.48 
L 399.436364 51.84 
" clip-path="url(#p1715dabed9)" style="fill: none; stroke: #ffffff; stroke-width: 0.8; stroke-linecap: square"/>
     </g>
     <g id="line2d_8">
      <g>
       <use xlink:href="#m442ea30251" x="399.436364" y="384.48" style="fill: #555555; stroke: #555555; stroke-width: 0.8"/>
      </g>
     </g>
     <g id="text_4">
      <!-- 15 -->
      <g style="fill: #555555" transform="translate(394.436364 398.355) scale(0.1 -0.1)">
       <use xlink:href="#SimHei-31"/>
       <use xlink:href="#SimHei-35" x="50"/>
      </g>
     </g>
    </g>
    <g id="xtick_5">
     <g id="line2d_9">
      <path d="M 500.890909 384.48 
L 500.890909 51.84 
" clip-path="url(#p1715dabed9)" style="fill: none; stroke: #ffffff; stroke-width: 0.8; stroke-linecap: square"/>
     </g>
     <g id="line2d_10">
      <g>
       <use xlink:href="#m442ea30251" x="500.890909" y="384.48" style="fill: #555555; stroke: #555555; stroke-width: 0.8"/>
      </g>
     </g>
     <g id="text_5">
      <!-- 20 -->
      <g style="fill: #555555" transform="translate(495.890909 398.355) scale(0.1 -0.1)">
       <defs>
        <path id="SimHei-32" d="M 300 250 
Q 325 625 650 925 
Q 975 1225 1475 1862 
Q 1975 2500 2125 2850 
Q 2275 3200 2237 3450 
Q 2200 3700 2000 3862 
Q 1800 4025 1537 4000 
Q 1275 3975 1037 3800 
Q 800 3625 675 3275 
L 200 3350 
Q 400 3925 712 4187 
Q 1025 4450 1450 4475 
Q 1700 4500 1900 4462 
Q 2100 4425 2312 4287 
Q 2525 4150 2662 3875 
Q 2800 3600 2762 3212 
Q 2725 2825 2375 2287 
Q 2025 1750 1025 600 
L 2825 600 
L 2825 150 
L 300 150 
L 300 250 
z
" transform="scale(0.015625)"/>
       </defs>
       <use xlink:href="#SimHei-32"/>
       <use xlink:href="#SimHei-30" x="50"/>
      </g>
     </g>
    </g>
    <g id="xtick_6">
     <g id="line2d_11">
      <path d="M 602.345455 384.48 
L 602.345455 51.84 
" clip-path="url(#p1715dabed9)" style="fill: none; stroke: #ffffff; stroke-width: 0.8; stroke-linecap: square"/>
     </g>
     <g id="line2d_12">
      <g>
       <use xlink:href="#m442ea30251" x="602.345455" y="384.48" style="fill: #555555; stroke: #555555; stroke-width: 0.8"/>
      </g>
     </g>
     <g id="text_6">
      <!-- 25 -->
      <g style="fill: #555555" transform="translate(597.345455 398.355) scale(0.1 -0.1)">
       <use xlink:href="#SimHei-32"/>
       <use xlink:href="#SimHei-35" x="50"/>
      </g>
     </g>
    </g>
    <g id="text_7">
     <!-- 搜索次数/次 -->
     <g style="fill: #555555" transform="translate(355.25 407.647969) scale(0.05 -0.05)">
      <defs>
       <path id="KaiTi-641c" d="M 4100 2750 
Q 4450 2800 4800 2900 
Q 4900 3150 4925 3300 
Q 4625 3275 4475 3275 
Q 4350 3275 4312 3350 
Q 4275 3425 4450 3475 
Q 4625 3525 4975 3600 
Q 5000 3775 5025 3887 
Q 5050 4000 4875 3962 
Q 4700 3925 4587 3912 
Q 4475 3900 4362 3987 
Q 4250 4075 4400 4075 
Q 4550 4075 4787 4187 
Q 5025 4300 5087 4312 
Q 5150 4325 5450 4125 
Q 5750 3925 5650 3875 
Q 5550 3825 5387 3512 
Q 5225 3200 5087 2812 
Q 4950 2425 4800 2675 
Q 4675 2650 4100 2550 
L 4100 2050 
Q 4325 2100 4412 2187 
Q 4500 2275 4737 2125 
Q 4975 1975 4925 1900 
Q 4875 1825 4775 1687 
Q 4675 1550 4587 1287 
Q 4500 1025 4300 700 
Q 4675 375 5125 200 
Q 5575 25 5887 -12 
Q 6200 -50 6050 -112 
Q 5900 -175 5412 -225 
Q 4925 -275 4762 -150 
Q 4600 -25 4050 475 
Q 3650 150 3262 50 
Q 2875 -50 2587 -37 
Q 2300 -25 2587 50 
Q 2875 125 3212 275 
Q 3550 425 3850 700 
Q 3700 875 3462 1075 
Q 3225 1275 3062 1362 
Q 2900 1450 3050 1500 
Q 3200 1550 3400 1387 
Q 3600 1225 4025 900 
Q 4200 1125 4287 1425 
Q 4375 1725 4362 1800 
Q 4350 1875 3987 1800 
Q 3625 1725 3437 1700 
Q 3250 1675 3037 1775 
Q 2825 1875 3112 1887 
Q 3400 1900 3850 2000 
L 3850 2475 
Q 3700 2450 3200 2375 
Q 3100 2075 3000 2400 
Q 2900 2725 2800 3062 
Q 2700 3400 2587 3550 
Q 2475 3700 2612 3737 
Q 2750 3775 2875 3775 
Q 3000 3825 3137 3962 
Q 3275 4100 3312 4250 
Q 3350 4400 3462 4375 
Q 3575 4350 3737 4200 
Q 3900 4050 3650 3962 
Q 3400 3875 3000 3675 
L 3050 3150 
Q 3275 3225 3375 3287 
Q 3475 3350 3587 3225 
Q 3700 3100 3500 3062 
Q 3300 3025 3100 2975 
L 3150 2575 
Q 3525 2625 3850 2700 
L 3850 3900 
Q 3850 4700 3762 4887 
Q 3675 5075 3737 5112 
Q 3800 5150 4050 5037 
Q 4300 4925 4275 4862 
Q 4250 4800 4200 4600 
Q 4150 4400 4137 4000 
Q 4125 3600 4100 2750 
z
M 2075 3400 
Q 2525 3500 2475 3325 
Q 2425 3150 2075 3075 
L 2075 2250 
Q 2475 2500 2512 2475 
Q 2550 2450 2075 1975 
L 2075 525 
Q 2075 175 1962 -137 
Q 1850 -450 1737 -237 
Q 1625 -25 1350 200 
Q 1075 425 1337 350 
Q 1600 275 1675 337 
Q 1750 400 1775 762 
Q 1800 1125 1800 1775 
Q 975 1225 812 1012 
Q 650 800 450 1000 
Q 250 1200 275 1237 
Q 300 1275 475 1325 
Q 650 1375 962 1562 
Q 1275 1750 1800 2075 
L 1800 3000 
Q 1550 2950 1375 2925 
Q 1200 2900 1000 3000 
Q 800 3100 1012 3125 
Q 1225 3150 1800 3325 
Q 1825 3900 1800 4262 
Q 1775 4625 1712 4762 
Q 1650 4900 1637 4962 
Q 1625 5025 1812 4975 
Q 2000 4925 2137 4850 
Q 2275 4775 2175 4587 
Q 2075 4400 2075 3400 
z
" transform="scale(0.015625)"/>
       <path id="KaiTi-7d22" d="M 3325 4350 
Q 3475 4375 3775 4450 
Q 4075 4525 4212 4437 
Q 4350 4350 4087 4250 
Q 3825 4150 3275 4050 
L 3200 3450 
Q 3775 3525 4125 3587 
Q 4475 3650 4625 3700 
Q 4775 3750 5125 3537 
Q 5475 3325 5587 3100 
Q 5700 2875 5487 2912 
Q 5275 2950 4975 2900 
Q 4675 2850 4487 2800 
Q 4300 2750 4612 3050 
Q 4925 3350 4575 3375 
Q 4225 3400 2950 3225 
Q 3050 3025 2925 2950 
Q 2800 2875 2587 2650 
Q 2375 2425 2375 2375 
Q 2375 2350 3100 2425 
Q 3450 2825 3475 2962 
Q 3500 3100 3775 2912 
Q 4050 2725 3900 2637 
Q 3750 2550 3575 2437 
Q 3400 2325 2525 1525 
Q 2750 1550 3750 1750 
Q 3400 2150 3662 2100 
Q 3925 2050 4162 1862 
Q 4400 1675 4325 1462 
Q 4250 1250 4100 1362 
Q 3950 1475 3850 1600 
Q 3225 1475 3075 1425 
Q 3325 1250 3300 1187 
Q 3275 1125 3275 875 
Q 3275 625 3300 212 
Q 3325 -200 3162 -487 
Q 3000 -775 2862 -525 
Q 2725 -275 2562 -100 
Q 2400 75 2412 125 
Q 2425 175 2687 62 
Q 2950 -50 2975 100 
Q 3000 250 2975 587 
Q 2950 925 2937 1062 
Q 2925 1200 2800 1350 
Q 2400 1225 2237 1112 
Q 2075 1000 2000 1062 
Q 1925 1125 1837 1287 
Q 1750 1450 2062 1525 
Q 2375 1600 2975 2250 
Q 2325 2125 2212 2037 
Q 2100 1950 2025 2050 
Q 1950 2150 1900 2250 
Q 1850 2350 2100 2512 
Q 2350 2675 2625 3175 
Q 2375 3150 2012 3100 
Q 1650 3050 1275 3050 
Q 1225 2700 1087 2412 
Q 950 2125 837 2362 
Q 725 2600 825 2712 
Q 925 2825 987 3000 
Q 1050 3175 1087 3362 
Q 1125 3550 1275 3225 
Q 1550 3225 2950 3425 
L 2975 4000 
Q 2725 3950 2575 3950 
Q 2425 3950 2262 4050 
Q 2100 4150 2275 4162 
Q 2450 4175 3000 4275 
L 3000 4650 
Q 3000 4925 2925 5050 
Q 2850 5175 2925 5187 
Q 3000 5200 3250 5100 
Q 3500 5000 3425 4887 
Q 3350 4775 3325 4350 
z
M 3975 650 
Q 3725 925 3687 987 
Q 3650 1050 4075 925 
Q 4500 800 4687 537 
Q 4875 275 4775 75 
Q 4675 -125 4450 125 
Q 4225 375 3975 650 
z
M 1675 600 
Q 1775 775 1850 850 
Q 1925 925 1912 575 
Q 1900 225 1675 -12 
Q 1450 -250 1337 -100 
Q 1225 50 1412 250 
Q 1600 450 1675 600 
z
" transform="scale(0.015625)"/>
       <path id="KaiTi-6b21" d="M 3250 1925 
Q 3725 1325 4175 912 
Q 4625 500 4987 375 
Q 5350 250 5737 150 
Q 6125 50 5975 -25 
Q 5825 -100 5150 -150 
Q 4475 -200 4212 162 
Q 3950 525 3175 1725 
Q 2975 900 2612 512 
Q 2250 125 1637 -37 
Q 1025 -200 1500 25 
Q 1975 250 2287 625 
Q 2600 1000 2712 1350 
Q 2825 1700 2862 1950 
Q 2900 2200 2812 2337 
Q 2725 2475 2900 2450 
Q 3075 2425 3225 2350 
Q 3375 2275 3312 2200 
Q 3250 2125 3250 1925 
z
M 3050 3100 
Q 3400 3125 3775 3250 
Q 4150 3375 4337 3487 
Q 4525 3600 4737 3525 
Q 4950 3450 5162 3275 
Q 5375 3100 5025 3000 
Q 4675 2900 4325 2575 
Q 3975 2250 4112 2525 
Q 4250 2800 4300 2950 
Q 4350 3100 4187 3087 
Q 4025 3075 3625 2962 
Q 3225 2850 3000 2975 
Q 2700 2525 2425 2350 
Q 2150 2175 2425 2562 
Q 2700 2950 2950 3675 
Q 3200 4400 3112 4662 
Q 3025 4925 3225 4862 
Q 3425 4800 3587 4675 
Q 3750 4550 3662 4450 
Q 3575 4350 3437 4000 
Q 3300 3650 3050 3100 
z
M 1725 2225 
Q 2050 2600 1875 2237 
Q 1700 1875 1437 1475 
Q 1175 1075 987 650 
Q 800 225 587 600 
Q 375 975 512 1012 
Q 650 1050 1025 1450 
Q 1400 1850 1725 2225 
z
M 1100 3425 
Q 950 3625 862 3775 
Q 775 3925 1162 3812 
Q 1550 3700 1662 3462 
Q 1775 3225 1700 3050 
Q 1625 2875 1437 3050 
Q 1250 3225 1100 3425 
z
" transform="scale(0.015625)"/>
       <path id="KaiTi-6570" d="M 4100 1300 
Q 4275 1625 4312 1987 
Q 4350 2350 4325 2725 
Q 4125 2700 3875 2725 
Q 3575 2375 3325 2225 
Q 3075 2075 3387 2462 
Q 3700 2850 3912 3487 
Q 4125 4125 4100 4275 
Q 4075 4425 4062 4537 
Q 4050 4650 4362 4487 
Q 4675 4325 4562 4175 
Q 4450 4025 4337 3712 
Q 4225 3400 3925 2850 
Q 4525 2975 4912 3162 
Q 5300 3350 5512 3212 
Q 5725 3075 5450 2975 
Q 5175 2875 4425 2725 
Q 4800 2600 4712 2350 
Q 4625 2100 4562 1775 
Q 4500 1450 4325 1025 
Q 4550 750 4837 512 
Q 5125 275 5437 150 
Q 5750 25 5975 -62 
Q 6200 -150 5737 -187 
Q 5275 -225 5037 -187 
Q 4800 -150 4687 25 
Q 4575 200 4125 800 
Q 3900 550 3675 400 
Q 3450 250 3175 175 
Q 2900 100 3162 262 
Q 3425 425 3625 625 
Q 3825 825 3975 1050 
Q 3800 1350 3637 1562 
Q 3475 1775 3362 1900 
Q 3250 2025 3387 2037 
Q 3525 2050 3612 1950 
Q 3700 1850 4100 1300 
z
M 2575 1600 
Q 2625 1750 2612 1862 
Q 2600 1975 2750 1875 
Q 2900 1775 2962 1700 
Q 3025 1625 2962 1500 
Q 2900 1375 2800 1112 
Q 2700 850 2525 550 
Q 2700 425 2837 300 
Q 2975 175 2925 -62 
Q 2875 -300 2712 -100 
Q 2550 100 2325 275 
Q 1925 -25 1587 -150 
Q 1250 -275 912 -300 
Q 575 -325 850 -212 
Q 1125 -100 1450 50 
Q 1775 200 2050 475 
Q 1750 700 1637 750 
Q 1525 800 1587 900 
Q 1650 1000 1700 1250 
Q 1050 1175 862 1062 
Q 675 950 425 1150 
Q 175 1350 500 1337 
Q 825 1325 1775 1475 
Q 1850 1800 1800 1987 
Q 1750 2175 2025 2037 
Q 2300 1900 2250 1825 
Q 2200 1750 2075 1525 
L 2575 1600 
z
M 2875 3425 
Q 3125 3475 3225 3387 
Q 3325 3300 3100 3225 
Q 2875 3150 2350 3075 
L 2350 2875 
Q 2775 2825 2975 2687 
Q 3175 2550 3112 2350 
Q 3050 2150 2812 2412 
Q 2575 2675 2350 2800 
Q 2350 2500 2300 2287 
Q 2250 2075 2137 2262 
Q 2025 2450 2062 2600 
Q 2100 2750 2075 2950 
Q 1475 2175 975 1937 
Q 475 1700 762 1925 
Q 1050 2150 1362 2475 
Q 1675 2800 1800 3050 
Q 1450 2925 1312 2900 
Q 1175 2875 975 3012 
Q 775 3150 1050 3137 
Q 1325 3125 2100 3275 
L 2100 4175 
Q 2100 4700 2012 4837 
Q 1925 4975 1987 4987 
Q 2050 5000 2300 4887 
Q 2550 4775 2462 4625 
Q 2375 4475 2375 3325 
L 2875 3425 
z
M 2250 675 
Q 2450 925 2575 1425 
L 2000 1325 
Q 1825 925 1837 875 
Q 1850 825 1937 800 
Q 2025 775 2250 675 
z
M 3250 4275 
Q 3450 4150 3300 4087 
Q 3150 4025 2762 3737 
Q 2375 3450 2600 3737 
Q 2825 4025 2900 4237 
Q 2975 4450 3025 4425 
Q 3075 4400 3250 4275 
z
M 1550 3600 
Q 1350 3875 1287 4000 
Q 1225 4125 1537 4050 
Q 1850 3975 1812 3662 
Q 1775 3350 1550 3600 
z
" transform="scale(0.015625)"/>
       <path id="KaiTi-2f" d="M 3000 4550 
L 350 -175 
L 100 -25 
L 2750 4700 
L 3000 4550 
z
" transform="scale(0.015625)"/>
      </defs>
      <use xlink:href="#KaiTi-641c"/>
      <use xlink:href="#KaiTi-7d22" x="100"/>
      <use xlink:href="#KaiTi-6b21" x="200"/>
      <use xlink:href="#KaiTi-6570" x="300"/>
      <use xlink:href="#KaiTi-2f" x="400"/>
      <use xlink:href="#KaiTi-6b21" x="450"/>
     </g>
    </g>
   </g>
   <g id="matplotlib.axis_2">
    <g id="ytick_1">
     <g id="line2d_13">
      <path d="M 90 369.427455 
L 648 369.427455 
" clip-path="url(#p1715dabed9)" style="fill: none; stroke: #ffffff; stroke-width: 0.8; stroke-linecap: square"/>
     </g>
     <g id="line2d_14">
      <defs>
       <path id="m66c7d3a581" d="M 0 0 
L -3.5 0 
" style="stroke: #555555; stroke-width: 0.8"/>
      </defs>
      <g>
       <use xlink:href="#m66c7d3a581" x="90" y="369.427455" style="fill: #555555; stroke: #555555; stroke-width: 0.8"/>
      </g>
     </g>
     <g id="text_8">
      <!-- 0 -->
      <g style="fill: #555555" transform="translate(78 372.864955) scale(0.1 -0.1)">
       <use xlink:href="#SimHei-30"/>
      </g>
     </g>
    </g>
    <g id="ytick_2">
     <g id="line2d_15">
      <path d="M 90 314.136813 
L 648 314.136813 
" clip-path="url(#p1715dabed9)" style="fill: none; stroke: #ffffff; stroke-width: 0.8; stroke-linecap: square"/>
     </g>
     <g id="line2d_16">
      <g>
       <use xlink:href="#m66c7d3a581" x="90" y="314.136813" style="fill: #555555; stroke: #555555; stroke-width: 0.8"/>
      </g>
     </g>
     <g id="text_9">
      <!-- 50000 -->
      <g style="fill: #555555" transform="translate(58 317.574313) scale(0.1 -0.1)">
       <use xlink:href="#SimHei-35"/>
       <use xlink:href="#SimHei-30" x="50"/>
       <use xlink:href="#SimHei-30" x="100"/>
       <use xlink:href="#SimHei-30" x="150"/>
       <use xlink:href="#SimHei-30" x="200"/>
      </g>
     </g>
    </g>
    <g id="ytick_3">
     <g id="line2d_17">
      <path d="M 90 258.846171 
L 648 258.846171 
" clip-path="url(#p1715dabed9)" style="fill: none; stroke: #ffffff; stroke-width: 0.8; stroke-linecap: square"/>
     </g>
     <g id="line2d_18">
      <g>
       <use xlink:href="#m66c7d3a581" x="90" y="258.846171" style="fill: #555555; stroke: #555555; stroke-width: 0.8"/>
      </g>
     </g>
     <g id="text_10">
      <!-- 100000 -->
      <g style="fill: #555555" transform="translate(53 262.283671) scale(0.1 -0.1)">
       <use xlink:href="#SimHei-31"/>
       <use xlink:href="#SimHei-30" x="50"/>
       <use xlink:href="#SimHei-30" x="100"/>
       <use xlink:href="#SimHei-30" x="150"/>
       <use xlink:href="#SimHei-30" x="200"/>
       <use xlink:href="#SimHei-30" x="250"/>
      </g>
     </g>
    </g>
    <g id="ytick_4">
     <g id="line2d_19">
      <path d="M 90 203.55553 
L 648 203.55553 
" clip-path="url(#p1715dabed9)" style="fill: none; stroke: #ffffff; stroke-width: 0.8; stroke-linecap: square"/>
     </g>
     <g id="line2d_20">
      <g>
       <use xlink:href="#m66c7d3a581" x="90" y="203.55553" style="fill: #555555; stroke: #555555; stroke-width: 0.8"/>
      </g>
     </g>
     <g id="text_11">
      <!-- 150000 -->
      <g style="fill: #555555" transform="translate(53 206.99303) scale(0.1 -0.1)">
       <use xlink:href="#SimHei-31"/>
       <use xlink:href="#SimHei-35" x="50"/>
       <use xlink:href="#SimHei-30" x="100"/>
       <use xlink:href="#SimHei-30" x="150"/>
       <use xlink:href="#SimHei-30" x="200"/>
       <use xlink:href="#SimHei-30" x="250"/>
      </g>
     </g>
    </g>
    <g id="ytick_5">
     <g id="line2d_21">
      <path d="M 90 148.264888 
L 648 148.264888 
" clip-path="url(#p1715dabed9)" style="fill: none; stroke: #ffffff; stroke-width: 0.8; stroke-linecap: square"/>
     </g>
     <g id="line2d_22">
      <g>
       <use xlink:href="#m66c7d3a581" x="90" y="148.264888" style="fill: #555555; stroke: #555555; stroke-width: 0.8"/>
      </g>
     </g>
     <g id="text_12">
      <!-- 200000 -->
      <g style="fill: #555555" transform="translate(53 151.702388) scale(0.1 -0.1)">
       <use xlink:href="#SimHei-32"/>
       <use xlink:href="#SimHei-30" x="50"/>
       <use xlink:href="#SimHei-30" x="100"/>
       <use xlink:href="#SimHei-30" x="150"/>
       <use xlink:href="#SimHei-30" x="200"/>
       <use xlink:href="#SimHei-30" x="250"/>
      </g>
     </g>
    </g>
    <g id="ytick_6">
     <g id="line2d_23">
      <path d="M 90 92.974247 
L 648 92.974247 
" clip-path="url(#p1715dabed9)" style="fill: none; stroke: #ffffff; stroke-width: 0.8; stroke-linecap: square"/>
     </g>
     <g id="line2d_24">
      <g>
       <use xlink:href="#m66c7d3a581" x="90" y="92.974247" style="fill: #555555; stroke: #555555; stroke-width: 0.8"/>
      </g>
     </g>
     <g id="text_13">
      <!-- 250000 -->
      <g style="fill: #555555" transform="translate(53 96.411747) scale(0.1 -0.1)">
       <use xlink:href="#SimHei-32"/>
       <use xlink:href="#SimHei-35" x="50"/>
       <use xlink:href="#SimHei-30" x="100"/>
       <use xlink:href="#SimHei-30" x="150"/>
       <use xlink:href="#SimHei-30" x="200"/>
       <use xlink:href="#SimHei-30" x="250"/>
      </g>
     </g>
    </g>
    <g id="text_14">
     <!-- 数量 -->
     <g style="fill: #555555" transform="translate(48.375 223.16) rotate(-90) scale(0.05 -0.05)">
      <defs>
       <path id="KaiTi-91cf" d="M 3175 825 
L 3775 925 
Q 4075 975 4225 837 
Q 4375 700 4037 650 
Q 3700 600 3175 550 
L 3150 75 
Q 4425 175 4712 200 
Q 5000 225 5225 87 
Q 5450 -50 5437 -137 
Q 5425 -225 4962 -187 
Q 4500 -150 4025 -162 
Q 3550 -175 3225 -200 
Q 2900 -225 2325 -287 
Q 1750 -350 1512 -375 
Q 1275 -400 1050 -262 
Q 825 -125 1075 -125 
Q 1325 -125 1800 -87 
Q 2275 -50 2900 50 
L 2900 525 
Q 2425 475 2250 450 
Q 2075 425 1887 562 
Q 1700 700 2000 712 
Q 2300 725 2900 800 
L 2900 1225 
Q 2625 1200 2300 1150 
Q 2175 950 2087 1112 
Q 2000 1275 1900 1675 
Q 1800 2075 1650 2275 
Q 1500 2475 1650 2475 
Q 1825 2475 1962 2437 
Q 2100 2400 2887 2487 
Q 3675 2575 3837 2675 
Q 4000 2775 4237 2650 
Q 4475 2525 4600 2412 
Q 4725 2300 4587 2162 
Q 4450 2025 4300 1737 
Q 4150 1450 4037 1275 
Q 3925 1100 3850 1325 
Q 3550 1275 3200 1225 
L 3175 825 
z
M 2550 3450 
Q 2450 3200 2312 3512 
Q 2175 3825 2050 4137 
Q 1925 4450 1825 4600 
Q 1725 4750 1825 4762 
Q 1925 4775 2125 4737 
Q 2325 4700 3037 4800 
Q 3750 4900 3875 4975 
Q 4000 5050 4187 4975 
Q 4375 4900 4562 4775 
Q 4750 4650 4625 4537 
Q 4500 4425 4362 4187 
Q 4225 3950 4025 3637 
Q 3825 3325 3750 3575 
L 2550 3450 
z
M 475 2700 
Q 225 2875 475 2887 
Q 725 2900 1137 2925 
Q 1550 2950 2287 3025 
Q 3025 3100 3825 3162 
Q 4625 3225 5037 3300 
Q 5450 3375 5675 3262 
Q 5900 3150 5925 3050 
Q 5950 2950 5525 2975 
Q 5100 3000 4562 2975 
Q 4025 2950 3387 2887 
Q 2750 2825 2150 2762 
Q 1550 2700 1150 2612 
Q 750 2525 475 2700 
z
M 2400 4175 
Q 2800 4225 3062 4325 
Q 3325 4425 3475 4300 
Q 3625 4175 3212 4100 
Q 2800 4025 2450 4000 
L 2525 3600 
Q 3375 3750 3750 3775 
Q 3875 4175 3900 4412 
Q 3925 4650 3875 4700 
Q 3825 4750 3325 4700 
Q 2825 4650 2325 4550 
L 2400 4175 
z
M 3200 2050 
Q 3325 2075 3475 2100 
Q 3625 2125 3687 2012 
Q 3750 1900 3562 1850 
Q 3375 1800 3200 1800 
L 3200 1450 
Q 3375 1475 3500 1487 
Q 3625 1500 3875 1500 
Q 4025 2050 4025 2225 
Q 4025 2400 3950 2437 
Q 3875 2475 3125 2375 
Q 3275 2250 3200 2050 
z
M 2900 1750 
Q 2550 1700 2412 1787 
Q 2275 1875 2425 1900 
Q 2575 1925 2850 2000 
Q 2850 2150 2825 2325 
L 2125 2250 
Q 2175 1800 2300 1350 
L 2900 1425 
L 2900 1750 
z
" transform="scale(0.015625)"/>
      </defs>
      <use xlink:href="#KaiTi-6570"/>
      <use xlink:href="#KaiTi-91cf" x="100"/>
     </g>
    </g>
   </g>
   <g id="line2d_25">
    <path d="M 115.363636 342.973094 
L 117.060201 339.565846 
L 118.756765 336.445297 
L 120.453329 333.594062 
L 122.149894 330.994754 
L 123.846458 328.629987 
L 125.543022 326.482375 
L 127.239587 324.534532 
L 128.936151 322.769071 
L 132.329279 319.715752 
L 135.722408 317.183328 
L 139.115537 315.03271 
L 144.20523 312.218408 
L 150.991487 308.504155 
L 154.384615 306.350426 
L 157.777744 303.820167 
L 161.170873 300.908741 
L 166.260566 296.0699 
L 176.439951 286.112332 
L 181.529644 281.648926 
L 190.012466 274.716023 
L 195.102159 270.462104 
L 200.191852 265.857756 
L 205.281545 260.856469 
L 210.371237 255.511791 
L 215.46093 249.878358 
L 229.033445 234.445841 
L 232.426573 230.939152 
L 235.819702 227.756092 
L 239.212831 224.978696 
L 242.605959 222.557132 
L 249.392216 218.194762 
L 252.785345 215.957299 
L 256.178474 213.484546 
L 259.571602 210.644896 
L 271.447552 199.994967 
L 273.144117 198.772632 
L 274.840681 197.712979 
L 276.537245 196.845311 
L 278.23381 196.198681 
L 279.930374 195.785612 
L 281.626938 195.592076 
L 283.323503 195.601646 
L 285.020067 195.797897 
L 286.716631 196.164403 
L 288.413196 196.684738 
L 290.10976 197.342475 
L 293.502888 199.004457 
L 296.896017 201.018942 
L 301.98571 204.419146 
L 308.771967 209.046009 
L 312.165096 211.144659 
L 315.558224 212.949191 
L 318.951353 214.346624 
L 322.344482 215.269371 
L 325.73761 215.751137 
L 329.130739 215.839332 
L 332.523867 215.581365 
L 335.916996 215.024644 
L 339.310125 214.216693 
L 344.399818 212.690974 
L 351.186075 210.640332 
L 354.579203 209.858079 
L 357.972332 209.386065 
L 361.365461 209.313861 
L 364.758589 209.536871 
L 369.848282 209.971049 
L 373.241411 210.023193 
L 374.937975 209.899966 
L 376.634539 209.642492 
L 378.331104 209.224737 
L 380.027668 208.62217 
L 381.724232 207.841857 
L 385.117361 205.897385 
L 393.600182 200.581529 
L 395.296747 199.746311 
L 396.993311 199.0763 
L 398.689875 198.609731 
L 400.38644 198.382791 
L 402.083004 198.395546 
L 403.779568 198.617174 
L 405.476133 199.015861 
L 408.869261 200.217153 
L 413.958954 202.551664 
L 417.352083 204.091883 
L 420.745211 205.323716 
L 424.13834 206.10629 
L 427.531469 206.488909 
L 430.924597 206.5393 
L 434.317726 206.325187 
L 437.710854 205.914297 
L 442.800547 205.072216 
L 449.586804 203.703504 
L 459.76619 201.358803 
L 468.249012 199.259782 
L 473.338705 197.753268 
L 476.731833 196.559785 
L 480.124962 195.166722 
L 483.518091 193.541073 
L 486.911219 191.701 
L 492.000912 188.620891 
L 497.090605 185.269397 
L 508.966555 177.053171 
L 519.145941 170.096191 
L 527.628763 164.614659 
L 541.201277 155.976594 
L 547.987534 151.355316 
L 553.077227 147.640573 
L 558.16692 143.65537 
L 563.256613 139.35047 
L 571.739434 131.988069 
L 575.132563 129.378533 
L 578.525692 127.176406 
L 580.222256 126.273068 
L 581.91882 125.525516 
L 583.615385 124.948145 
L 585.311949 124.537107 
L 587.008513 124.282763 
L 588.705078 124.175472 
L 590.401642 124.205596 
L 592.098206 124.363493 
L 595.491335 125.024044 
L 598.884463 126.080005 
L 602.277592 127.454252 
L 605.670721 129.069662 
L 610.760413 131.776253 
L 619.243235 136.400484 
L 622.636364 138.064871 
L 622.636364 138.064871 
" clip-path="url(#p1715dabed9)" style="fill: none; stroke: #008000; stroke-width: 0.6; stroke-linecap: square"/>
   </g>
   <g id="line2d_26">
    <path d="M 115.363636 369.160954 
L 118.756765 365.81971 
L 122.149894 362.989779 
L 125.543022 360.610017 
L 128.936151 358.619278 
L 132.329279 356.956418 
L 135.722408 355.560291 
L 139.115537 354.369754 
L 144.20523 352.835673 
L 154.384615 349.917054 
L 159.474308 348.142244 
L 176.439951 341.75404 
L 179.83308 340.813483 
L 183.226209 340.050559 
L 186.619337 339.451921 
L 191.70903 338.832808 
L 196.798723 338.508263 
L 208.674673 338.041165 
L 212.067802 337.590336 
L 215.46093 336.829564 
L 218.854059 335.675415 
L 222.247188 334.174446 
L 229.033445 330.7211 
L 232.426573 329.067112 
L 235.819702 327.660508 
L 239.212831 326.635194 
L 244.302524 325.594231 
L 247.695652 324.891442 
L 251.088781 323.906666 
L 252.785345 323.234889 
L 254.481909 322.404242 
L 256.178474 321.385269 
L 257.875038 320.14868 
L 259.571602 318.68057 
L 261.268167 316.994567 
L 262.964731 315.107153 
L 266.35786 310.794032 
L 269.750988 305.873079 
L 273.144117 300.476167 
L 278.23381 291.776834 
L 291.806324 267.968746 
L 295.199453 262.502018 
L 298.592581 257.458043 
L 301.98571 252.906727 
L 305.378839 248.81334 
L 308.771967 245.128057 
L 312.165096 241.801059 
L 315.558224 238.782521 
L 318.951353 236.022545 
L 324.041046 232.211124 
L 330.827303 227.189577 
L 334.220432 224.461739 
L 337.61356 221.445235 
L 341.006689 218.051633 
L 347.792946 210.637367 
L 351.186075 207.027725 
L 354.579203 203.757859 
L 356.275768 202.314744 
L 357.972332 201.033854 
L 359.668896 199.939774 
L 361.365461 199.027284 
L 364.758589 197.599092 
L 373.241411 194.56442 
L 374.937975 193.744401 
L 376.634539 192.764413 
L 378.331104 191.586339 
L 380.027668 190.173695 
L 381.724232 188.524231 
L 383.420797 186.668196 
L 386.813925 182.462535 
L 390.207054 177.808959 
L 398.689875 165.870776 
L 402.083004 161.610894 
L 405.476133 157.790458 
L 408.869261 154.345364 
L 412.26239 151.210943 
L 415.655518 148.322527 
L 420.745211 144.30992 
L 427.531469 139.316577 
L 436.01429 133.444483 
L 446.193676 126.679642 
L 451.283369 123.530746 
L 454.676497 121.611124 
L 458.069626 119.88412 
L 461.462755 118.391126 
L 464.855883 117.14365 
L 468.249012 116.107688 
L 473.338705 114.867591 
L 478.428398 113.890635 
L 488.607784 112.267143 
L 500.483734 110.374076 
L 510.663119 108.441127 
L 520.842505 106.54199 
L 525.932198 105.761905 
L 531.021891 105.187025 
L 536.111584 104.890609 
L 539.504713 104.883877 
L 542.897841 105.053034 
L 551.380663 105.68617 
L 554.773791 105.631572 
L 556.470356 105.462575 
L 558.16692 105.17387 
L 559.863484 104.746523 
L 561.560049 104.161604 
L 563.256613 103.404878 
L 564.953177 102.489139 
L 568.346306 100.270382 
L 571.739434 97.684899 
L 581.91882 89.523903 
L 585.311949 87.231096 
L 588.705078 85.233612 
L 592.098206 83.465354 
L 597.187899 81.098178 
L 607.367285 76.572613 
L 610.760413 74.883593 
L 614.153542 72.99416 
L 617.546671 70.838216 
L 620.939799 68.349662 
L 622.636364 66.96 
L 622.636364 66.96 
" clip-path="url(#p1715dabed9)" style="fill: none; stroke: #bfbf00; stroke-width: 2; stroke-linecap: square"/>
   </g>
   <g id="line2d_27">
    <path d="M 115.363636 343.091416 
L 118.756765 337.866826 
L 122.149894 333.072725 
L 125.543022 328.663421 
L 128.936151 324.593225 
L 132.329279 320.816443 
L 135.722408 317.287385 
L 140.812101 312.358331 
L 147.598358 306.226842 
L 161.170873 294.146337 
L 178.136516 278.707135 
L 188.315901 269.960644 
L 198.495287 261.144516 
L 205.281545 254.98138 
L 212.067802 248.558754 
L 220.550623 240.172356 
L 230.730009 230.012455 
L 235.819702 225.201895 
L 240.909395 220.73132 
L 247.695652 215.158288 
L 256.178474 208.250458 
L 262.964731 202.384734 
L 268.054424 198.013661 
L 271.447552 195.285292 
L 274.840681 192.812888 
L 278.23381 190.688443 
L 281.626938 188.974538 
L 285.020067 187.660259 
L 288.413196 186.723405 
L 291.806324 186.141775 
L 295.199453 185.893168 
L 298.592581 185.955339 
L 301.98571 186.294229 
L 305.378839 186.847887 
L 310.468531 187.936749 
L 320.647917 190.231497 
L 325.73761 191.087383 
L 330.827303 191.671599 
L 335.916996 191.955241 
L 341.006689 191.913023 
L 346.096382 191.611292 
L 356.275768 190.885444 
L 361.365461 190.787691 
L 373.241411 190.835495 
L 376.634539 190.574981 
L 380.027668 190.050287 
L 383.420797 189.245469 
L 388.51049 187.736102 
L 393.600182 186.203289 
L 396.993311 185.356791 
L 400.38644 184.781803 
L 403.779568 184.529225 
L 407.172697 184.539965 
L 412.26239 184.895556 
L 425.834904 186.223222 
L 432.621161 186.539235 
L 439.407419 186.579156 
L 446.193676 186.346318 
L 452.979933 185.871956 
L 459.76619 185.196424 
L 466.552448 184.337598 
L 471.64214 183.517087 
L 476.731833 182.483099 
L 481.821526 181.179773 
L 486.911219 179.578629 
L 492.000912 177.705852 
L 497.090605 175.594117 
L 502.180298 173.276114 
L 508.966555 169.924157 
L 517.449377 165.438261 
L 531.021891 157.929694 
L 541.201277 152.074647 
L 549.684099 146.968836 
L 556.470356 142.611327 
L 561.560049 139.112066 
L 576.829127 128.226989 
L 580.222256 126.176448 
L 583.615385 124.421364 
L 587.008513 123.004838 
L 590.401642 121.935728 
L 593.79477 121.221108 
L 597.187899 120.868053 
L 600.581028 120.883638 
L 603.974156 121.274936 
L 607.367285 122.049022 
L 610.760413 123.21297 
L 614.153542 124.773855 
L 617.546671 126.738751 
L 620.939799 129.114732 
L 622.636364 130.45909 
L 622.636364 130.45909 
" clip-path="url(#p1715dabed9)" style="fill: none; stroke: #0000ff; stroke-width: 2; stroke-linecap: square"/>
   </g>
   <g id="line2d_28">
    <path d="M 115.363636 369.36 
L 122.149894 366.91649 
L 130.632715 364.098801 
L 159.474308 354.779389 
L 174.743387 349.468461 
L 181.529644 347.383142 
L 188.315901 345.589017 
L 193.405594 344.454283 
L 198.495287 343.51402 
L 213.764366 340.958628 
L 217.157495 340.165075 
L 222.247188 338.693305 
L 239.212831 333.313375 
L 249.392216 330.600428 
L 252.785345 329.43567 
L 256.178474 327.988694 
L 259.571602 326.173163 
L 262.964731 323.965099 
L 266.35786 321.383712 
L 269.750988 318.44908 
L 273.144117 315.181278 
L 276.537245 311.600383 
L 279.930374 307.728719 
L 285.020067 301.488858 
L 291.806324 292.712628 
L 300.289146 281.759023 
L 305.378839 275.503279 
L 310.468531 269.546764 
L 315.558224 263.918551 
L 320.647917 258.644406 
L 327.434175 252.036344 
L 337.61356 242.247249 
L 344.399818 235.336439 
L 351.186075 228.445533 
L 354.579203 225.201439 
L 357.972332 222.195087 
L 361.365461 219.49125 
L 366.455154 215.872181 
L 374.937975 210.067731 
L 378.331104 207.496726 
L 381.724232 204.627535 
L 385.117361 201.472885 
L 390.207054 196.356531 
L 408.869261 176.967637 
L 415.655518 170.428973 
L 422.441776 164.231639 
L 429.228033 158.36344 
L 436.01429 152.776535 
L 444.497112 146.121076 
L 451.283369 141.119372 
L 456.373062 137.645159 
L 461.462755 134.473883 
L 466.552448 131.63667 
L 471.64214 129.107145 
L 476.731833 126.851793 
L 481.821526 124.837086 
L 486.911219 123.02717 
L 493.697476 120.862436 
L 502.180298 118.419212 
L 512.359684 115.719692 
L 520.842505 113.696751 
L 527.628763 112.272643 
L 532.718455 111.370687 
L 537.808148 110.658001 
L 542.897841 110.175756 
L 554.773791 109.365181 
L 558.16692 108.910951 
L 561.560049 108.22988 
L 564.953177 107.269729 
L 568.346306 106.062186 
L 573.435999 103.911244 
L 581.91882 99.893965 
L 593.79477 94.37663 
L 605.670721 88.819871 
L 612.456978 85.426246 
L 619.243235 81.752236 
L 622.636364 79.779688 
L 622.636364 79.779688 
" clip-path="url(#p1715dabed9)" style="fill: none; stroke: #ff0000; stroke-width: 2; stroke-linecap: square"/>
   </g>
   <g id="patch_3">
    <path d="M 90 384.48 
L 90 51.84 
" style="fill: none; stroke: #ffffff; stroke-linejoin: miter; stroke-linecap: square"/>
   </g>
   <g id="patch_4">
    <path d="M 648 384.48 
L 648 51.84 
" style="fill: none; stroke: #ffffff; stroke-linejoin: miter; stroke-linecap: square"/>
   </g>
   <g id="patch_5">
    <path d="M 90 384.48 
L 648 384.48 
" style="fill: none; stroke: #ffffff; stroke-linejoin: miter; stroke-linecap: square"/>
   </g>
   <g id="patch_6">
    <path d="M 90 51.84 
L 648 51.84 
" style="fill: none; stroke: #ffffff; stroke-linejoin: miter; stroke-linecap: square"/>
   </g>
   <g id="legend_1">
    <g id="patch_7">
     <path d="M 97 117.18375 
L 199 117.18375 
Q 201 117.18375 201 115.18375 
L 201 58.84 
Q 201 56.84 199 56.84 
L 97 56.84 
Q 95 56.84 95 58.84 
L 95 115.18375 
Q 95 117.18375 97 117.18375 
z
" style="fill: #e5e5e5; opacity: 0.8; stroke: #cccccc; stroke-width: 0.5; stroke-linejoin: miter"/>
    </g>
    <g id="line2d_29">
     <path d="M 99 65.386875 
L 109 65.386875 
L 119 65.386875 
" style="fill: none; stroke: #008000; stroke-width: 0.6; stroke-linecap: square"/>
    </g>
    <g id="text_15">
     <!-- 图中当前边数 -->
     <g transform="translate(127 68.886875) scale(0.1 -0.1)">
      <defs>
       <path id="SimHei-56fe" d="M 5800 4975 
Q 5775 4350 5775 3600 
L 5775 925 
Q 5775 150 5800 -600 
L 5300 -600 
L 5300 -275 
L 1125 -275 
L 1125 -650 
L 625 -650 
Q 650 125 650 950 
L 650 3600 
Q 650 4325 625 4975 
L 5800 4975 
z
M 5300 150 
L 5300 4575 
L 1125 4575 
L 1125 150 
L 5300 150 
z
M 3225 4250 
Q 3075 4100 2950 3925 
L 4625 3925 
Q 4525 3700 4300 3375 
Q 4075 3050 3600 2600 
Q 4350 2225 5075 2150 
Q 4900 1925 4775 1675 
Q 3850 1950 3225 2350 
Q 2500 1875 1675 1650 
Q 1600 1875 1400 2075 
Q 2200 2200 2875 2600 
Q 2525 2925 2375 3150 
Q 2150 2900 1900 2650 
Q 1725 2850 1525 2950 
Q 1950 3300 2250 3737 
Q 2550 4175 2675 4475 
Q 2925 4350 3225 4250 
z
M 2450 1275 
Q 3550 950 4100 725 
Q 3975 525 3850 300 
Q 2825 725 2275 850 
Q 2375 1050 2450 1275 
z
M 2925 2050 
Q 3775 1700 4075 1600 
Q 3950 1400 3850 1150 
Q 3000 1550 2700 1650 
Q 2825 1825 2925 2050 
z
M 2625 3450 
Q 3000 3025 3275 2850 
Q 3600 3100 3875 3525 
L 2675 3525 
L 2625 3450 
z
" transform="scale(0.015625)"/>
       <path id="SimHei-4e2d" d="M 3475 5200 
Q 3450 4500 3450 3875 
L 5625 3875 
Q 5600 3375 5600 2500 
Q 5600 1650 5625 1225 
L 5075 1225 
L 5075 1600 
L 3450 1600 
L 3450 525 
Q 3450 225 3475 -600 
L 2875 -600 
Q 2925 -150 2925 450 
L 2925 1600 
L 1300 1600 
L 1300 1225 
L 750 1225 
Q 775 1600 775 2500 
Q 775 3425 750 3875 
L 2925 3875 
Q 2925 4550 2900 5200 
L 3475 5200 
z
M 5075 2000 
L 5075 3475 
L 3450 3475 
L 3450 2000 
L 5075 2000 
z
M 2925 2000 
L 2925 3475 
L 1300 3475 
L 1300 2000 
L 2925 2000 
z
" transform="scale(0.015625)"/>
       <path id="SimHei-5f53" d="M 3550 5125 
Q 3525 4825 3525 4275 
L 3525 2925 
L 5625 2925 
Q 5600 2425 5600 2100 
L 5600 175 
Q 5600 -150 5625 -650 
L 5075 -650 
L 5075 -125 
L 1675 -125 
Q 1150 -125 675 -150 
L 675 325 
Q 1150 300 1675 300 
L 5075 300 
L 5075 1200 
L 2000 1200 
Q 1425 1200 900 1175 
L 900 1675 
Q 1425 1650 2000 1650 
L 5075 1650 
L 5075 2500 
L 1700 2500 
Q 1250 2500 750 2475 
L 750 2950 
Q 1250 2925 1700 2925 
L 3000 2925 
L 3000 4275 
Q 3000 4725 2975 5125 
L 3550 5125 
z
M 5700 4500 
Q 5525 4300 5287 4000 
Q 5050 3700 4650 3225 
Q 4450 3400 4225 3575 
Q 4725 4050 5175 4850 
Q 5425 4650 5700 4500 
z
M 1325 4800 
Q 1875 4175 2275 3600 
Q 2025 3450 1775 3250 
Q 1375 3925 875 4450 
Q 1150 4625 1325 4800 
z
" transform="scale(0.015625)"/>
       <path id="SimHei-524d" d="M 2075 -100 
Q 2400 -100 2537 -87 
Q 2675 -75 2675 100 
L 2675 875 
L 1325 875 
L 1325 -650 
L 800 -650 
Q 850 -200 850 350 
L 850 2350 
Q 850 2850 825 3300 
L 3175 3300 
Q 3150 2875 3150 2375 
L 3150 -150 
Q 3150 -400 2950 -475 
Q 2750 -550 2275 -625 
Q 2200 -350 2075 -100 
z
M 4950 5075 
Q 4825 4975 4687 4750 
Q 4550 4525 4375 4225 
L 5400 4225 
Q 5750 4225 6175 4250 
L 6175 3775 
Q 5775 3825 5300 3825 
L 1350 3825 
Q 700 3825 250 3775 
L 250 4250 
Q 775 4225 1350 4225 
L 3875 4225 
Q 4300 5025 4350 5300 
Q 4625 5150 4950 5075 
z
M 4375 -75 
Q 4825 -100 4937 -75 
Q 5050 -50 5050 150 
L 5050 2750 
Q 5050 3050 5025 3400 
L 5550 3400 
Q 5525 3075 5525 2750 
L 5525 -25 
Q 5525 -350 5362 -450 
Q 5200 -550 4600 -600 
Q 4550 -275 4375 -75 
z
M 3775 575 
Q 3800 950 3800 1225 
L 3800 2375 
Q 3800 2775 3775 3075 
L 4300 3075 
Q 4275 2775 4275 2375 
L 4275 1250 
Q 4275 875 4300 575 
L 3775 575 
z
M 2675 2250 
L 2675 2925 
L 1325 2925 
L 1325 2250 
L 2675 2250 
z
M 2675 1250 
L 2675 1875 
L 1325 1875 
L 1325 1250 
L 2675 1250 
z
M 2225 4300 
Q 2125 4575 1750 5050 
Q 2025 5175 2200 5300 
Q 2550 4850 2725 4550 
Q 2500 4450 2225 4300 
z
" transform="scale(0.015625)"/>
       <path id="SimHei-8fb9" d="M 3450 3950 
Q 3450 4750 3425 5250 
Q 3800 5175 4050 5175 
Q 3975 4825 3950 3950 
L 5725 3950 
Q 5650 3525 5625 3100 
L 5500 1150 
Q 5475 725 5062 612 
Q 4650 500 4300 400 
Q 4275 725 4050 1050 
Q 4650 1075 4837 1137 
Q 5025 1200 5050 1450 
L 5175 3500 
L 3925 3500 
Q 3825 2500 3525 1837 
Q 3225 1175 2625 500 
Q 2400 725 2075 900 
Q 2625 1275 2987 1937 
Q 3350 2600 3425 3500 
Q 2825 3500 2275 3450 
L 2275 3975 
Q 2725 3950 3450 3950 
z
M 1625 2900 
Q 1600 2475 1600 2125 
L 1600 675 
Q 2225 50 3775 0 
Q 5325 -50 6200 50 
Q 5950 -150 5925 -550 
Q 5125 -550 4350 -525 
Q 3575 -500 2925 -387 
Q 2275 -275 1850 75 
Q 1425 425 1187 175 
Q 950 -75 725 -550 
Q 500 -325 225 -150 
Q 875 350 1100 625 
L 1100 2450 
Q 650 2450 225 2425 
L 225 2925 
Q 725 2900 1150 2900 
L 1625 2900 
z
M 1150 5075 
Q 1600 4200 1700 3900 
Q 1450 3825 1175 3675 
Q 1150 3925 650 4875 
Q 925 4975 1150 5075 
z
" transform="scale(0.015625)"/>
       <path id="SimHei-6570" d="M 4525 4925 
Q 4475 4800 4400 4587 
Q 4325 4375 4175 3825 
L 5325 3825 
Q 5575 3825 5925 3850 
L 5925 3400 
Q 5650 3425 5500 3425 
Q 5500 3025 5362 2162 
Q 5225 1300 4875 675 
Q 5125 375 5437 137 
Q 5750 -100 6025 -200 
Q 5725 -425 5625 -625 
Q 5325 -450 5075 -225 
Q 4825 0 4575 325 
Q 4300 25 3987 -187 
Q 3675 -400 3200 -650 
Q 3075 -425 2850 -300 
Q 3225 -150 3650 125 
Q 4075 400 4300 675 
Q 4125 1025 3962 1425 
Q 3800 1825 3675 2475 
Q 3600 2275 3425 1950 
Q 3250 2050 3000 2150 
Q 3400 2850 3650 3675 
Q 3900 4500 3975 5100 
Q 4275 4975 4525 4925 
z
M 2100 2250 
Q 2000 2150 1875 1925 
L 3250 1925 
Q 3100 1300 2725 675 
Q 3125 525 3350 400 
Q 3225 225 3125 25 
Q 2900 175 2450 325 
Q 1950 -225 725 -650 
Q 600 -375 400 -275 
Q 1575 0 2000 475 
Q 1300 650 850 775 
Q 1000 1000 1250 1525 
Q 1000 1525 425 1500 
L 425 1950 
Q 900 1925 1400 1925 
Q 1500 2150 1550 2425 
Q 1825 2325 2100 2250 
z
M 1775 3950 
Q 1775 4550 1750 5100 
L 2250 5100 
Q 2225 4575 2225 3950 
Q 3075 3950 3425 3975 
L 3425 3525 
Q 3075 3550 2225 3550 
Q 2225 2825 2250 2425 
L 1750 2425 
Q 1775 2775 1775 3300 
Q 1650 3100 1300 2787 
Q 950 2475 650 2300 
Q 525 2525 275 2625 
Q 500 2700 875 2975 
Q 1250 3250 1450 3550 
Q 950 3550 500 3525 
L 500 3975 
Q 925 3950 1775 3950 
z
M 3975 3175 
Q 4200 1700 4600 1125 
Q 4850 1700 4937 2287 
Q 5025 2875 5050 3425 
L 4075 3425 
L 3975 3175 
z
M 1450 1000 
Q 1750 925 2275 800 
Q 2475 1050 2650 1525 
L 1725 1525 
Q 1600 1275 1450 1000 
z
M 3325 4825 
Q 3200 4625 3125 4450 
Q 3050 4275 2925 4025 
Q 2725 4125 2525 4175 
Q 2725 4500 2900 5000 
Q 3150 4875 3325 4825 
z
M 2575 3375 
Q 2900 3050 3200 2725 
Q 3050 2600 2875 2425 
Q 2525 2850 2300 3100 
Q 2450 3225 2575 3375 
z
M 925 5000 
Q 1275 4650 1500 4300 
L 1125 4075 
Q 950 4425 600 4725 
Q 825 4875 925 5000 
z
" transform="scale(0.015625)"/>
      </defs>
      <use xlink:href="#SimHei-56fe"/>
      <use xlink:href="#SimHei-4e2d" x="100"/>
      <use xlink:href="#SimHei-5f53" x="200"/>
      <use xlink:href="#SimHei-524d" x="300"/>
      <use xlink:href="#SimHei-8fb9" x="400"/>
      <use xlink:href="#SimHei-6570" x="500"/>
     </g>
    </g>
    <g id="line2d_30">
     <path d="M 99 79.761875 
L 109 79.761875 
L 119 79.761875 
" style="fill: none; stroke: #bfbf00; stroke-width: 2; stroke-linecap: square"/>
    </g>
    <g id="text_16">
     <!-- 累计剪枝边数 -->
     <g transform="translate(127 83.261875) scale(0.1 -0.1)">
      <defs>
       <path id="SimHei-7d2f" d="M 5475 5000 
Q 5450 4600 5450 3975 
Q 5450 3350 5475 2950 
L 4675 2950 
Q 4850 2775 5075 2600 
Q 4800 2525 4237 2275 
Q 3675 2025 3262 1837 
Q 2850 1650 2400 1425 
Q 3850 1525 4650 1575 
Q 4425 1725 4200 1850 
Q 4375 2000 4500 2175 
Q 5125 1800 5900 1300 
Q 5750 1125 5575 900 
Q 5375 1075 5100 1250 
Q 4250 1175 3475 1125 
L 3475 50 
Q 3475 -350 3212 -462 
Q 2950 -575 2600 -600 
Q 2575 -375 2375 -50 
Q 2800 -75 2900 -25 
Q 3000 25 3000 125 
L 3000 1075 
Q 2400 1050 1987 1012 
Q 1575 975 850 875 
Q 775 1125 700 1350 
Q 1150 1400 1575 1512 
Q 2000 1625 3025 2125 
Q 1775 2025 1250 1925 
Q 1200 2200 1100 2375 
Q 1325 2375 1737 2537 
Q 2150 2700 2475 2950 
L 950 2950 
Q 975 3375 975 3975 
Q 975 4600 950 5000 
L 5475 5000 
z
M 2425 525 
Q 2200 400 1762 137 
Q 1325 -125 850 -425 
Q 700 -225 500 -25 
Q 850 125 1250 362 
Q 1650 600 2025 900 
Q 2150 725 2425 525 
z
M 2975 4100 
L 2975 4650 
L 1450 4650 
L 1450 4100 
L 2975 4100 
z
M 4975 4100 
L 4975 4650 
L 3450 4650 
L 3450 4100 
L 4975 4100 
z
M 4275 850 
Q 4750 650 5050 500 
L 5850 100 
Q 5675 -125 5575 -375 
Q 5150 -100 4775 100 
Q 4400 300 4050 450 
Q 4200 675 4275 850 
z
M 2975 3275 
L 2975 3750 
L 1450 3750 
L 1450 3275 
L 2975 3275 
z
M 4975 3275 
L 4975 3750 
L 3450 3750 
L 3450 3275 
L 4975 3275 
z
M 3700 2475 
Q 4200 2700 4575 2950 
L 3225 2950 
Q 2900 2750 2300 2425 
Q 3075 2450 3700 2475 
z
" transform="scale(0.015625)"/>
       <path id="SimHei-8ba1" d="M 3925 3100 
L 3925 4350 
Q 3925 4850 3900 5125 
L 4425 5125 
Q 4400 4800 4400 4550 
L 4400 3100 
L 5425 3100 
Q 5725 3100 6075 3125 
L 6075 2650 
Q 5700 2675 5450 2675 
L 4400 2675 
L 4400 175 
Q 4400 -125 4425 -550 
L 3900 -550 
Q 3925 -125 3925 150 
L 3925 2675 
L 2950 2675 
Q 2575 2675 2200 2650 
L 2200 3125 
Q 2575 3100 2900 3100 
L 3925 3100 
z
M 1775 3150 
Q 1750 2675 1750 2150 
L 1750 625 
Q 2175 1050 2425 1400 
Q 2575 1200 2775 1000 
L 2075 300 
Q 1750 -25 1450 -350 
Q 1275 -125 1125 50 
Q 1300 250 1275 650 
L 1275 2725 
Q 600 2725 275 2700 
L 275 3175 
Q 675 3150 825 3150 
L 1775 3150 
z
M 1150 5050 
Q 1475 4725 2175 4000 
Q 1950 3800 1750 3625 
Q 1425 4100 775 4750 
Q 950 4875 1150 5050 
z
" transform="scale(0.015625)"/>
       <path id="SimHei-526a" d="M 2400 1900 
Q 2700 1900 2800 1925 
Q 2900 1950 2900 2025 
L 2900 2150 
L 1375 2150 
L 1375 1575 
L 900 1575 
Q 925 1825 925 2150 
L 925 3100 
Q 925 3450 900 3750 
L 3325 3750 
L 3325 2050 
Q 3350 1675 3125 1600 
Q 2900 1525 2550 1475 
Q 2500 1675 2400 1900 
z
M 4050 -575 
Q 3950 -275 3825 -50 
Q 4625 -25 4712 37 
Q 4800 100 4825 350 
L 4875 875 
L 3050 875 
Q 2875 350 2575 87 
Q 2275 -175 1900 -350 
Q 1525 -525 900 -700 
Q 825 -450 625 -225 
Q 1375 -125 1887 125 
Q 2400 375 2550 875 
L 1850 875 
Q 1325 875 775 850 
L 775 1300 
Q 1325 1275 1875 1275 
L 5425 1275 
L 5300 225 
Q 5250 -175 5075 -312 
Q 4900 -450 4050 -575 
z
M 4525 4800 
Q 4400 4675 4250 4475 
L 4800 4475 
Q 5450 4475 6025 4500 
L 6025 4075 
Q 5450 4100 4800 4100 
L 2175 4100 
Q 1450 4100 375 4075 
L 375 4500 
Q 1450 4475 2150 4475 
L 3750 4475 
Q 3900 4675 4037 4887 
Q 4175 5100 4250 5275 
Q 4475 5150 4750 5025 
L 4525 4800 
z
M 5475 3875 
Q 5450 3625 5450 3150 
L 5450 2000 
Q 5450 1650 5200 1587 
Q 4950 1525 4650 1475 
Q 4600 1700 4500 1950 
Q 4775 1950 4900 1975 
Q 5025 2000 5000 2175 
L 5000 3150 
Q 5000 3525 4975 3875 
L 5475 3875 
z
M 4300 3625 
Q 4275 3400 4275 3150 
L 4275 2400 
Q 4275 2225 4300 1975 
L 3850 1975 
Q 3875 2225 3875 2425 
L 3875 3175 
Q 3875 3425 3850 3625 
L 4300 3625 
z
M 2900 3100 
L 2900 3400 
L 1375 3400 
L 1375 3100 
L 2900 3100 
z
M 2900 2475 
L 2900 2750 
L 1375 2750 
L 1375 2475 
L 2900 2475 
z
M 2450 4800 
Q 2275 4675 2125 4500 
Q 1925 4725 1600 5000 
Q 1800 5175 1900 5300 
Q 2375 4850 2450 4800 
z
" transform="scale(0.015625)"/>
       <path id="SimHei-679d" d="M 2750 2900 
Q 3050 2875 3350 2875 
L 3950 2875 
L 3950 3900 
L 3225 3900 
Q 2950 3900 2675 3875 
L 2675 4325 
Q 2925 4300 3225 4300 
L 3950 4300 
Q 3950 4650 3925 5150 
L 4450 5150 
Q 4425 4900 4425 4300 
L 5325 4300 
Q 5600 4300 5900 4325 
L 5900 3875 
Q 5675 3900 5375 3900 
L 4425 3900 
L 4425 2875 
L 5625 2875 
Q 5525 2525 5425 2225 
Q 5325 1925 5175 1637 
Q 5025 1350 4875 1112 
Q 4725 875 4550 675 
Q 4850 425 5300 262 
Q 5750 100 6150 50 
Q 5925 -200 5875 -450 
Q 5250 -250 4887 -62 
Q 4525 125 4225 350 
Q 3850 0 3475 -212 
Q 3100 -425 2625 -625 
Q 2525 -375 2275 -200 
Q 2875 -75 3275 200 
Q 3675 475 3875 675 
Q 3250 1400 3000 2450 
L 2750 2450 
L 2750 2900 
z
M 2150 2725 
Q 2300 2475 2400 2262 
Q 2500 2050 2650 1800 
Q 2375 1675 2150 1550 
Q 2025 1875 1925 2075 
Q 1825 2275 1725 2450 
L 1725 475 
Q 1725 -25 1750 -575 
L 1250 -575 
Q 1275 0 1275 475 
L 1275 2225 
Q 1000 1500 525 775 
Q 400 1075 200 1325 
Q 325 1425 562 1800 
Q 800 2175 950 2587 
Q 1100 3000 1200 3425 
Q 800 3425 375 3400 
L 375 3850 
Q 800 3825 1275 3825 
L 1275 4450 
Q 1275 4825 1250 5175 
L 1750 5175 
Q 1725 4875 1725 4450 
L 1725 3825 
Q 2050 3825 2425 3850 
L 2425 3400 
Q 2050 3425 1725 3425 
L 1725 2500 
Q 1925 2600 2150 2725 
z
M 3450 2475 
Q 3700 1525 4225 1025 
Q 4750 1650 5000 2475 
L 3450 2475 
z
" transform="scale(0.015625)"/>
      </defs>
      <use xlink:href="#SimHei-7d2f"/>
      <use xlink:href="#SimHei-8ba1" x="100"/>
      <use xlink:href="#SimHei-526a" x="200"/>
      <use xlink:href="#SimHei-679d" x="300"/>
      <use xlink:href="#SimHei-8fb9" x="400"/>
      <use xlink:href="#SimHei-6570" x="500"/>
     </g>
    </g>
    <g id="line2d_31">
     <path d="M 99 94.05875 
L 109 94.05875 
L 119 94.05875 
" style="fill: none; stroke: #0000ff; stroke-width: 2; stroke-linecap: square"/>
    </g>
    <g id="text_17">
     <!-- 图中当前节点数 -->
     <g transform="translate(127 97.55875) scale(0.1 -0.1)">
      <defs>
       <path id="SimHei-8282" d="M 4200 200 
Q 4150 500 3950 800 
Q 4450 800 4712 850 
Q 4975 900 5000 1150 
L 5050 2500 
L 2925 2500 
L 2925 325 
Q 2925 -125 2950 -600 
L 2375 -600 
Q 2425 -150 2425 325 
L 2425 2500 
L 1875 2500 
Q 1050 2500 550 2475 
L 550 2950 
Q 1075 2925 1625 2925 
L 5625 2925 
Q 5550 1875 5525 1225 
Q 5500 575 5150 412 
Q 4800 250 4200 200 
z
M 2475 3950 
Q 2475 3500 2500 3175 
L 1950 3175 
Q 1975 3550 1975 3950 
L 1125 3950 
Q 775 3950 350 3900 
L 350 4400 
Q 775 4375 1125 4375 
L 1975 4375 
Q 1975 4850 1950 5175 
L 2500 5175 
Q 2475 4850 2475 4375 
L 3800 4375 
Q 3800 4875 3775 5175 
L 4350 5175 
Q 4325 4875 4325 4375 
L 5125 4375 
Q 5600 4375 6000 4400 
L 6000 3925 
Q 5600 3950 5125 3950 
L 4325 3950 
Q 4325 3550 4350 3175 
L 3775 3175 
Q 3800 3575 3800 3950 
L 2475 3950 
z
" transform="scale(0.015625)"/>
       <path id="SimHei-70b9" d="M 3325 5200 
Q 3300 4925 3300 4375 
L 4900 4375 
Q 5275 4375 5725 4400 
L 5725 3925 
Q 5300 3950 4900 3950 
L 3300 3950 
L 3300 3225 
L 5225 3225 
Q 5200 2700 5200 2150 
Q 5200 1625 5225 1175 
L 1175 1175 
Q 1200 1625 1200 2175 
Q 1200 2725 1175 3225 
L 2775 3225 
L 2775 4500 
Q 2775 4900 2750 5200 
L 3325 5200 
z
M 4700 1600 
L 4700 2800 
L 1725 2800 
L 1725 1600 
L 4700 1600 
z
M 1500 750 
Q 1025 -250 825 -625 
Q 625 -475 325 -375 
Q 650 50 950 925 
Q 1200 800 1500 750 
z
M 5325 850 
Q 5775 150 6075 -350 
Q 5925 -425 5575 -625 
Q 5375 -150 4900 575 
Q 5150 700 5325 850 
z
M 3975 -575 
Q 3775 -100 3400 575 
Q 3575 675 3825 825 
Q 4350 -75 4450 -325 
Q 4200 -450 3975 -575 
z
M 2375 -575 
Q 2350 -300 1975 550 
Q 2200 625 2425 775 
Q 2800 -75 2900 -350 
Q 2625 -450 2375 -575 
z
" transform="scale(0.015625)"/>
      </defs>
      <use xlink:href="#SimHei-56fe"/>
      <use xlink:href="#SimHei-4e2d" x="100"/>
      <use xlink:href="#SimHei-5f53" x="200"/>
      <use xlink:href="#SimHei-524d" x="300"/>
      <use xlink:href="#SimHei-8282" x="400"/>
      <use xlink:href="#SimHei-70b9" x="500"/>
      <use xlink:href="#SimHei-6570" x="600"/>
     </g>
    </g>
    <g id="line2d_32">
     <path d="M 99 108.43375 
L 109 108.43375 
L 119 108.43375 
" style="fill: none; stroke: #ff0000; stroke-width: 2; stroke-linecap: square"/>
    </g>
    <g id="text_18">
     <!-- 累计剪枝节点数 -->
     <g transform="translate(127 111.93375) scale(0.1 -0.1)">
      <use xlink:href="#SimHei-7d2f"/>
      <use xlink:href="#SimHei-8ba1" x="100"/>
      <use xlink:href="#SimHei-526a" x="200"/>
      <use xlink:href="#SimHei-679d" x="300"/>
      <use xlink:href="#SimHei-8282" x="400"/>
      <use xlink:href="#SimHei-70b9" x="500"/>
      <use xlink:href="#SimHei-6570" x="600"/>
     </g>
    </g>
   </g>
  </g>
 </g>
 <defs>
  <clipPath id="p1715dabed9">
   <rect x="90" y="51.84" width="558" height="332.64"/>
  </clipPath>
 </defs>
</svg>
