<?xml version="1.0" encoding="utf-8" standalone="no"?>
<!DOCTYPE svg PUBLIC "-//W3C//DTD SVG 1.1//EN"
  "http://www.w3.org/Graphics/SVG/1.1/DTD/svg11.dtd">
<svg xmlns:xlink="http://www.w3.org/1999/xlink" width="864pt" height="432pt" viewBox="0 0 864 432" xmlns="http://www.w3.org/2000/svg" version="1.1">
 <metadata>
  <rdf:RDF xmlns:dc="http://purl.org/dc/elements/1.1/" xmlns:cc="http://creativecommons.org/ns#" xmlns:rdf="http://www.w3.org/1999/02/22-rdf-syntax-ns#">
   <cc:Work>
    <dc:type rdf:resource="http://purl.org/dc/dcmitype/StillImage"/>
    <dc:date>2024-03-31T21:37:31.940112</dc:date>
    <dc:format>image/svg+xml</dc:format>
    <dc:creator>
     <cc:Agent>
      <dc:title>Matplotlib v3.7.2, https://matplotlib.org/</dc:title>
     </cc:Agent>
    </dc:creator>
   </cc:Work>
  </rdf:RDF>
 </metadata>
 <defs>
  <style type="text/css">*{stroke-linejoin: round; stroke-linecap: butt}</style>
 </defs>
 <g id="figure_1">
  <g id="patch_1">
   <path d="M 0 432 
L 864 432 
L 864 0 
L 0 0 
L 0 432 
z
" style="fill: none"/>
  </g>
  <g id="axes_1">
   <g id="patch_2">
    <path d="M 108 384.48 
L 777.6 384.48 
L 777.6 51.84 
L 108 51.84 
L 108 384.48 
z
" style="fill: none"/>
   </g>
   <g id="PolyCollection_1">
    <defs>
     <path id="mffeccba224" d="M 138.436364 -62.64 
L 138.436364 -82.561877 
L 140.472241 -85.622657 
L 142.508118 -88.455576 
L 144.543995 -91.071661 
L 146.579872 -93.481938 
L 148.615749 -95.697432 
L 150.651627 -97.729168 
L 152.687504 -99.588173 
L 154.723381 -101.285473 
L 156.759258 -102.832092 
L 158.795135 -104.239056 
L 160.831012 -105.517392 
L 162.86689 -106.678124 
L 164.902767 -107.732278 
L 166.938644 -108.690881 
L 168.974521 -109.564958 
L 171.010398 -110.365534 
L 173.046275 -111.103634 
L 175.082153 -111.791476 
L 177.11803 -112.447432 
L 179.153907 -113.091866 
L 181.189784 -113.745143 
L 183.225661 -114.427626 
L 185.261538 -115.15968 
L 187.297416 -115.961667 
L 189.333293 -116.853953 
L 191.36917 -117.856583 
L 193.405047 -118.974889 
L 195.440924 -120.193591 
L 197.476801 -121.49587 
L 199.512679 -122.864906 
L 201.548556 -124.28388 
L 203.584433 -125.735973 
L 205.62031 -127.204365 
L 207.656187 -128.672237 
L 209.692064 -130.125225 
L 211.727942 -131.565531 
L 213.763819 -133.002206 
L 215.799696 -134.444326 
L 217.835573 -135.900963 
L 219.87145 -137.381192 
L 221.907327 -138.894087 
L 223.943205 -140.448721 
L 225.979082 -142.054102 
L 228.014959 -143.713364 
L 230.050836 -145.419296 
L 232.086713 -147.163633 
L 234.12259 -148.938113 
L 236.158468 -150.73447 
L 238.194345 -152.544441 
L 240.230222 -154.359761 
L 242.266099 -156.172166 
L 244.301976 -157.974616 
L 246.337853 -159.770972 
L 248.373731 -161.57082 
L 250.409608 -163.383796 
L 252.445485 -165.219538 
L 254.481362 -167.087682 
L 256.517239 -168.997865 
L 258.553116 -170.959724 
L 260.588994 -172.982835 
L 262.624871 -175.063922 
L 264.660748 -177.171037 
L 266.696625 -179.268352 
L 268.732502 -181.320036 
L 270.768379 -183.290263 
L 272.804257 -185.143202 
L 274.840134 -186.843026 
L 276.876011 -188.353906 
L 278.911888 -189.643577 
L 280.947765 -190.72267 
L 282.983642 -191.630206 
L 285.01952 -192.405707 
L 287.055397 -193.0887 
L 289.091274 -193.71871 
L 291.127151 -194.335261 
L 293.163028 -194.977878 
L 295.198905 -195.686071 
L 297.234783 -196.484945 
L 299.27066 -197.358553 
L 301.306537 -198.283682 
L 303.342414 -199.237121 
L 305.378291 -200.195656 
L 307.414168 -201.136076 
L 309.450046 -202.035168 
L 311.485923 -202.86972 
L 313.5218 -203.617331 
L 315.557677 -204.269239 
L 317.593554 -204.827998 
L 319.629431 -205.296504 
L 321.665309 -205.677654 
L 323.701186 -205.974344 
L 325.737063 -206.189471 
L 327.77294 -206.32593 
L 329.808817 -206.386619 
L 331.844694 -206.378299 
L 333.880572 -206.321921 
L 335.916449 -206.241692 
L 337.952326 -206.161819 
L 339.988203 -206.106511 
L 342.02408 -206.099974 
L 344.059957 -206.166416 
L 346.095835 -206.330044 
L 348.131712 -206.614432 
L 350.167589 -207.027581 
L 352.203466 -207.561326 
L 354.239343 -208.20675 
L 356.27522 -208.954937 
L 358.311098 -209.79697 
L 360.346975 -210.723933 
L 362.382852 -211.72691 
L 364.418729 -212.796984 
L 366.454606 -213.925365 
L 368.490483 -215.103855 
L 370.526361 -216.324435 
L 372.562238 -217.579084 
L 374.598115 -218.859783 
L 376.633992 -220.158511 
L 378.669869 -221.467249 
L 380.705746 -222.777976 
L 382.741624 -224.082907 
L 384.777501 -225.383351 
L 386.813378 -226.692436 
L 388.849255 -228.024077 
L 390.885132 -229.392192 
L 392.921009 -230.810697 
L 394.956887 -232.293508 
L 396.992764 -233.854541 
L 399.028641 -235.507714 
L 401.064518 -237.260471 
L 403.100395 -239.080319 
L 405.136272 -240.919545 
L 407.17215 -242.730406 
L 409.208027 -244.46516 
L 411.243904 -246.076063 
L 413.279781 -247.515373 
L 415.315658 -248.735346 
L 417.351535 -249.68882 
L 419.387413 -250.36873 
L 421.42329 -250.833414 
L 423.459167 -251.147236 
L 425.495044 -251.374558 
L 427.530921 -251.579745 
L 429.566798 -251.827159 
L 431.602676 -252.181165 
L 433.638553 -252.706124 
L 435.67443 -253.456159 
L 437.710307 -254.402347 
L 439.746184 -255.475463 
L 441.782061 -256.606013 
L 443.817939 -257.724505 
L 445.853816 -258.761446 
L 447.889693 -259.647342 
L 449.92557 -260.3127 
L 451.961447 -260.688286 
L 453.997324 -260.743629 
L 456.033202 -260.528144 
L 458.069079 -260.101095 
L 460.104956 -259.521744 
L 462.140833 -258.849357 
L 464.17671 -258.143197 
L 466.212587 -257.462528 
L 468.248465 -256.866615 
L 470.284342 -256.411328 
L 472.320219 -256.115713 
L 474.356096 -255.976236 
L 476.391973 -255.989037 
L 478.42785 -256.150255 
L 480.463728 -256.456029 
L 482.499605 -256.902501 
L 484.535482 -257.485808 
L 486.571359 -258.202076 
L 488.607236 -259.038934 
L 490.643113 -259.961732 
L 492.678991 -260.932209 
L 494.714868 -261.912105 
L 496.750745 -262.863157 
L 498.786622 -263.747105 
L 500.822499 -264.525687 
L 502.858376 -265.160642 
L 504.894254 -265.616056 
L 506.930131 -265.891104 
L 508.966008 -266.011981 
L 511.001885 -266.005576 
L 513.037762 -265.898775 
L 515.073639 -265.718468 
L 517.109517 -265.491543 
L 519.145394 -265.244887 
L 521.181271 -265.005389 
L 523.217148 -264.795611 
L 525.253025 -264.623537 
L 527.288902 -264.494081 
L 529.32478 -264.412155 
L 531.360657 -264.382673 
L 533.396534 -264.41055 
L 535.432411 -264.500697 
L 537.468288 -264.658029 
L 539.504165 -264.88676 
L 541.540043 -265.176082 
L 543.57592 -265.500708 
L 545.611797 -265.834765 
L 547.647674 -266.152379 
L 549.683551 -266.427677 
L 551.719428 -266.634784 
L 553.755306 -266.747827 
L 555.791183 -266.740933 
L 557.82706 -266.596732 
L 559.862937 -266.334913 
L 561.898814 -265.985261 
L 563.934691 -265.57756 
L 565.970569 -265.141593 
L 568.006446 -264.707145 
L 570.042323 -264.304 
L 572.0782 -263.961941 
L 574.114077 -263.710335 
L 576.149954 -263.564739 
L 578.185832 -263.524074 
L 580.221709 -263.586264 
L 582.257586 -263.74924 
L 584.293463 -264.010927 
L 586.32934 -264.369253 
L 588.365217 -264.822146 
L 590.401095 -265.367534 
L 592.436972 -266.00049 
L 594.472849 -266.699962 
L 596.508726 -267.43924 
L 598.544603 -268.19161 
L 600.58048 -268.930355 
L 602.616358 -269.62876 
L 604.652235 -270.260108 
L 606.688112 -270.797684 
L 608.723989 -271.215073 
L 610.759866 -271.502718 
L 612.795743 -271.676542 
L 614.831621 -271.754579 
L 616.867498 -271.754869 
L 618.903375 -271.695447 
L 620.939252 -271.594352 
L 622.975129 -271.46962 
L 625.011006 -271.339288 
L 627.046884 -271.219032 
L 629.082761 -271.10707 
L 631.118638 -270.993798 
L 633.154515 -270.869574 
L 635.190392 -270.724756 
L 637.226269 -270.549702 
L 639.262147 -270.33477 
L 641.298024 -270.070318 
L 643.333901 -269.746757 
L 645.369778 -269.360336 
L 647.405655 -268.91843 
L 649.441532 -268.42966 
L 651.47741 -267.902647 
L 653.513287 -267.346013 
L 655.549164 -266.76838 
L 657.585041 -266.178369 
L 659.620918 -265.584602 
L 661.656795 -264.995754 
L 663.692673 -264.421034 
L 665.72855 -263.869952 
L 667.764427 -263.352021 
L 669.800304 -262.876756 
L 671.836181 -262.45367 
L 673.872058 -262.092277 
L 675.907936 -261.802091 
L 677.943813 -261.592618 
L 679.97969 -261.470614 
L 682.015567 -261.436192 
L 684.051444 -261.488483 
L 686.087321 -261.626613 
L 688.123199 -261.849712 
L 690.159076 -262.156909 
L 692.194953 -262.547331 
L 694.23083 -263.020108 
L 696.266707 -263.573382 
L 698.302584 -264.192093 
L 700.338462 -264.851756 
L 702.374339 -265.527683 
L 704.410216 -266.195184 
L 706.446093 -266.829571 
L 708.48197 -267.406154 
L 710.517847 -267.900246 
L 712.553725 -268.28716 
L 714.589602 -268.549063 
L 716.625479 -268.689353 
L 718.661356 -268.715528 
L 720.697233 -268.635085 
L 722.73311 -268.455522 
L 724.768988 -268.184336 
L 726.804865 -267.829026 
L 728.840742 -267.397087 
L 730.876619 -266.89602 
L 732.912496 -266.33332 
L 734.948373 -265.716485 
L 736.984251 -265.053013 
L 739.020128 -264.350403 
L 741.056005 -263.61615 
L 743.091882 -262.857754 
L 745.127759 -262.08271 
L 747.163636 -261.298519 
L 747.163636 -365.04 
L 747.163636 -365.04 
L 745.127759 -364.6057 
L 743.091882 -364.154482 
L 741.056005 -363.682975 
L 739.020128 -363.187808 
L 736.984251 -362.665609 
L 734.948373 -362.113005 
L 732.912496 -361.526626 
L 730.876619 -360.9031 
L 728.840742 -360.239055 
L 726.804865 -359.53112 
L 724.768988 -358.775922 
L 722.73311 -357.970091 
L 720.697233 -357.110254 
L 718.661356 -356.19304 
L 716.625479 -355.215078 
L 714.589602 -354.172995 
L 712.553725 -353.06342 
L 710.517847 -351.886866 
L 708.48197 -350.663961 
L 706.446093 -349.421826 
L 704.410216 -348.187584 
L 702.374339 -346.988359 
L 700.338462 -345.851274 
L 698.302584 -344.803452 
L 696.266707 -343.872018 
L 694.23083 -343.083609 
L 692.194953 -342.442335 
L 690.159076 -341.920752 
L 688.123199 -341.48906 
L 686.087321 -341.117458 
L 684.051444 -340.776147 
L 682.015567 -340.435325 
L 679.97969 -340.065193 
L 677.943813 -339.63595 
L 675.907936 -339.120675 
L 673.872058 -338.51188 
L 671.836181 -337.810112 
L 669.800304 -337.015942 
L 667.764427 -336.129943 
L 665.72855 -335.152687 
L 663.692673 -334.084745 
L 661.656795 -332.92669 
L 659.620918 -331.679126 
L 657.585041 -330.345422 
L 655.549164 -328.93382 
L 653.513287 -327.453058 
L 651.47741 -325.911875 
L 649.441532 -324.319008 
L 647.405655 -322.683196 
L 645.369778 -321.013176 
L 643.333901 -319.317687 
L 641.298024 -317.605538 
L 639.262147 -315.886178 
L 637.226269 -314.169392 
L 635.190392 -312.464966 
L 633.154515 -310.782688 
L 631.118638 -309.132344 
L 629.082761 -307.523723 
L 627.046884 -305.966611 
L 625.011006 -304.470768 
L 622.975129 -303.040061 
L 620.939252 -301.665208 
L 618.903375 -300.33515 
L 616.867498 -299.038828 
L 614.831621 -297.765182 
L 612.795743 -296.503153 
L 610.759866 -295.24168 
L 608.723989 -293.969704 
L 606.688112 -292.677565 
L 604.652235 -291.372446 
L 602.616358 -290.072674 
L 600.58048 -288.796777 
L 598.544603 -287.563281 
L 596.508726 -286.390714 
L 594.472849 -285.297602 
L 592.436972 -284.302472 
L 590.401095 -283.423841 
L 588.365217 -282.669969 
L 586.32934 -282.019888 
L 584.293463 -281.447459 
L 582.257586 -280.926541 
L 580.221709 -280.430994 
L 578.185832 -279.934679 
L 576.149954 -279.411455 
L 574.114077 -278.835183 
L 572.0782 -278.180429 
L 570.042323 -277.433654 
L 568.006446 -276.591183 
L 565.970569 -275.64964 
L 563.934691 -274.605649 
L 561.898814 -273.455836 
L 559.862937 -272.196824 
L 557.82706 -270.825239 
L 555.791183 -269.337703 
L 553.755306 -267.737015 
L 551.719428 -266.04863 
L 549.683551 -264.303204 
L 547.647674 -262.531394 
L 545.611797 -260.763856 
L 543.57592 -259.031245 
L 541.540043 -257.364219 
L 539.504165 -255.793433 
L 537.468288 -254.348468 
L 535.432411 -253.032466 
L 533.396534 -251.821119 
L 531.360657 -250.688845 
L 529.32478 -249.610061 
L 527.288902 -248.559188 
L 525.253025 -247.510641 
L 523.217148 -246.438841 
L 521.181271 -245.318203 
L 519.145394 -244.127321 
L 517.109517 -242.864606 
L 515.073639 -241.534347 
L 513.037762 -240.140836 
L 511.001885 -238.688364 
L 508.966008 -237.181221 
L 506.930131 -235.623698 
L 504.894254 -234.020087 
L 502.858376 -232.374925 
L 500.822499 -230.702314 
L 498.786622 -229.028788 
L 496.750745 -227.381707 
L 494.714868 -225.788434 
L 492.678991 -224.276331 
L 490.643113 -222.872759 
L 488.607236 -221.605081 
L 486.571359 -220.500659 
L 484.535482 -219.579901 
L 482.499605 -218.820307 
L 480.463728 -218.183022 
L 478.42785 -217.62916 
L 476.391973 -217.119835 
L 474.356096 -216.616161 
L 472.320219 -216.079251 
L 470.284342 -215.47022 
L 468.248465 -214.750364 
L 466.212587 -213.89367 
L 464.17671 -212.894818 
L 462.140833 -211.750395 
L 460.104956 -210.456989 
L 458.069079 -209.011188 
L 456.033202 -207.409578 
L 453.997324 -205.648748 
L 451.961447 -203.725284 
L 449.92557 -201.640565 
L 447.889693 -199.434819 
L 445.853816 -197.167129 
L 443.817939 -194.896702 
L 441.782061 -192.682745 
L 439.746184 -190.584467 
L 437.710307 -188.661075 
L 435.67443 -186.971776 
L 433.638553 -185.575521 
L 431.602676 -184.492389 
L 429.566798 -183.662375 
L 427.530921 -183.015594 
L 425.495044 -182.48216 
L 423.459167 -181.99219 
L 421.42329 -181.475799 
L 419.387413 -180.863102 
L 417.351535 -180.084215 
L 415.315658 -179.076495 
L 413.279781 -177.855928 
L 411.243904 -176.486699 
L 409.208027 -175.033696 
L 407.17215 -173.561804 
L 405.136272 -172.135906 
L 403.100395 -170.82089 
L 401.064518 -169.68164 
L 399.028641 -168.782986 
L 396.992764 -168.161866 
L 394.956887 -167.78203 
L 392.921009 -167.595364 
L 390.885132 -167.553758 
L 388.849255 -167.609099 
L 386.813378 -167.713277 
L 384.777501 -167.818179 
L 382.741624 -167.875694 
L 380.705746 -167.839974 
L 378.669869 -167.69904 
L 376.633992 -167.466984 
L 374.598115 -167.158572 
L 372.562238 -166.788567 
L 370.526361 -166.371732 
L 368.490483 -165.922833 
L 366.454606 -165.456633 
L 364.418729 -164.987895 
L 362.382852 -164.526782 
L 360.346975 -164.067938 
L 358.311098 -163.602743 
L 356.27522 -163.122576 
L 354.239343 -162.618816 
L 352.203466 -162.082842 
L 350.167589 -161.506033 
L 348.131712 -160.879769 
L 346.095835 -160.195418 
L 344.059957 -159.444161 
L 342.02408 -158.616994 
L 339.988203 -157.704904 
L 337.952326 -156.698881 
L 335.916449 -155.589911 
L 333.880572 -154.368984 
L 331.844694 -153.027088 
L 329.808817 -151.55521 
L 327.77294 -149.949439 
L 325.737063 -148.228085 
L 323.701186 -146.415513 
L 321.665309 -144.536087 
L 319.629431 -142.61417 
L 317.593554 -140.674127 
L 315.557677 -138.740322 
L 313.5218 -136.837118 
L 311.485923 -134.9886 
L 309.450046 -133.209589 
L 307.414168 -131.503747 
L 305.378291 -129.87407 
L 303.342414 -128.323555 
L 301.306537 -126.855197 
L 299.27066 -125.471994 
L 297.234783 -124.176942 
L 295.198905 -122.973037 
L 293.163028 -121.860217 
L 291.127151 -120.821132 
L 289.091274 -119.832368 
L 287.055397 -118.870503 
L 285.01952 -117.912118 
L 282.983642 -116.933791 
L 280.947765 -115.912101 
L 278.911888 -114.823627 
L 276.876011 -113.645372 
L 274.840134 -112.378118 
L 272.804257 -111.058582 
L 270.768379 -109.726462 
L 268.732502 -108.421461 
L 266.696625 -107.183279 
L 264.660748 -106.051617 
L 262.624871 -105.066175 
L 260.588994 -104.266655 
L 258.553116 -103.686266 
L 256.517239 -103.310253 
L 254.481362 -103.102363 
L 252.445485 -103.026239 
L 250.409608 -103.045526 
L 248.373731 -103.123868 
L 246.337853 -103.224909 
L 244.301976 -103.312294 
L 242.266099 -103.349799 
L 240.230222 -103.316052 
L 238.194345 -103.217968 
L 236.158468 -103.065634 
L 234.12259 -102.869137 
L 232.086713 -102.638565 
L 230.050836 -102.384005 
L 228.014959 -102.115545 
L 225.979082 -101.843271 
L 223.943205 -101.576135 
L 221.907327 -101.311911 
L 219.87145 -101.042029 
L 217.835573 -100.757851 
L 215.799696 -100.450734 
L 213.763819 -100.112037 
L 211.727942 -99.73312 
L 209.692064 -99.305342 
L 207.656187 -98.820076 
L 205.62031 -98.273429 
L 203.584433 -97.672954 
L 201.548556 -97.0279 
L 199.512679 -96.347515 
L 197.476801 -95.641047 
L 195.440924 -94.917745 
L 193.405047 -94.186859 
L 191.36917 -93.457635 
L 189.333293 -92.738268 
L 187.297416 -92.022821 
L 185.261538 -91.295269 
L 183.225661 -90.539371 
L 181.189784 -89.738884 
L 179.153907 -88.877567 
L 177.11803 -87.939177 
L 175.082153 -86.907471 
L 173.046275 -85.766213 
L 171.010398 -84.506532 
L 168.974521 -83.142393 
L 166.938644 -81.692172 
L 164.902767 -80.174241 
L 162.86689 -78.606976 
L 160.831012 -77.008751 
L 158.795135 -75.397941 
L 156.759258 -73.792919 
L 154.723381 -72.212061 
L 152.687504 -70.673741 
L 150.651627 -69.196332 
L 148.615749 -67.79821 
L 146.579872 -66.497749 
L 144.543995 -65.313323 
L 142.508118 -64.263306 
L 140.472241 -63.366074 
L 138.436364 -62.64 
z
" style="stroke: #008000"/>
    </defs>
    <g clip-path="url(#p78b32cd906)">
     <use xlink:href="#mffeccba224" x="0" y="432" style="fill: #008000; stroke: #008000"/>
    </g>
   </g>
   <g id="matplotlib.axis_1">
    <g id="xtick_1">
     <g id="line2d_1">
      <path d="M 121.044156 384.48 
L 121.044156 51.84 
" clip-path="url(#p78b32cd906)" style="fill: none; stroke: #b0b0b0; stroke-width: 0.8; stroke-linecap: square"/>
     </g>
     <g id="line2d_2">
      <defs>
       <path id="ma74eaf3654" d="M 0 0 
L 0 -3.5 
" style="stroke: #000000; stroke-width: 0.8"/>
      </defs>
      <g>
       <use xlink:href="#ma74eaf3654" x="121.044156" y="384.48" style="stroke: #000000; stroke-width: 0.8"/>
      </g>
     </g>
     <g id="text_1">
      <!-- 0 -->
      <g transform="translate(118.544156 394.855) scale(0.1 -0.1)">
       <defs>
        <path id="SimHei-30" d="M 225 2537 
Q 250 3200 412 3587 
Q 575 3975 875 4225 
Q 1175 4475 1612 4475 
Q 2050 4475 2375 4112 
Q 2700 3750 2800 3200 
Q 2900 2650 2862 1937 
Q 2825 1225 2612 775 
Q 2400 325 1975 150 
Q 1550 -25 1125 187 
Q 700 400 525 750 
Q 350 1100 275 1487 
Q 200 1875 225 2537 
z
M 750 2687 
Q 675 2000 800 1462 
Q 925 925 1212 700 
Q 1500 475 1800 612 
Q 2100 750 2237 1162 
Q 2375 1575 2375 2062 
Q 2375 2550 2337 2950 
Q 2300 3350 2112 3675 
Q 1925 4000 1612 4012 
Q 1300 4025 1062 3700 
Q 825 3375 750 2687 
z
" transform="scale(0.015625)"/>
       </defs>
       <use xlink:href="#SimHei-30"/>
      </g>
     </g>
    </g>
    <g id="xtick_2">
     <g id="line2d_3">
      <path d="M 208.005195 384.48 
L 208.005195 51.84 
" clip-path="url(#p78b32cd906)" style="fill: none; stroke: #b0b0b0; stroke-width: 0.8; stroke-linecap: square"/>
     </g>
     <g id="line2d_4">
      <g>
       <use xlink:href="#ma74eaf3654" x="208.005195" y="384.48" style="stroke: #000000; stroke-width: 0.8"/>
      </g>
     </g>
     <g id="text_2">
      <!-- 5 -->
      <g transform="translate(205.505195 394.855) scale(0.1 -0.1)">
       <defs>
        <path id="SimHei-35" d="M 550 1325 
Q 725 650 1150 575 
Q 1575 500 1837 662 
Q 2100 825 2212 1087 
Q 2325 1350 2312 1675 
Q 2300 2000 2137 2225 
Q 1975 2450 1725 2525 
Q 1475 2600 1162 2525 
Q 850 2450 650 2175 
L 225 2225 
Q 275 2375 700 4375 
L 2675 4375 
L 2675 3925 
L 1075 3925 
Q 950 3250 825 2850 
Q 1200 3025 1525 3012 
Q 1850 3000 2150 2862 
Q 2450 2725 2587 2487 
Q 2725 2250 2787 2012 
Q 2850 1775 2837 1500 
Q 2825 1225 2725 937 
Q 2625 650 2425 462 
Q 2225 275 1937 162 
Q 1650 50 1275 75 
Q 900 100 562 350 
Q 225 600 100 1200 
L 550 1325 
z
" transform="scale(0.015625)"/>
       </defs>
       <use xlink:href="#SimHei-35"/>
      </g>
     </g>
    </g>
    <g id="xtick_3">
     <g id="line2d_5">
      <path d="M 294.966234 384.48 
L 294.966234 51.84 
" clip-path="url(#p78b32cd906)" style="fill: none; stroke: #b0b0b0; stroke-width: 0.8; stroke-linecap: square"/>
     </g>
     <g id="line2d_6">
      <g>
       <use xlink:href="#ma74eaf3654" x="294.966234" y="384.48" style="stroke: #000000; stroke-width: 0.8"/>
      </g>
     </g>
     <g id="text_3">
      <!-- 10 -->
      <g transform="translate(289.966234 394.855) scale(0.1 -0.1)">
       <defs>
        <path id="SimHei-31" d="M 1400 3600 
Q 1075 3275 575 2975 
L 575 3450 
Q 1200 3875 1600 4450 
L 1900 4450 
L 1900 150 
L 1400 150 
L 1400 3600 
z
" transform="scale(0.015625)"/>
       </defs>
       <use xlink:href="#SimHei-31"/>
       <use xlink:href="#SimHei-30" x="50"/>
      </g>
     </g>
    </g>
    <g id="xtick_4">
     <g id="line2d_7">
      <path d="M 381.927273 384.48 
L 381.927273 51.84 
" clip-path="url(#p78b32cd906)" style="fill: none; stroke: #b0b0b0; stroke-width: 0.8; stroke-linecap: square"/>
     </g>
     <g id="line2d_8">
      <g>
       <use xlink:href="#ma74eaf3654" x="381.927273" y="384.48" style="stroke: #000000; stroke-width: 0.8"/>
      </g>
     </g>
     <g id="text_4">
      <!-- 15 -->
      <g transform="translate(376.927273 394.855) scale(0.1 -0.1)">
       <use xlink:href="#SimHei-31"/>
       <use xlink:href="#SimHei-35" x="50"/>
      </g>
     </g>
    </g>
    <g id="xtick_5">
     <g id="line2d_9">
      <path d="M 468.888312 384.48 
L 468.888312 51.84 
" clip-path="url(#p78b32cd906)" style="fill: none; stroke: #b0b0b0; stroke-width: 0.8; stroke-linecap: square"/>
     </g>
     <g id="line2d_10">
      <g>
       <use xlink:href="#ma74eaf3654" x="468.888312" y="384.48" style="stroke: #000000; stroke-width: 0.8"/>
      </g>
     </g>
     <g id="text_5">
      <!-- 20 -->
      <g transform="translate(463.888312 394.855) scale(0.1 -0.1)">
       <defs>
        <path id="SimHei-32" d="M 300 250 
Q 325 625 650 925 
Q 975 1225 1475 1862 
Q 1975 2500 2125 2850 
Q 2275 3200 2237 3450 
Q 2200 3700 2000 3862 
Q 1800 4025 1537 4000 
Q 1275 3975 1037 3800 
Q 800 3625 675 3275 
L 200 3350 
Q 400 3925 712 4187 
Q 1025 4450 1450 4475 
Q 1700 4500 1900 4462 
Q 2100 4425 2312 4287 
Q 2525 4150 2662 3875 
Q 2800 3600 2762 3212 
Q 2725 2825 2375 2287 
Q 2025 1750 1025 600 
L 2825 600 
L 2825 150 
L 300 150 
L 300 250 
z
" transform="scale(0.015625)"/>
       </defs>
       <use xlink:href="#SimHei-32"/>
       <use xlink:href="#SimHei-30" x="50"/>
      </g>
     </g>
    </g>
    <g id="xtick_6">
     <g id="line2d_11">
      <path d="M 555.849351 384.48 
L 555.849351 51.84 
" clip-path="url(#p78b32cd906)" style="fill: none; stroke: #b0b0b0; stroke-width: 0.8; stroke-linecap: square"/>
     </g>
     <g id="line2d_12">
      <g>
       <use xlink:href="#ma74eaf3654" x="555.849351" y="384.48" style="stroke: #000000; stroke-width: 0.8"/>
      </g>
     </g>
     <g id="text_6">
      <!-- 25 -->
      <g transform="translate(550.849351 394.855) scale(0.1 -0.1)">
       <use xlink:href="#SimHei-32"/>
       <use xlink:href="#SimHei-35" x="50"/>
      </g>
     </g>
    </g>
    <g id="xtick_7">
     <g id="line2d_13">
      <path d="M 642.81039 384.48 
L 642.81039 51.84 
" clip-path="url(#p78b32cd906)" style="fill: none; stroke: #b0b0b0; stroke-width: 0.8; stroke-linecap: square"/>
     </g>
     <g id="line2d_14">
      <g>
       <use xlink:href="#ma74eaf3654" x="642.81039" y="384.48" style="stroke: #000000; stroke-width: 0.8"/>
      </g>
     </g>
     <g id="text_7">
      <!-- 30 -->
      <g transform="translate(637.81039 394.855) scale(0.1 -0.1)">
       <defs>
        <path id="SimHei-33" d="M 250 1225 
L 700 1300 
Q 800 975 1025 762 
Q 1250 550 1587 562 
Q 1925 575 2125 837 
Q 2325 1100 2300 1437 
Q 2275 1775 2037 1962 
Q 1800 2150 1275 2225 
L 1275 2550 
Q 1800 2600 2037 2825 
Q 2275 3050 2250 3412 
Q 2225 3775 1925 3937 
Q 1625 4100 1287 3975 
Q 950 3850 750 3275 
L 300 3350 
Q 450 3800 712 4100 
Q 975 4400 1425 4450 
Q 1875 4500 2212 4337 
Q 2550 4175 2687 3837 
Q 2825 3500 2725 3100 
Q 2625 2700 2150 2400 
Q 2500 2250 2687 1950 
Q 2875 1650 2812 1162 
Q 2750 675 2375 375 
Q 2000 75 1525 87 
Q 1050 100 700 387 
Q 350 675 250 1225 
z
" transform="scale(0.015625)"/>
       </defs>
       <use xlink:href="#SimHei-33"/>
       <use xlink:href="#SimHei-30" x="50"/>
      </g>
     </g>
    </g>
    <g id="xtick_8">
     <g id="line2d_15">
      <path d="M 729.771429 384.48 
L 729.771429 51.84 
" clip-path="url(#p78b32cd906)" style="fill: none; stroke: #b0b0b0; stroke-width: 0.8; stroke-linecap: square"/>
     </g>
     <g id="line2d_16">
      <g>
       <use xlink:href="#ma74eaf3654" x="729.771429" y="384.48" style="stroke: #000000; stroke-width: 0.8"/>
      </g>
     </g>
     <g id="text_8">
      <!-- 35 -->
      <g transform="translate(724.771429 394.855) scale(0.1 -0.1)">
       <use xlink:href="#SimHei-33"/>
       <use xlink:href="#SimHei-35" x="50"/>
      </g>
     </g>
    </g>
    <g id="text_9">
     <!-- 搜索次数/次 -->
     <g transform="translate(409.8 409.6675) scale(0.12 -0.12)">
      <defs>
       <path id="SimHei-641c" d="M 2525 1975 
Q 2850 1950 3225 1950 
L 3900 1950 
L 3900 2450 
L 2500 2450 
Q 2525 2800 2525 3075 
L 2525 4200 
Q 2525 4475 2500 4775 
Q 3175 4850 3450 5000 
Q 3600 4650 3675 4550 
Q 3450 4525 2975 4500 
L 2975 3900 
L 3525 3900 
L 3525 3475 
L 2975 3475 
L 2975 2875 
L 3900 2875 
L 3900 4575 
Q 3900 4850 3875 5225 
L 4375 5225 
Q 4350 4925 4350 4600 
L 4350 2875 
L 5275 2875 
L 5275 3475 
L 4650 3475 
L 4650 3900 
L 5275 3900 
L 5275 4500 
Q 4975 4500 4675 4475 
L 4675 4925 
Q 4975 4900 5200 4900 
L 5750 4900 
Q 5725 4600 5725 4300 
L 5725 3100 
Q 5725 2675 5750 2450 
L 4350 2450 
L 4350 1950 
L 5675 1950 
Q 5550 1600 5275 1150 
Q 5000 700 4500 200 
Q 4775 25 5275 -62 
Q 5775 -150 6175 -150 
Q 6000 -300 5875 -650 
Q 5175 -550 4812 -425 
Q 4450 -300 4125 -100 
Q 3700 -300 3350 -412 
Q 3000 -525 2375 -675 
Q 2325 -450 2075 -200 
Q 3125 -100 3725 200 
Q 3450 475 3275 762 
Q 3100 1050 2925 1525 
L 2525 1525 
L 2525 1975 
z
M 1150 4550 
Q 1150 4925 1125 5225 
L 1675 5225 
Q 1600 4925 1600 4600 
L 1600 3950 
Q 1925 3950 2150 3975 
L 2150 3500 
Q 1900 3525 1600 3525 
L 1600 2500 
Q 2000 2650 2175 2800 
Q 2175 2675 2200 2325 
Q 2075 2275 1600 2075 
L 1600 0 
Q 1600 -300 1350 -387 
Q 1100 -475 650 -550 
Q 625 -300 450 0 
Q 900 0 1025 25 
Q 1150 50 1150 225 
L 1150 1900 
Q 650 1675 450 1525 
Q 325 1950 250 2100 
Q 550 2125 1150 2350 
L 1150 3525 
Q 625 3525 350 3500 
L 350 3975 
Q 625 3950 1150 3950 
L 1150 4550 
z
M 3400 1525 
Q 3750 775 4150 450 
Q 4700 1000 4950 1525 
L 3400 1525 
z
" transform="scale(0.015625)"/>
       <path id="SimHei-7d22" d="M 3275 3000 
Q 3100 2925 2850 2775 
Q 2600 2625 2200 2375 
L 3425 2375 
Q 3825 2575 4175 2900 
Q 4475 2700 4775 2525 
Q 4325 2400 3937 2187 
Q 3550 1975 2300 1375 
Q 3375 1425 4600 1475 
Q 4400 1650 4200 1800 
Q 4475 1925 4575 2075 
Q 5025 1825 5675 1125 
Q 5425 975 5275 800 
Q 5050 1000 4900 1150 
Q 4400 1150 3450 1075 
L 3450 -25 
Q 3450 -400 3212 -475 
Q 2975 -550 2450 -625 
Q 2425 -350 2250 -100 
Q 2600 -100 2775 -75 
Q 2950 -50 2950 125 
L 2950 1025 
Q 2175 1025 1700 962 
Q 1225 900 975 850 
Q 900 1100 825 1300 
Q 1425 1400 1837 1550 
Q 2250 1700 2875 2050 
Q 2300 2050 2012 2025 
Q 1725 2000 1325 1900 
Q 1250 2175 1175 2350 
Q 1525 2375 1925 2612 
Q 2325 2850 2675 3275 
Q 2975 3125 3275 3000 
z
M 2900 4625 
Q 2900 4925 2875 5150 
L 3425 5150 
Q 3400 4850 3400 4625 
L 4775 4625 
Q 5050 4625 5575 4650 
L 5575 4250 
Q 5100 4275 4750 4275 
L 3400 4275 
L 3400 3750 
L 5900 3750 
Q 5875 3550 5875 3250 
Q 5875 2950 5900 2700 
L 5375 2700 
L 5375 3375 
L 975 3375 
L 975 2525 
L 475 2525 
L 475 3750 
L 2900 3750 
L 2900 4275 
L 1750 4275 
Q 1050 4275 825 4250 
L 825 4650 
Q 1150 4625 1725 4625 
L 2900 4625 
z
M 4525 800 
Q 5175 375 5875 -75 
Q 5650 -250 5475 -450 
Q 4800 100 4125 500 
Q 4350 675 4525 800 
z
M 2125 450 
Q 1900 325 1575 75 
Q 1250 -175 775 -475 
Q 650 -275 375 -125 
Q 1100 225 1700 775 
Q 1900 600 2125 450 
z
" transform="scale(0.015625)"/>
       <path id="SimHei-6b21" d="M 4150 3025 
Q 4000 2550 4050 2187 
Q 4100 1825 4275 1450 
Q 4450 1075 4800 750 
Q 5150 425 5475 212 
Q 5800 0 6150 -150 
Q 5875 -350 5750 -625 
Q 5250 -325 4887 -25 
Q 4525 275 4275 612 
Q 4025 950 3825 1425 
Q 3525 625 2950 125 
Q 2375 -375 1850 -650 
Q 1675 -400 1475 -225 
Q 2025 0 2487 362 
Q 2950 725 3162 1100 
Q 3375 1475 3450 1825 
Q 3525 2175 3537 2400 
Q 3550 2625 3525 3125 
Q 3825 3050 4150 3025 
z
M 3700 4975 
Q 3625 4900 3475 4575 
Q 3325 4250 3250 4075 
L 5775 4075 
Q 5650 3725 5550 3362 
Q 5450 3000 5275 2500 
Q 5000 2575 4775 2600 
Q 5025 3350 5100 3650 
L 3100 3650 
Q 2975 3400 2812 3100 
Q 2650 2800 2425 2450 
Q 2275 2600 1975 2700 
Q 2300 3050 2625 3762 
Q 2950 4475 3125 5200 
Q 3450 5025 3700 4975 
z
M 2025 2000 
Q 1825 1675 1475 1087 
Q 1125 500 725 -200 
Q 500 -25 250 175 
Q 725 725 1037 1262 
Q 1350 1800 1575 2325 
Q 1750 2175 2025 2000 
z
M 900 4750 
Q 1725 3725 1950 3375 
Q 1750 3250 1500 3050 
Q 1250 3525 500 4425 
Q 700 4575 900 4750 
z
" transform="scale(0.015625)"/>
       <path id="SimHei-6570" d="M 4525 4925 
Q 4475 4800 4400 4587 
Q 4325 4375 4175 3825 
L 5325 3825 
Q 5575 3825 5925 3850 
L 5925 3400 
Q 5650 3425 5500 3425 
Q 5500 3025 5362 2162 
Q 5225 1300 4875 675 
Q 5125 375 5437 137 
Q 5750 -100 6025 -200 
Q 5725 -425 5625 -625 
Q 5325 -450 5075 -225 
Q 4825 0 4575 325 
Q 4300 25 3987 -187 
Q 3675 -400 3200 -650 
Q 3075 -425 2850 -300 
Q 3225 -150 3650 125 
Q 4075 400 4300 675 
Q 4125 1025 3962 1425 
Q 3800 1825 3675 2475 
Q 3600 2275 3425 1950 
Q 3250 2050 3000 2150 
Q 3400 2850 3650 3675 
Q 3900 4500 3975 5100 
Q 4275 4975 4525 4925 
z
M 2100 2250 
Q 2000 2150 1875 1925 
L 3250 1925 
Q 3100 1300 2725 675 
Q 3125 525 3350 400 
Q 3225 225 3125 25 
Q 2900 175 2450 325 
Q 1950 -225 725 -650 
Q 600 -375 400 -275 
Q 1575 0 2000 475 
Q 1300 650 850 775 
Q 1000 1000 1250 1525 
Q 1000 1525 425 1500 
L 425 1950 
Q 900 1925 1400 1925 
Q 1500 2150 1550 2425 
Q 1825 2325 2100 2250 
z
M 1775 3950 
Q 1775 4550 1750 5100 
L 2250 5100 
Q 2225 4575 2225 3950 
Q 3075 3950 3425 3975 
L 3425 3525 
Q 3075 3550 2225 3550 
Q 2225 2825 2250 2425 
L 1750 2425 
Q 1775 2775 1775 3300 
Q 1650 3100 1300 2787 
Q 950 2475 650 2300 
Q 525 2525 275 2625 
Q 500 2700 875 2975 
Q 1250 3250 1450 3550 
Q 950 3550 500 3525 
L 500 3975 
Q 925 3950 1775 3950 
z
M 3975 3175 
Q 4200 1700 4600 1125 
Q 4850 1700 4937 2287 
Q 5025 2875 5050 3425 
L 4075 3425 
L 3975 3175 
z
M 1450 1000 
Q 1750 925 2275 800 
Q 2475 1050 2650 1525 
L 1725 1525 
Q 1600 1275 1450 1000 
z
M 3325 4825 
Q 3200 4625 3125 4450 
Q 3050 4275 2925 4025 
Q 2725 4125 2525 4175 
Q 2725 4500 2900 5000 
Q 3150 4875 3325 4825 
z
M 2575 3375 
Q 2900 3050 3200 2725 
Q 3050 2600 2875 2425 
Q 2525 2850 2300 3100 
Q 2450 3225 2575 3375 
z
M 925 5000 
Q 1275 4650 1500 4300 
L 1125 4075 
Q 950 4425 600 4725 
Q 825 4875 925 5000 
z
" transform="scale(0.015625)"/>
       <path id="SimHei-2f" d="M 3000 4550 
L 350 -175 
L 100 -25 
L 2750 4700 
L 3000 4550 
z
" transform="scale(0.015625)"/>
      </defs>
      <use xlink:href="#SimHei-641c"/>
      <use xlink:href="#SimHei-7d22" x="100"/>
      <use xlink:href="#SimHei-6b21" x="200"/>
      <use xlink:href="#SimHei-6570" x="300"/>
      <use xlink:href="#SimHei-2f" x="400"/>
      <use xlink:href="#SimHei-6b21" x="450"/>
     </g>
    </g>
   </g>
   <g id="matplotlib.axis_2">
    <g id="ytick_1">
     <g id="line2d_17">
      <path d="M 108 369.562735 
L 777.6 369.562735 
" clip-path="url(#p78b32cd906)" style="fill: none; stroke: #b0b0b0; stroke-width: 0.8; stroke-linecap: square"/>
     </g>
     <g id="line2d_18">
      <defs>
       <path id="mbc66d9f1d8" d="M 0 0 
L 3.5 0 
" style="stroke: #000000; stroke-width: 0.8"/>
      </defs>
      <g>
       <use xlink:href="#mbc66d9f1d8" x="108" y="369.562735" style="stroke: #000000; stroke-width: 0.8"/>
      </g>
     </g>
     <g id="text_10">
      <!-- 0 -->
      <g transform="translate(99.5 373.000235) scale(0.1 -0.1)">
       <use xlink:href="#SimHei-30"/>
      </g>
     </g>
    </g>
    <g id="ytick_2">
     <g id="line2d_19">
      <path d="M 108 327.501513 
L 777.6 327.501513 
" clip-path="url(#p78b32cd906)" style="fill: none; stroke: #b0b0b0; stroke-width: 0.8; stroke-linecap: square"/>
     </g>
     <g id="line2d_20">
      <g>
       <use xlink:href="#mbc66d9f1d8" x="108" y="327.501513" style="stroke: #000000; stroke-width: 0.8"/>
      </g>
     </g>
     <g id="text_11">
      <!-- 50000 -->
      <g transform="translate(79.5 330.939013) scale(0.1 -0.1)">
       <use xlink:href="#SimHei-35"/>
       <use xlink:href="#SimHei-30" x="50"/>
       <use xlink:href="#SimHei-30" x="100"/>
       <use xlink:href="#SimHei-30" x="150"/>
       <use xlink:href="#SimHei-30" x="200"/>
      </g>
     </g>
    </g>
    <g id="ytick_3">
     <g id="line2d_21">
      <path d="M 108 285.44029 
L 777.6 285.44029 
" clip-path="url(#p78b32cd906)" style="fill: none; stroke: #b0b0b0; stroke-width: 0.8; stroke-linecap: square"/>
     </g>
     <g id="line2d_22">
      <g>
       <use xlink:href="#mbc66d9f1d8" x="108" y="285.44029" style="stroke: #000000; stroke-width: 0.8"/>
      </g>
     </g>
     <g id="text_12">
      <!-- 100000 -->
      <g transform="translate(74.5 288.87779) scale(0.1 -0.1)">
       <use xlink:href="#SimHei-31"/>
       <use xlink:href="#SimHei-30" x="50"/>
       <use xlink:href="#SimHei-30" x="100"/>
       <use xlink:href="#SimHei-30" x="150"/>
       <use xlink:href="#SimHei-30" x="200"/>
       <use xlink:href="#SimHei-30" x="250"/>
      </g>
     </g>
    </g>
    <g id="ytick_4">
     <g id="line2d_23">
      <path d="M 108 243.379068 
L 777.6 243.379068 
" clip-path="url(#p78b32cd906)" style="fill: none; stroke: #b0b0b0; stroke-width: 0.8; stroke-linecap: square"/>
     </g>
     <g id="line2d_24">
      <g>
       <use xlink:href="#mbc66d9f1d8" x="108" y="243.379068" style="stroke: #000000; stroke-width: 0.8"/>
      </g>
     </g>
     <g id="text_13">
      <!-- 150000 -->
      <g transform="translate(74.5 246.816568) scale(0.1 -0.1)">
       <use xlink:href="#SimHei-31"/>
       <use xlink:href="#SimHei-35" x="50"/>
       <use xlink:href="#SimHei-30" x="100"/>
       <use xlink:href="#SimHei-30" x="150"/>
       <use xlink:href="#SimHei-30" x="200"/>
       <use xlink:href="#SimHei-30" x="250"/>
      </g>
     </g>
    </g>
    <g id="ytick_5">
     <g id="line2d_25">
      <path d="M 108 201.317845 
L 777.6 201.317845 
" clip-path="url(#p78b32cd906)" style="fill: none; stroke: #b0b0b0; stroke-width: 0.8; stroke-linecap: square"/>
     </g>
     <g id="line2d_26">
      <g>
       <use xlink:href="#mbc66d9f1d8" x="108" y="201.317845" style="stroke: #000000; stroke-width: 0.8"/>
      </g>
     </g>
     <g id="text_14">
      <!-- 200000 -->
      <g transform="translate(74.5 204.755345) scale(0.1 -0.1)">
       <use xlink:href="#SimHei-32"/>
       <use xlink:href="#SimHei-30" x="50"/>
       <use xlink:href="#SimHei-30" x="100"/>
       <use xlink:href="#SimHei-30" x="150"/>
       <use xlink:href="#SimHei-30" x="200"/>
       <use xlink:href="#SimHei-30" x="250"/>
      </g>
     </g>
    </g>
    <g id="ytick_6">
     <g id="line2d_27">
      <path d="M 108 159.256623 
L 777.6 159.256623 
" clip-path="url(#p78b32cd906)" style="fill: none; stroke: #b0b0b0; stroke-width: 0.8; stroke-linecap: square"/>
     </g>
     <g id="line2d_28">
      <g>
       <use xlink:href="#mbc66d9f1d8" x="108" y="159.256623" style="stroke: #000000; stroke-width: 0.8"/>
      </g>
     </g>
     <g id="text_15">
      <!-- 250000 -->
      <g transform="translate(74.5 162.694123) scale(0.1 -0.1)">
       <use xlink:href="#SimHei-32"/>
       <use xlink:href="#SimHei-35" x="50"/>
       <use xlink:href="#SimHei-30" x="100"/>
       <use xlink:href="#SimHei-30" x="150"/>
       <use xlink:href="#SimHei-30" x="200"/>
       <use xlink:href="#SimHei-30" x="250"/>
      </g>
     </g>
    </g>
    <g id="ytick_7">
     <g id="line2d_29">
      <path d="M 108 117.1954 
L 777.6 117.1954 
" clip-path="url(#p78b32cd906)" style="fill: none; stroke: #b0b0b0; stroke-width: 0.8; stroke-linecap: square"/>
     </g>
     <g id="line2d_30">
      <g>
       <use xlink:href="#mbc66d9f1d8" x="108" y="117.1954" style="stroke: #000000; stroke-width: 0.8"/>
      </g>
     </g>
     <g id="text_16">
      <!-- 300000 -->
      <g transform="translate(74.5 120.6329) scale(0.1 -0.1)">
       <use xlink:href="#SimHei-33"/>
       <use xlink:href="#SimHei-30" x="50"/>
       <use xlink:href="#SimHei-30" x="100"/>
       <use xlink:href="#SimHei-30" x="150"/>
       <use xlink:href="#SimHei-30" x="200"/>
       <use xlink:href="#SimHei-30" x="250"/>
      </g>
     </g>
    </g>
    <g id="ytick_8">
     <g id="line2d_31">
      <path d="M 108 75.134178 
L 777.6 75.134178 
" clip-path="url(#p78b32cd906)" style="fill: none; stroke: #b0b0b0; stroke-width: 0.8; stroke-linecap: square"/>
     </g>
     <g id="line2d_32">
      <g>
       <use xlink:href="#mbc66d9f1d8" x="108" y="75.134178" style="stroke: #000000; stroke-width: 0.8"/>
      </g>
     </g>
     <g id="text_17">
      <!-- 350000 -->
      <g transform="translate(74.5 78.571678) scale(0.1 -0.1)">
       <use xlink:href="#SimHei-33"/>
       <use xlink:href="#SimHei-35" x="50"/>
       <use xlink:href="#SimHei-30" x="100"/>
       <use xlink:href="#SimHei-30" x="150"/>
       <use xlink:href="#SimHei-30" x="200"/>
       <use xlink:href="#SimHei-30" x="250"/>
      </g>
     </g>
    </g>
    <g id="text_18">
     <!-- 边数/条 -->
     <g transform="translate(69 239.16) rotate(-90) scale(0.12 -0.12)">
      <defs>
       <path id="SimHei-8fb9" d="M 3450 3950 
Q 3450 4750 3425 5250 
Q 3800 5175 4050 5175 
Q 3975 4825 3950 3950 
L 5725 3950 
Q 5650 3525 5625 3100 
L 5500 1150 
Q 5475 725 5062 612 
Q 4650 500 4300 400 
Q 4275 725 4050 1050 
Q 4650 1075 4837 1137 
Q 5025 1200 5050 1450 
L 5175 3500 
L 3925 3500 
Q 3825 2500 3525 1837 
Q 3225 1175 2625 500 
Q 2400 725 2075 900 
Q 2625 1275 2987 1937 
Q 3350 2600 3425 3500 
Q 2825 3500 2275 3450 
L 2275 3975 
Q 2725 3950 3450 3950 
z
M 1625 2900 
Q 1600 2475 1600 2125 
L 1600 675 
Q 2225 50 3775 0 
Q 5325 -50 6200 50 
Q 5950 -150 5925 -550 
Q 5125 -550 4350 -525 
Q 3575 -500 2925 -387 
Q 2275 -275 1850 75 
Q 1425 425 1187 175 
Q 950 -75 725 -550 
Q 500 -325 225 -150 
Q 875 350 1100 625 
L 1100 2450 
Q 650 2450 225 2425 
L 225 2925 
Q 725 2900 1150 2900 
L 1625 2900 
z
M 1150 5075 
Q 1600 4200 1700 3900 
Q 1450 3825 1175 3675 
Q 1150 3925 650 4875 
Q 925 4975 1150 5075 
z
" transform="scale(0.015625)"/>
       <path id="SimHei-6761" d="M 2700 5075 
Q 2600 5000 2400 4700 
L 5225 4700 
Q 4975 4300 4625 3875 
Q 4275 3450 3750 3050 
Q 4100 2850 4750 2687 
Q 5400 2525 6200 2525 
Q 5950 2275 5925 2000 
Q 5000 2100 4387 2300 
Q 3775 2500 3275 2825 
Q 2500 2375 1837 2175 
Q 1175 1975 575 1850 
Q 500 2125 275 2300 
Q 1250 2400 1912 2625 
Q 2575 2850 2825 3075 
Q 2400 3425 1925 3975 
Q 1600 3550 1150 3075 
Q 925 3300 725 3350 
Q 1225 3775 1625 4350 
Q 2025 4925 2125 5300 
Q 2525 5125 2700 5075 
z
M 2950 1775 
Q 2950 2000 2925 2400 
L 3475 2400 
Q 3450 1975 3450 1775 
L 4500 1775 
Q 5025 1775 5550 1800 
L 5550 1325 
Q 5025 1350 4525 1350 
L 3450 1350 
L 3450 -50 
Q 3475 -575 2450 -625 
Q 2375 -375 2225 -75 
Q 2975 -150 2950 200 
L 2950 1350 
L 1850 1350 
Q 1350 1350 825 1325 
L 825 1800 
Q 1350 1775 1850 1775 
L 2950 1775 
z
M 3300 3300 
Q 4025 3775 4325 4275 
L 2250 4275 
Q 2700 3675 3300 3300 
z
M 4200 1000 
Q 4950 575 5800 0 
Q 5650 -175 5500 -400 
Q 5150 -150 4787 100 
Q 4425 350 3925 600 
Q 4075 775 4200 1000 
z
M 2375 700 
Q 2275 600 1800 250 
Q 1325 -100 850 -400 
Q 700 -200 500 -50 
Q 825 100 1287 437 
Q 1750 775 1950 1050 
L 2375 700 
z
" transform="scale(0.015625)"/>
      </defs>
      <use xlink:href="#SimHei-8fb9"/>
      <use xlink:href="#SimHei-6570" x="100"/>
      <use xlink:href="#SimHei-2f" x="200"/>
      <use xlink:href="#SimHei-6761" x="250"/>
     </g>
    </g>
   </g>
   <g id="line2d_33">
    <path d="M 138.436364 349.438123 
L 140.472241 346.377343 
L 142.508118 343.544424 
L 144.543995 340.928339 
L 146.579872 338.518062 
L 148.615749 336.302568 
L 150.651627 334.270832 
L 152.687504 332.411827 
L 154.723381 330.714527 
L 156.759258 329.167908 
L 160.831012 326.482608 
L 164.902767 324.267722 
L 168.974521 322.435042 
L 173.046275 320.896366 
L 187.297416 316.038333 
L 191.36917 314.143417 
L 195.440924 311.806409 
L 199.512679 309.135094 
L 207.656187 303.327763 
L 221.907327 293.105913 
L 225.979082 289.945898 
L 232.086713 284.836367 
L 242.266099 275.827834 
L 254.481362 264.912318 
L 258.553116 261.040276 
L 264.660748 254.828963 
L 268.732502 250.679964 
L 272.804257 246.856798 
L 274.840134 245.156974 
L 276.876011 243.646094 
L 278.911888 242.356423 
L 280.947765 241.27733 
L 282.983642 240.369794 
L 287.055397 238.9113 
L 295.198905 236.313929 
L 299.27066 234.641447 
L 311.485923 229.13028 
L 315.557677 227.730761 
L 319.629431 226.703496 
L 323.701186 226.025656 
L 327.77294 225.67407 
L 331.844694 225.621701 
L 342.02408 225.900026 
L 346.095835 225.669956 
L 348.131712 225.385568 
L 350.167589 224.972419 
L 354.239343 223.79325 
L 358.311098 222.20303 
L 362.382852 220.27309 
L 366.454606 218.074635 
L 372.562238 214.420916 
L 384.777501 206.616649 
L 390.885132 202.607808 
L 394.956887 199.706492 
L 399.028641 196.492286 
L 403.100395 192.919681 
L 409.208027 187.53484 
L 411.243904 185.923937 
L 413.279781 184.484627 
L 415.315658 183.264654 
L 417.351535 182.31118 
L 419.387413 181.63127 
L 421.42329 181.166586 
L 425.495044 180.625442 
L 429.566798 180.172841 
L 431.602676 179.818835 
L 433.638553 179.293876 
L 435.67443 178.543841 
L 437.710307 177.597653 
L 447.889693 172.352658 
L 449.92557 171.6873 
L 451.961447 171.311714 
L 453.997324 171.256371 
L 456.033202 171.471856 
L 458.069079 171.898905 
L 462.140833 173.150643 
L 466.212587 174.537472 
L 468.248465 175.133385 
L 470.284342 175.588672 
L 472.320219 175.884287 
L 474.356096 176.023764 
L 476.391973 176.010963 
L 478.42785 175.849745 
L 480.463728 175.543971 
L 482.499605 175.097499 
L 484.535482 174.514192 
L 486.571359 173.797924 
L 490.643113 172.038268 
L 498.786622 168.252895 
L 500.822499 167.474313 
L 502.858376 166.839358 
L 504.894254 166.383944 
L 506.930131 166.108896 
L 508.966008 165.988019 
L 513.037762 166.101225 
L 517.109517 166.508457 
L 523.217148 167.204389 
L 527.288902 167.505919 
L 531.360657 167.617327 
L 535.432411 167.499303 
L 539.504165 167.11324 
L 551.719428 165.365216 
L 553.755306 165.252173 
L 555.791183 165.259067 
L 557.82706 165.403268 
L 561.898814 166.014739 
L 572.0782 168.038059 
L 576.149954 168.435261 
L 580.221709 168.413736 
L 584.293463 167.989073 
L 588.365217 167.177854 
L 592.436972 165.99951 
L 598.544603 163.80839 
L 602.616358 162.37124 
L 606.688112 161.202316 
L 608.723989 160.784927 
L 610.759866 160.497282 
L 614.831621 160.245421 
L 618.903375 160.304553 
L 631.118638 161.006202 
L 637.226269 161.450298 
L 641.298024 161.929682 
L 645.369778 162.639664 
L 649.441532 163.57034 
L 655.549164 165.23162 
L 665.72855 168.130048 
L 669.800304 169.123244 
L 673.872058 169.907723 
L 677.943813 170.407382 
L 682.015567 170.563808 
L 686.087321 170.373387 
L 690.159076 169.843091 
L 694.23083 168.979892 
L 698.302584 167.807907 
L 708.48197 164.593846 
L 712.553725 163.71284 
L 714.589602 163.450937 
L 716.625479 163.310647 
L 720.697233 163.364915 
L 724.768988 163.815664 
L 728.840742 164.602913 
L 732.912496 165.66668 
L 736.984251 166.946987 
L 743.091882 169.142246 
L 747.163636 170.701481 
L 747.163636 170.701481 
" clip-path="url(#p78b32cd906)" style="fill: none; stroke: #0000ff; stroke-width: 2; stroke-linecap: square"/>
   </g>
   <g id="line2d_34">
    <path d="M 138.436364 369.36 
L 140.472241 368.633926 
L 142.508118 367.736694 
L 144.543995 366.686677 
L 148.615749 364.20179 
L 152.687504 361.326259 
L 158.795135 356.602059 
L 164.902767 351.825759 
L 168.974521 348.857607 
L 173.046275 346.233787 
L 177.11803 344.060823 
L 181.189784 342.261116 
L 187.297416 339.977179 
L 203.584433 334.327046 
L 207.656187 333.179924 
L 211.727942 332.26688 
L 217.835573 331.242149 
L 232.086713 329.361435 
L 236.158468 328.934366 
L 240.230222 328.683948 
L 244.301976 328.687706 
L 252.445485 328.973761 
L 254.481362 328.897637 
L 256.517239 328.689747 
L 258.553116 328.313734 
L 260.588994 327.733345 
L 262.624871 326.933825 
L 264.660748 325.948383 
L 268.732502 323.578539 
L 278.911888 317.176373 
L 282.983642 315.066209 
L 293.163028 310.139783 
L 297.234783 307.823058 
L 301.306537 305.144803 
L 305.378291 302.12593 
L 309.450046 298.790411 
L 313.5218 295.162882 
L 325.737063 283.771915 
L 329.808817 280.44479 
L 333.880572 277.631016 
L 337.952326 275.301119 
L 342.02408 273.383006 
L 346.095835 271.804582 
L 350.167589 270.493967 
L 356.27522 268.877424 
L 370.526361 265.628268 
L 374.598115 264.841428 
L 378.669869 264.30096 
L 382.741624 264.124306 
L 392.921009 264.404636 
L 394.956887 264.21797 
L 396.992764 263.838134 
L 399.028641 263.217014 
L 401.064518 262.31836 
L 403.100395 261.17911 
L 407.17215 258.438196 
L 413.279781 254.144072 
L 415.315658 252.923505 
L 417.351535 251.915785 
L 419.387413 251.136898 
L 423.459167 250.00781 
L 427.530921 248.984406 
L 429.566798 248.337625 
L 431.602676 247.507611 
L 433.638553 246.424479 
L 435.67443 245.028224 
L 437.710307 243.338925 
L 439.746184 241.415533 
L 443.817939 237.103298 
L 449.92557 230.359435 
L 451.961447 228.274716 
L 453.997324 226.351252 
L 456.033202 224.590422 
L 458.069079 222.988812 
L 460.104956 221.543011 
L 462.140833 220.249605 
L 464.17671 219.105182 
L 466.212587 218.10633 
L 468.248465 217.249636 
L 472.320219 215.920749 
L 482.499605 213.179693 
L 484.535482 212.420099 
L 486.571359 211.499341 
L 488.607236 210.394919 
L 490.643113 209.127241 
L 494.714868 206.211566 
L 500.822499 201.297686 
L 506.930131 196.376302 
L 511.001885 193.311636 
L 515.073639 190.465653 
L 519.145394 187.872679 
L 523.217148 185.561159 
L 533.396534 180.178881 
L 537.468288 177.651532 
L 541.540043 174.635781 
L 545.611797 171.236144 
L 553.755306 164.262985 
L 557.82706 161.174761 
L 561.898814 158.544164 
L 565.970569 156.35036 
L 570.042323 154.566346 
L 574.114077 153.164817 
L 578.185832 152.065321 
L 586.32934 149.980112 
L 590.401095 148.576159 
L 594.472849 146.702398 
L 598.544603 144.436719 
L 604.652235 140.627554 
L 612.795743 135.496847 
L 620.939252 130.334792 
L 625.011006 127.529232 
L 629.082761 124.476277 
L 635.190392 119.535034 
L 649.441532 107.680992 
L 653.513287 104.546942 
L 657.585041 101.654578 
L 661.656795 99.07331 
L 665.72855 96.847313 
L 669.800304 94.984058 
L 673.872058 93.48812 
L 677.943813 92.36405 
L 682.015567 91.564675 
L 688.123199 90.51094 
L 692.194953 89.557665 
L 694.23083 88.916391 
L 696.266707 88.127982 
L 700.338462 86.148726 
L 704.410216 83.812416 
L 712.553725 78.93658 
L 716.625479 76.784922 
L 720.697233 74.889746 
L 724.768988 73.224078 
L 728.840742 71.760945 
L 732.912496 70.473374 
L 739.020128 68.812192 
L 745.127759 67.3943 
L 747.163636 66.96 
L 747.163636 66.96 
" clip-path="url(#p78b32cd906)" style="fill: none; stroke: #ff0000; stroke-width: 2; stroke-linecap: square"/>
   </g>
   <g id="patch_3">
    <path d="M 108 384.48 
L 108 51.84 
" style="fill: none; stroke: #000000; stroke-width: 0.8; stroke-linejoin: miter; stroke-linecap: square"/>
   </g>
   <g id="patch_4">
    <path d="M 777.6 384.48 
L 777.6 51.84 
" style="fill: none; stroke: #000000; stroke-width: 0.8; stroke-linejoin: miter; stroke-linecap: square"/>
   </g>
   <g id="patch_5">
    <path d="M 108 384.48 
L 777.6 384.48 
" style="fill: none; stroke: #000000; stroke-width: 0.8; stroke-linejoin: miter; stroke-linecap: square"/>
   </g>
   <g id="patch_6">
    <path d="M 108 51.84 
L 777.6 51.84 
" style="fill: none; stroke: #000000; stroke-width: 0.8; stroke-linejoin: miter; stroke-linecap: square"/>
   </g>
   <g id="text_19">
    <!-- 边数变化图 -->
    <g transform="translate(402.8 45.84) scale(0.16 -0.16)">
     <defs>
      <path id="SimHei-53d8" d="M 5200 1975 
Q 4950 1600 4537 1137 
Q 4125 675 3675 375 
Q 3925 225 4600 87 
Q 5275 -50 6000 -75 
Q 5700 -400 5650 -625 
Q 4850 -525 4212 -312 
Q 3575 -100 3225 125 
Q 2800 -125 2150 -325 
Q 1500 -525 700 -675 
Q 600 -425 400 -175 
Q 950 -150 1687 12 
Q 2425 175 2825 375 
Q 2275 775 1675 1575 
Q 1350 1575 1000 1550 
L 1000 2000 
Q 1450 1975 2075 1975 
L 5200 1975 
z
M 3225 5275 
Q 3400 4900 3550 4475 
L 4675 4475 
Q 5400 4475 5975 4500 
L 5975 4025 
Q 5375 4050 4725 4050 
L 4125 4050 
L 4125 2950 
Q 4125 2550 4150 2150 
L 3600 2150 
Q 3625 2550 3625 2950 
L 3625 4050 
L 2750 4050 
L 2750 2950 
Q 2750 2675 2775 2150 
L 2225 2150 
Q 2250 2675 2250 2950 
L 2250 4050 
L 1700 4050 
Q 975 4050 425 4025 
L 425 4500 
Q 950 4475 1700 4475 
L 2975 4475 
Q 2925 4675 2700 5125 
Q 2950 5150 3225 5275 
z
M 2200 1575 
Q 2650 975 3250 600 
Q 3850 1000 4275 1575 
L 2200 1575 
z
M 4850 3750 
Q 5375 3275 5950 2675 
Q 5750 2525 5500 2300 
Q 5075 2800 4450 3400 
Q 4675 3575 4850 3750 
z
M 1825 3500 
Q 1700 3375 1425 3025 
Q 1150 2675 825 2300 
Q 575 2475 375 2600 
Q 975 3150 1300 3825 
Q 1525 3650 1825 3500 
z
" transform="scale(0.015625)"/>
      <path id="SimHei-5316" d="M 3925 5025 
Q 3900 4900 3900 4400 
L 3900 2625 
Q 4375 3025 4775 3450 
Q 5175 3875 5400 4300 
Q 5600 4100 5900 3925 
Q 5700 3700 5225 3212 
Q 4750 2725 4487 2512 
Q 4225 2300 3900 2025 
L 3900 450 
Q 3900 50 4225 50 
L 5200 50 
Q 5400 75 5462 262 
Q 5525 450 5575 850 
Q 5800 650 6150 600 
Q 6000 -100 5825 -250 
Q 5650 -400 5350 -400 
L 3950 -400 
Q 3425 -400 3400 200 
L 3400 1675 
Q 3225 1525 2962 1350 
Q 2700 1175 2375 975 
Q 2225 1225 2025 1400 
Q 2350 1550 2737 1787 
Q 3125 2025 3400 2250 
L 3400 4500 
Q 3400 4800 3375 5025 
L 3925 5025 
z
M 2400 4850 
Q 2175 4550 2075 4337 
Q 1975 4125 1825 3775 
L 1825 675 
Q 1825 -75 1850 -550 
L 1325 -550 
Q 1350 -125 1350 650 
L 1350 3050 
Q 1125 2725 962 2525 
Q 800 2325 675 2175 
Q 500 2375 275 2525 
Q 625 2850 875 3212 
Q 1125 3575 1312 3912 
Q 1500 4250 1625 4575 
Q 1750 4900 1825 5100 
Q 1975 4975 2400 4850 
z
" transform="scale(0.015625)"/>
      <path id="SimHei-56fe" d="M 5800 4975 
Q 5775 4350 5775 3600 
L 5775 925 
Q 5775 150 5800 -600 
L 5300 -600 
L 5300 -275 
L 1125 -275 
L 1125 -650 
L 625 -650 
Q 650 125 650 950 
L 650 3600 
Q 650 4325 625 4975 
L 5800 4975 
z
M 5300 150 
L 5300 4575 
L 1125 4575 
L 1125 150 
L 5300 150 
z
M 3225 4250 
Q 3075 4100 2950 3925 
L 4625 3925 
Q 4525 3700 4300 3375 
Q 4075 3050 3600 2600 
Q 4350 2225 5075 2150 
Q 4900 1925 4775 1675 
Q 3850 1950 3225 2350 
Q 2500 1875 1675 1650 
Q 1600 1875 1400 2075 
Q 2200 2200 2875 2600 
Q 2525 2925 2375 3150 
Q 2150 2900 1900 2650 
Q 1725 2850 1525 2950 
Q 1950 3300 2250 3737 
Q 2550 4175 2675 4475 
Q 2925 4350 3225 4250 
z
M 2450 1275 
Q 3550 950 4100 725 
Q 3975 525 3850 300 
Q 2825 725 2275 850 
Q 2375 1050 2450 1275 
z
M 2925 2050 
Q 3775 1700 4075 1600 
Q 3950 1400 3850 1150 
Q 3000 1550 2700 1650 
Q 2825 1825 2925 2050 
z
M 2625 3450 
Q 3000 3025 3275 2850 
Q 3600 3100 3875 3525 
L 2675 3525 
L 2625 3450 
z
" transform="scale(0.015625)"/>
     </defs>
     <use xlink:href="#SimHei-8fb9"/>
     <use xlink:href="#SimHei-6570" x="100"/>
     <use xlink:href="#SimHei-53d8" x="200"/>
     <use xlink:href="#SimHei-5316" x="300"/>
     <use xlink:href="#SimHei-56fe" x="400"/>
    </g>
   </g>
   <g id="legend_1">
    <g id="patch_7">
     <path d="M 116.4 95.84625 
L 238.8 95.84625 
Q 241.2 95.84625 241.2 93.44625 
L 241.2 60.24 
Q 241.2 57.84 238.8 57.84 
L 116.4 57.84 
Q 114 57.84 114 60.24 
L 114 93.44625 
Q 114 95.84625 116.4 95.84625 
z
" style="fill: #ffffff; opacity: 0.8; stroke: #cccccc; stroke-linejoin: miter"/>
    </g>
    <g id="line2d_35">
     <path d="M 118.8 68.09625 
L 130.8 68.09625 
L 142.8 68.09625 
" style="fill: none; stroke: #0000ff; stroke-width: 2; stroke-linecap: square"/>
    </g>
    <g id="text_20">
     <!-- 图中当前节点数 -->
     <g transform="translate(152.4 72.29625) scale(0.12 -0.12)">
      <defs>
       <path id="SimHei-4e2d" d="M 3475 5200 
Q 3450 4500 3450 3875 
L 5625 3875 
Q 5600 3375 5600 2500 
Q 5600 1650 5625 1225 
L 5075 1225 
L 5075 1600 
L 3450 1600 
L 3450 525 
Q 3450 225 3475 -600 
L 2875 -600 
Q 2925 -150 2925 450 
L 2925 1600 
L 1300 1600 
L 1300 1225 
L 750 1225 
Q 775 1600 775 2500 
Q 775 3425 750 3875 
L 2925 3875 
Q 2925 4550 2900 5200 
L 3475 5200 
z
M 5075 2000 
L 5075 3475 
L 3450 3475 
L 3450 2000 
L 5075 2000 
z
M 2925 2000 
L 2925 3475 
L 1300 3475 
L 1300 2000 
L 2925 2000 
z
" transform="scale(0.015625)"/>
       <path id="SimHei-5f53" d="M 3550 5125 
Q 3525 4825 3525 4275 
L 3525 2925 
L 5625 2925 
Q 5600 2425 5600 2100 
L 5600 175 
Q 5600 -150 5625 -650 
L 5075 -650 
L 5075 -125 
L 1675 -125 
Q 1150 -125 675 -150 
L 675 325 
Q 1150 300 1675 300 
L 5075 300 
L 5075 1200 
L 2000 1200 
Q 1425 1200 900 1175 
L 900 1675 
Q 1425 1650 2000 1650 
L 5075 1650 
L 5075 2500 
L 1700 2500 
Q 1250 2500 750 2475 
L 750 2950 
Q 1250 2925 1700 2925 
L 3000 2925 
L 3000 4275 
Q 3000 4725 2975 5125 
L 3550 5125 
z
M 5700 4500 
Q 5525 4300 5287 4000 
Q 5050 3700 4650 3225 
Q 4450 3400 4225 3575 
Q 4725 4050 5175 4850 
Q 5425 4650 5700 4500 
z
M 1325 4800 
Q 1875 4175 2275 3600 
Q 2025 3450 1775 3250 
Q 1375 3925 875 4450 
Q 1150 4625 1325 4800 
z
" transform="scale(0.015625)"/>
       <path id="SimHei-524d" d="M 2075 -100 
Q 2400 -100 2537 -87 
Q 2675 -75 2675 100 
L 2675 875 
L 1325 875 
L 1325 -650 
L 800 -650 
Q 850 -200 850 350 
L 850 2350 
Q 850 2850 825 3300 
L 3175 3300 
Q 3150 2875 3150 2375 
L 3150 -150 
Q 3150 -400 2950 -475 
Q 2750 -550 2275 -625 
Q 2200 -350 2075 -100 
z
M 4950 5075 
Q 4825 4975 4687 4750 
Q 4550 4525 4375 4225 
L 5400 4225 
Q 5750 4225 6175 4250 
L 6175 3775 
Q 5775 3825 5300 3825 
L 1350 3825 
Q 700 3825 250 3775 
L 250 4250 
Q 775 4225 1350 4225 
L 3875 4225 
Q 4300 5025 4350 5300 
Q 4625 5150 4950 5075 
z
M 4375 -75 
Q 4825 -100 4937 -75 
Q 5050 -50 5050 150 
L 5050 2750 
Q 5050 3050 5025 3400 
L 5550 3400 
Q 5525 3075 5525 2750 
L 5525 -25 
Q 5525 -350 5362 -450 
Q 5200 -550 4600 -600 
Q 4550 -275 4375 -75 
z
M 3775 575 
Q 3800 950 3800 1225 
L 3800 2375 
Q 3800 2775 3775 3075 
L 4300 3075 
Q 4275 2775 4275 2375 
L 4275 1250 
Q 4275 875 4300 575 
L 3775 575 
z
M 2675 2250 
L 2675 2925 
L 1325 2925 
L 1325 2250 
L 2675 2250 
z
M 2675 1250 
L 2675 1875 
L 1325 1875 
L 1325 1250 
L 2675 1250 
z
M 2225 4300 
Q 2125 4575 1750 5050 
Q 2025 5175 2200 5300 
Q 2550 4850 2725 4550 
Q 2500 4450 2225 4300 
z
" transform="scale(0.015625)"/>
       <path id="SimHei-8282" d="M 4200 200 
Q 4150 500 3950 800 
Q 4450 800 4712 850 
Q 4975 900 5000 1150 
L 5050 2500 
L 2925 2500 
L 2925 325 
Q 2925 -125 2950 -600 
L 2375 -600 
Q 2425 -150 2425 325 
L 2425 2500 
L 1875 2500 
Q 1050 2500 550 2475 
L 550 2950 
Q 1075 2925 1625 2925 
L 5625 2925 
Q 5550 1875 5525 1225 
Q 5500 575 5150 412 
Q 4800 250 4200 200 
z
M 2475 3950 
Q 2475 3500 2500 3175 
L 1950 3175 
Q 1975 3550 1975 3950 
L 1125 3950 
Q 775 3950 350 3900 
L 350 4400 
Q 775 4375 1125 4375 
L 1975 4375 
Q 1975 4850 1950 5175 
L 2500 5175 
Q 2475 4850 2475 4375 
L 3800 4375 
Q 3800 4875 3775 5175 
L 4350 5175 
Q 4325 4875 4325 4375 
L 5125 4375 
Q 5600 4375 6000 4400 
L 6000 3925 
Q 5600 3950 5125 3950 
L 4325 3950 
Q 4325 3550 4350 3175 
L 3775 3175 
Q 3800 3575 3800 3950 
L 2475 3950 
z
" transform="scale(0.015625)"/>
       <path id="SimHei-70b9" d="M 3325 5200 
Q 3300 4925 3300 4375 
L 4900 4375 
Q 5275 4375 5725 4400 
L 5725 3925 
Q 5300 3950 4900 3950 
L 3300 3950 
L 3300 3225 
L 5225 3225 
Q 5200 2700 5200 2150 
Q 5200 1625 5225 1175 
L 1175 1175 
Q 1200 1625 1200 2175 
Q 1200 2725 1175 3225 
L 2775 3225 
L 2775 4500 
Q 2775 4900 2750 5200 
L 3325 5200 
z
M 4700 1600 
L 4700 2800 
L 1725 2800 
L 1725 1600 
L 4700 1600 
z
M 1500 750 
Q 1025 -250 825 -625 
Q 625 -475 325 -375 
Q 650 50 950 925 
Q 1200 800 1500 750 
z
M 5325 850 
Q 5775 150 6075 -350 
Q 5925 -425 5575 -625 
Q 5375 -150 4900 575 
Q 5150 700 5325 850 
z
M 3975 -575 
Q 3775 -100 3400 575 
Q 3575 675 3825 825 
Q 4350 -75 4450 -325 
Q 4200 -450 3975 -575 
z
M 2375 -575 
Q 2350 -300 1975 550 
Q 2200 625 2425 775 
Q 2800 -75 2900 -350 
Q 2625 -450 2375 -575 
z
" transform="scale(0.015625)"/>
      </defs>
      <use xlink:href="#SimHei-56fe"/>
      <use xlink:href="#SimHei-4e2d" x="100"/>
      <use xlink:href="#SimHei-5f53" x="200"/>
      <use xlink:href="#SimHei-524d" x="300"/>
      <use xlink:href="#SimHei-8282" x="400"/>
      <use xlink:href="#SimHei-70b9" x="500"/>
      <use xlink:href="#SimHei-6570" x="600"/>
     </g>
    </g>
    <g id="line2d_36">
     <path d="M 118.8 85.34625 
L 130.8 85.34625 
L 142.8 85.34625 
" style="fill: none; stroke: #ff0000; stroke-width: 2; stroke-linecap: square"/>
    </g>
    <g id="text_21">
     <!-- 累计剪枝节点数 -->
     <g transform="translate(152.4 89.54625) scale(0.12 -0.12)">
      <defs>
       <path id="SimHei-7d2f" d="M 5475 5000 
Q 5450 4600 5450 3975 
Q 5450 3350 5475 2950 
L 4675 2950 
Q 4850 2775 5075 2600 
Q 4800 2525 4237 2275 
Q 3675 2025 3262 1837 
Q 2850 1650 2400 1425 
Q 3850 1525 4650 1575 
Q 4425 1725 4200 1850 
Q 4375 2000 4500 2175 
Q 5125 1800 5900 1300 
Q 5750 1125 5575 900 
Q 5375 1075 5100 1250 
Q 4250 1175 3475 1125 
L 3475 50 
Q 3475 -350 3212 -462 
Q 2950 -575 2600 -600 
Q 2575 -375 2375 -50 
Q 2800 -75 2900 -25 
Q 3000 25 3000 125 
L 3000 1075 
Q 2400 1050 1987 1012 
Q 1575 975 850 875 
Q 775 1125 700 1350 
Q 1150 1400 1575 1512 
Q 2000 1625 3025 2125 
Q 1775 2025 1250 1925 
Q 1200 2200 1100 2375 
Q 1325 2375 1737 2537 
Q 2150 2700 2475 2950 
L 950 2950 
Q 975 3375 975 3975 
Q 975 4600 950 5000 
L 5475 5000 
z
M 2425 525 
Q 2200 400 1762 137 
Q 1325 -125 850 -425 
Q 700 -225 500 -25 
Q 850 125 1250 362 
Q 1650 600 2025 900 
Q 2150 725 2425 525 
z
M 2975 4100 
L 2975 4650 
L 1450 4650 
L 1450 4100 
L 2975 4100 
z
M 4975 4100 
L 4975 4650 
L 3450 4650 
L 3450 4100 
L 4975 4100 
z
M 4275 850 
Q 4750 650 5050 500 
L 5850 100 
Q 5675 -125 5575 -375 
Q 5150 -100 4775 100 
Q 4400 300 4050 450 
Q 4200 675 4275 850 
z
M 2975 3275 
L 2975 3750 
L 1450 3750 
L 1450 3275 
L 2975 3275 
z
M 4975 3275 
L 4975 3750 
L 3450 3750 
L 3450 3275 
L 4975 3275 
z
M 3700 2475 
Q 4200 2700 4575 2950 
L 3225 2950 
Q 2900 2750 2300 2425 
Q 3075 2450 3700 2475 
z
" transform="scale(0.015625)"/>
       <path id="SimHei-8ba1" d="M 3925 3100 
L 3925 4350 
Q 3925 4850 3900 5125 
L 4425 5125 
Q 4400 4800 4400 4550 
L 4400 3100 
L 5425 3100 
Q 5725 3100 6075 3125 
L 6075 2650 
Q 5700 2675 5450 2675 
L 4400 2675 
L 4400 175 
Q 4400 -125 4425 -550 
L 3900 -550 
Q 3925 -125 3925 150 
L 3925 2675 
L 2950 2675 
Q 2575 2675 2200 2650 
L 2200 3125 
Q 2575 3100 2900 3100 
L 3925 3100 
z
M 1775 3150 
Q 1750 2675 1750 2150 
L 1750 625 
Q 2175 1050 2425 1400 
Q 2575 1200 2775 1000 
L 2075 300 
Q 1750 -25 1450 -350 
Q 1275 -125 1125 50 
Q 1300 250 1275 650 
L 1275 2725 
Q 600 2725 275 2700 
L 275 3175 
Q 675 3150 825 3150 
L 1775 3150 
z
M 1150 5050 
Q 1475 4725 2175 4000 
Q 1950 3800 1750 3625 
Q 1425 4100 775 4750 
Q 950 4875 1150 5050 
z
" transform="scale(0.015625)"/>
       <path id="SimHei-526a" d="M 2400 1900 
Q 2700 1900 2800 1925 
Q 2900 1950 2900 2025 
L 2900 2150 
L 1375 2150 
L 1375 1575 
L 900 1575 
Q 925 1825 925 2150 
L 925 3100 
Q 925 3450 900 3750 
L 3325 3750 
L 3325 2050 
Q 3350 1675 3125 1600 
Q 2900 1525 2550 1475 
Q 2500 1675 2400 1900 
z
M 4050 -575 
Q 3950 -275 3825 -50 
Q 4625 -25 4712 37 
Q 4800 100 4825 350 
L 4875 875 
L 3050 875 
Q 2875 350 2575 87 
Q 2275 -175 1900 -350 
Q 1525 -525 900 -700 
Q 825 -450 625 -225 
Q 1375 -125 1887 125 
Q 2400 375 2550 875 
L 1850 875 
Q 1325 875 775 850 
L 775 1300 
Q 1325 1275 1875 1275 
L 5425 1275 
L 5300 225 
Q 5250 -175 5075 -312 
Q 4900 -450 4050 -575 
z
M 4525 4800 
Q 4400 4675 4250 4475 
L 4800 4475 
Q 5450 4475 6025 4500 
L 6025 4075 
Q 5450 4100 4800 4100 
L 2175 4100 
Q 1450 4100 375 4075 
L 375 4500 
Q 1450 4475 2150 4475 
L 3750 4475 
Q 3900 4675 4037 4887 
Q 4175 5100 4250 5275 
Q 4475 5150 4750 5025 
L 4525 4800 
z
M 5475 3875 
Q 5450 3625 5450 3150 
L 5450 2000 
Q 5450 1650 5200 1587 
Q 4950 1525 4650 1475 
Q 4600 1700 4500 1950 
Q 4775 1950 4900 1975 
Q 5025 2000 5000 2175 
L 5000 3150 
Q 5000 3525 4975 3875 
L 5475 3875 
z
M 4300 3625 
Q 4275 3400 4275 3150 
L 4275 2400 
Q 4275 2225 4300 1975 
L 3850 1975 
Q 3875 2225 3875 2425 
L 3875 3175 
Q 3875 3425 3850 3625 
L 4300 3625 
z
M 2900 3100 
L 2900 3400 
L 1375 3400 
L 1375 3100 
L 2900 3100 
z
M 2900 2475 
L 2900 2750 
L 1375 2750 
L 1375 2475 
L 2900 2475 
z
M 2450 4800 
Q 2275 4675 2125 4500 
Q 1925 4725 1600 5000 
Q 1800 5175 1900 5300 
Q 2375 4850 2450 4800 
z
" transform="scale(0.015625)"/>
       <path id="SimHei-679d" d="M 2750 2900 
Q 3050 2875 3350 2875 
L 3950 2875 
L 3950 3900 
L 3225 3900 
Q 2950 3900 2675 3875 
L 2675 4325 
Q 2925 4300 3225 4300 
L 3950 4300 
Q 3950 4650 3925 5150 
L 4450 5150 
Q 4425 4900 4425 4300 
L 5325 4300 
Q 5600 4300 5900 4325 
L 5900 3875 
Q 5675 3900 5375 3900 
L 4425 3900 
L 4425 2875 
L 5625 2875 
Q 5525 2525 5425 2225 
Q 5325 1925 5175 1637 
Q 5025 1350 4875 1112 
Q 4725 875 4550 675 
Q 4850 425 5300 262 
Q 5750 100 6150 50 
Q 5925 -200 5875 -450 
Q 5250 -250 4887 -62 
Q 4525 125 4225 350 
Q 3850 0 3475 -212 
Q 3100 -425 2625 -625 
Q 2525 -375 2275 -200 
Q 2875 -75 3275 200 
Q 3675 475 3875 675 
Q 3250 1400 3000 2450 
L 2750 2450 
L 2750 2900 
z
M 2150 2725 
Q 2300 2475 2400 2262 
Q 2500 2050 2650 1800 
Q 2375 1675 2150 1550 
Q 2025 1875 1925 2075 
Q 1825 2275 1725 2450 
L 1725 475 
Q 1725 -25 1750 -575 
L 1250 -575 
Q 1275 0 1275 475 
L 1275 2225 
Q 1000 1500 525 775 
Q 400 1075 200 1325 
Q 325 1425 562 1800 
Q 800 2175 950 2587 
Q 1100 3000 1200 3425 
Q 800 3425 375 3400 
L 375 3850 
Q 800 3825 1275 3825 
L 1275 4450 
Q 1275 4825 1250 5175 
L 1750 5175 
Q 1725 4875 1725 4450 
L 1725 3825 
Q 2050 3825 2425 3850 
L 2425 3400 
Q 2050 3425 1725 3425 
L 1725 2500 
Q 1925 2600 2150 2725 
z
M 3450 2475 
Q 3700 1525 4225 1025 
Q 4750 1650 5000 2475 
L 3450 2475 
z
" transform="scale(0.015625)"/>
      </defs>
      <use xlink:href="#SimHei-7d2f"/>
      <use xlink:href="#SimHei-8ba1" x="100"/>
      <use xlink:href="#SimHei-526a" x="200"/>
      <use xlink:href="#SimHei-679d" x="300"/>
      <use xlink:href="#SimHei-8282" x="400"/>
      <use xlink:href="#SimHei-70b9" x="500"/>
      <use xlink:href="#SimHei-6570" x="600"/>
     </g>
    </g>
   </g>
  </g>
 </g>
 <defs>
  <clipPath id="p78b32cd906">
   <rect x="108" y="51.84" width="669.6" height="332.64"/>
  </clipPath>
 </defs>
</svg>
