<?xml version="1.0" encoding="utf-8" standalone="no"?>
<!DOCTYPE svg PUBLIC "-//W3C//DTD SVG 1.1//EN"
  "http://www.w3.org/Graphics/SVG/1.1/DTD/svg11.dtd">
<svg xmlns:xlink="http://www.w3.org/1999/xlink" width="864pt" height="432pt" viewBox="0 0 864 432" xmlns="http://www.w3.org/2000/svg" version="1.1">
 <metadata>
  <rdf:RDF xmlns:dc="http://purl.org/dc/elements/1.1/" xmlns:cc="http://creativecommons.org/ns#" xmlns:rdf="http://www.w3.org/1999/02/22-rdf-syntax-ns#">
   <cc:Work>
    <dc:type rdf:resource="http://purl.org/dc/dcmitype/StillImage"/>
    <dc:date>2024-03-31T21:37:31.633368</dc:date>
    <dc:format>image/svg+xml</dc:format>
    <dc:creator>
     <cc:Agent>
      <dc:title>Matplotlib v3.7.2, https://matplotlib.org/</dc:title>
     </cc:Agent>
    </dc:creator>
   </cc:Work>
  </rdf:RDF>
 </metadata>
 <defs>
  <style type="text/css">*{stroke-linejoin: round; stroke-linecap: butt}</style>
 </defs>
 <g id="figure_1">
  <g id="patch_1">
   <path d="M 0 432 
L 864 432 
L 864 0 
L 0 0 
L 0 432 
z
" style="fill: none"/>
  </g>
  <g id="axes_1">
   <g id="patch_2">
    <path d="M 108 384.48 
L 777.6 384.48 
L 777.6 51.84 
L 108 51.84 
L 108 384.48 
z
" style="fill: none"/>
   </g>
   <g id="PolyCollection_1">
    <defs>
     <path id="m8930517731" d="M 138.436364 -62.64 
L 138.436364 -83.142295 
L 140.472241 -85.811177 
L 142.508118 -88.396159 
L 144.543995 -90.897977 
L 146.579872 -93.317366 
L 148.615749 -95.655063 
L 150.651627 -97.911804 
L 152.687504 -100.088325 
L 154.723381 -102.185362 
L 156.759258 -104.203652 
L 158.795135 -106.143931 
L 160.831012 -108.006935 
L 162.86689 -109.793399 
L 164.902767 -111.504061 
L 166.938644 -113.139656 
L 168.974521 -114.700921 
L 171.010398 -116.188591 
L 173.046275 -117.603404 
L 175.082153 -118.94743 
L 177.11803 -120.229666 
L 179.153907 -121.461336 
L 181.189784 -122.65367 
L 183.225661 -123.817896 
L 185.261538 -124.965243 
L 187.297416 -126.106938 
L 189.333293 -127.25421 
L 191.36917 -128.418176 
L 193.405047 -129.604793 
L 195.440924 -130.81279 
L 197.476801 -132.040357 
L 199.512679 -133.285682 
L 201.548556 -134.546954 
L 203.584433 -135.822364 
L 205.62031 -137.110101 
L 207.656187 -138.408353 
L 209.692064 -139.715715 
L 211.727942 -141.033506 
L 213.763819 -142.364175 
L 215.799696 -143.710172 
L 217.835573 -145.073951 
L 219.87145 -146.457961 
L 221.907327 -147.864655 
L 223.943205 -149.296484 
L 225.979082 -150.755881 
L 228.014959 -152.243659 
L 230.050836 -153.757778 
L 232.086713 -155.295907 
L 234.12259 -156.855717 
L 236.158468 -158.434875 
L 238.194345 -160.031051 
L 240.230222 -161.641915 
L 242.266099 -163.265136 
L 244.301976 -164.898772 
L 246.337853 -166.544352 
L 248.373731 -168.205226 
L 250.409608 -169.884759 
L 252.445485 -171.586318 
L 254.481362 -173.31327 
L 256.517239 -175.068979 
L 258.553116 -176.856812 
L 260.588994 -178.68011 
L 262.624871 -180.536682 
L 264.660748 -182.411996 
L 266.696625 -184.289852 
L 268.732502 -186.15405 
L 270.768379 -187.988389 
L 272.804257 -189.77667 
L 274.840134 -191.50269 
L 276.876011 -193.150251 
L 278.911888 -194.704474 
L 280.947765 -196.166407 
L 282.983642 -197.547638 
L 285.01952 -198.85994 
L 287.055397 -200.115087 
L 289.091274 -201.324856 
L 291.127151 -202.501019 
L 293.163028 -203.655352 
L 295.198905 -204.799624 
L 297.234783 -205.941602 
L 299.27066 -207.077642 
L 301.306537 -208.202079 
L 303.342414 -209.30925 
L 305.378291 -210.393489 
L 307.414168 -211.449135 
L 309.450046 -212.470521 
L 311.485923 -213.451985 
L 313.5218 -214.387989 
L 315.557677 -215.275132 
L 317.593554 -216.111781 
L 319.629431 -216.896361 
L 321.665309 -217.627292 
L 323.701186 -218.303 
L 325.737063 -218.921904 
L 327.77294 -219.48243 
L 329.808817 -219.982999 
L 331.844694 -220.424396 
L 333.880572 -220.816081 
L 335.916449 -221.169505 
L 337.952326 -221.496117 
L 339.988203 -221.807367 
L 342.02408 -222.114705 
L 344.059957 -222.429583 
L 346.095835 -222.763448 
L 348.131712 -223.127564 
L 350.167589 -223.528549 
L 352.203466 -223.968202 
L 354.239343 -224.448101 
L 356.27522 -224.96982 
L 358.311098 -225.534936 
L 360.346975 -226.145025 
L 362.382852 -226.801664 
L 364.418729 -227.506427 
L 366.454606 -228.260115 
L 368.490483 -229.059839 
L 370.526361 -229.901615 
L 372.562238 -230.781462 
L 374.598115 -231.695395 
L 376.633992 -232.639431 
L 378.669869 -233.609589 
L 380.705746 -234.601884 
L 382.741624 -235.612439 
L 384.777501 -236.641461 
L 386.813378 -237.694462 
L 388.849255 -238.777309 
L 390.885132 -239.89587 
L 392.921009 -241.056012 
L 394.956887 -242.263603 
L 396.992764 -243.524509 
L 399.028641 -244.844598 
L 401.064518 -246.226811 
L 403.100395 -247.656026 
L 405.136272 -249.110235 
L 407.17215 -250.56742 
L 409.208027 -252.00556 
L 411.243904 -253.402637 
L 413.279781 -254.736631 
L 415.315658 -255.985522 
L 417.351535 -257.127519 
L 419.387413 -258.156632 
L 421.42329 -259.092647 
L 423.459167 -259.957723 
L 425.495044 -260.774019 
L 427.530921 -261.563693 
L 429.566798 -262.348906 
L 431.602676 -263.151815 
L 433.638553 -263.994581 
L 435.67443 -264.895781 
L 437.710307 -265.844961 
L 439.746184 -266.817576 
L 441.782061 -267.788987 
L 443.817939 -268.734557 
L 445.853816 -269.629647 
L 447.889693 -270.449617 
L 449.92557 -271.169831 
L 451.961447 -271.765736 
L 453.997324 -272.225773 
L 456.033202 -272.565159 
L 458.069079 -272.802414 
L 460.104956 -272.956055 
L 462.140833 -273.044601 
L 464.17671 -273.08657 
L 466.212587 -273.100482 
L 468.248465 -273.104855 
L 470.284342 -273.11756 
L 472.320219 -273.149427 
L 474.356096 -273.206975 
L 476.391973 -273.296659 
L 478.42785 -273.424932 
L 480.463728 -273.598249 
L 482.499605 -273.823066 
L 484.535482 -274.105836 
L 486.571359 -274.453004 
L 488.607236 -274.865567 
L 490.643113 -275.330224 
L 492.678991 -275.831361 
L 494.714868 -276.353362 
L 496.750745 -276.880612 
L 498.786622 -277.397495 
L 500.822499 -277.888397 
L 502.858376 -278.337701 
L 504.894254 -278.730559 
L 506.930131 -279.063573 
L 508.966008 -279.342165 
L 511.001885 -279.571983 
L 513.037762 -279.758674 
L 515.073639 -279.907886 
L 517.109517 -280.025267 
L 519.145394 -280.116465 
L 521.181271 -280.187127 
L 523.217148 -280.242881 
L 525.253025 -280.289282 
L 527.288902 -280.331872 
L 529.32478 -280.376192 
L 531.360657 -280.427784 
L 533.396534 -280.492187 
L 535.432411 -280.574945 
L 537.468288 -280.681597 
L 539.504165 -280.817317 
L 541.540043 -280.979328 
L 543.57592 -281.157197 
L 545.611797 -281.34018 
L 547.647674 -281.517533 
L 549.683551 -281.678511 
L 551.719428 -281.812372 
L 553.755306 -281.90837 
L 555.791183 -281.955763 
L 557.82706 -281.946882 
L 559.862937 -281.887479 
L 561.898814 -281.786954 
L 563.934691 -281.65471 
L 565.970569 -281.500151 
L 568.006446 -281.332678 
L 570.042323 -281.161694 
L 572.0782 -280.996601 
L 574.114077 -280.846742 
L 576.149954 -280.719485 
L 578.185832 -280.619817 
L 580.221709 -280.552586 
L 582.257586 -280.522638 
L 584.293463 -280.534818 
L 586.32934 -280.593973 
L 588.365217 -280.70495 
L 590.401095 -280.872594 
L 592.436972 -281.09978 
L 594.472849 -281.378238 
L 596.508726 -281.695788 
L 598.544603 -282.040246 
L 600.58048 -282.399428 
L 602.616358 -282.76115 
L 604.652235 -283.113229 
L 606.688112 -283.443479 
L 608.723989 -283.739821 
L 610.759866 -283.995992 
L 612.795743 -284.214518 
L 614.831621 -284.398656 
L 616.867498 -284.551664 
L 618.903375 -284.676798 
L 620.939252 -284.777316 
L 622.975129 -284.856474 
L 625.011006 -284.91753 
L 627.046884 -284.963255 
L 629.082761 -284.992834 
L 631.118638 -285.003844 
L 633.154515 -284.993855 
L 635.190392 -284.960434 
L 637.226269 -284.901153 
L 639.262147 -284.813579 
L 641.298024 -284.695283 
L 643.333901 -284.543845 
L 645.369778 -284.358271 
L 647.405655 -284.140268 
L 649.441532 -283.891852 
L 651.47741 -283.615036 
L 653.513287 -283.311834 
L 655.549164 -282.98426 
L 657.585041 -282.634328 
L 659.620918 -282.264051 
L 661.656795 -281.875686 
L 663.692673 -281.473875 
L 665.72855 -281.064616 
L 667.764427 -280.65392 
L 669.800304 -280.247798 
L 671.836181 -279.852265 
L 673.872058 -279.47333 
L 675.907936 -279.117007 
L 677.943813 -278.789306 
L 679.97969 -278.495469 
L 682.015567 -278.238888 
L 684.051444 -278.022679 
L 686.087321 -277.84996 
L 688.123199 -277.723846 
L 690.159076 -277.647455 
L 692.194953 -277.623904 
L 694.23083 -277.656307 
L 696.266707 -277.747223 
L 698.302584 -277.891702 
L 700.338462 -278.079439 
L 702.374339 -278.300011 
L 704.410216 -278.542996 
L 706.446093 -278.797973 
L 708.48197 -279.05452 
L 710.517847 -279.302215 
L 712.553725 -279.530637 
L 714.589602 -279.730112 
L 716.625479 -279.893289 
L 718.661356 -280.013264 
L 720.697233 -280.083131 
L 722.73311 -280.095986 
L 724.768988 -280.044926 
L 726.804865 -279.923045 
L 728.840742 -279.723441 
L 730.876619 -279.439207 
L 732.912496 -279.06344 
L 734.948373 -278.589236 
L 736.984251 -278.00969 
L 739.020128 -277.317898 
L 741.056005 -276.506955 
L 743.091882 -275.569958 
L 745.127759 -274.500001 
L 747.163636 -273.290182 
L 747.163636 -365.04 
L 747.163636 -365.04 
L 745.127759 -364.416457 
L 743.091882 -363.759419 
L 741.056005 -363.070156 
L 739.020128 -362.349937 
L 736.984251 -361.60003 
L 734.948373 -360.821703 
L 732.912496 -360.016226 
L 730.876619 -359.184867 
L 728.840742 -358.328896 
L 726.804865 -357.44958 
L 724.768988 -356.548189 
L 722.73311 -355.625991 
L 720.697233 -354.684255 
L 718.661356 -353.72425 
L 716.625479 -352.747245 
L 714.589602 -351.754507 
L 712.553725 -350.747307 
L 710.517847 -349.727657 
L 708.48197 -348.701425 
L 706.446093 -347.675721 
L 704.410216 -346.657658 
L 702.374339 -345.654347 
L 700.338462 -344.672901 
L 698.302584 -343.720431 
L 696.266707 -342.80405 
L 694.23083 -341.930692 
L 692.194953 -341.099137 
L 690.159076 -340.296734 
L 688.123199 -339.509979 
L 686.087321 -338.72537 
L 684.051444 -337.929403 
L 682.015567 -337.108575 
L 679.97969 -336.249384 
L 677.943813 -335.338325 
L 675.907936 -334.363485 
L 673.872058 -333.323669 
L 671.836181 -332.222116 
L 669.800304 -331.06208 
L 667.764427 -329.846813 
L 665.72855 -328.579568 
L 663.692673 -327.263599 
L 661.656795 -325.902158 
L 659.620918 -324.498509 
L 657.585041 -323.056845 
L 655.549164 -321.582998 
L 653.513287 -320.082966 
L 651.47741 -318.562746 
L 649.441532 -317.028336 
L 647.405655 -315.485735 
L 645.369778 -313.94094 
L 643.333901 -312.399949 
L 641.298024 -310.868562 
L 639.262147 -309.350812 
L 637.226269 -307.849804 
L 635.190392 -306.368635 
L 633.154515 -304.910401 
L 631.118638 -303.4782 
L 629.082761 -302.075128 
L 627.046884 -300.704282 
L 625.011006 -299.368751 
L 622.975129 -298.069676 
L 620.939252 -296.803862 
L 618.903375 -295.567525 
L 616.867498 -294.35688 
L 614.831621 -293.168145 
L 612.795743 -291.997536 
L 610.759866 -290.84127 
L 608.723989 -289.695561 
L 606.688112 -288.55698 
L 604.652235 -287.426336 
L 602.616358 -286.307243 
L 600.58048 -285.203366 
L 598.544603 -284.118372 
L 596.508726 -283.055925 
L 594.472849 -282.019691 
L 592.436972 -281.013334 
L 590.401095 -280.040516 
L 588.365217 -279.101385 
L 586.32934 -278.18607 
L 584.293463 -277.282932 
L 582.257586 -276.380329 
L 580.221709 -275.466618 
L 578.185832 -274.530159 
L 576.149954 -273.55931 
L 574.114077 -272.542429 
L 572.0782 -271.468347 
L 570.042323 -270.33381 
L 568.006446 -269.142132 
L 565.970569 -267.896828 
L 563.934691 -266.601411 
L 561.898814 -265.259395 
L 559.862937 -263.874294 
L 557.82706 -262.449622 
L 555.791183 -260.988892 
L 553.755306 -259.496859 
L 551.719428 -257.98283 
L 549.683551 -256.457158 
L 547.647674 -254.930194 
L 545.611797 -253.412293 
L 543.57592 -251.913805 
L 541.540043 -250.445083 
L 539.504165 -249.016481 
L 537.468288 -247.637952 
L 535.432411 -246.309652 
L 533.396534 -245.021566 
L 531.360657 -243.763208 
L 529.32478 -242.52409 
L 527.288902 -241.293725 
L 525.253025 -240.061627 
L 523.217148 -238.817307 
L 521.181271 -237.55028 
L 519.145394 -236.252233 
L 517.109517 -234.925194 
L 515.073639 -233.574252 
L 513.037762 -232.2045 
L 511.001885 -230.821029 
L 508.966008 -229.428931 
L 506.930131 -228.033298 
L 504.894254 -226.639222 
L 502.858376 -225.251802 
L 500.822499 -223.876465 
L 498.786622 -222.519057 
L 496.750745 -221.185458 
L 494.714868 -219.881542 
L 492.678991 -218.613186 
L 490.643113 -217.386268 
L 488.607236 -216.206664 
L 486.571359 -215.080251 
L 484.535482 -214.010584 
L 482.499605 -212.986893 
L 480.463728 -211.992951 
L 478.42785 -211.012518 
L 476.391973 -210.029356 
L 474.356096 -209.027224 
L 472.320219 -207.989883 
L 470.284342 -206.901096 
L 468.248465 -205.744742 
L 466.212587 -204.513093 
L 464.17671 -203.212097 
L 462.140833 -201.848963 
L 460.104956 -200.430901 
L 458.069079 -198.96512 
L 456.033202 -197.45883 
L 453.997324 -195.91924 
L 451.961447 -194.353559 
L 449.92557 -192.769825 
L 447.889693 -191.182791 
L 445.853816 -189.61047 
L 443.817939 -188.070895 
L 441.782061 -186.582101 
L 439.746184 -185.162121 
L 437.710307 -183.82899 
L 435.67443 -182.600741 
L 433.638553 -181.495324 
L 431.602676 -180.517842 
L 429.566798 -179.646935 
L 427.530921 -178.857976 
L 425.495044 -178.126339 
L 423.459167 -177.427398 
L 421.42329 -176.736529 
L 419.387413 -176.029104 
L 417.351535 -175.280499 
L 415.315658 -174.468611 
L 413.279781 -173.598741 
L 411.243904 -172.692991 
L 409.208027 -171.773706 
L 407.17215 -170.863228 
L 405.136272 -169.983902 
L 403.100395 -169.158072 
L 401.064518 -168.408083 
L 399.028641 -167.756256 
L 396.992764 -167.214017 
L 394.956887 -166.764189 
L 392.921009 -166.384964 
L 390.885132 -166.054534 
L 388.849255 -165.751089 
L 386.813378 -165.45282 
L 384.777501 -165.137918 
L 382.741624 -164.784574 
L 380.705746 -164.37197 
L 378.669869 -163.894097 
L 376.633992 -163.356349 
L 374.598115 -162.764412 
L 372.562238 -162.123974 
L 370.526361 -161.440721 
L 368.490483 -160.720341 
L 366.454606 -159.96852 
L 364.418729 -159.190945 
L 362.382852 -158.391434 
L 360.346975 -157.567511 
L 358.311098 -156.715369 
L 356.27522 -155.831206 
L 354.239343 -154.911217 
L 352.203466 -153.951597 
L 350.167589 -152.948543 
L 348.131712 -151.898251 
L 346.095835 -150.79703 
L 344.059957 -149.643667 
L 342.02408 -148.439329 
L 339.988203 -147.185282 
L 337.952326 -145.882792 
L 335.916449 -144.533125 
L 333.880572 -143.137544 
L 331.844694 -141.697317 
L 329.808817 -140.213708 
L 327.77294 -138.689579 
L 325.737063 -137.134752 
L 323.701186 -135.560943 
L 321.665309 -133.979868 
L 319.629431 -132.403243 
L 317.593554 -130.842786 
L 315.557677 -129.31021 
L 313.5218 -127.817235 
L 311.485923 -126.375401 
L 309.450046 -124.990515 
L 307.414168 -123.661472 
L 305.378291 -122.386754 
L 303.342414 -121.164843 
L 301.306537 -119.994223 
L 299.27066 -118.873374 
L 297.234783 -117.80078 
L 295.198905 -116.774923 
L 293.163028 -115.793769 
L 291.127151 -114.852356 
L 289.091274 -113.944702 
L 287.055397 -113.064817 
L 285.01952 -112.206717 
L 282.983642 -111.364414 
L 280.947765 -110.531923 
L 278.911888 -109.703256 
L 276.876011 -108.872547 
L 274.840134 -108.040685 
L 272.804257 -107.218762 
L 270.768379 -106.418721 
L 268.732502 -105.652503 
L 266.696625 -104.93205 
L 264.660748 -104.269303 
L 262.624871 -103.676204 
L 260.588994 -103.164695 
L 258.553116 -102.744279 
L 256.517239 -102.406434 
L 254.481362 -102.13456 
L 252.445485 -101.91202 
L 250.409608 -101.722176 
L 248.373731 -101.548389 
L 246.337853 -101.374021 
L 244.301976 -101.182436 
L 242.266099 -100.957052 
L 240.230222 -100.687811 
L 238.194345 -100.377071 
L 236.158468 -100.028587 
L 234.12259 -99.646109 
L 232.086713 -99.233392 
L 230.050836 -98.794188 
L 228.014959 -98.33225 
L 225.979082 -97.851331 
L 223.943205 -97.354792 
L 221.907327 -96.84216 
L 219.87145 -96.310786 
L 217.835573 -95.757992 
L 215.799696 -95.181105 
L 213.763819 -94.577447 
L 211.727942 -93.944344 
L 209.692064 -93.279119 
L 207.656187 -92.579103 
L 205.62031 -91.843163 
L 203.584433 -91.073883 
L 201.548556 -90.274402 
L 199.512679 -89.447857 
L 197.476801 -88.597384 
L 195.440924 -87.726121 
L 193.405047 -86.837205 
L 191.36917 -85.933774 
L 189.333293 -85.018749 
L 187.297416 -84.092183 
L 185.261538 -83.152082 
L 183.225661 -82.196403 
L 181.189784 -81.223107 
L 179.153907 -80.230153 
L 177.11803 -79.215501 
L 175.082153 -78.177111 
L 173.046275 -77.112942 
L 171.010398 -76.0234 
L 168.974521 -74.916457 
L 166.938644 -73.801547 
L 164.902767 -72.688107 
L 162.86689 -71.585572 
L 160.831012 -70.503375 
L 158.795135 -69.450952 
L 156.759258 -68.437739 
L 154.723381 -67.473169 
L 152.687504 -66.566679 
L 150.651627 -65.727703 
L 148.615749 -64.965676 
L 146.579872 -64.290032 
L 144.543995 -63.710208 
L 142.508118 -63.235638 
L 140.472241 -62.875757 
L 138.436364 -62.64 
z
" style="stroke: #008000"/>
    </defs>
    <g clip-path="url(#pef843e9d78)">
     <use xlink:href="#m8930517731" x="0" y="432" style="fill: #008000; stroke: #008000"/>
    </g>
   </g>
   <g id="matplotlib.axis_1">
    <g id="xtick_1">
     <g id="line2d_1">
      <path d="M 121.044156 384.48 
L 121.044156 51.84 
" clip-path="url(#pef843e9d78)" style="fill: none; stroke: #b0b0b0; stroke-width: 0.8; stroke-linecap: square"/>
     </g>
     <g id="line2d_2">
      <defs>
       <path id="m237f23eeab" d="M 0 0 
L 0 -3.5 
" style="stroke: #000000; stroke-width: 0.8"/>
      </defs>
      <g>
       <use xlink:href="#m237f23eeab" x="121.044156" y="384.48" style="stroke: #000000; stroke-width: 0.8"/>
      </g>
     </g>
     <g id="text_1">
      <!-- 0 -->
      <g transform="translate(118.544156 394.855) scale(0.1 -0.1)">
       <defs>
        <path id="SimHei-30" d="M 225 2537 
Q 250 3200 412 3587 
Q 575 3975 875 4225 
Q 1175 4475 1612 4475 
Q 2050 4475 2375 4112 
Q 2700 3750 2800 3200 
Q 2900 2650 2862 1937 
Q 2825 1225 2612 775 
Q 2400 325 1975 150 
Q 1550 -25 1125 187 
Q 700 400 525 750 
Q 350 1100 275 1487 
Q 200 1875 225 2537 
z
M 750 2687 
Q 675 2000 800 1462 
Q 925 925 1212 700 
Q 1500 475 1800 612 
Q 2100 750 2237 1162 
Q 2375 1575 2375 2062 
Q 2375 2550 2337 2950 
Q 2300 3350 2112 3675 
Q 1925 4000 1612 4012 
Q 1300 4025 1062 3700 
Q 825 3375 750 2687 
z
" transform="scale(0.015625)"/>
       </defs>
       <use xlink:href="#SimHei-30"/>
      </g>
     </g>
    </g>
    <g id="xtick_2">
     <g id="line2d_3">
      <path d="M 208.005195 384.48 
L 208.005195 51.84 
" clip-path="url(#pef843e9d78)" style="fill: none; stroke: #b0b0b0; stroke-width: 0.8; stroke-linecap: square"/>
     </g>
     <g id="line2d_4">
      <g>
       <use xlink:href="#m237f23eeab" x="208.005195" y="384.48" style="stroke: #000000; stroke-width: 0.8"/>
      </g>
     </g>
     <g id="text_2">
      <!-- 5 -->
      <g transform="translate(205.505195 394.855) scale(0.1 -0.1)">
       <defs>
        <path id="SimHei-35" d="M 550 1325 
Q 725 650 1150 575 
Q 1575 500 1837 662 
Q 2100 825 2212 1087 
Q 2325 1350 2312 1675 
Q 2300 2000 2137 2225 
Q 1975 2450 1725 2525 
Q 1475 2600 1162 2525 
Q 850 2450 650 2175 
L 225 2225 
Q 275 2375 700 4375 
L 2675 4375 
L 2675 3925 
L 1075 3925 
Q 950 3250 825 2850 
Q 1200 3025 1525 3012 
Q 1850 3000 2150 2862 
Q 2450 2725 2587 2487 
Q 2725 2250 2787 2012 
Q 2850 1775 2837 1500 
Q 2825 1225 2725 937 
Q 2625 650 2425 462 
Q 2225 275 1937 162 
Q 1650 50 1275 75 
Q 900 100 562 350 
Q 225 600 100 1200 
L 550 1325 
z
" transform="scale(0.015625)"/>
       </defs>
       <use xlink:href="#SimHei-35"/>
      </g>
     </g>
    </g>
    <g id="xtick_3">
     <g id="line2d_5">
      <path d="M 294.966234 384.48 
L 294.966234 51.84 
" clip-path="url(#pef843e9d78)" style="fill: none; stroke: #b0b0b0; stroke-width: 0.8; stroke-linecap: square"/>
     </g>
     <g id="line2d_6">
      <g>
       <use xlink:href="#m237f23eeab" x="294.966234" y="384.48" style="stroke: #000000; stroke-width: 0.8"/>
      </g>
     </g>
     <g id="text_3">
      <!-- 10 -->
      <g transform="translate(289.966234 394.855) scale(0.1 -0.1)">
       <defs>
        <path id="SimHei-31" d="M 1400 3600 
Q 1075 3275 575 2975 
L 575 3450 
Q 1200 3875 1600 4450 
L 1900 4450 
L 1900 150 
L 1400 150 
L 1400 3600 
z
" transform="scale(0.015625)"/>
       </defs>
       <use xlink:href="#SimHei-31"/>
       <use xlink:href="#SimHei-30" x="50"/>
      </g>
     </g>
    </g>
    <g id="xtick_4">
     <g id="line2d_7">
      <path d="M 381.927273 384.48 
L 381.927273 51.84 
" clip-path="url(#pef843e9d78)" style="fill: none; stroke: #b0b0b0; stroke-width: 0.8; stroke-linecap: square"/>
     </g>
     <g id="line2d_8">
      <g>
       <use xlink:href="#m237f23eeab" x="381.927273" y="384.48" style="stroke: #000000; stroke-width: 0.8"/>
      </g>
     </g>
     <g id="text_4">
      <!-- 15 -->
      <g transform="translate(376.927273 394.855) scale(0.1 -0.1)">
       <use xlink:href="#SimHei-31"/>
       <use xlink:href="#SimHei-35" x="50"/>
      </g>
     </g>
    </g>
    <g id="xtick_5">
     <g id="line2d_9">
      <path d="M 468.888312 384.48 
L 468.888312 51.84 
" clip-path="url(#pef843e9d78)" style="fill: none; stroke: #b0b0b0; stroke-width: 0.8; stroke-linecap: square"/>
     </g>
     <g id="line2d_10">
      <g>
       <use xlink:href="#m237f23eeab" x="468.888312" y="384.48" style="stroke: #000000; stroke-width: 0.8"/>
      </g>
     </g>
     <g id="text_5">
      <!-- 20 -->
      <g transform="translate(463.888312 394.855) scale(0.1 -0.1)">
       <defs>
        <path id="SimHei-32" d="M 300 250 
Q 325 625 650 925 
Q 975 1225 1475 1862 
Q 1975 2500 2125 2850 
Q 2275 3200 2237 3450 
Q 2200 3700 2000 3862 
Q 1800 4025 1537 4000 
Q 1275 3975 1037 3800 
Q 800 3625 675 3275 
L 200 3350 
Q 400 3925 712 4187 
Q 1025 4450 1450 4475 
Q 1700 4500 1900 4462 
Q 2100 4425 2312 4287 
Q 2525 4150 2662 3875 
Q 2800 3600 2762 3212 
Q 2725 2825 2375 2287 
Q 2025 1750 1025 600 
L 2825 600 
L 2825 150 
L 300 150 
L 300 250 
z
" transform="scale(0.015625)"/>
       </defs>
       <use xlink:href="#SimHei-32"/>
       <use xlink:href="#SimHei-30" x="50"/>
      </g>
     </g>
    </g>
    <g id="xtick_6">
     <g id="line2d_11">
      <path d="M 555.849351 384.48 
L 555.849351 51.84 
" clip-path="url(#pef843e9d78)" style="fill: none; stroke: #b0b0b0; stroke-width: 0.8; stroke-linecap: square"/>
     </g>
     <g id="line2d_12">
      <g>
       <use xlink:href="#m237f23eeab" x="555.849351" y="384.48" style="stroke: #000000; stroke-width: 0.8"/>
      </g>
     </g>
     <g id="text_6">
      <!-- 25 -->
      <g transform="translate(550.849351 394.855) scale(0.1 -0.1)">
       <use xlink:href="#SimHei-32"/>
       <use xlink:href="#SimHei-35" x="50"/>
      </g>
     </g>
    </g>
    <g id="xtick_7">
     <g id="line2d_13">
      <path d="M 642.81039 384.48 
L 642.81039 51.84 
" clip-path="url(#pef843e9d78)" style="fill: none; stroke: #b0b0b0; stroke-width: 0.8; stroke-linecap: square"/>
     </g>
     <g id="line2d_14">
      <g>
       <use xlink:href="#m237f23eeab" x="642.81039" y="384.48" style="stroke: #000000; stroke-width: 0.8"/>
      </g>
     </g>
     <g id="text_7">
      <!-- 30 -->
      <g transform="translate(637.81039 394.855) scale(0.1 -0.1)">
       <defs>
        <path id="SimHei-33" d="M 250 1225 
L 700 1300 
Q 800 975 1025 762 
Q 1250 550 1587 562 
Q 1925 575 2125 837 
Q 2325 1100 2300 1437 
Q 2275 1775 2037 1962 
Q 1800 2150 1275 2225 
L 1275 2550 
Q 1800 2600 2037 2825 
Q 2275 3050 2250 3412 
Q 2225 3775 1925 3937 
Q 1625 4100 1287 3975 
Q 950 3850 750 3275 
L 300 3350 
Q 450 3800 712 4100 
Q 975 4400 1425 4450 
Q 1875 4500 2212 4337 
Q 2550 4175 2687 3837 
Q 2825 3500 2725 3100 
Q 2625 2700 2150 2400 
Q 2500 2250 2687 1950 
Q 2875 1650 2812 1162 
Q 2750 675 2375 375 
Q 2000 75 1525 87 
Q 1050 100 700 387 
Q 350 675 250 1225 
z
" transform="scale(0.015625)"/>
       </defs>
       <use xlink:href="#SimHei-33"/>
       <use xlink:href="#SimHei-30" x="50"/>
      </g>
     </g>
    </g>
    <g id="xtick_8">
     <g id="line2d_15">
      <path d="M 729.771429 384.48 
L 729.771429 51.84 
" clip-path="url(#pef843e9d78)" style="fill: none; stroke: #b0b0b0; stroke-width: 0.8; stroke-linecap: square"/>
     </g>
     <g id="line2d_16">
      <g>
       <use xlink:href="#m237f23eeab" x="729.771429" y="384.48" style="stroke: #000000; stroke-width: 0.8"/>
      </g>
     </g>
     <g id="text_8">
      <!-- 35 -->
      <g transform="translate(724.771429 394.855) scale(0.1 -0.1)">
       <use xlink:href="#SimHei-33"/>
       <use xlink:href="#SimHei-35" x="50"/>
      </g>
     </g>
    </g>
    <g id="text_9">
     <!-- 搜索次数/次 -->
     <g transform="translate(409.8 409.6675) scale(0.12 -0.12)">
      <defs>
       <path id="SimHei-641c" d="M 2525 1975 
Q 2850 1950 3225 1950 
L 3900 1950 
L 3900 2450 
L 2500 2450 
Q 2525 2800 2525 3075 
L 2525 4200 
Q 2525 4475 2500 4775 
Q 3175 4850 3450 5000 
Q 3600 4650 3675 4550 
Q 3450 4525 2975 4500 
L 2975 3900 
L 3525 3900 
L 3525 3475 
L 2975 3475 
L 2975 2875 
L 3900 2875 
L 3900 4575 
Q 3900 4850 3875 5225 
L 4375 5225 
Q 4350 4925 4350 4600 
L 4350 2875 
L 5275 2875 
L 5275 3475 
L 4650 3475 
L 4650 3900 
L 5275 3900 
L 5275 4500 
Q 4975 4500 4675 4475 
L 4675 4925 
Q 4975 4900 5200 4900 
L 5750 4900 
Q 5725 4600 5725 4300 
L 5725 3100 
Q 5725 2675 5750 2450 
L 4350 2450 
L 4350 1950 
L 5675 1950 
Q 5550 1600 5275 1150 
Q 5000 700 4500 200 
Q 4775 25 5275 -62 
Q 5775 -150 6175 -150 
Q 6000 -300 5875 -650 
Q 5175 -550 4812 -425 
Q 4450 -300 4125 -100 
Q 3700 -300 3350 -412 
Q 3000 -525 2375 -675 
Q 2325 -450 2075 -200 
Q 3125 -100 3725 200 
Q 3450 475 3275 762 
Q 3100 1050 2925 1525 
L 2525 1525 
L 2525 1975 
z
M 1150 4550 
Q 1150 4925 1125 5225 
L 1675 5225 
Q 1600 4925 1600 4600 
L 1600 3950 
Q 1925 3950 2150 3975 
L 2150 3500 
Q 1900 3525 1600 3525 
L 1600 2500 
Q 2000 2650 2175 2800 
Q 2175 2675 2200 2325 
Q 2075 2275 1600 2075 
L 1600 0 
Q 1600 -300 1350 -387 
Q 1100 -475 650 -550 
Q 625 -300 450 0 
Q 900 0 1025 25 
Q 1150 50 1150 225 
L 1150 1900 
Q 650 1675 450 1525 
Q 325 1950 250 2100 
Q 550 2125 1150 2350 
L 1150 3525 
Q 625 3525 350 3500 
L 350 3975 
Q 625 3950 1150 3950 
L 1150 4550 
z
M 3400 1525 
Q 3750 775 4150 450 
Q 4700 1000 4950 1525 
L 3400 1525 
z
" transform="scale(0.015625)"/>
       <path id="SimHei-7d22" d="M 3275 3000 
Q 3100 2925 2850 2775 
Q 2600 2625 2200 2375 
L 3425 2375 
Q 3825 2575 4175 2900 
Q 4475 2700 4775 2525 
Q 4325 2400 3937 2187 
Q 3550 1975 2300 1375 
Q 3375 1425 4600 1475 
Q 4400 1650 4200 1800 
Q 4475 1925 4575 2075 
Q 5025 1825 5675 1125 
Q 5425 975 5275 800 
Q 5050 1000 4900 1150 
Q 4400 1150 3450 1075 
L 3450 -25 
Q 3450 -400 3212 -475 
Q 2975 -550 2450 -625 
Q 2425 -350 2250 -100 
Q 2600 -100 2775 -75 
Q 2950 -50 2950 125 
L 2950 1025 
Q 2175 1025 1700 962 
Q 1225 900 975 850 
Q 900 1100 825 1300 
Q 1425 1400 1837 1550 
Q 2250 1700 2875 2050 
Q 2300 2050 2012 2025 
Q 1725 2000 1325 1900 
Q 1250 2175 1175 2350 
Q 1525 2375 1925 2612 
Q 2325 2850 2675 3275 
Q 2975 3125 3275 3000 
z
M 2900 4625 
Q 2900 4925 2875 5150 
L 3425 5150 
Q 3400 4850 3400 4625 
L 4775 4625 
Q 5050 4625 5575 4650 
L 5575 4250 
Q 5100 4275 4750 4275 
L 3400 4275 
L 3400 3750 
L 5900 3750 
Q 5875 3550 5875 3250 
Q 5875 2950 5900 2700 
L 5375 2700 
L 5375 3375 
L 975 3375 
L 975 2525 
L 475 2525 
L 475 3750 
L 2900 3750 
L 2900 4275 
L 1750 4275 
Q 1050 4275 825 4250 
L 825 4650 
Q 1150 4625 1725 4625 
L 2900 4625 
z
M 4525 800 
Q 5175 375 5875 -75 
Q 5650 -250 5475 -450 
Q 4800 100 4125 500 
Q 4350 675 4525 800 
z
M 2125 450 
Q 1900 325 1575 75 
Q 1250 -175 775 -475 
Q 650 -275 375 -125 
Q 1100 225 1700 775 
Q 1900 600 2125 450 
z
" transform="scale(0.015625)"/>
       <path id="SimHei-6b21" d="M 4150 3025 
Q 4000 2550 4050 2187 
Q 4100 1825 4275 1450 
Q 4450 1075 4800 750 
Q 5150 425 5475 212 
Q 5800 0 6150 -150 
Q 5875 -350 5750 -625 
Q 5250 -325 4887 -25 
Q 4525 275 4275 612 
Q 4025 950 3825 1425 
Q 3525 625 2950 125 
Q 2375 -375 1850 -650 
Q 1675 -400 1475 -225 
Q 2025 0 2487 362 
Q 2950 725 3162 1100 
Q 3375 1475 3450 1825 
Q 3525 2175 3537 2400 
Q 3550 2625 3525 3125 
Q 3825 3050 4150 3025 
z
M 3700 4975 
Q 3625 4900 3475 4575 
Q 3325 4250 3250 4075 
L 5775 4075 
Q 5650 3725 5550 3362 
Q 5450 3000 5275 2500 
Q 5000 2575 4775 2600 
Q 5025 3350 5100 3650 
L 3100 3650 
Q 2975 3400 2812 3100 
Q 2650 2800 2425 2450 
Q 2275 2600 1975 2700 
Q 2300 3050 2625 3762 
Q 2950 4475 3125 5200 
Q 3450 5025 3700 4975 
z
M 2025 2000 
Q 1825 1675 1475 1087 
Q 1125 500 725 -200 
Q 500 -25 250 175 
Q 725 725 1037 1262 
Q 1350 1800 1575 2325 
Q 1750 2175 2025 2000 
z
M 900 4750 
Q 1725 3725 1950 3375 
Q 1750 3250 1500 3050 
Q 1250 3525 500 4425 
Q 700 4575 900 4750 
z
" transform="scale(0.015625)"/>
       <path id="SimHei-6570" d="M 4525 4925 
Q 4475 4800 4400 4587 
Q 4325 4375 4175 3825 
L 5325 3825 
Q 5575 3825 5925 3850 
L 5925 3400 
Q 5650 3425 5500 3425 
Q 5500 3025 5362 2162 
Q 5225 1300 4875 675 
Q 5125 375 5437 137 
Q 5750 -100 6025 -200 
Q 5725 -425 5625 -625 
Q 5325 -450 5075 -225 
Q 4825 0 4575 325 
Q 4300 25 3987 -187 
Q 3675 -400 3200 -650 
Q 3075 -425 2850 -300 
Q 3225 -150 3650 125 
Q 4075 400 4300 675 
Q 4125 1025 3962 1425 
Q 3800 1825 3675 2475 
Q 3600 2275 3425 1950 
Q 3250 2050 3000 2150 
Q 3400 2850 3650 3675 
Q 3900 4500 3975 5100 
Q 4275 4975 4525 4925 
z
M 2100 2250 
Q 2000 2150 1875 1925 
L 3250 1925 
Q 3100 1300 2725 675 
Q 3125 525 3350 400 
Q 3225 225 3125 25 
Q 2900 175 2450 325 
Q 1950 -225 725 -650 
Q 600 -375 400 -275 
Q 1575 0 2000 475 
Q 1300 650 850 775 
Q 1000 1000 1250 1525 
Q 1000 1525 425 1500 
L 425 1950 
Q 900 1925 1400 1925 
Q 1500 2150 1550 2425 
Q 1825 2325 2100 2250 
z
M 1775 3950 
Q 1775 4550 1750 5100 
L 2250 5100 
Q 2225 4575 2225 3950 
Q 3075 3950 3425 3975 
L 3425 3525 
Q 3075 3550 2225 3550 
Q 2225 2825 2250 2425 
L 1750 2425 
Q 1775 2775 1775 3300 
Q 1650 3100 1300 2787 
Q 950 2475 650 2300 
Q 525 2525 275 2625 
Q 500 2700 875 2975 
Q 1250 3250 1450 3550 
Q 950 3550 500 3525 
L 500 3975 
Q 925 3950 1775 3950 
z
M 3975 3175 
Q 4200 1700 4600 1125 
Q 4850 1700 4937 2287 
Q 5025 2875 5050 3425 
L 4075 3425 
L 3975 3175 
z
M 1450 1000 
Q 1750 925 2275 800 
Q 2475 1050 2650 1525 
L 1725 1525 
Q 1600 1275 1450 1000 
z
M 3325 4825 
Q 3200 4625 3125 4450 
Q 3050 4275 2925 4025 
Q 2725 4125 2525 4175 
Q 2725 4500 2900 5000 
Q 3150 4875 3325 4825 
z
M 2575 3375 
Q 2900 3050 3200 2725 
Q 3050 2600 2875 2425 
Q 2525 2850 2300 3100 
Q 2450 3225 2575 3375 
z
M 925 5000 
Q 1275 4650 1500 4300 
L 1125 4075 
Q 950 4425 600 4725 
Q 825 4875 925 5000 
z
" transform="scale(0.015625)"/>
       <path id="SimHei-2f" d="M 3000 4550 
L 350 -175 
L 100 -25 
L 2750 4700 
L 3000 4550 
z
" transform="scale(0.015625)"/>
      </defs>
      <use xlink:href="#SimHei-641c"/>
      <use xlink:href="#SimHei-7d22" x="100"/>
      <use xlink:href="#SimHei-6b21" x="200"/>
      <use xlink:href="#SimHei-6570" x="300"/>
      <use xlink:href="#SimHei-2f" x="400"/>
      <use xlink:href="#SimHei-6b21" x="450"/>
     </g>
    </g>
   </g>
   <g id="matplotlib.axis_2">
    <g id="ytick_1">
     <g id="line2d_17">
      <path d="M 108 369.412647 
L 777.6 369.412647 
" clip-path="url(#pef843e9d78)" style="fill: none; stroke: #b0b0b0; stroke-width: 0.8; stroke-linecap: square"/>
     </g>
     <g id="line2d_18">
      <defs>
       <path id="mf6eb59eb14" d="M 0 0 
L 3.5 0 
" style="stroke: #000000; stroke-width: 0.8"/>
      </defs>
      <g>
       <use xlink:href="#mf6eb59eb14" x="108" y="369.412647" style="stroke: #000000; stroke-width: 0.8"/>
      </g>
     </g>
     <g id="text_10">
      <!-- 0 -->
      <g transform="translate(99.5 372.850147) scale(0.1 -0.1)">
       <use xlink:href="#SimHei-30"/>
      </g>
     </g>
    </g>
    <g id="ytick_2">
     <g id="line2d_19">
      <path d="M 108 326.259007 
L 777.6 326.259007 
" clip-path="url(#pef843e9d78)" style="fill: none; stroke: #b0b0b0; stroke-width: 0.8; stroke-linecap: square"/>
     </g>
     <g id="line2d_20">
      <g>
       <use xlink:href="#mf6eb59eb14" x="108" y="326.259007" style="stroke: #000000; stroke-width: 0.8"/>
      </g>
     </g>
     <g id="text_11">
      <!-- 50000 -->
      <g transform="translate(79.5 329.696507) scale(0.1 -0.1)">
       <use xlink:href="#SimHei-35"/>
       <use xlink:href="#SimHei-30" x="50"/>
       <use xlink:href="#SimHei-30" x="100"/>
       <use xlink:href="#SimHei-30" x="150"/>
       <use xlink:href="#SimHei-30" x="200"/>
      </g>
     </g>
    </g>
    <g id="ytick_3">
     <g id="line2d_21">
      <path d="M 108 283.105366 
L 777.6 283.105366 
" clip-path="url(#pef843e9d78)" style="fill: none; stroke: #b0b0b0; stroke-width: 0.8; stroke-linecap: square"/>
     </g>
     <g id="line2d_22">
      <g>
       <use xlink:href="#mf6eb59eb14" x="108" y="283.105366" style="stroke: #000000; stroke-width: 0.8"/>
      </g>
     </g>
     <g id="text_12">
      <!-- 100000 -->
      <g transform="translate(74.5 286.542866) scale(0.1 -0.1)">
       <use xlink:href="#SimHei-31"/>
       <use xlink:href="#SimHei-30" x="50"/>
       <use xlink:href="#SimHei-30" x="100"/>
       <use xlink:href="#SimHei-30" x="150"/>
       <use xlink:href="#SimHei-30" x="200"/>
       <use xlink:href="#SimHei-30" x="250"/>
      </g>
     </g>
    </g>
    <g id="ytick_4">
     <g id="line2d_23">
      <path d="M 108 239.951725 
L 777.6 239.951725 
" clip-path="url(#pef843e9d78)" style="fill: none; stroke: #b0b0b0; stroke-width: 0.8; stroke-linecap: square"/>
     </g>
     <g id="line2d_24">
      <g>
       <use xlink:href="#mf6eb59eb14" x="108" y="239.951725" style="stroke: #000000; stroke-width: 0.8"/>
      </g>
     </g>
     <g id="text_13">
      <!-- 150000 -->
      <g transform="translate(74.5 243.389225) scale(0.1 -0.1)">
       <use xlink:href="#SimHei-31"/>
       <use xlink:href="#SimHei-35" x="50"/>
       <use xlink:href="#SimHei-30" x="100"/>
       <use xlink:href="#SimHei-30" x="150"/>
       <use xlink:href="#SimHei-30" x="200"/>
       <use xlink:href="#SimHei-30" x="250"/>
      </g>
     </g>
    </g>
    <g id="ytick_5">
     <g id="line2d_25">
      <path d="M 108 196.798085 
L 777.6 196.798085 
" clip-path="url(#pef843e9d78)" style="fill: none; stroke: #b0b0b0; stroke-width: 0.8; stroke-linecap: square"/>
     </g>
     <g id="line2d_26">
      <g>
       <use xlink:href="#mf6eb59eb14" x="108" y="196.798085" style="stroke: #000000; stroke-width: 0.8"/>
      </g>
     </g>
     <g id="text_14">
      <!-- 200000 -->
      <g transform="translate(74.5 200.235585) scale(0.1 -0.1)">
       <use xlink:href="#SimHei-32"/>
       <use xlink:href="#SimHei-30" x="50"/>
       <use xlink:href="#SimHei-30" x="100"/>
       <use xlink:href="#SimHei-30" x="150"/>
       <use xlink:href="#SimHei-30" x="200"/>
       <use xlink:href="#SimHei-30" x="250"/>
      </g>
     </g>
    </g>
    <g id="ytick_6">
     <g id="line2d_27">
      <path d="M 108 153.644444 
L 777.6 153.644444 
" clip-path="url(#pef843e9d78)" style="fill: none; stroke: #b0b0b0; stroke-width: 0.8; stroke-linecap: square"/>
     </g>
     <g id="line2d_28">
      <g>
       <use xlink:href="#mf6eb59eb14" x="108" y="153.644444" style="stroke: #000000; stroke-width: 0.8"/>
      </g>
     </g>
     <g id="text_15">
      <!-- 250000 -->
      <g transform="translate(74.5 157.081944) scale(0.1 -0.1)">
       <use xlink:href="#SimHei-32"/>
       <use xlink:href="#SimHei-35" x="50"/>
       <use xlink:href="#SimHei-30" x="100"/>
       <use xlink:href="#SimHei-30" x="150"/>
       <use xlink:href="#SimHei-30" x="200"/>
       <use xlink:href="#SimHei-30" x="250"/>
      </g>
     </g>
    </g>
    <g id="ytick_7">
     <g id="line2d_29">
      <path d="M 108 110.490803 
L 777.6 110.490803 
" clip-path="url(#pef843e9d78)" style="fill: none; stroke: #b0b0b0; stroke-width: 0.8; stroke-linecap: square"/>
     </g>
     <g id="line2d_30">
      <g>
       <use xlink:href="#mf6eb59eb14" x="108" y="110.490803" style="stroke: #000000; stroke-width: 0.8"/>
      </g>
     </g>
     <g id="text_16">
      <!-- 300000 -->
      <g transform="translate(74.5 113.928303) scale(0.1 -0.1)">
       <use xlink:href="#SimHei-33"/>
       <use xlink:href="#SimHei-30" x="50"/>
       <use xlink:href="#SimHei-30" x="100"/>
       <use xlink:href="#SimHei-30" x="150"/>
       <use xlink:href="#SimHei-30" x="200"/>
       <use xlink:href="#SimHei-30" x="250"/>
      </g>
     </g>
    </g>
    <g id="ytick_8">
     <g id="line2d_31">
      <path d="M 108 67.337163 
L 777.6 67.337163 
" clip-path="url(#pef843e9d78)" style="fill: none; stroke: #b0b0b0; stroke-width: 0.8; stroke-linecap: square"/>
     </g>
     <g id="line2d_32">
      <g>
       <use xlink:href="#mf6eb59eb14" x="108" y="67.337163" style="stroke: #000000; stroke-width: 0.8"/>
      </g>
     </g>
     <g id="text_17">
      <!-- 350000 -->
      <g transform="translate(74.5 70.774663) scale(0.1 -0.1)">
       <use xlink:href="#SimHei-33"/>
       <use xlink:href="#SimHei-35" x="50"/>
       <use xlink:href="#SimHei-30" x="100"/>
       <use xlink:href="#SimHei-30" x="150"/>
       <use xlink:href="#SimHei-30" x="200"/>
       <use xlink:href="#SimHei-30" x="250"/>
      </g>
     </g>
    </g>
    <g id="text_18">
     <!-- 节点数/个 -->
     <g transform="translate(69 245.16) rotate(-90) scale(0.12 -0.12)">
      <defs>
       <path id="SimHei-8282" d="M 4200 200 
Q 4150 500 3950 800 
Q 4450 800 4712 850 
Q 4975 900 5000 1150 
L 5050 2500 
L 2925 2500 
L 2925 325 
Q 2925 -125 2950 -600 
L 2375 -600 
Q 2425 -150 2425 325 
L 2425 2500 
L 1875 2500 
Q 1050 2500 550 2475 
L 550 2950 
Q 1075 2925 1625 2925 
L 5625 2925 
Q 5550 1875 5525 1225 
Q 5500 575 5150 412 
Q 4800 250 4200 200 
z
M 2475 3950 
Q 2475 3500 2500 3175 
L 1950 3175 
Q 1975 3550 1975 3950 
L 1125 3950 
Q 775 3950 350 3900 
L 350 4400 
Q 775 4375 1125 4375 
L 1975 4375 
Q 1975 4850 1950 5175 
L 2500 5175 
Q 2475 4850 2475 4375 
L 3800 4375 
Q 3800 4875 3775 5175 
L 4350 5175 
Q 4325 4875 4325 4375 
L 5125 4375 
Q 5600 4375 6000 4400 
L 6000 3925 
Q 5600 3950 5125 3950 
L 4325 3950 
Q 4325 3550 4350 3175 
L 3775 3175 
Q 3800 3575 3800 3950 
L 2475 3950 
z
" transform="scale(0.015625)"/>
       <path id="SimHei-70b9" d="M 3325 5200 
Q 3300 4925 3300 4375 
L 4900 4375 
Q 5275 4375 5725 4400 
L 5725 3925 
Q 5300 3950 4900 3950 
L 3300 3950 
L 3300 3225 
L 5225 3225 
Q 5200 2700 5200 2150 
Q 5200 1625 5225 1175 
L 1175 1175 
Q 1200 1625 1200 2175 
Q 1200 2725 1175 3225 
L 2775 3225 
L 2775 4500 
Q 2775 4900 2750 5200 
L 3325 5200 
z
M 4700 1600 
L 4700 2800 
L 1725 2800 
L 1725 1600 
L 4700 1600 
z
M 1500 750 
Q 1025 -250 825 -625 
Q 625 -475 325 -375 
Q 650 50 950 925 
Q 1200 800 1500 750 
z
M 5325 850 
Q 5775 150 6075 -350 
Q 5925 -425 5575 -625 
Q 5375 -150 4900 575 
Q 5150 700 5325 850 
z
M 3975 -575 
Q 3775 -100 3400 575 
Q 3575 675 3825 825 
Q 4350 -75 4450 -325 
Q 4200 -450 3975 -575 
z
M 2375 -575 
Q 2350 -300 1975 550 
Q 2200 625 2425 775 
Q 2800 -75 2900 -350 
Q 2625 -450 2375 -575 
z
" transform="scale(0.015625)"/>
       <path id="SimHei-4e2a" d="M 3425 4825 
Q 4475 3275 6150 2775 
Q 5900 2475 5775 2200 
Q 4150 2900 3150 4425 
Q 2225 2950 675 2125 
Q 550 2350 250 2600 
Q 1450 3100 2112 3875 
Q 2775 4650 3000 5275 
Q 3300 5150 3600 5050 
Q 3500 4925 3425 4825 
z
M 2925 2350 
Q 2925 2750 2875 3375 
L 3450 3375 
Q 3425 2950 3425 2325 
L 3425 550 
Q 3425 -25 3450 -625 
L 2900 -625 
Q 2925 0 2925 525 
L 2925 2350 
z
" transform="scale(0.015625)"/>
      </defs>
      <use xlink:href="#SimHei-8282"/>
      <use xlink:href="#SimHei-70b9" x="100"/>
      <use xlink:href="#SimHei-6570" x="200"/>
      <use xlink:href="#SimHei-2f" x="300"/>
      <use xlink:href="#SimHei-4e2a" x="350"/>
     </g>
    </g>
   </g>
   <g id="line2d_33">
    <path d="M 138.436364 348.857705 
L 142.508118 343.603841 
L 146.579872 338.682634 
L 150.651627 334.088196 
L 154.723381 329.814638 
L 158.795135 325.856069 
L 162.86689 322.206601 
L 166.938644 318.860344 
L 171.010398 315.811409 
L 175.082153 313.05257 
L 179.153907 310.538664 
L 187.297416 305.893062 
L 195.440924 301.18721 
L 203.584433 296.177636 
L 213.763819 289.635825 
L 221.907327 284.135345 
L 228.014959 279.756341 
L 236.158468 273.565125 
L 246.337853 265.455648 
L 254.481362 258.68673 
L 260.588994 253.31989 
L 272.804257 242.22333 
L 276.876011 238.849749 
L 280.947765 235.833593 
L 285.01952 233.14006 
L 291.127151 229.498981 
L 303.342414 222.69075 
L 309.450046 219.529479 
L 313.5218 217.612011 
L 317.593554 215.888219 
L 321.665309 214.372708 
L 325.737063 213.078096 
L 329.808817 212.017001 
L 333.880572 211.183919 
L 339.988203 210.192633 
L 348.131712 208.872436 
L 352.203466 208.031798 
L 356.27522 207.03018 
L 360.346975 205.854975 
L 364.418729 204.493573 
L 368.490483 202.940161 
L 374.598115 200.304605 
L 380.705746 197.398116 
L 386.813378 194.305538 
L 392.921009 190.943988 
L 396.992764 188.475491 
L 401.064518 185.773189 
L 413.279781 177.263369 
L 417.351535 174.872481 
L 421.42329 172.907353 
L 425.495044 171.225981 
L 433.638553 168.005419 
L 439.746184 165.182424 
L 445.853816 162.370353 
L 449.92557 160.830169 
L 451.961447 160.234264 
L 453.997324 159.774227 
L 458.069079 159.197586 
L 462.140833 158.955399 
L 478.42785 158.575068 
L 482.499605 158.176934 
L 486.571359 157.546996 
L 490.643113 156.669776 
L 504.894254 153.269441 
L 508.966008 152.657835 
L 513.037762 152.241326 
L 519.145394 151.883535 
L 529.32478 151.623808 
L 537.468288 151.318403 
L 543.57592 150.842803 
L 551.719428 150.187628 
L 555.791183 150.044237 
L 559.862937 150.112521 
L 565.970569 150.499849 
L 576.149954 151.280515 
L 582.257586 151.477362 
L 586.32934 151.406027 
L 590.401095 151.127406 
L 594.472849 150.621762 
L 600.58048 149.600572 
L 608.723989 148.260179 
L 614.831621 147.601344 
L 620.939252 147.222684 
L 629.082761 147.007166 
L 635.190392 147.039566 
L 641.298024 147.304717 
L 647.405655 147.859732 
L 653.513287 148.688166 
L 659.620918 149.735949 
L 677.943813 153.210694 
L 682.015567 153.761112 
L 686.087321 154.15004 
L 690.159076 154.352545 
L 694.23083 154.343693 
L 698.302584 154.108298 
L 704.410216 153.457004 
L 714.589602 152.269888 
L 718.661356 151.986736 
L 722.73311 151.904014 
L 726.804865 152.076955 
L 730.876619 152.560793 
L 734.948373 153.410764 
L 739.020128 154.682102 
L 741.056005 155.493045 
L 743.091882 156.430042 
L 745.127759 157.499999 
L 747.163636 158.709818 
L 747.163636 158.709818 
" clip-path="url(#pef843e9d78)" style="fill: none; stroke: #0000ff; stroke-width: 2; stroke-linecap: square"/>
   </g>
   <g id="line2d_34">
    <path d="M 138.436364 369.36 
L 140.472241 369.124243 
L 142.508118 368.764362 
L 146.579872 367.709968 
L 150.651627 366.272297 
L 154.723381 364.526831 
L 158.795135 362.549048 
L 164.902767 359.311893 
L 175.082153 353.822889 
L 181.189784 350.776893 
L 189.333293 346.981251 
L 197.476801 343.402616 
L 203.584433 340.926117 
L 209.692064 338.720881 
L 215.799696 336.818895 
L 221.907327 335.15784 
L 230.050836 333.205812 
L 236.158468 331.971413 
L 240.230222 331.312189 
L 244.301976 330.817564 
L 256.517239 329.593566 
L 260.588994 328.835305 
L 264.660748 327.730697 
L 268.732502 326.347497 
L 274.840134 323.959315 
L 289.091274 318.055298 
L 295.198905 315.225077 
L 299.27066 313.126626 
L 303.342414 310.835157 
L 307.414168 308.338528 
L 311.485923 305.624599 
L 315.557677 302.68979 
L 323.701186 296.439057 
L 329.808817 291.786292 
L 335.916449 287.466875 
L 339.988203 284.814718 
L 344.059957 282.356333 
L 348.131712 280.101749 
L 352.203466 278.048403 
L 358.311098 275.284631 
L 364.418729 272.809055 
L 370.526361 270.559279 
L 374.598115 269.235588 
L 378.669869 268.105903 
L 382.741624 267.215426 
L 388.849255 266.248911 
L 394.956887 265.235811 
L 399.028641 264.243744 
L 403.100395 262.841928 
L 407.17215 261.136772 
L 415.315658 257.531389 
L 419.387413 255.970896 
L 429.566798 252.353065 
L 433.638553 250.504676 
L 437.710307 248.17101 
L 441.782061 245.417899 
L 447.889693 240.817209 
L 456.033202 234.54117 
L 462.140833 230.151037 
L 466.212587 227.486907 
L 470.284342 225.098904 
L 474.356096 222.972776 
L 486.571359 216.919749 
L 490.643113 214.613732 
L 496.750745 210.814542 
L 504.894254 205.360778 
L 517.109517 197.074806 
L 523.217148 193.182693 
L 537.468288 184.362048 
L 541.540043 181.554917 
L 547.647674 177.069806 
L 557.82706 169.550378 
L 563.934691 165.398589 
L 568.006446 162.857868 
L 572.0782 160.531653 
L 576.149954 158.44069 
L 582.257586 155.619671 
L 592.436972 150.986666 
L 598.544603 147.881628 
L 606.688112 143.44302 
L 616.867498 137.64312 
L 622.975129 133.930324 
L 629.082761 129.924872 
L 635.190392 125.631365 
L 643.333901 119.600051 
L 657.585041 108.943155 
L 663.692673 104.736401 
L 667.764427 102.153187 
L 671.836181 99.777884 
L 675.907936 97.636515 
L 679.97969 95.750616 
L 686.087321 93.27463 
L 694.23083 90.069308 
L 698.302584 88.279569 
L 704.410216 85.342342 
L 720.697233 77.315745 
L 728.840742 73.671104 
L 734.948373 71.178297 
L 741.056005 68.929844 
L 747.163636 66.96 
L 747.163636 66.96 
" clip-path="url(#pef843e9d78)" style="fill: none; stroke: #ff0000; stroke-width: 2; stroke-linecap: square"/>
   </g>
   <g id="patch_3">
    <path d="M 108 384.48 
L 108 51.84 
" style="fill: none; stroke: #000000; stroke-width: 0.8; stroke-linejoin: miter; stroke-linecap: square"/>
   </g>
   <g id="patch_4">
    <path d="M 777.6 384.48 
L 777.6 51.84 
" style="fill: none; stroke: #000000; stroke-width: 0.8; stroke-linejoin: miter; stroke-linecap: square"/>
   </g>
   <g id="patch_5">
    <path d="M 108 384.48 
L 777.6 384.48 
" style="fill: none; stroke: #000000; stroke-width: 0.8; stroke-linejoin: miter; stroke-linecap: square"/>
   </g>
   <g id="patch_6">
    <path d="M 108 51.84 
L 777.6 51.84 
" style="fill: none; stroke: #000000; stroke-width: 0.8; stroke-linejoin: miter; stroke-linecap: square"/>
   </g>
   <g id="text_19">
    <!-- 节点数变化图 -->
    <g transform="translate(394.8 45.84) scale(0.16 -0.16)">
     <defs>
      <path id="SimHei-53d8" d="M 5200 1975 
Q 4950 1600 4537 1137 
Q 4125 675 3675 375 
Q 3925 225 4600 87 
Q 5275 -50 6000 -75 
Q 5700 -400 5650 -625 
Q 4850 -525 4212 -312 
Q 3575 -100 3225 125 
Q 2800 -125 2150 -325 
Q 1500 -525 700 -675 
Q 600 -425 400 -175 
Q 950 -150 1687 12 
Q 2425 175 2825 375 
Q 2275 775 1675 1575 
Q 1350 1575 1000 1550 
L 1000 2000 
Q 1450 1975 2075 1975 
L 5200 1975 
z
M 3225 5275 
Q 3400 4900 3550 4475 
L 4675 4475 
Q 5400 4475 5975 4500 
L 5975 4025 
Q 5375 4050 4725 4050 
L 4125 4050 
L 4125 2950 
Q 4125 2550 4150 2150 
L 3600 2150 
Q 3625 2550 3625 2950 
L 3625 4050 
L 2750 4050 
L 2750 2950 
Q 2750 2675 2775 2150 
L 2225 2150 
Q 2250 2675 2250 2950 
L 2250 4050 
L 1700 4050 
Q 975 4050 425 4025 
L 425 4500 
Q 950 4475 1700 4475 
L 2975 4475 
Q 2925 4675 2700 5125 
Q 2950 5150 3225 5275 
z
M 2200 1575 
Q 2650 975 3250 600 
Q 3850 1000 4275 1575 
L 2200 1575 
z
M 4850 3750 
Q 5375 3275 5950 2675 
Q 5750 2525 5500 2300 
Q 5075 2800 4450 3400 
Q 4675 3575 4850 3750 
z
M 1825 3500 
Q 1700 3375 1425 3025 
Q 1150 2675 825 2300 
Q 575 2475 375 2600 
Q 975 3150 1300 3825 
Q 1525 3650 1825 3500 
z
" transform="scale(0.015625)"/>
      <path id="SimHei-5316" d="M 3925 5025 
Q 3900 4900 3900 4400 
L 3900 2625 
Q 4375 3025 4775 3450 
Q 5175 3875 5400 4300 
Q 5600 4100 5900 3925 
Q 5700 3700 5225 3212 
Q 4750 2725 4487 2512 
Q 4225 2300 3900 2025 
L 3900 450 
Q 3900 50 4225 50 
L 5200 50 
Q 5400 75 5462 262 
Q 5525 450 5575 850 
Q 5800 650 6150 600 
Q 6000 -100 5825 -250 
Q 5650 -400 5350 -400 
L 3950 -400 
Q 3425 -400 3400 200 
L 3400 1675 
Q 3225 1525 2962 1350 
Q 2700 1175 2375 975 
Q 2225 1225 2025 1400 
Q 2350 1550 2737 1787 
Q 3125 2025 3400 2250 
L 3400 4500 
Q 3400 4800 3375 5025 
L 3925 5025 
z
M 2400 4850 
Q 2175 4550 2075 4337 
Q 1975 4125 1825 3775 
L 1825 675 
Q 1825 -75 1850 -550 
L 1325 -550 
Q 1350 -125 1350 650 
L 1350 3050 
Q 1125 2725 962 2525 
Q 800 2325 675 2175 
Q 500 2375 275 2525 
Q 625 2850 875 3212 
Q 1125 3575 1312 3912 
Q 1500 4250 1625 4575 
Q 1750 4900 1825 5100 
Q 1975 4975 2400 4850 
z
" transform="scale(0.015625)"/>
      <path id="SimHei-56fe" d="M 5800 4975 
Q 5775 4350 5775 3600 
L 5775 925 
Q 5775 150 5800 -600 
L 5300 -600 
L 5300 -275 
L 1125 -275 
L 1125 -650 
L 625 -650 
Q 650 125 650 950 
L 650 3600 
Q 650 4325 625 4975 
L 5800 4975 
z
M 5300 150 
L 5300 4575 
L 1125 4575 
L 1125 150 
L 5300 150 
z
M 3225 4250 
Q 3075 4100 2950 3925 
L 4625 3925 
Q 4525 3700 4300 3375 
Q 4075 3050 3600 2600 
Q 4350 2225 5075 2150 
Q 4900 1925 4775 1675 
Q 3850 1950 3225 2350 
Q 2500 1875 1675 1650 
Q 1600 1875 1400 2075 
Q 2200 2200 2875 2600 
Q 2525 2925 2375 3150 
Q 2150 2900 1900 2650 
Q 1725 2850 1525 2950 
Q 1950 3300 2250 3737 
Q 2550 4175 2675 4475 
Q 2925 4350 3225 4250 
z
M 2450 1275 
Q 3550 950 4100 725 
Q 3975 525 3850 300 
Q 2825 725 2275 850 
Q 2375 1050 2450 1275 
z
M 2925 2050 
Q 3775 1700 4075 1600 
Q 3950 1400 3850 1150 
Q 3000 1550 2700 1650 
Q 2825 1825 2925 2050 
z
M 2625 3450 
Q 3000 3025 3275 2850 
Q 3600 3100 3875 3525 
L 2675 3525 
L 2625 3450 
z
" transform="scale(0.015625)"/>
     </defs>
     <use xlink:href="#SimHei-8282"/>
     <use xlink:href="#SimHei-70b9" x="100"/>
     <use xlink:href="#SimHei-6570" x="200"/>
     <use xlink:href="#SimHei-53d8" x="300"/>
     <use xlink:href="#SimHei-5316" x="400"/>
     <use xlink:href="#SimHei-56fe" x="500"/>
    </g>
   </g>
   <g id="legend_1">
    <g id="patch_7">
     <path d="M 116.4 95.84625 
L 238.8 95.84625 
Q 241.2 95.84625 241.2 93.44625 
L 241.2 60.24 
Q 241.2 57.84 238.8 57.84 
L 116.4 57.84 
Q 114 57.84 114 60.24 
L 114 93.44625 
Q 114 95.84625 116.4 95.84625 
z
" style="fill: #ffffff; opacity: 0.8; stroke: #cccccc; stroke-linejoin: miter"/>
    </g>
    <g id="line2d_35">
     <path d="M 118.8 68.09625 
L 130.8 68.09625 
L 142.8 68.09625 
" style="fill: none; stroke: #0000ff; stroke-width: 2; stroke-linecap: square"/>
    </g>
    <g id="text_20">
     <!-- 图中当前节点数 -->
     <g transform="translate(152.4 72.29625) scale(0.12 -0.12)">
      <defs>
       <path id="SimHei-4e2d" d="M 3475 5200 
Q 3450 4500 3450 3875 
L 5625 3875 
Q 5600 3375 5600 2500 
Q 5600 1650 5625 1225 
L 5075 1225 
L 5075 1600 
L 3450 1600 
L 3450 525 
Q 3450 225 3475 -600 
L 2875 -600 
Q 2925 -150 2925 450 
L 2925 1600 
L 1300 1600 
L 1300 1225 
L 750 1225 
Q 775 1600 775 2500 
Q 775 3425 750 3875 
L 2925 3875 
Q 2925 4550 2900 5200 
L 3475 5200 
z
M 5075 2000 
L 5075 3475 
L 3450 3475 
L 3450 2000 
L 5075 2000 
z
M 2925 2000 
L 2925 3475 
L 1300 3475 
L 1300 2000 
L 2925 2000 
z
" transform="scale(0.015625)"/>
       <path id="SimHei-5f53" d="M 3550 5125 
Q 3525 4825 3525 4275 
L 3525 2925 
L 5625 2925 
Q 5600 2425 5600 2100 
L 5600 175 
Q 5600 -150 5625 -650 
L 5075 -650 
L 5075 -125 
L 1675 -125 
Q 1150 -125 675 -150 
L 675 325 
Q 1150 300 1675 300 
L 5075 300 
L 5075 1200 
L 2000 1200 
Q 1425 1200 900 1175 
L 900 1675 
Q 1425 1650 2000 1650 
L 5075 1650 
L 5075 2500 
L 1700 2500 
Q 1250 2500 750 2475 
L 750 2950 
Q 1250 2925 1700 2925 
L 3000 2925 
L 3000 4275 
Q 3000 4725 2975 5125 
L 3550 5125 
z
M 5700 4500 
Q 5525 4300 5287 4000 
Q 5050 3700 4650 3225 
Q 4450 3400 4225 3575 
Q 4725 4050 5175 4850 
Q 5425 4650 5700 4500 
z
M 1325 4800 
Q 1875 4175 2275 3600 
Q 2025 3450 1775 3250 
Q 1375 3925 875 4450 
Q 1150 4625 1325 4800 
z
" transform="scale(0.015625)"/>
       <path id="SimHei-524d" d="M 2075 -100 
Q 2400 -100 2537 -87 
Q 2675 -75 2675 100 
L 2675 875 
L 1325 875 
L 1325 -650 
L 800 -650 
Q 850 -200 850 350 
L 850 2350 
Q 850 2850 825 3300 
L 3175 3300 
Q 3150 2875 3150 2375 
L 3150 -150 
Q 3150 -400 2950 -475 
Q 2750 -550 2275 -625 
Q 2200 -350 2075 -100 
z
M 4950 5075 
Q 4825 4975 4687 4750 
Q 4550 4525 4375 4225 
L 5400 4225 
Q 5750 4225 6175 4250 
L 6175 3775 
Q 5775 3825 5300 3825 
L 1350 3825 
Q 700 3825 250 3775 
L 250 4250 
Q 775 4225 1350 4225 
L 3875 4225 
Q 4300 5025 4350 5300 
Q 4625 5150 4950 5075 
z
M 4375 -75 
Q 4825 -100 4937 -75 
Q 5050 -50 5050 150 
L 5050 2750 
Q 5050 3050 5025 3400 
L 5550 3400 
Q 5525 3075 5525 2750 
L 5525 -25 
Q 5525 -350 5362 -450 
Q 5200 -550 4600 -600 
Q 4550 -275 4375 -75 
z
M 3775 575 
Q 3800 950 3800 1225 
L 3800 2375 
Q 3800 2775 3775 3075 
L 4300 3075 
Q 4275 2775 4275 2375 
L 4275 1250 
Q 4275 875 4300 575 
L 3775 575 
z
M 2675 2250 
L 2675 2925 
L 1325 2925 
L 1325 2250 
L 2675 2250 
z
M 2675 1250 
L 2675 1875 
L 1325 1875 
L 1325 1250 
L 2675 1250 
z
M 2225 4300 
Q 2125 4575 1750 5050 
Q 2025 5175 2200 5300 
Q 2550 4850 2725 4550 
Q 2500 4450 2225 4300 
z
" transform="scale(0.015625)"/>
      </defs>
      <use xlink:href="#SimHei-56fe"/>
      <use xlink:href="#SimHei-4e2d" x="100"/>
      <use xlink:href="#SimHei-5f53" x="200"/>
      <use xlink:href="#SimHei-524d" x="300"/>
      <use xlink:href="#SimHei-8282" x="400"/>
      <use xlink:href="#SimHei-70b9" x="500"/>
      <use xlink:href="#SimHei-6570" x="600"/>
     </g>
    </g>
    <g id="line2d_36">
     <path d="M 118.8 85.34625 
L 130.8 85.34625 
L 142.8 85.34625 
" style="fill: none; stroke: #ff0000; stroke-width: 2; stroke-linecap: square"/>
    </g>
    <g id="text_21">
     <!-- 累计剪枝节点数 -->
     <g transform="translate(152.4 89.54625) scale(0.12 -0.12)">
      <defs>
       <path id="SimHei-7d2f" d="M 5475 5000 
Q 5450 4600 5450 3975 
Q 5450 3350 5475 2950 
L 4675 2950 
Q 4850 2775 5075 2600 
Q 4800 2525 4237 2275 
Q 3675 2025 3262 1837 
Q 2850 1650 2400 1425 
Q 3850 1525 4650 1575 
Q 4425 1725 4200 1850 
Q 4375 2000 4500 2175 
Q 5125 1800 5900 1300 
Q 5750 1125 5575 900 
Q 5375 1075 5100 1250 
Q 4250 1175 3475 1125 
L 3475 50 
Q 3475 -350 3212 -462 
Q 2950 -575 2600 -600 
Q 2575 -375 2375 -50 
Q 2800 -75 2900 -25 
Q 3000 25 3000 125 
L 3000 1075 
Q 2400 1050 1987 1012 
Q 1575 975 850 875 
Q 775 1125 700 1350 
Q 1150 1400 1575 1512 
Q 2000 1625 3025 2125 
Q 1775 2025 1250 1925 
Q 1200 2200 1100 2375 
Q 1325 2375 1737 2537 
Q 2150 2700 2475 2950 
L 950 2950 
Q 975 3375 975 3975 
Q 975 4600 950 5000 
L 5475 5000 
z
M 2425 525 
Q 2200 400 1762 137 
Q 1325 -125 850 -425 
Q 700 -225 500 -25 
Q 850 125 1250 362 
Q 1650 600 2025 900 
Q 2150 725 2425 525 
z
M 2975 4100 
L 2975 4650 
L 1450 4650 
L 1450 4100 
L 2975 4100 
z
M 4975 4100 
L 4975 4650 
L 3450 4650 
L 3450 4100 
L 4975 4100 
z
M 4275 850 
Q 4750 650 5050 500 
L 5850 100 
Q 5675 -125 5575 -375 
Q 5150 -100 4775 100 
Q 4400 300 4050 450 
Q 4200 675 4275 850 
z
M 2975 3275 
L 2975 3750 
L 1450 3750 
L 1450 3275 
L 2975 3275 
z
M 4975 3275 
L 4975 3750 
L 3450 3750 
L 3450 3275 
L 4975 3275 
z
M 3700 2475 
Q 4200 2700 4575 2950 
L 3225 2950 
Q 2900 2750 2300 2425 
Q 3075 2450 3700 2475 
z
" transform="scale(0.015625)"/>
       <path id="SimHei-8ba1" d="M 3925 3100 
L 3925 4350 
Q 3925 4850 3900 5125 
L 4425 5125 
Q 4400 4800 4400 4550 
L 4400 3100 
L 5425 3100 
Q 5725 3100 6075 3125 
L 6075 2650 
Q 5700 2675 5450 2675 
L 4400 2675 
L 4400 175 
Q 4400 -125 4425 -550 
L 3900 -550 
Q 3925 -125 3925 150 
L 3925 2675 
L 2950 2675 
Q 2575 2675 2200 2650 
L 2200 3125 
Q 2575 3100 2900 3100 
L 3925 3100 
z
M 1775 3150 
Q 1750 2675 1750 2150 
L 1750 625 
Q 2175 1050 2425 1400 
Q 2575 1200 2775 1000 
L 2075 300 
Q 1750 -25 1450 -350 
Q 1275 -125 1125 50 
Q 1300 250 1275 650 
L 1275 2725 
Q 600 2725 275 2700 
L 275 3175 
Q 675 3150 825 3150 
L 1775 3150 
z
M 1150 5050 
Q 1475 4725 2175 4000 
Q 1950 3800 1750 3625 
Q 1425 4100 775 4750 
Q 950 4875 1150 5050 
z
" transform="scale(0.015625)"/>
       <path id="SimHei-526a" d="M 2400 1900 
Q 2700 1900 2800 1925 
Q 2900 1950 2900 2025 
L 2900 2150 
L 1375 2150 
L 1375 1575 
L 900 1575 
Q 925 1825 925 2150 
L 925 3100 
Q 925 3450 900 3750 
L 3325 3750 
L 3325 2050 
Q 3350 1675 3125 1600 
Q 2900 1525 2550 1475 
Q 2500 1675 2400 1900 
z
M 4050 -575 
Q 3950 -275 3825 -50 
Q 4625 -25 4712 37 
Q 4800 100 4825 350 
L 4875 875 
L 3050 875 
Q 2875 350 2575 87 
Q 2275 -175 1900 -350 
Q 1525 -525 900 -700 
Q 825 -450 625 -225 
Q 1375 -125 1887 125 
Q 2400 375 2550 875 
L 1850 875 
Q 1325 875 775 850 
L 775 1300 
Q 1325 1275 1875 1275 
L 5425 1275 
L 5300 225 
Q 5250 -175 5075 -312 
Q 4900 -450 4050 -575 
z
M 4525 4800 
Q 4400 4675 4250 4475 
L 4800 4475 
Q 5450 4475 6025 4500 
L 6025 4075 
Q 5450 4100 4800 4100 
L 2175 4100 
Q 1450 4100 375 4075 
L 375 4500 
Q 1450 4475 2150 4475 
L 3750 4475 
Q 3900 4675 4037 4887 
Q 4175 5100 4250 5275 
Q 4475 5150 4750 5025 
L 4525 4800 
z
M 5475 3875 
Q 5450 3625 5450 3150 
L 5450 2000 
Q 5450 1650 5200 1587 
Q 4950 1525 4650 1475 
Q 4600 1700 4500 1950 
Q 4775 1950 4900 1975 
Q 5025 2000 5000 2175 
L 5000 3150 
Q 5000 3525 4975 3875 
L 5475 3875 
z
M 4300 3625 
Q 4275 3400 4275 3150 
L 4275 2400 
Q 4275 2225 4300 1975 
L 3850 1975 
Q 3875 2225 3875 2425 
L 3875 3175 
Q 3875 3425 3850 3625 
L 4300 3625 
z
M 2900 3100 
L 2900 3400 
L 1375 3400 
L 1375 3100 
L 2900 3100 
z
M 2900 2475 
L 2900 2750 
L 1375 2750 
L 1375 2475 
L 2900 2475 
z
M 2450 4800 
Q 2275 4675 2125 4500 
Q 1925 4725 1600 5000 
Q 1800 5175 1900 5300 
Q 2375 4850 2450 4800 
z
" transform="scale(0.015625)"/>
       <path id="SimHei-679d" d="M 2750 2900 
Q 3050 2875 3350 2875 
L 3950 2875 
L 3950 3900 
L 3225 3900 
Q 2950 3900 2675 3875 
L 2675 4325 
Q 2925 4300 3225 4300 
L 3950 4300 
Q 3950 4650 3925 5150 
L 4450 5150 
Q 4425 4900 4425 4300 
L 5325 4300 
Q 5600 4300 5900 4325 
L 5900 3875 
Q 5675 3900 5375 3900 
L 4425 3900 
L 4425 2875 
L 5625 2875 
Q 5525 2525 5425 2225 
Q 5325 1925 5175 1637 
Q 5025 1350 4875 1112 
Q 4725 875 4550 675 
Q 4850 425 5300 262 
Q 5750 100 6150 50 
Q 5925 -200 5875 -450 
Q 5250 -250 4887 -62 
Q 4525 125 4225 350 
Q 3850 0 3475 -212 
Q 3100 -425 2625 -625 
Q 2525 -375 2275 -200 
Q 2875 -75 3275 200 
Q 3675 475 3875 675 
Q 3250 1400 3000 2450 
L 2750 2450 
L 2750 2900 
z
M 2150 2725 
Q 2300 2475 2400 2262 
Q 2500 2050 2650 1800 
Q 2375 1675 2150 1550 
Q 2025 1875 1925 2075 
Q 1825 2275 1725 2450 
L 1725 475 
Q 1725 -25 1750 -575 
L 1250 -575 
Q 1275 0 1275 475 
L 1275 2225 
Q 1000 1500 525 775 
Q 400 1075 200 1325 
Q 325 1425 562 1800 
Q 800 2175 950 2587 
Q 1100 3000 1200 3425 
Q 800 3425 375 3400 
L 375 3850 
Q 800 3825 1275 3825 
L 1275 4450 
Q 1275 4825 1250 5175 
L 1750 5175 
Q 1725 4875 1725 4450 
L 1725 3825 
Q 2050 3825 2425 3850 
L 2425 3400 
Q 2050 3425 1725 3425 
L 1725 2500 
Q 1925 2600 2150 2725 
z
M 3450 2475 
Q 3700 1525 4225 1025 
Q 4750 1650 5000 2475 
L 3450 2475 
z
" transform="scale(0.015625)"/>
      </defs>
      <use xlink:href="#SimHei-7d2f"/>
      <use xlink:href="#SimHei-8ba1" x="100"/>
      <use xlink:href="#SimHei-526a" x="200"/>
      <use xlink:href="#SimHei-679d" x="300"/>
      <use xlink:href="#SimHei-8282" x="400"/>
      <use xlink:href="#SimHei-70b9" x="500"/>
      <use xlink:href="#SimHei-6570" x="600"/>
     </g>
    </g>
   </g>
  </g>
 </g>
 <defs>
  <clipPath id="pef843e9d78">
   <rect x="108" y="51.84" width="669.6" height="332.64"/>
  </clipPath>
 </defs>
</svg>
