<?xml version="1.0" encoding="utf-8" standalone="no"?>
<!DOCTYPE svg PUBLIC "-//W3C//DTD SVG 1.1//EN"
  "http://www.w3.org/Graphics/SVG/1.1/DTD/svg11.dtd">
<svg xmlns:xlink="http://www.w3.org/1999/xlink" width="720pt" height="432pt" viewBox="0 0 720 432" xmlns="http://www.w3.org/2000/svg" version="1.1">
 <metadata>
  <rdf:RDF xmlns:dc="http://purl.org/dc/elements/1.1/" xmlns:cc="http://creativecommons.org/ns#" xmlns:rdf="http://www.w3.org/1999/02/22-rdf-syntax-ns#">
   <cc:Work>
    <dc:type rdf:resource="http://purl.org/dc/dcmitype/StillImage"/>
    <dc:date>2024-03-31T21:37:32.088938</dc:date>
    <dc:format>image/svg+xml</dc:format>
    <dc:creator>
     <cc:Agent>
      <dc:title>Matplotlib v3.7.2, https://matplotlib.org/</dc:title>
     </cc:Agent>
    </dc:creator>
   </cc:Work>
  </rdf:RDF>
 </metadata>
 <defs>
  <style type="text/css">*{stroke-linejoin: round; stroke-linecap: butt}</style>
 </defs>
 <g id="figure_1">
  <g id="patch_1">
   <path d="M 0 432 
L 720 432 
L 720 0 
L 0 0 
L 0 432 
z
" style="fill: none"/>
  </g>
  <g id="axes_1">
   <g id="patch_2">
    <path d="M 90 384.48 
L 648 384.48 
L 648 51.84 
L 90 51.84 
L 90 384.48 
z
" style="fill: none"/>
   </g>
   <g id="matplotlib.axis_1">
    <g id="xtick_1">
     <g id="line2d_1">
      <defs>
       <path id="m7167b95d43" d="M 0 0 
L 0 -3.5 
" style="stroke: #000000; stroke-width: 0.8"/>
      </defs>
      <g>
       <use xlink:href="#m7167b95d43" x="100.87013" y="384.48" style="stroke: #000000; stroke-width: 0.8"/>
      </g>
     </g>
     <g id="text_1">
      <!-- 0 -->
      <g transform="translate(98.37013 394.855) scale(0.1 -0.1)">
       <defs>
        <path id="SimHei-30" d="M 225 2537 
Q 250 3200 412 3587 
Q 575 3975 875 4225 
Q 1175 4475 1612 4475 
Q 2050 4475 2375 4112 
Q 2700 3750 2800 3200 
Q 2900 2650 2862 1937 
Q 2825 1225 2612 775 
Q 2400 325 1975 150 
Q 1550 -25 1125 187 
Q 700 400 525 750 
Q 350 1100 275 1487 
Q 200 1875 225 2537 
z
M 750 2687 
Q 675 2000 800 1462 
Q 925 925 1212 700 
Q 1500 475 1800 612 
Q 2100 750 2237 1162 
Q 2375 1575 2375 2062 
Q 2375 2550 2337 2950 
Q 2300 3350 2112 3675 
Q 1925 4000 1612 4012 
Q 1300 4025 1062 3700 
Q 825 3375 750 2687 
z
" transform="scale(0.015625)"/>
       </defs>
       <use xlink:href="#SimHei-30"/>
      </g>
     </g>
    </g>
    <g id="xtick_2">
     <g id="line2d_2">
      <g>
       <use xlink:href="#m7167b95d43" x="173.337662" y="384.48" style="stroke: #000000; stroke-width: 0.8"/>
      </g>
     </g>
     <g id="text_2">
      <!-- 5 -->
      <g transform="translate(170.837662 394.855) scale(0.1 -0.1)">
       <defs>
        <path id="SimHei-35" d="M 550 1325 
Q 725 650 1150 575 
Q 1575 500 1837 662 
Q 2100 825 2212 1087 
Q 2325 1350 2312 1675 
Q 2300 2000 2137 2225 
Q 1975 2450 1725 2525 
Q 1475 2600 1162 2525 
Q 850 2450 650 2175 
L 225 2225 
Q 275 2375 700 4375 
L 2675 4375 
L 2675 3925 
L 1075 3925 
Q 950 3250 825 2850 
Q 1200 3025 1525 3012 
Q 1850 3000 2150 2862 
Q 2450 2725 2587 2487 
Q 2725 2250 2787 2012 
Q 2850 1775 2837 1500 
Q 2825 1225 2725 937 
Q 2625 650 2425 462 
Q 2225 275 1937 162 
Q 1650 50 1275 75 
Q 900 100 562 350 
Q 225 600 100 1200 
L 550 1325 
z
" transform="scale(0.015625)"/>
       </defs>
       <use xlink:href="#SimHei-35"/>
      </g>
     </g>
    </g>
    <g id="xtick_3">
     <g id="line2d_3">
      <g>
       <use xlink:href="#m7167b95d43" x="245.805195" y="384.48" style="stroke: #000000; stroke-width: 0.8"/>
      </g>
     </g>
     <g id="text_3">
      <!-- 10 -->
      <g transform="translate(240.805195 394.855) scale(0.1 -0.1)">
       <defs>
        <path id="SimHei-31" d="M 1400 3600 
Q 1075 3275 575 2975 
L 575 3450 
Q 1200 3875 1600 4450 
L 1900 4450 
L 1900 150 
L 1400 150 
L 1400 3600 
z
" transform="scale(0.015625)"/>
       </defs>
       <use xlink:href="#SimHei-31"/>
       <use xlink:href="#SimHei-30" x="50"/>
      </g>
     </g>
    </g>
    <g id="xtick_4">
     <g id="line2d_4">
      <g>
       <use xlink:href="#m7167b95d43" x="318.272727" y="384.48" style="stroke: #000000; stroke-width: 0.8"/>
      </g>
     </g>
     <g id="text_4">
      <!-- 15 -->
      <g transform="translate(313.272727 394.855) scale(0.1 -0.1)">
       <use xlink:href="#SimHei-31"/>
       <use xlink:href="#SimHei-35" x="50"/>
      </g>
     </g>
    </g>
    <g id="xtick_5">
     <g id="line2d_5">
      <g>
       <use xlink:href="#m7167b95d43" x="390.74026" y="384.48" style="stroke: #000000; stroke-width: 0.8"/>
      </g>
     </g>
     <g id="text_5">
      <!-- 20 -->
      <g transform="translate(385.74026 394.855) scale(0.1 -0.1)">
       <defs>
        <path id="SimHei-32" d="M 300 250 
Q 325 625 650 925 
Q 975 1225 1475 1862 
Q 1975 2500 2125 2850 
Q 2275 3200 2237 3450 
Q 2200 3700 2000 3862 
Q 1800 4025 1537 4000 
Q 1275 3975 1037 3800 
Q 800 3625 675 3275 
L 200 3350 
Q 400 3925 712 4187 
Q 1025 4450 1450 4475 
Q 1700 4500 1900 4462 
Q 2100 4425 2312 4287 
Q 2525 4150 2662 3875 
Q 2800 3600 2762 3212 
Q 2725 2825 2375 2287 
Q 2025 1750 1025 600 
L 2825 600 
L 2825 150 
L 300 150 
L 300 250 
z
" transform="scale(0.015625)"/>
       </defs>
       <use xlink:href="#SimHei-32"/>
       <use xlink:href="#SimHei-30" x="50"/>
      </g>
     </g>
    </g>
    <g id="xtick_6">
     <g id="line2d_6">
      <g>
       <use xlink:href="#m7167b95d43" x="463.207792" y="384.48" style="stroke: #000000; stroke-width: 0.8"/>
      </g>
     </g>
     <g id="text_6">
      <!-- 25 -->
      <g transform="translate(458.207792 394.855) scale(0.1 -0.1)">
       <use xlink:href="#SimHei-32"/>
       <use xlink:href="#SimHei-35" x="50"/>
      </g>
     </g>
    </g>
    <g id="xtick_7">
     <g id="line2d_7">
      <g>
       <use xlink:href="#m7167b95d43" x="535.675325" y="384.48" style="stroke: #000000; stroke-width: 0.8"/>
      </g>
     </g>
     <g id="text_7">
      <!-- 30 -->
      <g transform="translate(530.675325 394.855) scale(0.1 -0.1)">
       <defs>
        <path id="SimHei-33" d="M 250 1225 
L 700 1300 
Q 800 975 1025 762 
Q 1250 550 1587 562 
Q 1925 575 2125 837 
Q 2325 1100 2300 1437 
Q 2275 1775 2037 1962 
Q 1800 2150 1275 2225 
L 1275 2550 
Q 1800 2600 2037 2825 
Q 2275 3050 2250 3412 
Q 2225 3775 1925 3937 
Q 1625 4100 1287 3975 
Q 950 3850 750 3275 
L 300 3350 
Q 450 3800 712 4100 
Q 975 4400 1425 4450 
Q 1875 4500 2212 4337 
Q 2550 4175 2687 3837 
Q 2825 3500 2725 3100 
Q 2625 2700 2150 2400 
Q 2500 2250 2687 1950 
Q 2875 1650 2812 1162 
Q 2750 675 2375 375 
Q 2000 75 1525 87 
Q 1050 100 700 387 
Q 350 675 250 1225 
z
" transform="scale(0.015625)"/>
       </defs>
       <use xlink:href="#SimHei-33"/>
       <use xlink:href="#SimHei-30" x="50"/>
      </g>
     </g>
    </g>
    <g id="xtick_8">
     <g id="line2d_8">
      <g>
       <use xlink:href="#m7167b95d43" x="608.142857" y="384.48" style="stroke: #000000; stroke-width: 0.8"/>
      </g>
     </g>
     <g id="text_8">
      <!-- 35 -->
      <g transform="translate(603.142857 394.855) scale(0.1 -0.1)">
       <use xlink:href="#SimHei-33"/>
       <use xlink:href="#SimHei-35" x="50"/>
      </g>
     </g>
    </g>
    <g id="text_9">
     <!-- Max方游戏步数/步 -->
     <g transform="translate(321 409.526875) scale(0.12 -0.12)">
      <defs>
       <path id="KaiTi-4d" d="M 2925 125 
L 2425 125 
L 2425 3175 
L 2375 3175 
L 1775 125 
L 1375 125 
L 775 3175 
L 725 3175 
L 725 125 
L 225 125 
L 225 4400 
L 1000 4400 
L 1550 1575 
L 1600 1575 
L 2150 4400 
L 2925 4400 
L 2925 125 
z
" transform="scale(0.015625)"/>
       <path id="KaiTi-61" d="M 2875 125 
L 2275 125 
Q 2225 175 2200 262 
Q 2175 350 2175 475 
Q 2000 275 1750 175 
Q 1500 75 1225 75 
Q 825 75 550 275 
Q 275 475 275 850 
Q 275 1225 525 1450 
Q 775 1675 1300 1750 
Q 1650 1800 1912 1875 
Q 2175 1950 2175 2075 
Q 2175 2225 2062 2375 
Q 1950 2525 1575 2525 
Q 1275 2525 1137 2412 
Q 1000 2300 950 2100 
L 400 2100 
Q 450 2500 762 2737 
Q 1075 2975 1575 2975 
Q 2125 2975 2400 2725 
Q 2675 2475 2675 2025 
L 2675 650 
Q 2675 500 2725 375 
Q 2775 250 2875 125 
z
M 2175 1050 
L 2175 1550 
Q 2025 1500 1887 1462 
Q 1750 1425 1425 1375 
Q 1050 1325 937 1200 
Q 825 1075 825 900 
Q 825 750 937 637 
Q 1050 525 1275 525 
Q 1500 525 1762 650 
Q 2025 775 2175 1050 
z
" transform="scale(0.015625)"/>
       <path id="KaiTi-78" d="M 2875 125 
L 2275 125 
L 1550 1200 
L 825 125 
L 225 125 
L 1250 1550 
L 300 2925 
L 900 2925 
L 1550 1875 
L 2200 2925 
L 2800 2925 
L 1850 1550 
L 2875 125 
z
" transform="scale(0.015625)"/>
       <path id="KaiTi-65b9" d="M 3325 3275 
Q 3650 3100 3562 2987 
Q 3475 2875 3350 2575 
Q 3500 2525 3737 2550 
Q 3975 2575 4125 2637 
Q 4275 2700 4462 2625 
Q 4650 2550 4825 2437 
Q 5000 2325 4887 2200 
Q 4775 2075 4637 1562 
Q 4500 1050 4375 750 
Q 4250 450 4062 200 
Q 3875 -50 3637 -137 
Q 3400 -225 3362 12 
Q 3325 250 2987 550 
Q 2650 850 3050 662 
Q 3450 475 3600 475 
Q 3775 475 3912 737 
Q 4050 1000 4187 1437 
Q 4325 1875 4325 2075 
Q 4325 2275 4212 2337 
Q 4100 2400 3950 2387 
Q 3800 2375 3625 2375 
Q 3475 2375 3275 2450 
Q 3050 1925 2737 1500 
Q 2425 1075 2000 712 
Q 1575 350 1037 112 
Q 500 -125 975 225 
Q 1450 575 1787 912 
Q 2125 1250 2437 1687 
Q 2750 2125 2912 2550 
Q 3075 2975 3100 3250 
Q 2400 3175 1937 3075 
Q 1475 2975 1325 2962 
Q 1175 2950 887 3100 
Q 600 3250 925 3250 
Q 1275 3250 1762 3325 
Q 2250 3400 3437 3562 
Q 4625 3725 5112 3837 
Q 5600 3950 5900 3750 
Q 6200 3550 5837 3512 
Q 5475 3475 4850 3450 
Q 4225 3425 3325 3275 
z
M 3050 4625 
Q 2850 4875 3012 4887 
Q 3175 4900 3387 4862 
Q 3600 4825 3762 4687 
Q 3925 4550 3887 4287 
Q 3850 4025 3562 4212 
Q 3275 4400 3050 4625 
z
" transform="scale(0.015625)"/>
       <path id="KaiTi-6e38" d="M 4800 1950 
Q 5200 2050 5550 2112 
Q 5900 2175 6075 1987 
Q 6250 1800 5925 1787 
Q 5600 1775 4875 1725 
Q 4950 1275 4887 612 
Q 4825 -50 4537 -325 
Q 4250 -600 4150 -400 
Q 4050 -200 3775 -25 
Q 3500 150 3712 112 
Q 3925 75 4175 62 
Q 4425 50 4512 537 
Q 4600 1025 4525 1650 
Q 3950 1550 3762 1525 
Q 3575 1500 3362 1637 
Q 3150 1775 3450 1775 
Q 3775 1775 4450 1875 
Q 4400 2175 4200 2312 
Q 4000 2450 4525 2400 
Q 4775 2825 4762 2900 
Q 4750 2975 4425 2887 
Q 4100 2800 3962 2750 
Q 3825 2700 3587 2837 
Q 3350 2975 3650 2975 
Q 3975 2975 4337 3062 
Q 4700 3150 4825 3237 
Q 4950 3325 5262 3125 
Q 5575 2925 5325 2850 
Q 5075 2775 4625 2300 
Q 4750 2175 4800 1950 
z
M 2600 3050 
Q 2800 2850 2762 2787 
Q 2725 2725 2675 2575 
Q 2850 2550 2975 2550 
Q 3100 2550 3237 2450 
Q 3375 2350 3275 2200 
Q 3175 2050 3150 1762 
Q 3125 1475 3000 1025 
Q 2875 575 2612 337 
Q 2350 100 2300 337 
Q 2250 575 2125 775 
Q 2000 975 2062 950 
Q 2125 925 2312 825 
Q 2500 725 2637 1025 
Q 2775 1325 2837 1737 
Q 2900 2150 2850 2287 
Q 2800 2425 2625 2475 
Q 2500 2125 2137 1600 
Q 1775 1075 1437 900 
Q 1100 725 1262 900 
Q 1425 1075 1650 1375 
Q 1875 1675 2125 2112 
Q 2375 2550 2375 3000 
Q 2200 3000 2037 2975 
Q 1875 2950 1712 3037 
Q 1550 3125 1850 3187 
Q 2150 3250 2550 3362 
Q 2950 3475 3162 3537 
Q 3375 3600 3512 3450 
Q 3650 3300 3362 3225 
Q 3075 3150 2600 3050 
z
M 4175 3900 
Q 4875 4050 5137 4175 
Q 5400 4300 5587 4162 
Q 5775 4025 5450 3912 
Q 5125 3800 4775 3750 
Q 4425 3700 4125 3800 
Q 3875 3475 3675 3375 
Q 3475 3275 3675 3575 
Q 3875 3875 4012 4325 
Q 4150 4775 4100 4937 
Q 4050 5100 4200 5062 
Q 4350 5025 4525 4925 
Q 4700 4825 4612 4737 
Q 4525 4650 4425 4425 
Q 4325 4200 4175 3900 
z
M 1450 1925 
Q 1100 1125 987 612 
Q 875 100 662 575 
Q 450 1050 575 1087 
Q 700 1125 887 1375 
Q 1075 1625 1437 2175 
Q 1800 2725 1450 1925 
z
M 1400 4025 
Q 1250 4200 1137 4387 
Q 1025 4575 1275 4525 
Q 1525 4475 1700 4362 
Q 1875 4250 1825 4012 
Q 1775 3775 1662 3825 
Q 1550 3875 1400 4025 
z
M 2625 4275 
Q 2450 4500 2437 4575 
Q 2425 4650 2712 4612 
Q 3000 4575 3100 4425 
Q 3200 4275 3162 4100 
Q 3125 3925 2975 3987 
Q 2825 4050 2625 4275 
z
M 725 2900 
Q 575 3125 512 3300 
Q 450 3475 825 3325 
Q 1200 3175 1175 2887 
Q 1150 2600 1012 2650 
Q 875 2700 725 2900 
z
" transform="scale(0.015625)"/>
       <path id="KaiTi-620f" d="M 3825 3150 
Q 4150 3275 4312 3350 
Q 4475 3425 4625 3337 
Q 4775 3250 4600 3137 
Q 4425 3025 3900 2825 
Q 3925 2500 4100 1950 
Q 4275 2125 4412 2312 
Q 4550 2500 4575 2687 
Q 4600 2875 4700 2837 
Q 4800 2800 4962 2662 
Q 5125 2525 4975 2425 
Q 4825 2325 4687 2125 
Q 4550 1925 4250 1600 
Q 4575 875 5012 512 
Q 5450 150 5537 312 
Q 5625 475 5737 825 
Q 5850 1175 5837 637 
Q 5825 100 5925 -212 
Q 6025 -525 5350 -225 
Q 4675 75 4000 1375 
Q 3350 800 2812 650 
Q 2275 500 2637 700 
Q 3000 900 3337 1187 
Q 3675 1475 3875 1675 
Q 3725 2175 3625 2725 
Q 3400 2675 3237 2612 
Q 3075 2550 2850 2625 
Q 2625 2700 2925 2800 
Q 3225 2900 3550 3025 
Q 3450 3525 3362 4062 
Q 3275 4600 3162 4762 
Q 3050 4925 3175 4937 
Q 3300 4950 3537 4850 
Q 3775 4750 3712 4562 
Q 3650 4375 3825 3150 
z
M 2050 2050 
Q 2550 1725 2637 1562 
Q 2725 1400 2662 1175 
Q 2600 950 2387 1212 
Q 2175 1475 1900 1700 
Q 1625 1275 1337 1037 
Q 1050 800 737 675 
Q 425 550 662 737 
Q 900 925 1175 1250 
Q 1450 1575 1675 1925 
Q 1125 2400 1025 2525 
Q 925 2650 1150 2562 
Q 1375 2475 1800 2250 
Q 1925 2575 2000 2987 
Q 2075 3400 1925 3362 
Q 1775 3325 1425 3187 
Q 1075 3050 862 3162 
Q 650 3275 912 3312 
Q 1175 3350 1562 3487 
Q 1950 3625 2025 3700 
Q 2100 3775 2262 3725 
Q 2425 3675 2525 3587 
Q 2625 3500 2537 3412 
Q 2450 3325 2350 2937 
Q 2250 2550 2050 2050 
z
M 4500 4475 
Q 4750 4475 4912 4337 
Q 5075 4200 4987 4025 
Q 4900 3850 4700 3987 
Q 4500 4125 4300 4275 
Q 4100 4425 4187 4450 
Q 4275 4475 4500 4475 
z
" transform="scale(0.015625)"/>
       <path id="KaiTi-6b65" d="M 3575 4250 
Q 3800 4275 4062 4362 
Q 4325 4450 4525 4337 
Q 4725 4225 4362 4125 
Q 4000 4025 3575 4050 
Q 3550 3450 3550 3175 
Q 4700 3325 4962 3375 
Q 5225 3425 5375 3325 
Q 5525 3225 5575 3112 
Q 5625 3000 5300 3025 
Q 4975 3050 4375 3000 
Q 3775 2950 3175 2875 
Q 3350 2800 3412 2725 
Q 3475 2650 3437 2512 
Q 3400 2375 3400 1975 
Q 3400 1600 3375 1350 
Q 3350 1100 3300 1000 
Q 3250 900 3112 1087 
Q 2975 1275 3037 1487 
Q 3100 1700 3100 2075 
Q 3100 2450 3075 2600 
Q 3050 2750 3000 2850 
Q 2300 2750 2012 2700 
Q 1725 2650 1500 2587 
Q 1275 2525 1037 2687 
Q 800 2850 1025 2850 
Q 1275 2850 2150 2975 
Q 2100 3675 1987 3850 
Q 1875 4025 2025 4012 
Q 2175 4000 2337 3937 
Q 2500 3875 2462 3712 
Q 2425 3550 2425 3000 
Q 2800 3050 3250 3125 
Q 3250 4075 3212 4487 
Q 3175 4900 3075 5050 
Q 2975 5200 3125 5187 
Q 3275 5175 3500 5087 
Q 3725 5000 3650 4887 
Q 3575 4775 3575 4250 
z
M 4900 2575 
Q 5075 2400 4962 2325 
Q 4850 2250 4537 1712 
Q 4225 1175 3750 700 
Q 3275 225 2587 -112 
Q 1900 -450 1200 -537 
Q 500 -625 1237 -400 
Q 1975 -175 2612 212 
Q 3250 600 3662 1100 
Q 4075 1600 4300 2037 
Q 4525 2475 4500 2650 
Q 4475 2825 4600 2787 
Q 4725 2750 4900 2575 
z
M 2125 1925 
Q 2250 2175 2312 2187 
Q 2375 2200 2362 1825 
Q 2350 1450 2075 1062 
Q 1800 675 1737 975 
Q 1675 1275 1850 1487 
Q 2025 1700 2125 1925 
z
" transform="scale(0.015625)"/>
       <path id="KaiTi-6570" d="M 4100 1300 
Q 4275 1625 4312 1987 
Q 4350 2350 4325 2725 
Q 4125 2700 3875 2725 
Q 3575 2375 3325 2225 
Q 3075 2075 3387 2462 
Q 3700 2850 3912 3487 
Q 4125 4125 4100 4275 
Q 4075 4425 4062 4537 
Q 4050 4650 4362 4487 
Q 4675 4325 4562 4175 
Q 4450 4025 4337 3712 
Q 4225 3400 3925 2850 
Q 4525 2975 4912 3162 
Q 5300 3350 5512 3212 
Q 5725 3075 5450 2975 
Q 5175 2875 4425 2725 
Q 4800 2600 4712 2350 
Q 4625 2100 4562 1775 
Q 4500 1450 4325 1025 
Q 4550 750 4837 512 
Q 5125 275 5437 150 
Q 5750 25 5975 -62 
Q 6200 -150 5737 -187 
Q 5275 -225 5037 -187 
Q 4800 -150 4687 25 
Q 4575 200 4125 800 
Q 3900 550 3675 400 
Q 3450 250 3175 175 
Q 2900 100 3162 262 
Q 3425 425 3625 625 
Q 3825 825 3975 1050 
Q 3800 1350 3637 1562 
Q 3475 1775 3362 1900 
Q 3250 2025 3387 2037 
Q 3525 2050 3612 1950 
Q 3700 1850 4100 1300 
z
M 2575 1600 
Q 2625 1750 2612 1862 
Q 2600 1975 2750 1875 
Q 2900 1775 2962 1700 
Q 3025 1625 2962 1500 
Q 2900 1375 2800 1112 
Q 2700 850 2525 550 
Q 2700 425 2837 300 
Q 2975 175 2925 -62 
Q 2875 -300 2712 -100 
Q 2550 100 2325 275 
Q 1925 -25 1587 -150 
Q 1250 -275 912 -300 
Q 575 -325 850 -212 
Q 1125 -100 1450 50 
Q 1775 200 2050 475 
Q 1750 700 1637 750 
Q 1525 800 1587 900 
Q 1650 1000 1700 1250 
Q 1050 1175 862 1062 
Q 675 950 425 1150 
Q 175 1350 500 1337 
Q 825 1325 1775 1475 
Q 1850 1800 1800 1987 
Q 1750 2175 2025 2037 
Q 2300 1900 2250 1825 
Q 2200 1750 2075 1525 
L 2575 1600 
z
M 2875 3425 
Q 3125 3475 3225 3387 
Q 3325 3300 3100 3225 
Q 2875 3150 2350 3075 
L 2350 2875 
Q 2775 2825 2975 2687 
Q 3175 2550 3112 2350 
Q 3050 2150 2812 2412 
Q 2575 2675 2350 2800 
Q 2350 2500 2300 2287 
Q 2250 2075 2137 2262 
Q 2025 2450 2062 2600 
Q 2100 2750 2075 2950 
Q 1475 2175 975 1937 
Q 475 1700 762 1925 
Q 1050 2150 1362 2475 
Q 1675 2800 1800 3050 
Q 1450 2925 1312 2900 
Q 1175 2875 975 3012 
Q 775 3150 1050 3137 
Q 1325 3125 2100 3275 
L 2100 4175 
Q 2100 4700 2012 4837 
Q 1925 4975 1987 4987 
Q 2050 5000 2300 4887 
Q 2550 4775 2462 4625 
Q 2375 4475 2375 3325 
L 2875 3425 
z
M 2250 675 
Q 2450 925 2575 1425 
L 2000 1325 
Q 1825 925 1837 875 
Q 1850 825 1937 800 
Q 2025 775 2250 675 
z
M 3250 4275 
Q 3450 4150 3300 4087 
Q 3150 4025 2762 3737 
Q 2375 3450 2600 3737 
Q 2825 4025 2900 4237 
Q 2975 4450 3025 4425 
Q 3075 4400 3250 4275 
z
M 1550 3600 
Q 1350 3875 1287 4000 
Q 1225 4125 1537 4050 
Q 1850 3975 1812 3662 
Q 1775 3350 1550 3600 
z
" transform="scale(0.015625)"/>
       <path id="KaiTi-2f" d="M 3000 4550 
L 350 -175 
L 100 -25 
L 2750 4700 
L 3000 4550 
z
" transform="scale(0.015625)"/>
      </defs>
      <use xlink:href="#KaiTi-4d"/>
      <use xlink:href="#KaiTi-61" x="50"/>
      <use xlink:href="#KaiTi-78" x="100"/>
      <use xlink:href="#KaiTi-65b9" x="150"/>
      <use xlink:href="#KaiTi-6e38" x="250"/>
      <use xlink:href="#KaiTi-620f" x="350"/>
      <use xlink:href="#KaiTi-6b65" x="450"/>
      <use xlink:href="#KaiTi-6570" x="550"/>
      <use xlink:href="#KaiTi-2f" x="650"/>
      <use xlink:href="#KaiTi-6b65" x="700"/>
     </g>
    </g>
   </g>
   <g id="matplotlib.axis_2">
    <g id="ytick_1">
     <g id="line2d_9">
      <defs>
       <path id="m67f9c6b838" d="M 0 0 
L 3.5 0 
" style="stroke: #000000; stroke-width: 0.8"/>
      </defs>
      <g>
       <use xlink:href="#m67f9c6b838" x="90" y="369.411289" style="stroke: #000000; stroke-width: 0.8"/>
      </g>
     </g>
     <g id="text_10">
      <!-- 0 -->
      <g transform="translate(81.5 372.848789) scale(0.1 -0.1)">
       <use xlink:href="#SimHei-30"/>
      </g>
     </g>
    </g>
    <g id="ytick_2">
     <g id="line2d_10">
      <g>
       <use xlink:href="#m67f9c6b838" x="90" y="327.371117" style="stroke: #000000; stroke-width: 0.8"/>
      </g>
     </g>
     <g id="text_11">
      <!-- 50000 -->
      <g transform="translate(61.5 330.808617) scale(0.1 -0.1)">
       <use xlink:href="#SimHei-35"/>
       <use xlink:href="#SimHei-30" x="50"/>
       <use xlink:href="#SimHei-30" x="100"/>
       <use xlink:href="#SimHei-30" x="150"/>
       <use xlink:href="#SimHei-30" x="200"/>
      </g>
     </g>
    </g>
    <g id="ytick_3">
     <g id="line2d_11">
      <g>
       <use xlink:href="#m67f9c6b838" x="90" y="285.330946" style="stroke: #000000; stroke-width: 0.8"/>
      </g>
     </g>
     <g id="text_12">
      <!-- 100000 -->
      <g transform="translate(56.5 288.768446) scale(0.1 -0.1)">
       <use xlink:href="#SimHei-31"/>
       <use xlink:href="#SimHei-30" x="50"/>
       <use xlink:href="#SimHei-30" x="100"/>
       <use xlink:href="#SimHei-30" x="150"/>
       <use xlink:href="#SimHei-30" x="200"/>
       <use xlink:href="#SimHei-30" x="250"/>
      </g>
     </g>
    </g>
    <g id="ytick_4">
     <g id="line2d_12">
      <g>
       <use xlink:href="#m67f9c6b838" x="90" y="243.290774" style="stroke: #000000; stroke-width: 0.8"/>
      </g>
     </g>
     <g id="text_13">
      <!-- 150000 -->
      <g transform="translate(56.5 246.728274) scale(0.1 -0.1)">
       <use xlink:href="#SimHei-31"/>
       <use xlink:href="#SimHei-35" x="50"/>
       <use xlink:href="#SimHei-30" x="100"/>
       <use xlink:href="#SimHei-30" x="150"/>
       <use xlink:href="#SimHei-30" x="200"/>
       <use xlink:href="#SimHei-30" x="250"/>
      </g>
     </g>
    </g>
    <g id="ytick_5">
     <g id="line2d_13">
      <g>
       <use xlink:href="#m67f9c6b838" x="90" y="201.250602" style="stroke: #000000; stroke-width: 0.8"/>
      </g>
     </g>
     <g id="text_14">
      <!-- 200000 -->
      <g transform="translate(56.5 204.688102) scale(0.1 -0.1)">
       <use xlink:href="#SimHei-32"/>
       <use xlink:href="#SimHei-30" x="50"/>
       <use xlink:href="#SimHei-30" x="100"/>
       <use xlink:href="#SimHei-30" x="150"/>
       <use xlink:href="#SimHei-30" x="200"/>
       <use xlink:href="#SimHei-30" x="250"/>
      </g>
     </g>
    </g>
    <g id="ytick_6">
     <g id="line2d_14">
      <g>
       <use xlink:href="#m67f9c6b838" x="90" y="159.21043" style="stroke: #000000; stroke-width: 0.8"/>
      </g>
     </g>
     <g id="text_15">
      <!-- 250000 -->
      <g transform="translate(56.5 162.64793) scale(0.1 -0.1)">
       <use xlink:href="#SimHei-32"/>
       <use xlink:href="#SimHei-35" x="50"/>
       <use xlink:href="#SimHei-30" x="100"/>
       <use xlink:href="#SimHei-30" x="150"/>
       <use xlink:href="#SimHei-30" x="200"/>
       <use xlink:href="#SimHei-30" x="250"/>
      </g>
     </g>
    </g>
    <g id="ytick_7">
     <g id="line2d_15">
      <g>
       <use xlink:href="#m67f9c6b838" x="90" y="117.170259" style="stroke: #000000; stroke-width: 0.8"/>
      </g>
     </g>
     <g id="text_16">
      <!-- 300000 -->
      <g transform="translate(56.5 120.607759) scale(0.1 -0.1)">
       <use xlink:href="#SimHei-33"/>
       <use xlink:href="#SimHei-30" x="50"/>
       <use xlink:href="#SimHei-30" x="100"/>
       <use xlink:href="#SimHei-30" x="150"/>
       <use xlink:href="#SimHei-30" x="200"/>
       <use xlink:href="#SimHei-30" x="250"/>
      </g>
     </g>
    </g>
    <g id="ytick_8">
     <g id="line2d_16">
      <g>
       <use xlink:href="#m67f9c6b838" x="90" y="75.130087" style="stroke: #000000; stroke-width: 0.8"/>
      </g>
     </g>
     <g id="text_17">
      <!-- 350000 -->
      <g transform="translate(56.5 78.567587) scale(0.1 -0.1)">
       <use xlink:href="#SimHei-33"/>
       <use xlink:href="#SimHei-35" x="50"/>
       <use xlink:href="#SimHei-30" x="100"/>
       <use xlink:href="#SimHei-30" x="150"/>
       <use xlink:href="#SimHei-30" x="200"/>
       <use xlink:href="#SimHei-30" x="250"/>
      </g>
     </g>
    </g>
    <g id="text_18">
     <!-- 数量/(个或条) -->
     <g transform="translate(51 257.16) rotate(-90) scale(0.12 -0.12)">
      <defs>
       <path id="KaiTi-91cf" d="M 3175 825 
L 3775 925 
Q 4075 975 4225 837 
Q 4375 700 4037 650 
Q 3700 600 3175 550 
L 3150 75 
Q 4425 175 4712 200 
Q 5000 225 5225 87 
Q 5450 -50 5437 -137 
Q 5425 -225 4962 -187 
Q 4500 -150 4025 -162 
Q 3550 -175 3225 -200 
Q 2900 -225 2325 -287 
Q 1750 -350 1512 -375 
Q 1275 -400 1050 -262 
Q 825 -125 1075 -125 
Q 1325 -125 1800 -87 
Q 2275 -50 2900 50 
L 2900 525 
Q 2425 475 2250 450 
Q 2075 425 1887 562 
Q 1700 700 2000 712 
Q 2300 725 2900 800 
L 2900 1225 
Q 2625 1200 2300 1150 
Q 2175 950 2087 1112 
Q 2000 1275 1900 1675 
Q 1800 2075 1650 2275 
Q 1500 2475 1650 2475 
Q 1825 2475 1962 2437 
Q 2100 2400 2887 2487 
Q 3675 2575 3837 2675 
Q 4000 2775 4237 2650 
Q 4475 2525 4600 2412 
Q 4725 2300 4587 2162 
Q 4450 2025 4300 1737 
Q 4150 1450 4037 1275 
Q 3925 1100 3850 1325 
Q 3550 1275 3200 1225 
L 3175 825 
z
M 2550 3450 
Q 2450 3200 2312 3512 
Q 2175 3825 2050 4137 
Q 1925 4450 1825 4600 
Q 1725 4750 1825 4762 
Q 1925 4775 2125 4737 
Q 2325 4700 3037 4800 
Q 3750 4900 3875 4975 
Q 4000 5050 4187 4975 
Q 4375 4900 4562 4775 
Q 4750 4650 4625 4537 
Q 4500 4425 4362 4187 
Q 4225 3950 4025 3637 
Q 3825 3325 3750 3575 
L 2550 3450 
z
M 475 2700 
Q 225 2875 475 2887 
Q 725 2900 1137 2925 
Q 1550 2950 2287 3025 
Q 3025 3100 3825 3162 
Q 4625 3225 5037 3300 
Q 5450 3375 5675 3262 
Q 5900 3150 5925 3050 
Q 5950 2950 5525 2975 
Q 5100 3000 4562 2975 
Q 4025 2950 3387 2887 
Q 2750 2825 2150 2762 
Q 1550 2700 1150 2612 
Q 750 2525 475 2700 
z
M 2400 4175 
Q 2800 4225 3062 4325 
Q 3325 4425 3475 4300 
Q 3625 4175 3212 4100 
Q 2800 4025 2450 4000 
L 2525 3600 
Q 3375 3750 3750 3775 
Q 3875 4175 3900 4412 
Q 3925 4650 3875 4700 
Q 3825 4750 3325 4700 
Q 2825 4650 2325 4550 
L 2400 4175 
z
M 3200 2050 
Q 3325 2075 3475 2100 
Q 3625 2125 3687 2012 
Q 3750 1900 3562 1850 
Q 3375 1800 3200 1800 
L 3200 1450 
Q 3375 1475 3500 1487 
Q 3625 1500 3875 1500 
Q 4025 2050 4025 2225 
Q 4025 2400 3950 2437 
Q 3875 2475 3125 2375 
Q 3275 2250 3200 2050 
z
M 2900 1750 
Q 2550 1700 2412 1787 
Q 2275 1875 2425 1900 
Q 2575 1925 2850 2000 
Q 2850 2150 2825 2325 
L 2125 2250 
Q 2175 1800 2300 1350 
L 2900 1425 
L 2900 1750 
z
" transform="scale(0.015625)"/>
       <path id="KaiTi-28" d="M 2975 -200 
L 2700 -475 
Q 2075 125 1762 775 
Q 1450 1425 1450 2250 
Q 1450 3075 1762 3725 
Q 2075 4375 2700 5000 
L 2975 4725 
Q 2400 4175 2112 3587 
Q 1825 3000 1825 2250 
Q 1825 1500 2112 912 
Q 2400 325 2975 -200 
z
" transform="scale(0.015625)"/>
       <path id="KaiTi-4e2a" d="M 3175 4425 
Q 4050 3500 4400 3200 
Q 4750 2900 5125 2687 
Q 5500 2475 5950 2337 
Q 6400 2200 6037 2137 
Q 5675 2075 5225 2100 
Q 4775 2125 4600 2350 
Q 4425 2575 4075 3037 
Q 3725 3500 3075 4275 
Q 2750 3675 2437 3237 
Q 2125 2800 1675 2325 
Q 1225 1850 675 1575 
Q 125 1300 587 1675 
Q 1050 2050 1475 2537 
Q 1900 3025 2200 3487 
Q 2500 3950 2650 4362 
Q 2800 4775 2737 4975 
Q 2675 5175 2887 5100 
Q 3100 5025 3275 4887 
Q 3450 4750 3362 4662 
Q 3275 4575 3175 4425 
z
M 3225 2875 
Q 3425 2800 3337 2650 
Q 3250 2500 3275 1275 
Q 3300 50 3212 -350 
Q 3125 -750 2962 -437 
Q 2800 -125 2837 62 
Q 2875 250 2925 850 
Q 2975 1450 2912 2075 
Q 2850 2700 2712 2862 
Q 2575 3025 2812 3000 
Q 3050 2975 3225 2875 
z
" transform="scale(0.015625)"/>
       <path id="KaiTi-6216" d="M 3175 3900 
Q 3475 4025 3650 4075 
Q 3825 4125 3962 4000 
Q 4100 3875 3925 3800 
Q 3750 3725 3250 3625 
Q 3575 2500 3975 1725 
Q 4075 2000 4187 2400 
Q 4300 2800 4212 3000 
Q 4125 3200 4300 3137 
Q 4475 3075 4687 2962 
Q 4900 2850 4762 2712 
Q 4625 2575 4550 2300 
Q 4475 2025 4175 1400 
Q 4650 775 5037 475 
Q 5425 175 5500 337 
Q 5575 500 5675 825 
Q 5775 1150 5750 575 
Q 5725 0 5800 -237 
Q 5875 -475 5700 -475 
Q 5550 -475 5000 -12 
Q 4450 450 3975 1100 
Q 3800 850 3512 575 
Q 3225 300 2812 150 
Q 2400 0 2850 337 
Q 3300 675 3800 1400 
Q 3400 2075 2975 3550 
Q 2400 3400 2125 3337 
Q 1850 3275 1725 3275 
Q 1600 3275 1437 3375 
Q 1275 3475 1600 3525 
Q 1925 3575 2900 3825 
Q 2675 4650 2487 4862 
Q 2300 5075 2562 5050 
Q 2825 5025 2987 4975 
Q 3150 4925 3087 4787 
Q 3025 4650 3175 3900 
z
M 2800 2100 
Q 2950 1850 2762 1800 
Q 2575 1750 1800 1550 
Q 1725 1350 1650 1462 
Q 1575 1575 1450 1937 
Q 1325 2300 1212 2437 
Q 1100 2575 1212 2587 
Q 1325 2600 1487 2575 
Q 1650 2550 1850 2612 
Q 2050 2675 2225 2725 
Q 2400 2775 2500 2875 
Q 2600 2975 2725 2912 
Q 2850 2850 3012 2750 
Q 3175 2650 3075 2562 
Q 2975 2475 2800 2100 
z
M 2725 1150 
Q 3100 1225 2737 1062 
Q 2375 900 1825 700 
Q 1275 500 1125 362 
Q 975 225 875 300 
Q 775 375 612 562 
Q 450 750 687 725 
Q 925 700 1637 887 
Q 2350 1075 2725 1150 
z
M 1800 1750 
Q 2125 1850 2475 2025 
Q 2525 2350 2537 2500 
Q 2550 2650 2425 2600 
Q 2300 2550 1675 2425 
Q 1700 2200 1800 1750 
z
M 3950 4800 
Q 3775 5050 4075 4987 
Q 4375 4925 4487 4812 
Q 4600 4700 4550 4487 
Q 4500 4275 4312 4412 
Q 4125 4550 3950 4800 
z
" transform="scale(0.015625)"/>
       <path id="KaiTi-6761" d="M 2675 4400 
Q 3300 4475 3537 4612 
Q 3775 4750 4075 4600 
Q 4375 4450 4312 4362 
Q 4250 4275 4050 4087 
Q 3850 3900 3712 3725 
Q 3575 3550 3325 3325 
Q 3600 3150 3825 3037 
Q 4050 2925 4437 2787 
Q 4825 2650 5150 2575 
Q 5475 2500 5825 2475 
Q 6175 2450 5987 2375 
Q 5800 2300 5350 2225 
Q 4900 2150 4612 2225 
Q 4325 2300 3125 3100 
Q 2325 2400 1762 2175 
Q 1200 1950 787 1862 
Q 375 1775 737 1925 
Q 1100 2075 1700 2412 
Q 2300 2750 2850 3325 
Q 2475 3675 2175 3850 
Q 1925 3675 1712 3600 
Q 1500 3525 1475 3550 
Q 1450 3575 1675 3737 
Q 1900 3900 2187 4275 
Q 2475 4650 2537 4837 
Q 2600 5025 2587 5112 
Q 2575 5200 2837 5100 
Q 3100 5000 3112 4950 
Q 3125 4900 2675 4400 
z
M 3350 1800 
Q 3950 1850 4425 1912 
Q 4900 1975 5112 1787 
Q 5325 1600 4937 1612 
Q 4550 1625 3350 1550 
Q 3350 1050 3400 462 
Q 3450 -125 3225 -437 
Q 3000 -750 2900 -550 
Q 2800 -350 2462 -137 
Q 2125 75 2362 25 
Q 2600 -25 2800 -25 
Q 3025 -25 3037 487 
Q 3050 1000 3025 1525 
Q 2025 1400 1862 1337 
Q 1700 1275 1437 1437 
Q 1175 1600 1550 1600 
Q 1925 1600 3000 1750 
Q 3000 2150 2862 2350 
Q 2725 2550 2912 2512 
Q 3100 2475 3262 2425 
Q 3425 2375 3387 2275 
Q 3350 2175 3350 1800 
z
M 2300 3950 
Q 2475 3875 2637 3762 
Q 2800 3650 3050 3500 
Q 3425 3900 3550 4112 
Q 3675 4325 3575 4375 
Q 3275 4325 3037 4250 
Q 2800 4175 2625 4300 
Q 2450 4125 2300 3950 
z
M 4350 850 
Q 4675 750 4912 575 
Q 5150 400 5100 125 
Q 5050 -150 4812 37 
Q 4575 225 4225 575 
Q 3875 925 3962 950 
Q 4050 975 4350 850 
z
M 1625 600 
Q 1725 700 1887 925 
Q 2050 1150 2050 900 
Q 2050 675 1912 387 
Q 1775 100 1575 -37 
Q 1375 -175 1350 50 
Q 1325 275 1437 387 
Q 1550 500 1625 600 
z
" transform="scale(0.015625)"/>
       <path id="KaiTi-29" d="M 1675 2250 
Q 1675 1425 1362 775 
Q 1050 125 425 -475 
L 150 -200 
Q 725 325 1012 912 
Q 1300 1500 1300 2250 
Q 1300 3000 1012 3587 
Q 725 4175 150 4725 
L 425 5000 
Q 1050 4375 1362 3725 
Q 1675 3075 1675 2250 
z
" transform="scale(0.015625)"/>
      </defs>
      <use xlink:href="#KaiTi-6570"/>
      <use xlink:href="#KaiTi-91cf" x="100"/>
      <use xlink:href="#KaiTi-2f" x="200"/>
      <use xlink:href="#KaiTi-28" x="250"/>
      <use xlink:href="#KaiTi-4e2a" x="300"/>
      <use xlink:href="#KaiTi-6216" x="400"/>
      <use xlink:href="#KaiTi-6761" x="500"/>
      <use xlink:href="#KaiTi-29" x="600"/>
     </g>
    </g>
   </g>
   <g id="line2d_17">
    <path d="M 115.363636 349.296748 
L 118.756765 343.405999 
L 120.453329 340.791224 
L 122.149894 338.382153 
L 123.846458 336.167768 
L 127.239587 332.278974 
L 130.632715 329.036679 
L 134.025844 326.352723 
L 137.418972 324.138945 
L 140.812101 322.307183 
L 144.20523 320.769276 
L 156.08118 315.913675 
L 159.474308 314.019707 
L 162.867437 311.683868 
L 166.260566 309.01389 
L 173.046823 303.209466 
L 184.922773 292.992732 
L 188.315901 289.834298 
L 193.405594 284.727324 
L 201.888416 275.7233 
L 212.067802 264.813247 
L 217.157495 258.921045 
L 225.640316 248.618776 
L 229.033445 245.06779 
L 230.730009 243.557667 
L 232.426573 242.268641 
L 234.123138 241.190088 
L 235.819702 240.283007 
L 239.212831 238.825242 
L 245.999088 236.229171 
L 249.392216 234.557526 
L 259.571602 229.049117 
L 262.964731 227.650298 
L 266.35786 226.623547 
L 269.750988 225.946047 
L 273.144117 225.594637 
L 276.537245 225.542294 
L 285.020067 225.82048 
L 288.413196 225.590525 
L 290.10976 225.30628 
L 291.806324 224.893337 
L 295.199453 223.714758 
L 298.592581 222.125334 
L 301.98571 220.19636 
L 305.378839 217.999006 
L 310.468531 214.347115 
L 320.647917 206.546754 
L 325.73761 202.539919 
L 329.130739 199.640056 
L 332.523867 196.427458 
L 337.61356 191.018336 
L 341.006689 187.474495 
L 342.703253 185.864398 
L 344.399818 184.425809 
L 346.096382 183.206446 
L 347.792946 182.253449 
L 349.48951 181.57388 
L 351.186075 181.109428 
L 354.579203 180.568555 
L 357.972332 180.11618 
L 359.668896 179.762352 
L 361.365461 179.237656 
L 363.062025 178.487996 
L 366.455154 176.469702 
L 371.544846 173.185364 
L 373.241411 172.299912 
L 374.937975 171.634886 
L 376.634539 171.259489 
L 378.331104 171.204173 
L 380.027668 171.41955 
L 381.724232 171.846386 
L 385.117361 173.097497 
L 388.51049 174.483632 
L 390.207054 175.079247 
L 391.903618 175.534305 
L 393.600182 175.829772 
L 395.296747 175.96918 
L 396.993311 175.956386 
L 398.689875 175.795248 
L 400.38644 175.489627 
L 402.083004 175.043379 
L 403.779568 174.460363 
L 407.172697 172.908015 
L 412.26239 170.036282 
L 415.655518 168.2022 
L 417.352083 167.424008 
L 419.048647 166.78937 
L 420.745211 166.334185 
L 422.441776 166.059274 
L 424.13834 165.938457 
L 427.531469 166.051607 
L 430.924597 166.458635 
L 436.01429 167.154219 
L 439.407419 167.455598 
L 442.800547 167.56695 
L 446.193676 167.448985 
L 449.586804 167.063115 
L 459.76619 165.315966 
L 461.462755 165.202979 
L 463.159319 165.20987 
L 464.855883 165.353999 
L 468.249012 165.965164 
L 476.731833 167.987472 
L 480.124962 168.384474 
L 483.518091 168.36296 
L 486.911219 167.938511 
L 490.304348 167.127697 
L 493.697476 165.949943 
L 498.787169 163.759919 
L 502.180298 162.323489 
L 505.573427 161.15515 
L 507.269991 160.73797 
L 508.966555 160.450468 
L 512.359684 160.198733 
L 515.752812 160.257836 
L 525.932198 160.959134 
L 531.021891 161.403008 
L 534.41502 161.882152 
L 537.808148 162.591778 
L 541.201277 163.521989 
L 546.29097 165.182437 
L 554.773791 168.079415 
L 558.16692 169.072114 
L 561.560049 169.8562 
L 564.953177 170.355609 
L 568.346306 170.511956 
L 571.739434 170.321631 
L 575.132563 169.791601 
L 578.525692 168.928834 
L 581.91882 167.757435 
L 590.401642 164.544982 
L 593.79477 163.664418 
L 595.491335 163.402645 
L 597.187899 163.262425 
L 600.581028 163.316666 
L 603.974156 163.767189 
L 607.367285 164.554044 
L 610.760413 165.61728 
L 614.153542 166.896945 
L 619.243235 169.091106 
L 622.636364 170.649561 
L 622.636364 170.649561 
" clip-path="url(#ped6d9f5e8e)" style="fill: none; stroke: #008000; stroke-width: 0.6; stroke-linecap: square"/>
   </g>
   <g id="line2d_18">
    <path d="M 115.363636 369.208655 
L 117.060201 368.482945 
L 118.756765 367.586162 
L 120.453329 366.536671 
L 123.846458 364.053027 
L 127.239587 361.178935 
L 132.329279 356.457099 
L 139.115537 350.166019 
L 142.508665 347.353067 
L 145.901794 344.953329 
L 149.294922 342.98422 
L 152.688051 341.323247 
L 159.474308 338.406444 
L 167.95713 334.837966 
L 171.350258 333.59306 
L 174.743387 332.561664 
L 178.136516 331.755372 
L 183.226209 330.825845 
L 195.102159 328.999652 
L 198.495287 328.650996 
L 201.888416 328.519231 
L 205.281545 328.644058 
L 210.371237 328.842629 
L 212.067802 328.766543 
L 213.764366 328.558757 
L 215.46093 328.182932 
L 217.157495 327.602834 
L 218.854059 326.803714 
L 220.550623 325.818765 
L 223.943752 323.450107 
L 232.426573 317.051145 
L 235.819702 314.942037 
L 244.302524 310.018077 
L 247.695652 307.702511 
L 251.088781 305.025596 
L 254.481909 302.008234 
L 257.875038 298.674385 
L 261.268167 295.048672 
L 271.447552 283.663405 
L 274.840681 280.337945 
L 278.23381 277.52558 
L 281.626938 275.196849 
L 285.020067 273.279696 
L 288.413196 271.702062 
L 291.806324 270.392102 
L 296.896017 268.776369 
L 308.771967 265.528839 
L 312.165096 264.742393 
L 315.558224 264.202196 
L 318.951353 264.025629 
L 327.434175 264.305819 
L 329.130739 264.119247 
L 330.827303 263.7396 
L 332.523867 263.118792 
L 334.220432 262.220588 
L 335.916996 261.081908 
L 339.310125 258.342366 
L 344.399818 254.050391 
L 346.096382 252.830434 
L 347.792946 251.823219 
L 349.48951 251.044722 
L 352.882639 249.916199 
L 356.275768 248.893307 
L 357.972332 248.246849 
L 359.668896 247.41725 
L 361.365461 246.334661 
L 363.062025 244.939105 
L 364.758589 243.250651 
L 366.455154 241.328222 
L 369.848282 237.018145 
L 374.937975 230.277657 
L 378.331104 226.27148 
L 381.724232 222.910723 
L 383.420797 221.465645 
L 385.117361 220.172887 
L 386.813925 219.029037 
L 388.51049 218.030685 
L 390.207054 217.174419 
L 393.600182 215.846197 
L 402.083004 213.106513 
L 403.779568 212.347299 
L 405.476133 211.427002 
L 407.172697 210.323133 
L 410.565825 207.65322 
L 413.958954 204.549398 
L 424.13834 194.754789 
L 427.531469 191.796655 
L 430.924597 189.074248 
L 434.317726 186.621878 
L 439.407419 183.382516 
L 444.497112 180.122218 
L 447.89024 177.596133 
L 451.283369 174.581892 
L 454.676497 171.183956 
L 461.462755 164.214287 
L 464.855883 161.127609 
L 468.249012 158.498328 
L 471.64214 156.305623 
L 475.035269 154.522501 
L 478.428398 153.121674 
L 481.821526 152.022727 
L 488.607784 149.938562 
L 492.000912 148.535312 
L 495.394041 146.662489 
L 498.787169 144.397944 
L 503.876862 140.590685 
L 512.359684 134.201148 
L 517.449377 130.303074 
L 520.842505 127.498918 
L 524.235634 124.447491 
L 529.325327 119.508722 
L 541.201277 107.660612 
L 544.594406 104.52813 
L 547.987534 101.637215 
L 551.380663 99.057238 
L 554.773791 96.832355 
L 558.16692 94.970032 
L 561.560049 93.474843 
L 564.953177 92.351336 
L 568.346306 91.552361 
L 573.435999 90.499153 
L 576.829127 89.546355 
L 578.525692 88.905402 
L 580.222256 88.117387 
L 583.615385 86.139123 
L 587.008513 83.803982 
L 593.79477 78.930586 
L 597.187899 76.780005 
L 600.581028 74.885777 
L 603.974156 73.220943 
L 607.367285 71.758542 
L 612.456978 69.88553 
L 617.546671 68.316345 
L 622.636364 66.96 
L 622.636364 66.96 
" clip-path="url(#ped6d9f5e8e)" style="fill: none; stroke: #bfbf00; stroke-width: 2; stroke-linecap: square"/>
   </g>
   <g id="line2d_19">
    <path d="M 115.363636 349.386714 
L 118.756765 344.268412 
L 122.149894 339.474185 
L 125.543022 334.998295 
L 128.936151 330.835004 
L 132.329279 326.978576 
L 135.722408 323.423273 
L 139.115537 320.163358 
L 142.508665 317.193093 
L 145.901794 314.505438 
L 150.991487 310.894829 
L 164.564001 301.750341 
L 171.350258 296.811409 
L 179.83308 290.381635 
L 186.619337 284.939464 
L 191.70903 280.593282 
L 198.495287 274.481875 
L 206.978109 266.518614 
L 213.764366 259.831962 
L 218.854059 254.50534 
L 227.336881 245.503766 
L 230.730009 242.217231 
L 234.123138 239.278899 
L 237.516266 236.654866 
L 242.605959 233.107736 
L 252.785345 226.475174 
L 257.875038 223.395471 
L 261.268167 221.527478 
L 264.661295 219.848164 
L 268.054424 218.371757 
L 271.447552 217.110549 
L 274.840681 216.076834 
L 278.23381 215.265247 
L 285.020067 214.00013 
L 290.10976 213.013406 
L 293.502888 212.194458 
L 296.896017 211.218685 
L 300.289146 210.073802 
L 303.682274 208.747528 
L 307.075403 207.234198 
L 312.165096 204.666646 
L 317.254789 201.835151 
L 322.344482 198.82237 
L 327.434175 195.547555 
L 330.827303 193.142752 
L 334.220432 190.510175 
L 344.399818 182.21993 
L 347.792946 179.890733 
L 351.186075 177.976309 
L 356.275768 175.569022 
L 361.365461 173.200857 
L 366.455154 170.450702 
L 371.544846 167.71119 
L 374.937975 166.210746 
L 376.634539 165.630217 
L 378.331104 165.18205 
L 381.724232 164.620288 
L 385.117361 164.38435 
L 398.689875 164.013833 
L 402.083004 163.625971 
L 405.476133 163.012287 
L 408.869261 162.157702 
L 420.745211 158.845103 
L 424.13834 158.249278 
L 427.531469 157.843516 
L 432.621161 157.494957 
L 442.800547 157.191671 
L 447.89024 156.944406 
L 452.979933 156.481079 
L 459.76619 155.842808 
L 463.159319 155.703118 
L 466.552448 155.76964 
L 471.64214 156.146974 
L 480.124962 156.907497 
L 485.214655 157.099264 
L 488.607784 157.029769 
L 492.000912 156.758338 
L 495.394041 156.265741 
L 502.180298 154.918511 
L 507.269991 153.965092 
L 512.359684 153.323257 
L 517.449377 152.954368 
L 524.235634 152.74441 
L 529.325327 152.775974 
L 534.41502 153.034284 
L 539.504713 153.574978 
L 544.594406 154.382036 
L 549.684099 155.402784 
L 566.649742 159.074128 
L 570.04287 159.534718 
L 573.435999 159.82584 
L 576.829127 159.923204 
L 580.222256 159.803067 
L 583.615385 159.479423 
L 590.401642 158.529501 
L 595.491335 157.871341 
L 598.884463 157.595496 
L 602.277592 157.514907 
L 605.670721 157.683386 
L 609.063849 158.15474 
L 612.456978 158.98278 
L 615.850106 160.221314 
L 617.546671 161.011333 
L 619.243235 161.924153 
L 620.939799 162.966502 
L 622.636364 164.145106 
L 622.636364 164.145106 
" clip-path="url(#ped6d9f5e8e)" style="fill: none; stroke: #0000ff; stroke-width: 2; stroke-linecap: square"/>
   </g>
   <g id="line2d_20">
    <path d="M 115.363636 369.36 
L 117.060201 369.130326 
L 120.453329 368.317406 
L 123.846458 367.094332 
L 127.239587 365.534639 
L 130.632715 363.711857 
L 135.722408 360.645246 
L 147.598358 353.212187 
L 154.384615 349.37718 
L 162.867437 344.921162 
L 167.95713 342.438633 
L 173.046823 340.193398 
L 178.136516 338.246617 
L 183.226209 336.558002 
L 190.012466 334.588697 
L 195.102159 333.308738 
L 200.191852 332.293915 
L 203.58498 331.812053 
L 213.764366 330.619637 
L 217.157495 329.88094 
L 220.550623 328.804834 
L 223.943752 327.457324 
L 229.033445 325.130764 
L 240.909395 319.379085 
L 245.999088 316.621889 
L 249.392216 314.577584 
L 252.785345 312.34524 
L 256.178474 309.91303 
L 259.571602 307.269128 
L 264.661295 302.917012 
L 276.537245 292.342554 
L 281.626938 288.265074 
L 285.020067 285.774502 
L 288.413196 283.477636 
L 291.806324 281.381637 
L 296.896017 278.573354 
L 301.98571 276.079186 
L 307.075403 273.810371 
L 312.165096 271.819042 
L 315.558224 270.718505 
L 318.951353 269.851004 
L 324.041046 268.909428 
L 329.130739 267.922468 
L 332.523867 266.955999 
L 335.916996 265.590354 
L 339.310125 263.929195 
L 346.096382 260.41684 
L 349.48951 258.896611 
L 357.972332 255.372129 
L 361.365461 253.571433 
L 364.758589 251.297981 
L 368.151718 248.615907 
L 373.241411 244.133926 
L 381.724232 236.5524 
L 385.117361 233.742967 
L 388.51049 231.147578 
L 391.903618 228.821192 
L 395.296747 226.749923 
L 405.476133 220.853079 
L 408.869261 218.606562 
L 413.958954 214.905401 
L 420.745211 209.592357 
L 432.621161 200.227385 
L 437.710854 196.516283 
L 446.193676 190.429472 
L 449.586804 187.792486 
L 454.676497 183.510097 
L 464.855883 174.705953 
L 469.945576 170.66129 
L 473.338705 168.186125 
L 476.731833 165.919932 
L 480.124962 163.882922 
L 485.214655 161.134692 
L 493.697476 156.62123 
L 498.787169 153.596309 
L 505.573427 149.272227 
L 514.056248 143.621979 
L 519.145941 140.004982 
L 524.235634 136.102881 
L 529.325327 131.920157 
L 536.111584 126.044465 
L 547.987534 115.662543 
L 553.077227 111.564334 
L 556.470356 109.047773 
L 559.863484 106.733758 
L 563.256613 104.647642 
L 566.649742 102.810404 
L 571.739434 100.398305 
L 578.525692 97.275687 
L 583.615385 94.604234 
L 590.401642 90.679656 
L 598.884463 85.786432 
L 605.670721 82.157225 
L 610.760413 79.656804 
L 615.850106 77.383309 
L 620.939799 75.37011 
L 622.636364 74.762656 
L 622.636364 74.762656 
" clip-path="url(#ped6d9f5e8e)" style="fill: none; stroke: #ff0000; stroke-width: 2; stroke-linecap: square"/>
   </g>
   <g id="patch_3">
    <path d="M 90 384.48 
L 90 51.84 
" style="fill: none; stroke: #000000; stroke-width: 0.8; stroke-linejoin: miter; stroke-linecap: square"/>
   </g>
   <g id="patch_4">
    <path d="M 648 384.48 
L 648 51.84 
" style="fill: none; stroke: #000000; stroke-width: 0.8; stroke-linejoin: miter; stroke-linecap: square"/>
   </g>
   <g id="patch_5">
    <path d="M 90 384.48 
L 648 384.48 
" style="fill: none; stroke: #000000; stroke-width: 0.8; stroke-linejoin: miter; stroke-linecap: square"/>
   </g>
   <g id="patch_6">
    <path d="M 90 51.84 
L 648 51.84 
" style="fill: none; stroke: #000000; stroke-width: 0.8; stroke-linejoin: miter; stroke-linecap: square"/>
   </g>
   <g id="legend_1">
    <g id="patch_7">
     <path d="M 97 116.324375 
L 199 116.324375 
Q 201 116.324375 201 114.324375 
L 201 58.84 
Q 201 56.84 199 56.84 
L 97 56.84 
Q 95 56.84 95 58.84 
L 95 114.324375 
Q 95 116.324375 97 116.324375 
z
" style="fill: #ffffff; opacity: 0.8; stroke: #cccccc; stroke-linejoin: miter"/>
    </g>
    <g id="line2d_21">
     <path d="M 99 65.386875 
L 109 65.386875 
L 119 65.386875 
" style="fill: none; stroke: #008000; stroke-width: 0.6; stroke-linecap: square"/>
    </g>
    <g id="text_19">
     <!-- 当前图中边数 -->
     <g transform="translate(127 68.886875) scale(0.1 -0.1)">
      <defs>
       <path id="KaiTi-5f53" d="M 3625 1475 
Q 4075 1575 4250 1450 
Q 4350 1375 4375 1325 
Q 4500 1975 4500 2100 
Q 4500 2300 4325 2312 
Q 4150 2325 3250 2187 
Q 2350 2050 1925 1975 
Q 1500 1900 1262 2087 
Q 1025 2275 1325 2250 
Q 1625 2225 2900 2400 
L 2900 3825 
Q 2900 4500 2725 4737 
Q 2550 4975 3125 4850 
Q 3500 4700 3412 4500 
Q 3325 4300 3275 3825 
Q 3225 3350 3225 2425 
Q 4225 2575 4350 2662 
Q 4475 2750 4687 2662 
Q 4900 2575 5100 2412 
Q 5300 2250 5175 2112 
Q 5050 1975 4887 1562 
Q 4725 1150 4550 325 
Q 4775 25 4525 25 
Q 4300 25 3837 0 
Q 3375 -25 2675 -125 
Q 1975 -225 1775 -250 
Q 1575 -275 1362 -87 
Q 1150 100 1375 87 
Q 1600 75 2150 137 
Q 2700 200 4225 325 
L 4375 1225 
Q 4275 1175 3950 1150 
Q 3575 1125 3150 1062 
Q 2725 1000 2437 937 
Q 2150 875 1887 1062 
Q 1625 1250 1975 1262 
Q 2325 1275 2762 1325 
Q 3200 1375 3625 1475 
z
M 5075 4125 
Q 5250 4000 5075 3925 
Q 4900 3850 4412 3450 
Q 3925 3050 3762 3000 
Q 3600 2950 3937 3337 
Q 4275 3725 4387 3925 
Q 4500 4125 4500 4275 
Q 4500 4450 4712 4350 
Q 4925 4250 5075 4125 
z
M 1850 3100 
Q 1400 3600 1325 3750 
Q 1250 3900 1575 3800 
Q 1900 3700 2137 3525 
Q 2375 3350 2300 3050 
Q 2225 2750 1850 3100 
z
" transform="scale(0.015625)"/>
       <path id="KaiTi-524d" d="M 1650 2575 
Q 1650 2300 1675 2050 
Q 1825 2075 1975 2137 
Q 2125 2200 2237 2075 
Q 2350 1950 2100 1887 
Q 1850 1825 1675 1875 
Q 1650 1550 1625 1275 
Q 1750 1300 1925 1350 
Q 2100 1400 2200 1287 
Q 2300 1175 2100 1125 
Q 1900 1075 1600 1100 
Q 1500 500 1337 150 
Q 1175 -200 1087 62 
Q 1000 325 1087 500 
Q 1175 675 1262 962 
Q 1350 1250 1387 1862 
Q 1425 2475 1325 2637 
Q 1225 2800 1325 2800 
Q 1425 2800 1525 2775 
Q 1625 2750 1750 2775 
Q 1875 2800 2025 2850 
Q 2175 2900 2275 2962 
Q 2375 3025 2537 2975 
Q 2700 2925 2837 2825 
Q 2975 2725 2887 2575 
Q 2800 2425 2800 2025 
Q 2800 1625 2862 962 
Q 2925 300 2737 -75 
Q 2550 -450 2450 -187 
Q 2350 75 2100 262 
Q 1850 450 2050 412 
Q 2250 375 2350 400 
Q 2450 425 2487 825 
Q 2525 1225 2512 1625 
Q 2500 2025 2475 2362 
Q 2450 2700 2275 2700 
Q 2100 2700 1650 2575 
z
M 4500 3450 
Q 4725 3425 4900 3312 
Q 5075 3200 5000 3075 
Q 4925 2950 4925 2475 
Q 4925 2000 4962 1437 
Q 5000 875 5025 575 
Q 5050 275 5000 25 
Q 4950 -225 4762 -437 
Q 4575 -650 4500 -400 
Q 4425 -150 4175 75 
Q 3925 300 4162 237 
Q 4400 175 4500 175 
Q 4625 175 4637 437 
Q 4650 700 4637 1450 
Q 4625 2200 4575 2650 
Q 4525 3100 4412 3300 
Q 4300 3500 4500 3450 
z
M 2075 3600 
Q 2600 3675 3037 3725 
Q 3475 3775 3937 3837 
Q 4400 3900 4875 4012 
Q 5350 4125 5587 4087 
Q 5825 4050 5962 3875 
Q 6100 3700 5937 3675 
Q 5775 3650 5487 3675 
Q 5200 3700 4712 3662 
Q 4225 3625 3162 3512 
Q 2100 3400 1712 3325 
Q 1325 3250 1137 3200 
Q 950 3150 650 3325 
Q 350 3500 600 3500 
Q 850 3500 1200 3525 
Q 1550 3550 2075 3600 
z
M 3600 2825 
Q 3825 2775 3925 2687 
Q 4025 2600 3962 2487 
Q 3900 2375 3912 1962 
Q 3925 1550 3900 1312 
Q 3875 1075 3812 987 
Q 3750 900 3625 1075 
Q 3500 1250 3550 1437 
Q 3600 1625 3612 1875 
Q 3625 2125 3587 2325 
Q 3550 2525 3462 2700 
Q 3375 2875 3600 2825 
z
M 4075 5175 
Q 4275 5150 4450 5025 
Q 4625 4900 4487 4812 
Q 4350 4725 4112 4475 
Q 3875 4225 3587 4000 
Q 3300 3775 3500 4062 
Q 3700 4350 3825 4637 
Q 3950 4925 3912 5075 
Q 3875 5225 4075 5175 
z
M 2000 4500 
Q 1875 4725 2262 4600 
Q 2650 4475 2712 4275 
Q 2775 4075 2687 3925 
Q 2600 3775 2362 4025 
Q 2125 4275 2000 4500 
z
" transform="scale(0.015625)"/>
       <path id="KaiTi-56fe" d="M 4750 150 
Q 4000 175 1475 50 
Q 1450 -425 1250 -87 
Q 1050 250 1150 625 
Q 1250 1000 1287 1725 
Q 1325 2450 1325 3300 
Q 1325 4150 1175 4362 
Q 1025 4575 1125 4575 
Q 1250 4575 1412 4525 
Q 1575 4475 2000 4500 
Q 2425 4525 3287 4650 
Q 4150 4775 4350 4862 
Q 4550 4950 4800 4837 
Q 5050 4725 5212 4550 
Q 5375 4375 5287 4200 
Q 5200 4025 5237 2800 
Q 5275 1575 5337 962 
Q 5400 350 5337 -25 
Q 5275 -400 5162 -512 
Q 5050 -625 5000 -425 
Q 4950 -225 4750 150 
z
M 1500 275 
Q 3050 375 3537 425 
Q 4025 475 4262 487 
Q 4500 500 4662 375 
Q 4825 250 4887 487 
Q 4950 725 4937 1562 
Q 4925 2400 4900 3250 
Q 4875 4100 4712 4337 
Q 4550 4575 4150 4537 
Q 3750 4500 1625 4275 
Q 1625 2375 1500 275 
z
M 2825 3650 
Q 3025 3625 3212 3675 
Q 3400 3725 3487 3787 
Q 3575 3850 3725 3800 
Q 3875 3750 4000 3650 
Q 4125 3550 3987 3462 
Q 3850 3375 3725 3175 
Q 3600 2975 3400 2725 
Q 3825 2400 4100 2275 
Q 4375 2150 4687 2050 
Q 5000 1950 4700 1887 
Q 4400 1825 4125 1812 
Q 3850 1800 3712 1987 
Q 3575 2175 3200 2500 
Q 2950 2225 2562 1950 
Q 2175 1675 1825 1575 
Q 1475 1475 1775 1650 
Q 2075 1825 2412 2137 
Q 2750 2450 3000 2750 
Q 2650 3025 2475 3125 
Q 2175 2850 1987 2762 
Q 1800 2675 2025 2900 
Q 2250 3125 2437 3537 
Q 2625 3950 2587 4175 
Q 2550 4400 2750 4325 
Q 2950 4250 3050 4137 
Q 3150 4025 3062 3937 
Q 2975 3850 2825 3650 
z
M 2825 1175 
Q 2600 1500 2962 1387 
Q 3325 1275 3500 1112 
Q 3675 950 3625 712 
Q 3575 475 3325 675 
Q 3075 875 2825 1175 
z
M 2550 3225 
Q 2725 3200 2825 3125 
Q 2925 3050 3125 2925 
Q 3325 3175 3375 3337 
Q 3425 3500 3275 3500 
Q 3150 3500 3025 3462 
Q 2900 3425 2750 3525 
L 2550 3225 
z
M 3325 1550 
Q 3050 1800 2950 1975 
Q 2850 2150 3237 2025 
Q 3625 1900 3625 1600 
Q 3625 1325 3325 1550 
z
" transform="scale(0.015625)"/>
       <path id="KaiTi-4e2d" d="M 3350 3650 
Q 4275 3800 4487 3912 
Q 4700 4025 4875 3925 
Q 5050 3825 5250 3687 
Q 5450 3550 5275 3425 
Q 5100 3300 4825 2475 
Q 5200 2150 4725 2125 
Q 4250 2100 3325 2000 
Q 3325 100 3275 -287 
Q 3225 -675 3125 -700 
Q 3025 -725 3000 -212 
Q 2975 300 2975 1975 
Q 2500 1950 1825 1850 
Q 1800 1600 1762 1525 
Q 1725 1450 1662 1500 
Q 1600 1550 1550 1812 
Q 1500 2075 1387 2600 
Q 1275 3125 1137 3337 
Q 1000 3550 1150 3550 
Q 1300 3550 1462 3500 
Q 1625 3450 2062 3500 
Q 2500 3550 2975 3625 
Q 2975 4650 2812 4875 
Q 2650 5100 2900 5062 
Q 3150 5025 3375 4912 
Q 3600 4800 3487 4662 
Q 3375 4525 3350 3650 
z
M 3325 2275 
Q 3875 2325 4525 2425 
Q 4600 2875 4612 3150 
Q 4625 3425 4550 3525 
Q 4475 3625 4200 3587 
Q 3925 3550 3350 3475 
Q 3325 2775 3325 2275 
z
M 1700 3275 
Q 1750 2675 1825 2075 
Q 2300 2125 2975 2225 
L 2975 3425 
Q 2050 3325 1700 3275 
z
" transform="scale(0.015625)"/>
       <path id="KaiTi-8fb9" d="M 3800 3725 
Q 4450 3850 4500 3937 
Q 4550 4025 4737 3925 
Q 4925 3825 5087 3712 
Q 5250 3600 5112 3475 
Q 4975 3350 4925 2912 
Q 4875 2475 4750 1812 
Q 4625 1150 4487 962 
Q 4350 775 4187 650 
Q 4025 525 3937 750 
Q 3850 975 3650 1175 
Q 3450 1375 3725 1275 
Q 4000 1175 4137 1262 
Q 4275 1350 4412 1962 
Q 4550 2575 4587 3012 
Q 4625 3450 4587 3587 
Q 4550 3725 3775 3525 
Q 3550 2425 3237 1937 
Q 2925 1450 2612 1187 
Q 2300 925 2237 937 
Q 2175 950 2437 1250 
Q 2700 1550 2962 2075 
Q 3225 2600 3400 3400 
Q 2900 3275 2737 3262 
Q 2575 3250 2412 3362 
Q 2250 3475 2537 3487 
Q 2825 3500 3425 3625 
Q 3450 3925 3475 4237 
Q 3500 4550 3400 4750 
Q 3300 4950 3512 4887 
Q 3725 4825 3900 4700 
Q 4075 4575 3987 4487 
Q 3900 4400 3800 3725 
z
M 1675 900 
Q 2800 600 3250 487 
Q 3700 375 4212 275 
Q 4725 175 5375 187 
Q 6025 200 6062 162 
Q 6100 125 5637 -62 
Q 5175 -250 4862 -300 
Q 4550 -350 4237 -225 
Q 3925 -100 3287 137 
Q 2650 375 2225 562 
Q 1800 750 1462 687 
Q 1125 625 937 500 
Q 750 375 512 550 
Q 275 725 587 750 
Q 900 775 1450 925 
Q 1650 1200 1437 1550 
Q 1225 1900 1312 2287 
Q 1400 2675 1150 2587 
Q 900 2500 687 2600 
Q 475 2700 637 2725 
Q 800 2750 1000 2812 
Q 1200 2875 1325 3012 
Q 1450 3150 1725 3025 
Q 2075 2800 1912 2675 
Q 1750 2550 1675 2275 
Q 1600 2000 1700 1637 
Q 1800 1275 1675 900 
z
M 1475 4100 
Q 1200 4400 1137 4500 
Q 1075 4600 1350 4562 
Q 1625 4525 1825 4400 
Q 2025 4275 1950 4012 
Q 1875 3750 1475 4100 
z
" transform="scale(0.015625)"/>
      </defs>
      <use xlink:href="#KaiTi-5f53"/>
      <use xlink:href="#KaiTi-524d" x="100"/>
      <use xlink:href="#KaiTi-56fe" x="200"/>
      <use xlink:href="#KaiTi-4e2d" x="300"/>
      <use xlink:href="#KaiTi-8fb9" x="400"/>
      <use xlink:href="#KaiTi-6570" x="500"/>
     </g>
    </g>
    <g id="line2d_22">
     <path d="M 99 79.332187 
L 109 79.332187 
L 119 79.332187 
" style="fill: none; stroke: #bfbf00; stroke-width: 2; stroke-linecap: square"/>
    </g>
    <g id="text_20">
     <!-- 累计删除边数 -->
     <g transform="translate(127 82.832187) scale(0.1 -0.1)">
      <defs>
       <path id="KaiTi-7d2f" d="M 2225 2600 
Q 2850 2625 3375 2675 
Q 3875 2975 3862 3100 
Q 3850 3225 4000 3150 
Q 4150 3075 4262 2950 
Q 4375 2825 4225 2787 
Q 4075 2750 3637 2512 
Q 3200 2275 2250 1775 
Q 3250 1850 4050 1925 
Q 3925 2050 3825 2200 
Q 3725 2350 3912 2300 
Q 4100 2250 4400 2062 
Q 4700 1875 4675 1637 
Q 4650 1400 4537 1450 
Q 4425 1500 4100 1800 
Q 3600 1750 3125 1675 
Q 3425 1475 3350 1337 
Q 3275 1200 3287 812 
Q 3300 425 3312 200 
Q 3325 -25 3162 -275 
Q 3000 -525 2900 -287 
Q 2800 -50 2512 175 
Q 2225 400 2525 312 
Q 2825 225 2912 300 
Q 3000 375 2975 912 
Q 2950 1450 2850 1625 
Q 1950 1475 1812 1400 
Q 1675 1325 1600 1400 
Q 1525 1475 1487 1612 
Q 1450 1750 1825 1825 
Q 2200 1900 3225 2525 
Q 2175 2375 2012 2300 
Q 1850 2225 1775 2325 
Q 1700 2425 1675 2512 
Q 1650 2600 1837 2650 
Q 2025 2700 2325 2925 
Q 2625 3150 2625 3250 
L 2250 3200 
Q 2125 2950 2012 3175 
Q 1900 3400 1750 3837 
Q 1600 4275 1412 4512 
Q 1225 4750 1375 4750 
Q 1550 4750 1725 4700 
Q 1900 4650 2487 4737 
Q 3075 4825 3600 4912 
Q 4125 5000 4250 5062 
Q 4375 5125 4575 5050 
Q 4775 4975 4987 4800 
Q 5200 4625 5025 4500 
Q 4850 4375 4650 3975 
Q 4450 3575 4287 3350 
Q 4125 3125 3950 3375 
Q 3500 3325 2925 3275 
Q 3000 3250 3050 3225 
Q 3200 3150 3012 3087 
Q 2825 3025 2225 2600 
z
M 3200 3525 
Q 3525 3550 3700 3575 
Q 3875 3600 4025 3525 
Q 4200 3750 4312 4187 
Q 4425 4625 4350 4725 
Q 4275 4825 3912 4775 
Q 3550 4725 3075 4625 
Q 3225 4550 3212 4462 
Q 3200 4375 3200 4200 
Q 3450 4225 3575 4250 
Q 3700 4275 3812 4187 
Q 3925 4100 3775 4037 
Q 3625 3975 3200 3925 
L 3200 3525 
z
M 2825 4575 
Q 2400 4525 1950 4475 
Q 2100 3950 2225 3400 
Q 2575 3450 2925 3475 
L 2925 3875 
Q 2775 3850 2637 3862 
Q 2500 3875 2400 3962 
Q 2300 4050 2450 4062 
Q 2600 4075 2900 4125 
Q 2900 4450 2825 4575 
z
M 4575 975 
Q 4775 900 4925 750 
Q 5075 600 5037 350 
Q 5000 100 4850 175 
Q 4700 250 4550 412 
Q 4400 575 4175 850 
Q 3950 1125 4175 1087 
Q 4400 1050 4575 975 
z
M 1625 1000 
Q 1775 1250 1825 937 
Q 1875 625 1562 237 
Q 1250 -150 1187 62 
Q 1125 275 1312 512 
Q 1500 750 1625 1000 
z
" transform="scale(0.015625)"/>
       <path id="KaiTi-8ba1" d="M 4325 2975 
Q 4975 3075 5200 3125 
Q 5425 3175 5675 3062 
Q 5925 2950 5687 2887 
Q 5450 2825 4325 2725 
Q 4325 1175 4300 312 
Q 4275 -550 4125 -562 
Q 3975 -575 3975 275 
L 3975 2675 
Q 3325 2550 3062 2487 
Q 2800 2425 2562 2587 
Q 2325 2750 2575 2762 
Q 2825 2775 3100 2800 
Q 3375 2825 3975 2925 
Q 3975 3850 3962 4225 
Q 3950 4600 3825 4850 
Q 3700 5100 3925 5037 
Q 4150 4975 4362 4850 
Q 4575 4725 4437 4512 
Q 4300 4300 4325 2975 
z
M 1800 1250 
Q 2250 1475 2512 1600 
Q 2775 1725 2637 1600 
Q 2500 1475 2125 1137 
Q 1750 800 1587 537 
Q 1425 275 1275 562 
Q 1125 850 1262 975 
Q 1400 1100 1487 1375 
Q 1575 1650 1612 2062 
Q 1650 2475 1662 2662 
Q 1675 2850 1425 2775 
Q 1175 2700 1000 2612 
Q 825 2525 587 2650 
Q 350 2775 625 2812 
Q 900 2850 1250 2962 
Q 1600 3075 1675 3200 
Q 1750 3325 1975 3250 
Q 2325 3150 2187 3025 
Q 2050 2900 1987 2687 
Q 1925 2475 1800 1250 
z
M 1925 4825 
Q 2225 4800 2362 4675 
Q 2500 4550 2450 4325 
Q 2400 4100 2112 4262 
Q 1825 4425 1587 4650 
Q 1350 4875 1925 4825 
z
" transform="scale(0.015625)"/>
       <path id="KaiTi-5220" d="M 2175 2750 
Q 2400 2775 2650 2800 
Q 2675 3275 2675 3525 
Q 2675 3800 2662 4037 
Q 2650 4275 2575 4412 
Q 2500 4550 2675 4512 
Q 2850 4475 2950 4487 
Q 3050 4500 3162 4537 
Q 3275 4575 3375 4637 
Q 3475 4700 3587 4650 
Q 3700 4600 3837 4512 
Q 3975 4425 3900 4287 
Q 3825 4150 3787 3875 
Q 3750 3600 3750 2900 
Q 3900 2925 4012 2962 
Q 4125 3000 4262 2875 
Q 4400 2750 4337 2700 
Q 4275 2650 4100 2650 
L 3750 2650 
Q 3750 2125 3762 1875 
Q 3775 1625 3787 1262 
Q 3800 900 3800 650 
Q 3800 425 3662 125 
Q 3525 -175 3400 87 
Q 3275 350 3025 575 
Q 2775 800 2987 737 
Q 3200 675 3300 675 
Q 3400 675 3450 775 
Q 3500 875 3500 1300 
L 3500 2625 
Q 3200 2625 2925 2600 
Q 2900 1750 2737 1175 
Q 2575 600 2187 250 
Q 1800 -100 2100 325 
Q 2400 750 2512 1287 
Q 2625 1825 2650 2575 
Q 2350 2550 2175 2525 
Q 2175 2125 2187 1737 
Q 2200 1350 2200 1100 
Q 2200 850 2075 587 
Q 1950 325 1862 525 
Q 1775 725 1575 887 
Q 1375 1050 1562 1000 
Q 1750 950 1812 975 
Q 1875 1000 1900 1350 
Q 1925 1700 1925 2500 
Q 1700 2475 1500 2425 
Q 1475 1775 1337 1287 
Q 1200 800 850 475 
Q 500 150 737 512 
Q 975 875 1100 1337 
Q 1225 1800 1225 2400 
Q 925 2350 825 2350 
Q 750 2350 600 2475 
Q 450 2600 625 2600 
Q 800 2600 1250 2650 
Q 1275 3100 1275 3575 
Q 1275 4075 1212 4237 
Q 1150 4400 1312 4350 
Q 1475 4300 1575 4312 
Q 1675 4325 1750 4362 
Q 1825 4400 1875 4437 
Q 1925 4475 2062 4450 
Q 2200 4425 2287 4350 
Q 2375 4275 2300 4137 
Q 2225 4000 2200 3637 
Q 2175 3275 2175 2750 
z
M 5125 4900 
Q 5325 4875 5525 4775 
Q 5725 4675 5650 4512 
Q 5575 4350 5562 3662 
Q 5550 2975 5587 2050 
Q 5625 1125 5650 625 
Q 5675 125 5475 -237 
Q 5275 -600 5162 -325 
Q 5050 -50 4750 200 
Q 4450 450 4675 387 
Q 4900 325 5075 287 
Q 5250 250 5262 550 
Q 5275 850 5275 1625 
Q 5275 2425 5250 3437 
Q 5225 4450 5075 4700 
Q 4925 4950 5125 4900 
z
M 2925 2825 
Q 3125 2825 3500 2875 
Q 3525 4025 3487 4212 
Q 3450 4400 3350 4400 
Q 3275 4400 2950 4325 
Q 2950 3600 2925 2825 
z
M 4400 3750 
Q 4550 3725 4712 3650 
Q 4875 3575 4812 3450 
Q 4750 3325 4750 3050 
Q 4750 2800 4762 2462 
Q 4775 2125 4737 1850 
Q 4700 1575 4575 1737 
Q 4450 1900 4462 2125 
Q 4475 2350 4487 2537 
Q 4500 2725 4462 3112 
Q 4425 3500 4337 3637 
Q 4250 3775 4400 3750 
z
M 1925 2725 
L 1925 4000 
Q 1925 4225 1850 4225 
Q 1775 4225 1550 4125 
Q 1550 3400 1525 2675 
L 1925 2725 
z
" transform="scale(0.015625)"/>
       <path id="KaiTi-9664" d="M 1725 3350 
Q 1650 2925 1787 2725 
Q 1925 2525 2012 2375 
Q 2100 2225 2012 1975 
Q 1925 1725 1775 1925 
Q 1625 2125 1300 2237 
Q 975 2350 1350 2350 
Q 1725 2350 1562 2650 
Q 1400 2950 1487 3400 
Q 1575 3850 1512 3900 
Q 1450 3950 950 3750 
Q 1025 1400 900 512 
Q 775 -375 612 -12 
Q 450 350 537 600 
Q 625 850 662 1462 
Q 700 2075 687 2825 
Q 675 3575 537 3750 
Q 400 3925 512 3937 
Q 625 3950 750 3912 
Q 875 3875 1050 3962 
Q 1225 4050 1362 4112 
Q 1500 4175 1612 4300 
Q 1725 4425 1875 4387 
Q 2025 4350 2200 4262 
Q 2375 4175 2100 3987 
Q 1825 3800 1725 3350 
z
M 3675 2450 
Q 3900 2350 3862 2275 
Q 3825 2200 3800 1900 
Q 4250 1975 4512 2050 
Q 4775 2125 4962 1950 
Q 5150 1775 4825 1750 
Q 4500 1725 3800 1625 
Q 3800 900 3812 562 
Q 3825 225 3762 25 
Q 3700 -175 3525 -325 
Q 3350 -475 3275 -262 
Q 3200 -50 2937 150 
Q 2675 350 2975 275 
Q 3275 200 3337 250 
Q 3400 300 3425 387 
Q 3450 475 3462 787 
Q 3475 1100 3450 1600 
Q 2700 1475 2562 1462 
Q 2425 1450 2262 1575 
Q 2100 1700 2325 1700 
Q 2550 1700 3450 1850 
Q 3450 2100 3400 2400 
Q 3125 2400 2950 2475 
Q 2775 2550 3050 2600 
Q 3325 2650 3600 2737 
Q 3875 2825 4037 2875 
Q 4200 2925 4400 2825 
Q 4600 2725 4350 2625 
Q 4100 2525 3675 2450 
z
M 3650 4350 
Q 3975 4025 4500 3600 
Q 5025 3175 5550 3025 
Q 6075 2875 5762 2800 
Q 5450 2725 5100 2725 
Q 4775 2725 4475 3112 
Q 4175 3500 3575 4175 
Q 3300 3600 3000 3137 
Q 2700 2675 2337 2412 
Q 1975 2150 2275 2525 
Q 2575 2900 2775 3237 
Q 2975 3575 3175 4112 
Q 3375 4650 3312 4850 
Q 3250 5050 3437 5000 
Q 3625 4950 3762 4862 
Q 3900 4775 3825 4700 
Q 3750 4625 3650 4350 
z
M 4300 1125 
Q 4150 1300 4625 1137 
Q 5100 975 5225 762 
Q 5350 550 5275 350 
Q 5200 150 4962 387 
Q 4725 625 4587 800 
Q 4450 975 4300 1125 
z
M 2175 775 
Q 2350 1025 2412 1137 
Q 2475 1250 2525 962 
Q 2575 675 2312 350 
Q 2050 25 2000 275 
Q 1950 525 2175 775 
z
" transform="scale(0.015625)"/>
      </defs>
      <use xlink:href="#KaiTi-7d2f"/>
      <use xlink:href="#KaiTi-8ba1" x="100"/>
      <use xlink:href="#KaiTi-5220" x="200"/>
      <use xlink:href="#KaiTi-9664" x="300"/>
      <use xlink:href="#KaiTi-8fb9" x="400"/>
      <use xlink:href="#KaiTi-6570" x="500"/>
     </g>
    </g>
    <g id="line2d_23">
     <path d="M 99 93.629062 
L 109 93.629062 
L 119 93.629062 
" style="fill: none; stroke: #0000ff; stroke-width: 2; stroke-linecap: square"/>
    </g>
    <g id="text_21">
     <!-- 当前图中结点数 -->
     <g transform="translate(127 97.129062) scale(0.1 -0.1)">
      <defs>
       <path id="KaiTi-7ed3" d="M 5175 575 
Q 5475 375 5225 337 
Q 4975 300 3775 250 
Q 3700 -125 3562 175 
Q 3425 475 3325 775 
Q 3225 1075 3150 1200 
Q 3075 1325 3187 1337 
Q 3300 1350 3462 1337 
Q 3625 1325 3975 1375 
Q 4325 1425 4537 1462 
Q 4750 1500 4887 1550 
Q 5025 1600 5212 1525 
Q 5400 1450 5575 1312 
Q 5750 1175 5562 1100 
Q 5375 1025 5175 575 
z
M 4475 3300 
Q 5125 3425 5387 3487 
Q 5650 3550 5862 3387 
Q 6075 3225 5737 3200 
Q 5400 3175 4475 3050 
L 4475 2275 
Q 4750 2325 4987 2362 
Q 5225 2400 5412 2237 
Q 5600 2075 5350 2075 
Q 5100 2075 4600 2012 
Q 4100 1950 3737 1900 
Q 3375 1850 3200 1975 
Q 3025 2100 3300 2125 
Q 3575 2150 4150 2225 
L 4150 2975 
Q 3450 2875 3275 2837 
Q 3100 2800 2900 2937 
Q 2700 3075 2987 3087 
Q 3275 3100 4150 3225 
Q 4150 4075 4100 4312 
Q 4050 4550 3937 4762 
Q 3825 4975 4300 4825 
Q 4675 4675 4575 4525 
Q 4475 4375 4475 3300 
z
M 1975 3000 
Q 2350 3525 2312 3700 
Q 2275 3875 2462 3800 
Q 2650 3725 2812 3612 
Q 2975 3500 2800 3412 
Q 2625 3325 2250 2825 
Q 1875 2325 1725 2125 
Q 1675 2050 1650 2025 
Q 2825 2300 2612 2162 
Q 2400 2025 1925 1837 
Q 1450 1650 1300 1500 
Q 1150 1350 1075 1475 
Q 1000 1600 987 1737 
Q 975 1875 1175 1975 
Q 1375 2075 1875 2825 
Q 1150 2675 987 2587 
Q 825 2500 775 2587 
Q 725 2675 725 2825 
Q 725 2975 937 3037 
Q 1150 3100 1525 3787 
Q 1900 4475 1825 4675 
Q 1750 4875 2125 4675 
Q 2450 4425 2250 4300 
Q 2050 4175 1275 2950 
L 1975 3000 
z
M 3625 1125 
Q 3675 725 3750 425 
Q 4075 450 4412 487 
Q 4750 525 4925 525 
Q 5000 925 5012 1075 
Q 5025 1225 4950 1250 
Q 4875 1275 4575 1250 
Q 4275 1225 3625 1125 
z
M 1625 1025 
Q 2575 1450 2775 1500 
Q 2975 1550 2637 1325 
Q 2300 1100 1762 787 
Q 1225 475 1125 337 
Q 1025 200 700 437 
Q 375 675 637 700 
Q 900 725 1625 1025 
z
" transform="scale(0.015625)"/>
       <path id="KaiTi-70b9" d="M 3375 3925 
Q 4025 4025 4337 4150 
Q 4650 4275 4887 4112 
Q 5125 3950 4412 3800 
Q 3700 3650 3350 3750 
L 3325 2800 
Q 3825 2850 3987 2925 
Q 4150 3000 4400 2912 
Q 4650 2825 4825 2700 
Q 5000 2575 4862 2462 
Q 4725 2350 4625 2262 
Q 4525 2175 4350 1750 
Q 4625 1450 4375 1462 
Q 4125 1475 2400 1300 
Q 2350 1125 2275 1175 
Q 2200 1225 2137 1412 
Q 2075 1600 1987 2000 
Q 1900 2400 1800 2562 
Q 1700 2725 1850 2712 
Q 2000 2700 2087 2675 
Q 2175 2650 2375 2662 
Q 2575 2675 3000 2750 
Q 3000 3850 2975 4212 
Q 2950 4575 2812 4775 
Q 2675 4975 2925 4937 
Q 3175 4900 3350 4825 
Q 3525 4750 3462 4612 
Q 3400 4475 3375 3925 
z
M 2350 2025 
L 2400 1500 
Q 2875 1575 4000 1700 
Q 4100 2200 4125 2425 
Q 4150 2650 3975 2650 
Q 3800 2650 3225 2575 
L 2300 2450 
L 2350 2025 
z
M 4975 1025 
Q 5450 825 5662 575 
Q 5875 325 5812 37 
Q 5750 -250 5475 12 
Q 5200 275 4775 775 
Q 4350 1275 4975 1025 
z
M 1125 750 
Q 1325 1275 1362 750 
Q 1400 225 1137 -187 
Q 875 -600 775 -350 
Q 675 -100 775 87 
Q 875 275 1125 750 
z
M 4000 675 
Q 4175 475 4100 225 
Q 4025 -25 3862 125 
Q 3700 275 3587 462 
Q 3475 650 3400 837 
Q 3325 1025 3575 950 
Q 3825 875 4000 675 
z
M 2350 300 
Q 2175 650 2175 775 
Q 2175 900 2425 775 
Q 2675 650 2762 425 
Q 2850 200 2700 0 
Q 2550 -200 2350 300 
z
" transform="scale(0.015625)"/>
      </defs>
      <use xlink:href="#KaiTi-5f53"/>
      <use xlink:href="#KaiTi-524d" x="100"/>
      <use xlink:href="#KaiTi-56fe" x="200"/>
      <use xlink:href="#KaiTi-4e2d" x="300"/>
      <use xlink:href="#KaiTi-7ed3" x="400"/>
      <use xlink:href="#KaiTi-70b9" x="500"/>
      <use xlink:href="#KaiTi-6570" x="600"/>
     </g>
    </g>
    <g id="line2d_24">
     <path d="M 99 107.574375 
L 109 107.574375 
L 119 107.574375 
" style="fill: none; stroke: #ff0000; stroke-width: 2; stroke-linecap: square"/>
    </g>
    <g id="text_22">
     <!-- 累计删除结点数 -->
     <g transform="translate(127 111.074375) scale(0.1 -0.1)">
      <use xlink:href="#KaiTi-7d2f"/>
      <use xlink:href="#KaiTi-8ba1" x="100"/>
      <use xlink:href="#KaiTi-5220" x="200"/>
      <use xlink:href="#KaiTi-9664" x="300"/>
      <use xlink:href="#KaiTi-7ed3" x="400"/>
      <use xlink:href="#KaiTi-70b9" x="500"/>
      <use xlink:href="#KaiTi-6570" x="600"/>
     </g>
    </g>
   </g>
  </g>
 </g>
 <defs>
  <clipPath id="ped6d9f5e8e">
   <rect x="90" y="51.84" width="558" height="332.64"/>
  </clipPath>
 </defs>
</svg>
