<?xml version="1.0" encoding="utf-8" standalone="no"?>
<!DOCTYPE svg PUBLIC "-//W3C//DTD SVG 1.1//EN"
  "http://www.w3.org/Graphics/SVG/1.1/DTD/svg11.dtd">
<svg xmlns:xlink="http://www.w3.org/1999/xlink" width="460.8pt" height="345.6pt" viewBox="0 0 460.8 345.6" xmlns="http://www.w3.org/2000/svg" version="1.1">
 <metadata>
  <rdf:RDF xmlns:dc="http://purl.org/dc/elements/1.1/" xmlns:cc="http://creativecommons.org/ns#" xmlns:rdf="http://www.w3.org/1999/02/22-rdf-syntax-ns#">
   <cc:Work>
    <dc:type rdf:resource="http://purl.org/dc/dcmitype/StillImage"/>
    <dc:date>2023-11-01T20:41:30.817320</dc:date>
    <dc:format>image/svg+xml</dc:format>
    <dc:creator>
     <cc:Agent>
      <dc:title>Matplotlib v3.7.2, https://matplotlib.org/</dc:title>
     </cc:Agent>
    </dc:creator>
   </cc:Work>
  </rdf:RDF>
 </metadata>
 <defs>
  <style type="text/css">*{stroke-linejoin: round; stroke-linecap: butt}</style>
 </defs>
 <g id="figure_1">
  <g id="patch_1">
   <path d="M 0 345.6 
L 460.8 345.6 
L 460.8 0 
L 0 0 
L 0 345.6 
z
" style="fill: none"/>
  </g>
  <g id="axes_1">
   <g id="patch_2">
    <path d="M 57.6 307.584 
L 414.72 307.584 
L 414.72 41.472 
L 57.6 41.472 
L 57.6 307.584 
z
" style="fill: none"/>
   </g>
   <g id="PolyCollection_1">
    <defs>
     <path id="mb6925c980c" d="M 73.832727 -156.524162 
L 73.832727 -70.189799 
L 77.112066 -84.392358 
L 80.391405 -97.545571 
L 83.670744 -109.689204 
L 86.950083 -120.862424 
L 90.229421 -131.103788 
L 93.50876 -140.451247 
L 96.788099 -148.942134 
L 100.067438 -156.613163 
L 103.346777 -163.500428 
L 106.626116 -169.639392 
L 109.905455 -175.064886 
L 113.184793 -179.811107 
L 116.464132 -183.91161 
L 119.743471 -187.399305 
L 123.02281 -190.306454 
L 126.302149 -192.664664 
L 129.581488 -194.504885 
L 132.860826 -195.857406 
L 136.140165 -196.751848 
L 139.419504 -197.217162 
L 142.698843 -197.281623 
L 145.978182 -196.97283 
L 149.257521 -196.317694 
L 152.53686 -195.342441 
L 155.816198 -194.072604 
L 159.095537 -192.53302 
L 162.374876 -190.747825 
L 165.654215 -188.740449 
L 168.933554 -186.533615 
L 172.212893 -184.149328 
L 175.492231 -181.608881 
L 178.77157 -178.932839 
L 182.050909 -176.141044 
L 185.330248 -173.252606 
L 188.609587 -170.285899 
L 191.888926 -167.25856 
L 195.168264 -164.18748 
L 198.447603 -161.088801 
L 201.726942 -157.977916 
L 205.006281 -154.869458 
L 208.28562 -151.777302 
L 211.564959 -148.714555 
L 214.844298 -145.693556 
L 218.123636 -142.725869 
L 221.402975 -139.822281 
L 224.682314 -136.992796 
L 227.961653 -134.246631 
L 231.240992 -131.592213 
L 234.520331 -129.03717 
L 237.799669 -126.588336 
L 241.079008 -124.251737 
L 244.358347 -122.03259 
L 247.637686 -119.935304 
L 250.917025 -117.963465 
L 254.196364 -116.119843 
L 257.475702 -114.40638 
L 260.755041 -112.824189 
L 264.03438 -111.373548 
L 267.313719 -110.053896 
L 270.593058 -108.863832 
L 273.872397 -107.801106 
L 277.151736 -106.862617 
L 280.431074 -106.044408 
L 283.710413 -105.341663 
L 286.989752 -104.7487 
L 290.269091 -104.258972 
L 293.54843 -103.865055 
L 296.827769 -103.558651 
L 300.107107 -103.330579 
L 303.386446 -103.170772 
L 306.665785 -103.068274 
L 309.945124 -103.011235 
L 313.224463 -102.986905 
L 316.503802 -102.981632 
L 319.78314 -102.980856 
L 323.062479 -102.969107 
L 326.341818 -102.929996 
L 329.621157 -102.846219 
L 332.900496 -102.699542 
L 336.179835 -102.470805 
L 339.459174 -102.139917 
L 342.738512 -101.685845 
L 346.017851 -101.086617 
L 349.29719 -100.319316 
L 352.576529 -99.360073 
L 355.855868 -98.184066 
L 359.135207 -96.765511 
L 362.414545 -95.077665 
L 365.693884 -93.092814 
L 368.973223 -90.782275 
L 372.252562 -88.116387 
L 375.531901 -85.06451 
L 378.81124 -81.595019 
L 382.090579 -77.675299 
L 385.369917 -73.271742 
L 388.649256 -68.349745 
L 391.928595 -62.873699 
L 395.207934 -56.806992 
L 398.487273 -50.112 
L 398.487273 -136.446363 
L 398.487273 -136.446363 
L 395.207934 -143.141355 
L 391.928595 -149.208062 
L 388.649256 -154.684108 
L 385.369917 -159.606106 
L 382.090579 -164.009662 
L 378.81124 -167.929382 
L 375.531901 -171.398874 
L 372.252562 -174.45075 
L 368.973223 -177.116638 
L 365.693884 -179.427177 
L 362.414545 -181.412028 
L 359.135207 -183.099874 
L 355.855868 -184.518429 
L 352.576529 -185.694437 
L 349.29719 -186.65368 
L 346.017851 -187.420981 
L 342.738512 -188.020208 
L 339.459174 -188.47428 
L 336.179835 -188.805169 
L 332.900496 -189.033905 
L 329.621157 -189.180582 
L 326.341818 -189.26436 
L 323.062479 -189.30347 
L 319.78314 -189.31522 
L 316.503802 -189.315995 
L 313.224463 -189.321269 
L 309.945124 -189.345599 
L 306.665785 -189.402638 
L 303.386446 -189.505135 
L 300.107107 -189.664942 
L 296.827769 -189.893014 
L 293.54843 -190.199419 
L 290.269091 -190.593335 
L 286.989752 -191.083064 
L 283.710413 -191.676026 
L 280.431074 -192.378771 
L 277.151736 -193.19698 
L 273.872397 -194.135469 
L 270.593058 -195.198196 
L 267.313719 -196.388259 
L 264.03438 -197.707911 
L 260.755041 -199.158552 
L 257.475702 -200.740744 
L 254.196364 -202.454207 
L 250.917025 -204.297829 
L 247.637686 -206.269667 
L 244.358347 -208.366954 
L 241.079008 -210.5861 
L 237.799669 -212.9227 
L 234.520331 -215.371534 
L 231.240992 -217.926576 
L 227.961653 -220.580995 
L 224.682314 -223.32716 
L 221.402975 -226.156645 
L 218.123636 -229.060232 
L 214.844298 -232.027919 
L 211.564959 -235.048918 
L 208.28562 -238.111665 
L 205.006281 -241.203822 
L 201.726942 -244.312279 
L 198.447603 -247.423164 
L 195.168264 -250.521843 
L 191.888926 -253.592923 
L 188.609587 -256.620263 
L 185.330248 -259.586969 
L 182.050909 -262.475407 
L 178.77157 -265.267202 
L 175.492231 -267.943244 
L 172.212893 -270.483692 
L 168.933554 -272.867978 
L 165.654215 -275.074813 
L 162.374876 -277.082188 
L 159.095537 -278.867384 
L 155.816198 -280.406968 
L 152.53686 -281.676804 
L 149.257521 -282.652057 
L 145.978182 -283.307193 
L 142.698843 -283.615987 
L 139.419504 -283.551525 
L 136.140165 -283.086211 
L 132.860826 -282.19177 
L 129.581488 -280.839249 
L 126.302149 -278.999027 
L 123.02281 -276.640817 
L 119.743471 -273.733668 
L 116.464132 -270.245973 
L 113.184793 -266.14547 
L 109.905455 -261.399249 
L 106.626116 -255.973755 
L 103.346777 -249.834791 
L 100.067438 -242.947527 
L 96.788099 -235.276497 
L 93.50876 -226.78561 
L 90.229421 -217.438152 
L 86.950083 -207.196787 
L 83.670744 -196.023568 
L 80.391405 -183.879934 
L 77.112066 -170.726722 
L 73.832727 -156.524162 
z
" style="stroke: #808080; stroke-opacity: 0.2"/>
    </defs>
    <g clip-path="url(#pa3325ed771)">
     <use xlink:href="#mb6925c980c" x="0" y="345.6" style="fill: #808080; fill-opacity: 0.2; stroke: #808080; stroke-opacity: 0.2"/>
    </g>
   </g>
   <g id="matplotlib.axis_1">
    <g id="xtick_1">
     <g id="line2d_1">
      <defs>
       <path id="mc2f102794e" d="M 0 0 
L 0 -3.5 
" style="stroke: #000000; stroke-width: 0.8"/>
      </defs>
      <g>
       <use xlink:href="#mc2f102794e" x="64.284064" y="307.584" style="stroke: #000000; stroke-width: 0.8"/>
      </g>
     </g>
     <g id="text_1">
      <!-- 0 -->
      <g transform="translate(61.784064 317.959) scale(0.1 -0.1)">
       <defs>
        <path id="SimHei-30" d="M 225 2537 
Q 250 3200 412 3587 
Q 575 3975 875 4225 
Q 1175 4475 1612 4475 
Q 2050 4475 2375 4112 
Q 2700 3750 2800 3200 
Q 2900 2650 2862 1937 
Q 2825 1225 2612 775 
Q 2400 325 1975 150 
Q 1550 -25 1125 187 
Q 700 400 525 750 
Q 350 1100 275 1487 
Q 200 1875 225 2537 
z
M 750 2687 
Q 675 2000 800 1462 
Q 925 925 1212 700 
Q 1500 475 1800 612 
Q 2100 750 2237 1162 
Q 2375 1575 2375 2062 
Q 2375 2550 2337 2950 
Q 2300 3350 2112 3675 
Q 1925 4000 1612 4012 
Q 1300 4025 1062 3700 
Q 825 3375 750 2687 
z
" transform="scale(0.015625)"/>
       </defs>
       <use xlink:href="#SimHei-30"/>
      </g>
     </g>
    </g>
    <g id="xtick_2">
     <g id="line2d_2">
      <g>
       <use xlink:href="#mc2f102794e" x="112.02738" y="307.584" style="stroke: #000000; stroke-width: 0.8"/>
      </g>
     </g>
     <g id="text_2">
      <!-- 5 -->
      <g transform="translate(109.52738 317.959) scale(0.1 -0.1)">
       <defs>
        <path id="SimHei-35" d="M 550 1325 
Q 725 650 1150 575 
Q 1575 500 1837 662 
Q 2100 825 2212 1087 
Q 2325 1350 2312 1675 
Q 2300 2000 2137 2225 
Q 1975 2450 1725 2525 
Q 1475 2600 1162 2525 
Q 850 2450 650 2175 
L 225 2225 
Q 275 2375 700 4375 
L 2675 4375 
L 2675 3925 
L 1075 3925 
Q 950 3250 825 2850 
Q 1200 3025 1525 3012 
Q 1850 3000 2150 2862 
Q 2450 2725 2587 2487 
Q 2725 2250 2787 2012 
Q 2850 1775 2837 1500 
Q 2825 1225 2725 937 
Q 2625 650 2425 462 
Q 2225 275 1937 162 
Q 1650 50 1275 75 
Q 900 100 562 350 
Q 225 600 100 1200 
L 550 1325 
z
" transform="scale(0.015625)"/>
       </defs>
       <use xlink:href="#SimHei-35"/>
      </g>
     </g>
    </g>
    <g id="xtick_3">
     <g id="line2d_3">
      <g>
       <use xlink:href="#mc2f102794e" x="159.770695" y="307.584" style="stroke: #000000; stroke-width: 0.8"/>
      </g>
     </g>
     <g id="text_3">
      <!-- 10 -->
      <g transform="translate(154.770695 317.959) scale(0.1 -0.1)">
       <defs>
        <path id="SimHei-31" d="M 1400 3600 
Q 1075 3275 575 2975 
L 575 3450 
Q 1200 3875 1600 4450 
L 1900 4450 
L 1900 150 
L 1400 150 
L 1400 3600 
z
" transform="scale(0.015625)"/>
       </defs>
       <use xlink:href="#SimHei-31"/>
       <use xlink:href="#SimHei-30" x="50"/>
      </g>
     </g>
    </g>
    <g id="xtick_4">
     <g id="line2d_4">
      <g>
       <use xlink:href="#mc2f102794e" x="207.514011" y="307.584" style="stroke: #000000; stroke-width: 0.8"/>
      </g>
     </g>
     <g id="text_4">
      <!-- 15 -->
      <g transform="translate(202.514011 317.959) scale(0.1 -0.1)">
       <use xlink:href="#SimHei-31"/>
       <use xlink:href="#SimHei-35" x="50"/>
      </g>
     </g>
    </g>
    <g id="xtick_5">
     <g id="line2d_5">
      <g>
       <use xlink:href="#mc2f102794e" x="255.257326" y="307.584" style="stroke: #000000; stroke-width: 0.8"/>
      </g>
     </g>
     <g id="text_5">
      <!-- 20 -->
      <g transform="translate(250.257326 317.959) scale(0.1 -0.1)">
       <defs>
        <path id="SimHei-32" d="M 300 250 
Q 325 625 650 925 
Q 975 1225 1475 1862 
Q 1975 2500 2125 2850 
Q 2275 3200 2237 3450 
Q 2200 3700 2000 3862 
Q 1800 4025 1537 4000 
Q 1275 3975 1037 3800 
Q 800 3625 675 3275 
L 200 3350 
Q 400 3925 712 4187 
Q 1025 4450 1450 4475 
Q 1700 4500 1900 4462 
Q 2100 4425 2312 4287 
Q 2525 4150 2662 3875 
Q 2800 3600 2762 3212 
Q 2725 2825 2375 2287 
Q 2025 1750 1025 600 
L 2825 600 
L 2825 150 
L 300 150 
L 300 250 
z
" transform="scale(0.015625)"/>
       </defs>
       <use xlink:href="#SimHei-32"/>
       <use xlink:href="#SimHei-30" x="50"/>
      </g>
     </g>
    </g>
    <g id="xtick_6">
     <g id="line2d_6">
      <g>
       <use xlink:href="#mc2f102794e" x="303.000642" y="307.584" style="stroke: #000000; stroke-width: 0.8"/>
      </g>
     </g>
     <g id="text_6">
      <!-- 25 -->
      <g transform="translate(298.000642 317.959) scale(0.1 -0.1)">
       <use xlink:href="#SimHei-32"/>
       <use xlink:href="#SimHei-35" x="50"/>
      </g>
     </g>
    </g>
    <g id="xtick_7">
     <g id="line2d_7">
      <g>
       <use xlink:href="#mc2f102794e" x="350.743957" y="307.584" style="stroke: #000000; stroke-width: 0.8"/>
      </g>
     </g>
     <g id="text_7">
      <!-- 30 -->
      <g transform="translate(345.743957 317.959) scale(0.1 -0.1)">
       <defs>
        <path id="SimHei-33" d="M 250 1225 
L 700 1300 
Q 800 975 1025 762 
Q 1250 550 1587 562 
Q 1925 575 2125 837 
Q 2325 1100 2300 1437 
Q 2275 1775 2037 1962 
Q 1800 2150 1275 2225 
L 1275 2550 
Q 1800 2600 2037 2825 
Q 2275 3050 2250 3412 
Q 2225 3775 1925 3937 
Q 1625 4100 1287 3975 
Q 950 3850 750 3275 
L 300 3350 
Q 450 3800 712 4100 
Q 975 4400 1425 4450 
Q 1875 4500 2212 4337 
Q 2550 4175 2687 3837 
Q 2825 3500 2725 3100 
Q 2625 2700 2150 2400 
Q 2500 2250 2687 1950 
Q 2875 1650 2812 1162 
Q 2750 675 2375 375 
Q 2000 75 1525 87 
Q 1050 100 700 387 
Q 350 675 250 1225 
z
" transform="scale(0.015625)"/>
       </defs>
       <use xlink:href="#SimHei-33"/>
       <use xlink:href="#SimHei-30" x="50"/>
      </g>
     </g>
    </g>
    <g id="xtick_8">
     <g id="line2d_8">
      <g>
       <use xlink:href="#mc2f102794e" x="398.487273" y="307.584" style="stroke: #000000; stroke-width: 0.8"/>
      </g>
     </g>
     <g id="text_8">
      <!-- 35 -->
      <g transform="translate(393.487273 317.959) scale(0.1 -0.1)">
       <use xlink:href="#SimHei-33"/>
       <use xlink:href="#SimHei-35" x="50"/>
      </g>
     </g>
    </g>
    <g id="text_9">
     <!-- 我方游戏步数/步 -->
     <g transform="translate(191.16 332.630875) scale(0.12 -0.12)">
      <defs>
       <path id="KaiTi-6211" d="M 2100 3200 
Q 2425 3075 2462 3000 
Q 2500 2925 2500 2650 
Q 2975 2775 3400 2925 
Q 3325 3350 3175 4100 
Q 3025 4850 2937 4962 
Q 2850 5075 2887 5112 
Q 2925 5150 3212 5075 
Q 3500 5000 3500 4950 
Q 3500 4900 3475 4712 
Q 3450 4525 3450 4225 
Q 3450 3925 3675 3000 
Q 3875 3075 4162 3150 
Q 4450 3225 4575 3112 
Q 4700 3000 4425 2925 
Q 4150 2850 3750 2750 
Q 3925 2100 4175 1600 
Q 4325 1725 4462 2037 
Q 4600 2350 4575 2512 
Q 4550 2675 4837 2487 
Q 5125 2300 4937 2087 
Q 4750 1875 4375 1325 
Q 4625 900 4912 612 
Q 5200 325 5400 212 
Q 5600 100 5662 337 
Q 5725 575 5800 825 
Q 5875 1075 5875 550 
Q 5875 25 5962 -237 
Q 6050 -500 5850 -500 
Q 5650 -500 5150 -100 
Q 4650 300 4125 1075 
Q 3850 825 3562 675 
Q 3275 525 2987 487 
Q 2700 450 2950 575 
Q 3200 700 3462 875 
Q 3725 1050 3975 1375 
Q 3650 2150 3475 2675 
Q 3000 2500 2500 2350 
Q 2525 2100 2525 1850 
Q 3225 2150 2987 1962 
Q 2750 1775 2525 1625 
Q 2525 975 2500 600 
Q 2475 225 2300 -25 
Q 2125 -275 2062 -137 
Q 2000 0 1750 225 
Q 1500 450 1500 475 
Q 1500 500 1775 425 
Q 2050 350 2125 512 
Q 2200 675 2225 1425 
Q 1500 1100 1262 925 
Q 1025 750 937 762 
Q 850 775 662 937 
Q 475 1100 637 1125 
Q 800 1150 912 1187 
Q 1025 1225 1350 1337 
Q 1675 1450 2250 1700 
Q 2250 2000 2225 2275 
Q 1550 2075 1412 2012 
Q 1275 1950 1050 2125 
Q 825 2300 1100 2300 
Q 1400 2300 2225 2525 
Q 2100 3050 1950 3125 
Q 1725 3075 1575 3062 
Q 1425 3050 1762 3250 
Q 2100 3450 2237 3637 
Q 2375 3825 2375 3900 
Q 2375 4000 2712 3837 
Q 3050 3675 2862 3587 
Q 2675 3500 2100 3200 
z
M 4050 4425 
Q 3950 4525 4187 4537 
Q 4425 4550 4687 4425 
Q 4950 4300 4862 4000 
Q 4775 3700 4450 4000 
L 4050 4425 
z
" transform="scale(0.015625)"/>
       <path id="KaiTi-65b9" d="M 3325 3275 
Q 3650 3100 3562 2987 
Q 3475 2875 3350 2575 
Q 3500 2525 3737 2550 
Q 3975 2575 4125 2637 
Q 4275 2700 4462 2625 
Q 4650 2550 4825 2437 
Q 5000 2325 4887 2200 
Q 4775 2075 4637 1562 
Q 4500 1050 4375 750 
Q 4250 450 4062 200 
Q 3875 -50 3637 -137 
Q 3400 -225 3362 12 
Q 3325 250 2987 550 
Q 2650 850 3050 662 
Q 3450 475 3600 475 
Q 3775 475 3912 737 
Q 4050 1000 4187 1437 
Q 4325 1875 4325 2075 
Q 4325 2275 4212 2337 
Q 4100 2400 3950 2387 
Q 3800 2375 3625 2375 
Q 3475 2375 3275 2450 
Q 3050 1925 2737 1500 
Q 2425 1075 2000 712 
Q 1575 350 1037 112 
Q 500 -125 975 225 
Q 1450 575 1787 912 
Q 2125 1250 2437 1687 
Q 2750 2125 2912 2550 
Q 3075 2975 3100 3250 
Q 2400 3175 1937 3075 
Q 1475 2975 1325 2962 
Q 1175 2950 887 3100 
Q 600 3250 925 3250 
Q 1275 3250 1762 3325 
Q 2250 3400 3437 3562 
Q 4625 3725 5112 3837 
Q 5600 3950 5900 3750 
Q 6200 3550 5837 3512 
Q 5475 3475 4850 3450 
Q 4225 3425 3325 3275 
z
M 3050 4625 
Q 2850 4875 3012 4887 
Q 3175 4900 3387 4862 
Q 3600 4825 3762 4687 
Q 3925 4550 3887 4287 
Q 3850 4025 3562 4212 
Q 3275 4400 3050 4625 
z
" transform="scale(0.015625)"/>
       <path id="KaiTi-6e38" d="M 4800 1950 
Q 5200 2050 5550 2112 
Q 5900 2175 6075 1987 
Q 6250 1800 5925 1787 
Q 5600 1775 4875 1725 
Q 4950 1275 4887 612 
Q 4825 -50 4537 -325 
Q 4250 -600 4150 -400 
Q 4050 -200 3775 -25 
Q 3500 150 3712 112 
Q 3925 75 4175 62 
Q 4425 50 4512 537 
Q 4600 1025 4525 1650 
Q 3950 1550 3762 1525 
Q 3575 1500 3362 1637 
Q 3150 1775 3450 1775 
Q 3775 1775 4450 1875 
Q 4400 2175 4200 2312 
Q 4000 2450 4525 2400 
Q 4775 2825 4762 2900 
Q 4750 2975 4425 2887 
Q 4100 2800 3962 2750 
Q 3825 2700 3587 2837 
Q 3350 2975 3650 2975 
Q 3975 2975 4337 3062 
Q 4700 3150 4825 3237 
Q 4950 3325 5262 3125 
Q 5575 2925 5325 2850 
Q 5075 2775 4625 2300 
Q 4750 2175 4800 1950 
z
M 2600 3050 
Q 2800 2850 2762 2787 
Q 2725 2725 2675 2575 
Q 2850 2550 2975 2550 
Q 3100 2550 3237 2450 
Q 3375 2350 3275 2200 
Q 3175 2050 3150 1762 
Q 3125 1475 3000 1025 
Q 2875 575 2612 337 
Q 2350 100 2300 337 
Q 2250 575 2125 775 
Q 2000 975 2062 950 
Q 2125 925 2312 825 
Q 2500 725 2637 1025 
Q 2775 1325 2837 1737 
Q 2900 2150 2850 2287 
Q 2800 2425 2625 2475 
Q 2500 2125 2137 1600 
Q 1775 1075 1437 900 
Q 1100 725 1262 900 
Q 1425 1075 1650 1375 
Q 1875 1675 2125 2112 
Q 2375 2550 2375 3000 
Q 2200 3000 2037 2975 
Q 1875 2950 1712 3037 
Q 1550 3125 1850 3187 
Q 2150 3250 2550 3362 
Q 2950 3475 3162 3537 
Q 3375 3600 3512 3450 
Q 3650 3300 3362 3225 
Q 3075 3150 2600 3050 
z
M 4175 3900 
Q 4875 4050 5137 4175 
Q 5400 4300 5587 4162 
Q 5775 4025 5450 3912 
Q 5125 3800 4775 3750 
Q 4425 3700 4125 3800 
Q 3875 3475 3675 3375 
Q 3475 3275 3675 3575 
Q 3875 3875 4012 4325 
Q 4150 4775 4100 4937 
Q 4050 5100 4200 5062 
Q 4350 5025 4525 4925 
Q 4700 4825 4612 4737 
Q 4525 4650 4425 4425 
Q 4325 4200 4175 3900 
z
M 1450 1925 
Q 1100 1125 987 612 
Q 875 100 662 575 
Q 450 1050 575 1087 
Q 700 1125 887 1375 
Q 1075 1625 1437 2175 
Q 1800 2725 1450 1925 
z
M 1400 4025 
Q 1250 4200 1137 4387 
Q 1025 4575 1275 4525 
Q 1525 4475 1700 4362 
Q 1875 4250 1825 4012 
Q 1775 3775 1662 3825 
Q 1550 3875 1400 4025 
z
M 2625 4275 
Q 2450 4500 2437 4575 
Q 2425 4650 2712 4612 
Q 3000 4575 3100 4425 
Q 3200 4275 3162 4100 
Q 3125 3925 2975 3987 
Q 2825 4050 2625 4275 
z
M 725 2900 
Q 575 3125 512 3300 
Q 450 3475 825 3325 
Q 1200 3175 1175 2887 
Q 1150 2600 1012 2650 
Q 875 2700 725 2900 
z
" transform="scale(0.015625)"/>
       <path id="KaiTi-620f" d="M 3825 3150 
Q 4150 3275 4312 3350 
Q 4475 3425 4625 3337 
Q 4775 3250 4600 3137 
Q 4425 3025 3900 2825 
Q 3925 2500 4100 1950 
Q 4275 2125 4412 2312 
Q 4550 2500 4575 2687 
Q 4600 2875 4700 2837 
Q 4800 2800 4962 2662 
Q 5125 2525 4975 2425 
Q 4825 2325 4687 2125 
Q 4550 1925 4250 1600 
Q 4575 875 5012 512 
Q 5450 150 5537 312 
Q 5625 475 5737 825 
Q 5850 1175 5837 637 
Q 5825 100 5925 -212 
Q 6025 -525 5350 -225 
Q 4675 75 4000 1375 
Q 3350 800 2812 650 
Q 2275 500 2637 700 
Q 3000 900 3337 1187 
Q 3675 1475 3875 1675 
Q 3725 2175 3625 2725 
Q 3400 2675 3237 2612 
Q 3075 2550 2850 2625 
Q 2625 2700 2925 2800 
Q 3225 2900 3550 3025 
Q 3450 3525 3362 4062 
Q 3275 4600 3162 4762 
Q 3050 4925 3175 4937 
Q 3300 4950 3537 4850 
Q 3775 4750 3712 4562 
Q 3650 4375 3825 3150 
z
M 2050 2050 
Q 2550 1725 2637 1562 
Q 2725 1400 2662 1175 
Q 2600 950 2387 1212 
Q 2175 1475 1900 1700 
Q 1625 1275 1337 1037 
Q 1050 800 737 675 
Q 425 550 662 737 
Q 900 925 1175 1250 
Q 1450 1575 1675 1925 
Q 1125 2400 1025 2525 
Q 925 2650 1150 2562 
Q 1375 2475 1800 2250 
Q 1925 2575 2000 2987 
Q 2075 3400 1925 3362 
Q 1775 3325 1425 3187 
Q 1075 3050 862 3162 
Q 650 3275 912 3312 
Q 1175 3350 1562 3487 
Q 1950 3625 2025 3700 
Q 2100 3775 2262 3725 
Q 2425 3675 2525 3587 
Q 2625 3500 2537 3412 
Q 2450 3325 2350 2937 
Q 2250 2550 2050 2050 
z
M 4500 4475 
Q 4750 4475 4912 4337 
Q 5075 4200 4987 4025 
Q 4900 3850 4700 3987 
Q 4500 4125 4300 4275 
Q 4100 4425 4187 4450 
Q 4275 4475 4500 4475 
z
" transform="scale(0.015625)"/>
       <path id="KaiTi-6b65" d="M 3575 4250 
Q 3800 4275 4062 4362 
Q 4325 4450 4525 4337 
Q 4725 4225 4362 4125 
Q 4000 4025 3575 4050 
Q 3550 3450 3550 3175 
Q 4700 3325 4962 3375 
Q 5225 3425 5375 3325 
Q 5525 3225 5575 3112 
Q 5625 3000 5300 3025 
Q 4975 3050 4375 3000 
Q 3775 2950 3175 2875 
Q 3350 2800 3412 2725 
Q 3475 2650 3437 2512 
Q 3400 2375 3400 1975 
Q 3400 1600 3375 1350 
Q 3350 1100 3300 1000 
Q 3250 900 3112 1087 
Q 2975 1275 3037 1487 
Q 3100 1700 3100 2075 
Q 3100 2450 3075 2600 
Q 3050 2750 3000 2850 
Q 2300 2750 2012 2700 
Q 1725 2650 1500 2587 
Q 1275 2525 1037 2687 
Q 800 2850 1025 2850 
Q 1275 2850 2150 2975 
Q 2100 3675 1987 3850 
Q 1875 4025 2025 4012 
Q 2175 4000 2337 3937 
Q 2500 3875 2462 3712 
Q 2425 3550 2425 3000 
Q 2800 3050 3250 3125 
Q 3250 4075 3212 4487 
Q 3175 4900 3075 5050 
Q 2975 5200 3125 5187 
Q 3275 5175 3500 5087 
Q 3725 5000 3650 4887 
Q 3575 4775 3575 4250 
z
M 4900 2575 
Q 5075 2400 4962 2325 
Q 4850 2250 4537 1712 
Q 4225 1175 3750 700 
Q 3275 225 2587 -112 
Q 1900 -450 1200 -537 
Q 500 -625 1237 -400 
Q 1975 -175 2612 212 
Q 3250 600 3662 1100 
Q 4075 1600 4300 2037 
Q 4525 2475 4500 2650 
Q 4475 2825 4600 2787 
Q 4725 2750 4900 2575 
z
M 2125 1925 
Q 2250 2175 2312 2187 
Q 2375 2200 2362 1825 
Q 2350 1450 2075 1062 
Q 1800 675 1737 975 
Q 1675 1275 1850 1487 
Q 2025 1700 2125 1925 
z
" transform="scale(0.015625)"/>
       <path id="KaiTi-6570" d="M 4100 1300 
Q 4275 1625 4312 1987 
Q 4350 2350 4325 2725 
Q 4125 2700 3875 2725 
Q 3575 2375 3325 2225 
Q 3075 2075 3387 2462 
Q 3700 2850 3912 3487 
Q 4125 4125 4100 4275 
Q 4075 4425 4062 4537 
Q 4050 4650 4362 4487 
Q 4675 4325 4562 4175 
Q 4450 4025 4337 3712 
Q 4225 3400 3925 2850 
Q 4525 2975 4912 3162 
Q 5300 3350 5512 3212 
Q 5725 3075 5450 2975 
Q 5175 2875 4425 2725 
Q 4800 2600 4712 2350 
Q 4625 2100 4562 1775 
Q 4500 1450 4325 1025 
Q 4550 750 4837 512 
Q 5125 275 5437 150 
Q 5750 25 5975 -62 
Q 6200 -150 5737 -187 
Q 5275 -225 5037 -187 
Q 4800 -150 4687 25 
Q 4575 200 4125 800 
Q 3900 550 3675 400 
Q 3450 250 3175 175 
Q 2900 100 3162 262 
Q 3425 425 3625 625 
Q 3825 825 3975 1050 
Q 3800 1350 3637 1562 
Q 3475 1775 3362 1900 
Q 3250 2025 3387 2037 
Q 3525 2050 3612 1950 
Q 3700 1850 4100 1300 
z
M 2575 1600 
Q 2625 1750 2612 1862 
Q 2600 1975 2750 1875 
Q 2900 1775 2962 1700 
Q 3025 1625 2962 1500 
Q 2900 1375 2800 1112 
Q 2700 850 2525 550 
Q 2700 425 2837 300 
Q 2975 175 2925 -62 
Q 2875 -300 2712 -100 
Q 2550 100 2325 275 
Q 1925 -25 1587 -150 
Q 1250 -275 912 -300 
Q 575 -325 850 -212 
Q 1125 -100 1450 50 
Q 1775 200 2050 475 
Q 1750 700 1637 750 
Q 1525 800 1587 900 
Q 1650 1000 1700 1250 
Q 1050 1175 862 1062 
Q 675 950 425 1150 
Q 175 1350 500 1337 
Q 825 1325 1775 1475 
Q 1850 1800 1800 1987 
Q 1750 2175 2025 2037 
Q 2300 1900 2250 1825 
Q 2200 1750 2075 1525 
L 2575 1600 
z
M 2875 3425 
Q 3125 3475 3225 3387 
Q 3325 3300 3100 3225 
Q 2875 3150 2350 3075 
L 2350 2875 
Q 2775 2825 2975 2687 
Q 3175 2550 3112 2350 
Q 3050 2150 2812 2412 
Q 2575 2675 2350 2800 
Q 2350 2500 2300 2287 
Q 2250 2075 2137 2262 
Q 2025 2450 2062 2600 
Q 2100 2750 2075 2950 
Q 1475 2175 975 1937 
Q 475 1700 762 1925 
Q 1050 2150 1362 2475 
Q 1675 2800 1800 3050 
Q 1450 2925 1312 2900 
Q 1175 2875 975 3012 
Q 775 3150 1050 3137 
Q 1325 3125 2100 3275 
L 2100 4175 
Q 2100 4700 2012 4837 
Q 1925 4975 1987 4987 
Q 2050 5000 2300 4887 
Q 2550 4775 2462 4625 
Q 2375 4475 2375 3325 
L 2875 3425 
z
M 2250 675 
Q 2450 925 2575 1425 
L 2000 1325 
Q 1825 925 1837 875 
Q 1850 825 1937 800 
Q 2025 775 2250 675 
z
M 3250 4275 
Q 3450 4150 3300 4087 
Q 3150 4025 2762 3737 
Q 2375 3450 2600 3737 
Q 2825 4025 2900 4237 
Q 2975 4450 3025 4425 
Q 3075 4400 3250 4275 
z
M 1550 3600 
Q 1350 3875 1287 4000 
Q 1225 4125 1537 4050 
Q 1850 3975 1812 3662 
Q 1775 3350 1550 3600 
z
" transform="scale(0.015625)"/>
       <path id="KaiTi-2f" d="M 3000 4550 
L 350 -175 
L 100 -25 
L 2750 4700 
L 3000 4550 
z
" transform="scale(0.015625)"/>
      </defs>
      <use xlink:href="#KaiTi-6211"/>
      <use xlink:href="#KaiTi-65b9" x="100"/>
      <use xlink:href="#KaiTi-6e38" x="200"/>
      <use xlink:href="#KaiTi-620f" x="300"/>
      <use xlink:href="#KaiTi-6b65" x="400"/>
      <use xlink:href="#KaiTi-6570" x="500"/>
      <use xlink:href="#KaiTi-2f" x="600"/>
      <use xlink:href="#KaiTi-6b65" x="650"/>
     </g>
    </g>
   </g>
   <g id="matplotlib.axis_2">
    <g id="ytick_1">
     <g id="line2d_9">
      <defs>
       <path id="m17d8583d2c" d="M 0 0 
L 3.5 0 
" style="stroke: #000000; stroke-width: 0.8"/>
      </defs>
      <g>
       <use xlink:href="#m17d8583d2c" x="57.6" y="294.385736" style="stroke: #000000; stroke-width: 0.8"/>
      </g>
     </g>
     <g id="text_10">
      <!-- 0 -->
      <g transform="translate(49.1 297.823236) scale(0.1 -0.1)">
       <use xlink:href="#SimHei-30"/>
      </g>
     </g>
    </g>
    <g id="ytick_2">
     <g id="line2d_10">
      <g>
       <use xlink:href="#m17d8583d2c" x="57.6" y="239.599092" style="stroke: #000000; stroke-width: 0.8"/>
      </g>
     </g>
     <g id="text_11">
      <!-- 500 -->
      <g transform="translate(39.1 243.036592) scale(0.1 -0.1)">
       <use xlink:href="#SimHei-35"/>
       <use xlink:href="#SimHei-30" x="50"/>
       <use xlink:href="#SimHei-30" x="100"/>
      </g>
     </g>
    </g>
    <g id="ytick_3">
     <g id="line2d_11">
      <g>
       <use xlink:href="#m17d8583d2c" x="57.6" y="184.812448" style="stroke: #000000; stroke-width: 0.8"/>
      </g>
     </g>
     <g id="text_12">
      <!-- 1000 -->
      <g transform="translate(34.1 188.249948) scale(0.1 -0.1)">
       <use xlink:href="#SimHei-31"/>
       <use xlink:href="#SimHei-30" x="50"/>
       <use xlink:href="#SimHei-30" x="100"/>
       <use xlink:href="#SimHei-30" x="150"/>
      </g>
     </g>
    </g>
    <g id="ytick_4">
     <g id="line2d_12">
      <g>
       <use xlink:href="#m17d8583d2c" x="57.6" y="130.025805" style="stroke: #000000; stroke-width: 0.8"/>
      </g>
     </g>
     <g id="text_13">
      <!-- 1500 -->
      <g transform="translate(34.1 133.463305) scale(0.1 -0.1)">
       <use xlink:href="#SimHei-31"/>
       <use xlink:href="#SimHei-35" x="50"/>
       <use xlink:href="#SimHei-30" x="100"/>
       <use xlink:href="#SimHei-30" x="150"/>
      </g>
     </g>
    </g>
    <g id="ytick_5">
     <g id="line2d_13">
      <g>
       <use xlink:href="#m17d8583d2c" x="57.6" y="75.239161" style="stroke: #000000; stroke-width: 0.8"/>
      </g>
     </g>
     <g id="text_14">
      <!-- 2000 -->
      <g transform="translate(34.1 78.676661) scale(0.1 -0.1)">
       <use xlink:href="#SimHei-32"/>
       <use xlink:href="#SimHei-30" x="50"/>
       <use xlink:href="#SimHei-30" x="100"/>
       <use xlink:href="#SimHei-30" x="150"/>
      </g>
     </g>
    </g>
    <g id="text_15">
     <!-- 有效结点个数/个 -->
     <g transform="translate(28.6 219.528) rotate(-90) scale(0.12 -0.12)">
      <defs>
       <path id="KaiTi-6709" d="M 2700 2050 
Q 2975 2075 3312 2162 
Q 3650 2250 3737 2125 
Q 3825 2000 3500 1937 
Q 3175 1875 2700 1875 
Q 2700 1550 2650 1200 
Q 3100 1225 3362 1312 
Q 3625 1400 3750 1262 
Q 3875 1125 3425 1050 
Q 2975 975 2650 1075 
Q 2600 375 2437 25 
Q 2275 -325 2162 -100 
Q 2050 125 2162 375 
Q 2275 625 2337 950 
Q 2400 1275 2437 1862 
Q 2475 2450 2450 2675 
Q 2050 2125 1662 1750 
Q 1275 1375 775 1125 
Q 275 875 750 1250 
Q 1225 1625 1750 2262 
Q 2275 2900 2700 3750 
Q 1650 3625 1387 3562 
Q 1125 3500 900 3650 
Q 675 3800 787 3812 
Q 900 3825 1300 3837 
Q 1700 3850 2775 4000 
Q 3075 4750 2962 4950 
Q 2850 5150 2925 5150 
Q 3025 5150 3312 5050 
Q 3600 4950 3512 4837 
Q 3425 4725 3350 4525 
Q 3275 4325 3150 4025 
Q 3650 4100 4137 4175 
Q 4625 4250 4912 4287 
Q 5200 4325 5462 4287 
Q 5725 4250 5850 4100 
Q 5975 3950 5825 3925 
Q 5675 3900 5275 3925 
Q 4875 3950 4337 3912 
Q 3800 3875 3075 3775 
Q 2850 3275 2625 2950 
Q 2725 2825 3187 2937 
Q 3650 3050 3800 3100 
Q 3950 3150 4125 3100 
Q 4300 3050 4437 2975 
Q 4575 2900 4487 2625 
Q 4400 2350 4425 2012 
Q 4450 1675 4475 1225 
Q 4500 775 4525 412 
Q 4550 50 4450 -187 
Q 4350 -425 4187 -575 
Q 4025 -725 3975 -512 
Q 3925 -300 3675 -37 
Q 3425 225 3637 162 
Q 3850 100 3987 87 
Q 4125 75 4125 725 
Q 4125 1400 4075 2100 
Q 4025 2800 3850 2850 
Q 3675 2900 2700 2700 
L 2700 2050 
z
" transform="scale(0.015625)"/>
       <path id="KaiTi-6548" d="M 3850 2875 
Q 4525 3025 4912 3225 
Q 5300 3425 5562 3312 
Q 5825 3200 5337 3012 
Q 4850 2825 4525 2750 
Q 4800 2550 4762 2450 
Q 4725 2350 4687 2237 
Q 4650 2125 4600 1875 
Q 4550 1625 4375 1150 
Q 4675 700 5087 437 
Q 5500 175 5900 50 
Q 6300 -75 6100 -137 
Q 5900 -200 5475 -200 
Q 5050 -200 4900 -75 
Q 4750 50 4200 850 
Q 3900 475 3612 325 
Q 3325 175 3000 137 
Q 2675 100 2937 212 
Q 3200 325 3462 525 
Q 3725 725 4000 1125 
Q 3500 2000 3350 2100 
Q 3200 2200 3350 2200 
Q 3525 2200 3637 2112 
Q 3750 2025 3787 1937 
Q 3825 1850 4150 1400 
Q 4275 1800 4312 2112 
Q 4350 2425 4275 2700 
Q 4125 2675 4012 2687 
Q 3900 2700 3800 2750 
Q 3525 2425 3337 2312 
Q 3150 2200 3287 2375 
Q 3425 2550 3650 3050 
Q 3875 3550 3987 4012 
Q 4100 4475 4050 4725 
Q 4000 4975 4162 4900 
Q 4325 4825 4500 4712 
Q 4675 4600 4587 4525 
Q 4500 4450 4350 4037 
Q 4200 3625 4100 3425 
L 3850 2875 
z
M 2425 1100 
Q 2725 875 2787 712 
Q 2850 550 2800 450 
Q 2750 350 2637 437 
Q 2525 525 2225 850 
Q 2000 600 1687 312 
Q 1375 25 975 -125 
Q 575 -275 850 -75 
Q 1125 125 1400 387 
Q 1675 650 2000 1050 
Q 1825 1250 1637 1462 
Q 1450 1675 1662 1600 
Q 1875 1525 2175 1325 
Q 2250 1425 2350 1625 
Q 2450 1825 2450 1950 
Q 2450 2075 2537 2037 
Q 2625 2000 2775 1862 
Q 2925 1725 2825 1662 
Q 2725 1600 2425 1100 
z
M 3400 3475 
Q 3400 3350 3000 3250 
Q 2600 3150 1950 3037 
Q 1300 2925 1150 2925 
Q 1000 2925 825 3037 
Q 650 3150 912 3137 
Q 1175 3125 1850 3300 
Q 2525 3475 2737 3550 
Q 2950 3625 3175 3625 
Q 3400 3625 3400 3475 
z
M 1775 2650 
Q 1950 2525 1950 2475 
Q 1950 2425 1787 2262 
Q 1625 2100 1475 1925 
Q 1325 1750 975 1512 
Q 625 1275 650 1362 
Q 675 1450 812 1550 
Q 950 1650 1200 2000 
Q 1450 2350 1462 2450 
Q 1475 2550 1475 2650 
Q 1475 2750 1550 2762 
Q 1625 2775 1775 2650 
z
M 2075 4200 
Q 1950 4325 1875 4437 
Q 1800 4550 2150 4512 
Q 2500 4475 2637 4275 
Q 2775 4075 2662 3950 
Q 2550 3825 2375 3950 
Q 2200 4075 2075 4200 
z
M 2500 2500 
Q 2425 2600 2362 2700 
Q 2300 2800 2600 2762 
Q 2900 2725 3012 2537 
Q 3125 2350 3037 2237 
Q 2950 2125 2762 2275 
Q 2575 2425 2500 2500 
z
" transform="scale(0.015625)"/>
       <path id="KaiTi-7ed3" d="M 5175 575 
Q 5475 375 5225 337 
Q 4975 300 3775 250 
Q 3700 -125 3562 175 
Q 3425 475 3325 775 
Q 3225 1075 3150 1200 
Q 3075 1325 3187 1337 
Q 3300 1350 3462 1337 
Q 3625 1325 3975 1375 
Q 4325 1425 4537 1462 
Q 4750 1500 4887 1550 
Q 5025 1600 5212 1525 
Q 5400 1450 5575 1312 
Q 5750 1175 5562 1100 
Q 5375 1025 5175 575 
z
M 4475 3300 
Q 5125 3425 5387 3487 
Q 5650 3550 5862 3387 
Q 6075 3225 5737 3200 
Q 5400 3175 4475 3050 
L 4475 2275 
Q 4750 2325 4987 2362 
Q 5225 2400 5412 2237 
Q 5600 2075 5350 2075 
Q 5100 2075 4600 2012 
Q 4100 1950 3737 1900 
Q 3375 1850 3200 1975 
Q 3025 2100 3300 2125 
Q 3575 2150 4150 2225 
L 4150 2975 
Q 3450 2875 3275 2837 
Q 3100 2800 2900 2937 
Q 2700 3075 2987 3087 
Q 3275 3100 4150 3225 
Q 4150 4075 4100 4312 
Q 4050 4550 3937 4762 
Q 3825 4975 4300 4825 
Q 4675 4675 4575 4525 
Q 4475 4375 4475 3300 
z
M 1975 3000 
Q 2350 3525 2312 3700 
Q 2275 3875 2462 3800 
Q 2650 3725 2812 3612 
Q 2975 3500 2800 3412 
Q 2625 3325 2250 2825 
Q 1875 2325 1725 2125 
Q 1675 2050 1650 2025 
Q 2825 2300 2612 2162 
Q 2400 2025 1925 1837 
Q 1450 1650 1300 1500 
Q 1150 1350 1075 1475 
Q 1000 1600 987 1737 
Q 975 1875 1175 1975 
Q 1375 2075 1875 2825 
Q 1150 2675 987 2587 
Q 825 2500 775 2587 
Q 725 2675 725 2825 
Q 725 2975 937 3037 
Q 1150 3100 1525 3787 
Q 1900 4475 1825 4675 
Q 1750 4875 2125 4675 
Q 2450 4425 2250 4300 
Q 2050 4175 1275 2950 
L 1975 3000 
z
M 3625 1125 
Q 3675 725 3750 425 
Q 4075 450 4412 487 
Q 4750 525 4925 525 
Q 5000 925 5012 1075 
Q 5025 1225 4950 1250 
Q 4875 1275 4575 1250 
Q 4275 1225 3625 1125 
z
M 1625 1025 
Q 2575 1450 2775 1500 
Q 2975 1550 2637 1325 
Q 2300 1100 1762 787 
Q 1225 475 1125 337 
Q 1025 200 700 437 
Q 375 675 637 700 
Q 900 725 1625 1025 
z
" transform="scale(0.015625)"/>
       <path id="KaiTi-70b9" d="M 3375 3925 
Q 4025 4025 4337 4150 
Q 4650 4275 4887 4112 
Q 5125 3950 4412 3800 
Q 3700 3650 3350 3750 
L 3325 2800 
Q 3825 2850 3987 2925 
Q 4150 3000 4400 2912 
Q 4650 2825 4825 2700 
Q 5000 2575 4862 2462 
Q 4725 2350 4625 2262 
Q 4525 2175 4350 1750 
Q 4625 1450 4375 1462 
Q 4125 1475 2400 1300 
Q 2350 1125 2275 1175 
Q 2200 1225 2137 1412 
Q 2075 1600 1987 2000 
Q 1900 2400 1800 2562 
Q 1700 2725 1850 2712 
Q 2000 2700 2087 2675 
Q 2175 2650 2375 2662 
Q 2575 2675 3000 2750 
Q 3000 3850 2975 4212 
Q 2950 4575 2812 4775 
Q 2675 4975 2925 4937 
Q 3175 4900 3350 4825 
Q 3525 4750 3462 4612 
Q 3400 4475 3375 3925 
z
M 2350 2025 
L 2400 1500 
Q 2875 1575 4000 1700 
Q 4100 2200 4125 2425 
Q 4150 2650 3975 2650 
Q 3800 2650 3225 2575 
L 2300 2450 
L 2350 2025 
z
M 4975 1025 
Q 5450 825 5662 575 
Q 5875 325 5812 37 
Q 5750 -250 5475 12 
Q 5200 275 4775 775 
Q 4350 1275 4975 1025 
z
M 1125 750 
Q 1325 1275 1362 750 
Q 1400 225 1137 -187 
Q 875 -600 775 -350 
Q 675 -100 775 87 
Q 875 275 1125 750 
z
M 4000 675 
Q 4175 475 4100 225 
Q 4025 -25 3862 125 
Q 3700 275 3587 462 
Q 3475 650 3400 837 
Q 3325 1025 3575 950 
Q 3825 875 4000 675 
z
M 2350 300 
Q 2175 650 2175 775 
Q 2175 900 2425 775 
Q 2675 650 2762 425 
Q 2850 200 2700 0 
Q 2550 -200 2350 300 
z
" transform="scale(0.015625)"/>
       <path id="KaiTi-4e2a" d="M 3175 4425 
Q 4050 3500 4400 3200 
Q 4750 2900 5125 2687 
Q 5500 2475 5950 2337 
Q 6400 2200 6037 2137 
Q 5675 2075 5225 2100 
Q 4775 2125 4600 2350 
Q 4425 2575 4075 3037 
Q 3725 3500 3075 4275 
Q 2750 3675 2437 3237 
Q 2125 2800 1675 2325 
Q 1225 1850 675 1575 
Q 125 1300 587 1675 
Q 1050 2050 1475 2537 
Q 1900 3025 2200 3487 
Q 2500 3950 2650 4362 
Q 2800 4775 2737 4975 
Q 2675 5175 2887 5100 
Q 3100 5025 3275 4887 
Q 3450 4750 3362 4662 
Q 3275 4575 3175 4425 
z
M 3225 2875 
Q 3425 2800 3337 2650 
Q 3250 2500 3275 1275 
Q 3300 50 3212 -350 
Q 3125 -750 2962 -437 
Q 2800 -125 2837 62 
Q 2875 250 2925 850 
Q 2975 1450 2912 2075 
Q 2850 2700 2712 2862 
Q 2575 3025 2812 3000 
Q 3050 2975 3225 2875 
z
" transform="scale(0.015625)"/>
      </defs>
      <use xlink:href="#KaiTi-6709"/>
      <use xlink:href="#KaiTi-6548" x="100"/>
      <use xlink:href="#KaiTi-7ed3" x="200"/>
      <use xlink:href="#KaiTi-70b9" x="300"/>
      <use xlink:href="#KaiTi-4e2a" x="400"/>
      <use xlink:href="#KaiTi-6570" x="500"/>
      <use xlink:href="#KaiTi-2f" x="600"/>
      <use xlink:href="#KaiTi-4e2a" x="650"/>
     </g>
    </g>
   </g>
   <g id="line2d_14">
    <defs>
     <path id="m61603d0581" d="M 0 3 
C 0.795609 3 1.55874 2.683901 2.12132 2.12132 
C 2.683901 1.55874 3 0.795609 3 0 
C 3 -0.795609 2.683901 -1.55874 2.12132 -2.12132 
C 1.55874 -2.683901 0.795609 -3 0 -3 
C -0.795609 -3 -1.55874 -2.683901 -2.12132 -2.12132 
C -2.683901 -1.55874 -3 -0.795609 -3 0 
C -3 0.795609 -2.683901 1.55874 -2.12132 2.12132 
C -1.55874 2.683901 -0.795609 3 0 3 
z
" style="stroke: #f77189"/>
    </defs>
    <g clip-path="url(#pa3325ed771)">
     <use xlink:href="#m61603d0581" x="73.832727" y="222.931778" style="fill: #f77189; stroke: #f77189"/>
     <use xlink:href="#m61603d0581" x="83.38139" y="196.110672" style="fill: #f77189; stroke: #f77189"/>
     <use xlink:href="#m61603d0581" x="92.930053" y="201.930231" style="fill: #f77189; stroke: #f77189"/>
     <use xlink:href="#m61603d0581" x="102.478717" y="165.710172" style="fill: #f77189; stroke: #f77189"/>
     <use xlink:href="#m61603d0581" x="112.02738" y="71.611068" style="fill: #f77189; stroke: #f77189"/>
     <use xlink:href="#m61603d0581" x="121.576043" y="53.568" style="fill: #f77189; stroke: #f77189"/>
     <use xlink:href="#m61603d0581" x="131.124706" y="101.914169" style="fill: #f77189; stroke: #f77189"/>
     <use xlink:href="#m61603d0581" x="140.673369" y="114.782943" style="fill: #f77189; stroke: #f77189"/>
     <use xlink:href="#m61603d0581" x="150.222032" y="197.145531" style="fill: #f77189; stroke: #f77189"/>
     <use xlink:href="#m61603d0581" x="159.770695" y="111.447045" style="fill: #f77189; stroke: #f77189"/>
     <use xlink:href="#m61603d0581" x="169.319358" y="99.880976" style="fill: #f77189; stroke: #f77189"/>
     <use xlink:href="#m61603d0581" x="178.868021" y="72.816374" style="fill: #f77189; stroke: #f77189"/>
     <use xlink:href="#m61603d0581" x="188.416684" y="84.845086" style="fill: #f77189; stroke: #f77189"/>
     <use xlink:href="#m61603d0581" x="197.965348" y="214.360712" style="fill: #f77189; stroke: #f77189"/>
     <use xlink:href="#m61603d0581" x="207.514011" y="195.976749" style="fill: #f77189; stroke: #f77189"/>
     <use xlink:href="#m61603d0581" x="217.062674" y="161.850757" style="fill: #f77189; stroke: #f77189"/>
     <use xlink:href="#m61603d0581" x="226.611337" y="173.075932" style="fill: #f77189; stroke: #f77189"/>
     <use xlink:href="#m61603d0581" x="236.16" y="171.955849" style="fill: #f77189; stroke: #f77189"/>
     <use xlink:href="#m61603d0581" x="245.708663" y="146.694641" style="fill: #f77189; stroke: #f77189"/>
     <use xlink:href="#m61603d0581" x="255.257326" y="152.762262" style="fill: #f77189; stroke: #f77189"/>
     <use xlink:href="#m61603d0581" x="264.805989" y="208.020071" style="fill: #f77189; stroke: #f77189"/>
     <use xlink:href="#m61603d0581" x="274.354652" y="168.003906" style="fill: #f77189; stroke: #f77189"/>
     <use xlink:href="#m61603d0581" x="283.903316" y="198.289963" style="fill: #f77189; stroke: #f77189"/>
     <use xlink:href="#m61603d0581" x="293.451979" y="124.963519" style="fill: #f77189; stroke: #f77189"/>
     <use xlink:href="#m61603d0581" x="303.000642" y="206.639447" style="fill: #f77189; stroke: #f77189"/>
     <use xlink:href="#m61603d0581" x="312.549305" y="250.008554" style="fill: #f77189; stroke: #f77189"/>
     <use xlink:href="#m61603d0581" x="322.097968" y="283.318834" style="fill: #f77189; stroke: #f77189"/>
     <use xlink:href="#m61603d0581" x="331.646631" y="197.303803" style="fill: #f77189; stroke: #f77189"/>
     <use xlink:href="#m61603d0581" x="341.195294" y="273.950318" style="fill: #f77189; stroke: #f77189"/>
     <use xlink:href="#m61603d0581" x="350.743957" y="106.467548" style="fill: #f77189; stroke: #f77189"/>
     <use xlink:href="#m61603d0581" x="360.29262" y="187.770927" style="fill: #f77189; stroke: #f77189"/>
     <use xlink:href="#m61603d0581" x="369.841283" y="215.602542" style="fill: #f77189; stroke: #f77189"/>
     <use xlink:href="#m61603d0581" x="379.389947" y="212.644063" style="fill: #f77189; stroke: #f77189"/>
     <use xlink:href="#m61603d0581" x="388.93861" y="204.53564" style="fill: #f77189; stroke: #f77189"/>
     <use xlink:href="#m61603d0581" x="398.487273" y="288.687925" style="fill: #f77189; stroke: #f77189"/>
    </g>
   </g>
   <g id="line2d_15">
    <path d="M 73.832727 232.24302 
L 77.112066 218.04046 
L 80.391405 204.887247 
L 83.670744 192.743614 
L 86.950083 181.570395 
L 90.229421 171.32903 
L 93.50876 161.981571 
L 96.788099 153.490685 
L 100.067438 145.819655 
L 103.346777 138.93239 
L 106.626116 132.793427 
L 109.905455 127.367932 
L 113.184793 122.621712 
L 116.464132 118.521209 
L 119.743471 115.033513 
L 123.02281 112.126365 
L 126.302149 109.768155 
L 129.581488 107.927933 
L 132.860826 106.575412 
L 136.140165 105.68097 
L 139.419504 105.215657 
L 142.698843 105.151195 
L 145.978182 105.459989 
L 149.257521 106.115124 
L 152.53686 107.090377 
L 155.816198 108.360214 
L 159.095537 109.899798 
L 162.374876 111.684993 
L 165.654215 113.692369 
L 168.933554 115.899204 
L 172.212893 118.28349 
L 175.492231 120.823938 
L 178.77157 123.499979 
L 182.050909 126.291774 
L 185.330248 129.180213 
L 188.609587 132.146919 
L 191.888926 135.174258 
L 195.168264 138.245339 
L 198.447603 141.344017 
L 201.726942 144.454902 
L 205.006281 147.56336 
L 208.28562 150.655516 
L 211.564959 153.718263 
L 214.844298 156.739263 
L 218.123636 159.706949 
L 221.402975 162.610537 
L 224.682314 165.440022 
L 227.961653 168.186187 
L 231.240992 170.840606 
L 234.520331 173.395648 
L 237.799669 175.844482 
L 241.079008 178.181082 
L 244.358347 180.400228 
L 247.637686 182.497515 
L 250.917025 184.469353 
L 254.196364 186.312975 
L 257.475702 188.026438 
L 260.755041 189.608629 
L 264.03438 191.059271 
L 267.313719 192.378922 
L 270.593058 193.568986 
L 273.872397 194.631712 
L 277.151736 195.570202 
L 280.431074 196.388411 
L 283.710413 197.091156 
L 286.989752 197.684118 
L 290.269091 198.173846 
L 293.54843 198.567763 
L 296.827769 198.874167 
L 300.107107 199.10224 
L 303.386446 199.262046 
L 306.665785 199.364544 
L 309.945124 199.421583 
L 313.224463 199.445913 
L 316.503802 199.451186 
L 319.78314 199.451962 
L 323.062479 199.463712 
L 326.341818 199.502822 
L 329.621157 199.5866 
L 332.900496 199.733277 
L 336.179835 199.962013 
L 339.459174 200.292902 
L 342.738512 200.746974 
L 346.017851 201.346201 
L 349.29719 202.113502 
L 352.576529 203.072745 
L 355.855868 204.248753 
L 359.135207 205.667307 
L 362.414545 207.355154 
L 365.693884 209.340004 
L 368.973223 211.650543 
L 372.252562 214.316431 
L 375.531901 217.368308 
L 378.81124 220.8378 
L 382.090579 224.75752 
L 385.369917 229.161076 
L 388.649256 234.083074 
L 391.928595 239.55912 
L 395.207934 245.625827 
L 398.487273 252.320818 
" clip-path="url(#pa3325ed771)" style="fill: none; stroke: #bb9832; stroke-width: 1.5; stroke-linecap: square"/>
   </g>
   <g id="patch_3">
    <path d="M 57.6 307.584 
L 57.6 41.472 
" style="fill: none; stroke: #000000; stroke-width: 0.8; stroke-linejoin: miter; stroke-linecap: square"/>
   </g>
   <g id="patch_4">
    <path d="M 414.72 307.584 
L 414.72 41.472 
" style="fill: none; stroke: #000000; stroke-width: 0.8; stroke-linejoin: miter; stroke-linecap: square"/>
   </g>
   <g id="patch_5">
    <path d="M 57.6 307.584 
L 414.72 307.584 
" style="fill: none; stroke: #000000; stroke-width: 0.8; stroke-linejoin: miter; stroke-linecap: square"/>
   </g>
   <g id="patch_6">
    <path d="M 57.6 41.472 
L 414.72 41.472 
" style="fill: none; stroke: #000000; stroke-width: 0.8; stroke-linejoin: miter; stroke-linecap: square"/>
   </g>
   <g id="legend_1">
    <g id="patch_7">
     <path d="M 275.72 91.425125 
L 407.72 91.425125 
Q 409.72 91.425125 409.72 89.425125 
L 409.72 48.472 
Q 409.72 46.472 407.72 46.472 
L 275.72 46.472 
Q 273.72 46.472 273.72 48.472 
L 273.72 89.425125 
Q 273.72 91.425125 275.72 91.425125 
z
" style="fill: #ffffff; opacity: 0.8; stroke: #cccccc; stroke-linejoin: miter"/>
    </g>
    <g id="line2d_16">
     <g>
      <use xlink:href="#m61603d0581" x="287.72" y="54.511063" style="fill: #f77189; stroke: #f77189"/>
     </g>
    </g>
    <g id="text_16">
     <!-- 数据点 -->
     <g transform="translate(305.72 58.011063) scale(0.1 -0.1)">
      <defs>
       <path id="KaiTi-636e" d="M 4850 3550 
Q 5125 3250 4812 3225 
Q 4500 3200 3450 3050 
Q 3375 2525 3325 2250 
Q 3650 2250 4225 2350 
Q 4300 2750 4225 2900 
Q 4150 3050 4312 3012 
Q 4475 2975 4637 2887 
Q 4800 2800 4712 2700 
Q 4625 2600 4550 2375 
Q 5050 2475 5437 2550 
Q 5825 2625 6037 2437 
Q 6250 2250 5625 2237 
Q 5000 2225 4475 2125 
Q 4375 1800 4175 1275 
Q 4775 1400 4887 1475 
Q 5000 1550 5200 1475 
Q 5400 1400 5587 1250 
Q 5775 1100 5587 987 
Q 5400 875 5250 450 
Q 5600 150 5275 162 
Q 4950 175 3875 75 
Q 3775 -300 3700 -112 
Q 3625 75 3562 487 
Q 3500 900 3375 1137 
Q 3250 1375 3362 1362 
Q 3475 1350 3587 1300 
Q 3700 1250 3950 1275 
Q 4125 1925 4150 2100 
Q 3725 2050 3612 2025 
Q 3500 2000 3300 2125 
Q 3225 1575 2987 925 
Q 2750 275 2350 -62 
Q 1950 -400 2237 -25 
Q 2525 350 2725 925 
Q 2925 1500 3025 2150 
Q 3125 2800 3175 3337 
Q 3225 3875 3100 4087 
Q 2975 4300 3075 4300 
Q 3200 4300 3350 4262 
Q 3500 4225 3712 4250 
Q 3925 4275 4200 4337 
Q 4475 4400 4600 4475 
Q 4725 4550 4912 4500 
Q 5100 4450 5287 4337 
Q 5475 4225 5237 4050 
Q 5000 3875 4850 3550 
z
M 2150 3375 
Q 2500 3525 2650 3475 
Q 2800 3425 2750 3337 
Q 2700 3250 2100 3100 
L 2075 2275 
Q 2675 2550 2562 2412 
Q 2450 2275 2075 2050 
Q 2075 1000 2087 600 
Q 2100 200 1900 -75 
Q 1700 -350 1625 -137 
Q 1550 75 1287 312 
Q 1025 550 1337 462 
Q 1650 375 1712 437 
Q 1775 500 1787 862 
Q 1800 1225 1800 1875 
Q 950 1350 837 1200 
Q 725 1050 462 1300 
Q 200 1550 450 1587 
Q 700 1625 1025 1762 
Q 1350 1900 1800 2175 
L 1800 3000 
Q 1450 2900 1225 2837 
Q 1000 2775 800 2887 
Q 600 3000 900 3062 
Q 1200 3125 1800 3300 
Q 1825 4525 1675 4775 
Q 1525 5025 1787 4962 
Q 2050 4900 2200 4800 
Q 2350 4700 2225 4525 
Q 2100 4350 2100 3375 
L 2150 3375 
z
M 3800 1075 
Q 3850 700 3875 275 
Q 4375 300 4950 425 
Q 5025 775 5037 950 
Q 5050 1125 5000 1175 
Q 4950 1225 4325 1125 
L 3800 1075 
z
M 4600 3475 
Q 4650 3800 4675 3987 
Q 4700 4175 4575 4175 
Q 4475 4175 3550 4025 
Q 3500 3625 3475 3250 
L 4600 3475 
z
" transform="scale(0.015625)"/>
      </defs>
      <use xlink:href="#KaiTi-6570"/>
      <use xlink:href="#KaiTi-636e" x="100"/>
      <use xlink:href="#KaiTi-70b9" x="200"/>
     </g>
    </g>
    <g id="line2d_17">
     <path d="M 277.72 68.339188 
L 287.72 68.339188 
L 297.72 68.339188 
" style="fill: none; stroke: #bb9832; stroke-width: 1.5; stroke-linecap: square"/>
    </g>
    <g id="text_17">
     <!-- 均值曲线 -->
     <g transform="translate(305.72 71.839188) scale(0.1 -0.1)">
      <defs>
       <path id="KaiTi-5747" d="M 3625 3450 
Q 3900 3425 4300 3512 
Q 4700 3600 4800 3662 
Q 4900 3725 5075 3675 
Q 5250 3625 5462 3500 
Q 5675 3375 5550 3262 
Q 5425 3150 5450 2500 
Q 5475 1850 5425 1200 
Q 5375 550 5237 237 
Q 5100 -75 4825 -300 
Q 4550 -525 4462 -275 
Q 4375 -25 4075 250 
Q 3775 525 4087 412 
Q 4400 300 4562 287 
Q 4725 275 4887 662 
Q 5050 1050 5075 1912 
Q 5100 2775 5012 3100 
Q 4925 3425 4500 3350 
Q 4075 3275 3925 3225 
Q 3775 3175 3525 3325 
Q 3250 2925 2912 2700 
Q 2575 2475 2900 2912 
Q 3225 3350 3487 3950 
Q 3750 4550 3700 4812 
Q 3650 5075 3875 5000 
Q 4100 4925 4262 4787 
Q 4425 4650 4300 4575 
Q 4175 4500 4012 4200 
Q 3850 3900 3625 3450 
z
M 1975 3100 
Q 2225 3175 2400 3212 
Q 2575 3250 2612 3150 
Q 2650 3050 2487 2950 
Q 2325 2850 1975 2725 
Q 1950 2175 1950 1725 
Q 2350 1950 2550 2075 
Q 2750 2200 2675 2075 
Q 2600 1950 2350 1750 
Q 2100 1550 1675 1212 
Q 1250 875 1125 675 
Q 1000 475 700 737 
Q 400 1000 587 1025 
Q 775 1050 987 1162 
Q 1200 1275 1675 1600 
L 1675 2650 
Q 1450 2600 1300 2600 
Q 1150 2600 975 2687 
Q 800 2775 1075 2837 
Q 1350 2900 1675 3000 
Q 1675 3325 1650 3787 
Q 1625 4250 1475 4487 
Q 1325 4725 1550 4687 
Q 1775 4650 1975 4537 
Q 2175 4425 2075 4275 
Q 1975 4125 1975 3100 
z
M 4175 1650 
Q 4700 1875 4487 1687 
Q 4275 1500 3850 1200 
Q 3425 900 3300 775 
Q 3175 650 2900 900 
Q 2625 1150 2887 1175 
Q 3150 1200 3412 1312 
Q 3675 1425 4175 1650 
z
M 3400 2450 
Q 3125 2725 3512 2687 
Q 3900 2650 4050 2500 
Q 4200 2350 4150 2212 
Q 4100 2075 3900 2125 
Q 3700 2175 3400 2450 
z
" transform="scale(0.015625)"/>
       <path id="KaiTi-503c" d="M 4050 3975 
Q 4575 4075 4837 4150 
Q 5100 4225 5287 4062 
Q 5475 3900 5187 3850 
Q 4900 3800 4675 3750 
L 4000 3650 
Q 3875 3150 3825 2975 
Q 4350 3075 4450 3162 
Q 4550 3250 4725 3187 
Q 4900 3125 5062 3025 
Q 5225 2925 5125 2800 
Q 5025 2675 4987 2075 
Q 4950 1475 4925 450 
Q 5250 475 5512 512 
Q 5775 550 5962 475 
Q 6150 400 6225 250 
Q 6300 100 5750 162 
Q 5200 225 4487 162 
Q 3775 100 3312 25 
Q 2850 -50 2600 -112 
Q 2350 -175 2087 0 
Q 1825 175 2100 175 
Q 2375 175 3050 275 
Q 3050 850 3037 1687 
Q 3025 2525 2900 2700 
Q 2775 2875 2900 2875 
Q 3050 2875 3137 2862 
Q 3225 2850 3575 2925 
Q 3600 3100 3675 3600 
Q 3375 3550 3162 3512 
Q 2950 3475 2725 3600 
Q 2500 3725 2762 3737 
Q 3025 3750 3725 3900 
Q 3750 4150 3762 4425 
Q 3775 4700 3700 4850 
Q 3625 5000 3750 5000 
Q 3900 5000 4137 4900 
Q 4375 4800 4275 4675 
Q 4175 4550 4050 3975 
z
M 3325 2275 
Q 3725 2325 3912 2387 
Q 4100 2450 4262 2362 
Q 4425 2275 4062 2187 
Q 3700 2100 3325 2125 
L 3325 1625 
Q 3625 1675 3862 1762 
Q 4100 1850 4237 1737 
Q 4375 1625 4050 1550 
Q 3725 1475 3325 1475 
L 3325 975 
Q 3750 1050 3925 1112 
Q 4100 1175 4262 1087 
Q 4425 1000 4100 912 
Q 3775 825 3325 825 
L 3325 300 
Q 3600 325 4600 425 
Q 4600 1000 4612 1862 
Q 4625 2725 4550 2800 
Q 4475 2875 4300 2862 
Q 4125 2850 3325 2725 
L 3325 2275 
z
M 1600 3150 
Q 1825 2925 1787 2550 
Q 1750 2175 1762 1000 
Q 1775 -175 1662 -337 
Q 1550 -500 1412 -200 
Q 1275 100 1362 437 
Q 1450 775 1462 1275 
Q 1475 1775 1475 2225 
Q 1475 2675 1425 2875 
Q 1200 2525 912 2237 
Q 625 1950 350 1812 
Q 75 1675 350 1962 
Q 625 2250 1012 2850 
Q 1400 3450 1612 3975 
Q 1825 4500 1800 4737 
Q 1775 4975 1937 4900 
Q 2100 4825 2262 4675 
Q 2425 4525 2287 4412 
Q 2150 4300 1600 3150 
z
" transform="scale(0.015625)"/>
       <path id="KaiTi-66f2" d="M 2600 3350 
Q 2750 3350 3350 3450 
L 3350 4425 
Q 3350 4750 3225 4937 
Q 3100 5125 3525 5012 
Q 3950 4900 3875 4700 
Q 3800 4500 3725 3500 
Q 4425 3600 4550 3650 
Q 4675 3700 4937 3612 
Q 5200 3525 5387 3400 
Q 5575 3275 5462 3150 
Q 5350 3025 5312 2800 
Q 5275 2575 5237 1800 
Q 5200 1025 5125 662 
Q 5050 300 4787 -37 
Q 4525 -375 4500 -50 
Q 4475 275 4362 587 
Q 4250 900 3800 900 
Q 3375 900 3062 862 
Q 2750 825 2325 750 
Q 1900 675 1625 725 
Q 1625 200 1487 300 
Q 1350 400 1337 837 
Q 1325 1275 1225 2062 
Q 1125 2850 1012 3000 
Q 900 3150 1012 3175 
Q 1125 3200 1237 3175 
Q 1350 3150 1500 3150 
Q 1675 3150 2300 3275 
Q 2300 3850 2262 4087 
Q 2225 4325 2100 4487 
Q 1975 4650 2350 4550 
Q 2725 4450 2675 4325 
Q 2625 4200 2600 3350 
z
M 3725 3300 
Q 3675 3200 3625 2400 
Q 3800 2425 3975 2475 
Q 4150 2525 4325 2412 
Q 4500 2300 4250 2225 
Q 4000 2150 3600 2075 
Q 3500 1450 3475 1175 
Q 4150 1225 4312 1125 
Q 4475 1025 4550 887 
Q 4625 750 4675 950 
Q 4725 1150 4762 1462 
Q 4800 1775 4812 2362 
Q 4825 2950 4762 3150 
Q 4700 3350 4500 3362 
Q 4300 3375 3725 3300 
z
M 2300 1900 
Q 1950 1875 1800 1962 
Q 1650 2050 1762 2075 
Q 1875 2100 2300 2175 
L 2300 3075 
Q 1925 3025 1500 2975 
Q 1500 2875 1550 2250 
Q 1600 1625 1625 900 
Q 1950 925 2300 1000 
L 2300 1900 
z
M 2575 2225 
Q 2925 2275 3300 2325 
Q 3325 2875 3350 3250 
Q 2950 3200 2600 3125 
Q 2575 2725 2575 2225 
z
M 2550 1050 
Q 2850 1075 3225 1150 
Q 3250 1625 3275 2025 
Q 2700 1950 2575 1925 
Q 2550 1325 2550 1050 
z
" transform="scale(0.015625)"/>
       <path id="KaiTi-7ebf" d="M 4200 1575 
Q 4400 1775 4562 2025 
Q 4725 2275 4725 2400 
Q 4725 2550 4987 2362 
Q 5250 2175 5112 2075 
Q 4975 1975 4825 1812 
Q 4675 1650 4350 1300 
Q 4675 775 4987 487 
Q 5300 200 5387 262 
Q 5475 325 5637 737 
Q 5800 1150 5737 612 
Q 5675 75 5750 -187 
Q 5825 -450 5700 -437 
Q 5575 -425 5262 -225 
Q 4950 -25 4637 350 
Q 4325 725 4100 1125 
Q 3825 900 3512 725 
Q 3200 550 2812 425 
Q 2425 300 2875 562 
Q 3325 825 3975 1400 
Q 3825 1750 3675 2275 
Q 3275 2150 3100 2112 
Q 2925 2075 2687 2125 
Q 2450 2175 2812 2262 
Q 3175 2350 3600 2550 
Q 3475 2850 3425 3100 
Q 3225 3075 3100 3062 
Q 2975 3050 2812 3087 
Q 2650 3125 2862 3187 
Q 3075 3250 3375 3400 
Q 3325 3725 3250 4075 
Q 3175 4425 3062 4587 
Q 2950 4750 2975 4800 
Q 3000 4850 3312 4775 
Q 3625 4700 3587 4512 
Q 3550 4325 3650 3500 
Q 4225 3700 4375 3787 
Q 4525 3875 4712 3787 
Q 4900 3700 4575 3562 
Q 4250 3425 3700 3200 
Q 3750 2950 3825 2675 
Q 4075 2775 4412 2950 
Q 4750 3125 4950 3050 
Q 5150 2975 4900 2837 
Q 4650 2700 3925 2375 
Q 3975 2100 4200 1575 
z
M 1950 2900 
Q 2300 3450 2300 3650 
Q 2300 3875 2437 3800 
Q 2575 3725 2712 3625 
Q 2850 3525 2750 3462 
Q 2650 3400 2525 3212 
Q 2400 3025 2137 2637 
Q 1875 2250 1800 2137 
Q 1725 2025 1587 1862 
Q 1450 1700 1712 1762 
Q 1975 1825 2150 1862 
Q 2325 1900 2575 1912 
Q 2825 1925 2287 1725 
Q 1750 1525 1525 1375 
Q 1300 1225 1212 1175 
Q 1125 1125 1025 1337 
Q 925 1550 1062 1650 
Q 1200 1750 1400 1987 
Q 1600 2225 1875 2725 
Q 1125 2575 1037 2487 
Q 950 2400 850 2612 
Q 750 2825 887 2912 
Q 1025 3000 1150 3187 
Q 1275 3375 1437 3712 
Q 1600 4050 1637 4275 
Q 1675 4500 1662 4600 
Q 1650 4700 1800 4662 
Q 1950 4625 2075 4537 
Q 2200 4450 2100 4300 
Q 2000 4150 1725 3687 
Q 1450 3225 1337 3050 
Q 1225 2875 1325 2875 
L 1500 2875 
Q 1600 2875 1950 2900 
z
M 2250 1000 
Q 2575 1125 2812 1175 
Q 3050 1225 2762 1062 
Q 2475 900 2062 675 
Q 1650 450 1462 262 
Q 1275 75 1012 312 
Q 750 550 825 562 
Q 900 575 1162 612 
Q 1425 650 1687 775 
Q 1950 900 2250 1000 
z
M 4600 4700 
Q 5000 4650 4987 4337 
Q 4975 4025 4525 4325 
Q 4075 4625 4150 4687 
Q 4225 4750 4600 4700 
z
" transform="scale(0.015625)"/>
      </defs>
      <use xlink:href="#KaiTi-5747"/>
      <use xlink:href="#KaiTi-503c" x="100"/>
      <use xlink:href="#KaiTi-66f2" x="200"/>
      <use xlink:href="#KaiTi-7ebf" x="300"/>
     </g>
    </g>
    <g id="patch_8">
     <path d="M 277.72 86.175125 
L 297.72 86.175125 
L 297.72 79.175125 
L 277.72 79.175125 
z
" style="fill: #808080; fill-opacity: 0.2; stroke: #808080; stroke-opacity: 0.2; stroke-linejoin: miter"/>
    </g>
    <g id="text_18">
     <!-- 一个标准差的置信区间 -->
     <g transform="translate(305.72 86.175125) scale(0.1 -0.1)">
      <defs>
       <path id="KaiTi-4e00" d="M 675 2075 
Q 350 2325 612 2300 
Q 875 2275 1612 2337 
Q 2350 2400 3175 2525 
Q 4000 2650 4650 2762 
Q 5300 2875 5675 2687 
Q 6050 2500 6012 2375 
Q 5975 2250 5662 2275 
Q 5350 2300 4725 2300 
Q 4100 2300 3387 2237 
Q 2675 2175 2187 2087 
Q 1700 2000 1362 1925 
Q 1025 1850 675 2075 
z
" transform="scale(0.015625)"/>
       <path id="KaiTi-6807" d="M 1975 3425 
Q 2125 3475 2275 3512 
Q 2425 3550 2537 3487 
Q 2650 3425 2625 3337 
Q 2600 3250 1975 3075 
L 1975 2550 
Q 2225 2500 2387 2387 
Q 2550 2275 2525 2075 
Q 2500 1875 2300 2012 
Q 2100 2150 1975 2350 
Q 1975 1475 1962 875 
Q 1950 275 1887 -62 
Q 1825 -400 1712 -250 
Q 1600 -100 1550 87 
Q 1500 275 1562 487 
Q 1625 700 1662 1125 
Q 1700 1550 1725 2375 
Q 1375 1750 1025 1412 
Q 675 1075 462 975 
Q 250 875 537 1187 
Q 825 1500 1162 2037 
Q 1500 2575 1650 3000 
Q 1375 2950 1175 2912 
Q 975 2875 750 2962 
Q 525 3050 875 3112 
Q 1225 3175 1725 3375 
Q 1725 4050 1700 4387 
Q 1675 4725 1575 4875 
Q 1475 5025 1650 5000 
Q 1825 4975 2025 4887 
Q 2225 4800 2112 4650 
Q 2000 4500 1975 3425 
z
M 4175 2725 
Q 4350 2500 4312 2325 
Q 4275 2150 4275 1500 
Q 4275 850 4287 575 
Q 4300 300 4225 75 
Q 4150 -150 4012 -312 
Q 3875 -475 3775 -237 
Q 3675 0 3387 225 
Q 3100 450 3325 400 
Q 3550 350 3687 337 
Q 3825 325 3862 462 
Q 3900 600 3912 1112 
Q 3925 1625 3912 2075 
Q 3900 2525 3775 2675 
Q 3200 2575 2962 2525 
Q 2725 2475 2525 2637 
Q 2325 2800 2625 2800 
Q 2925 2800 3812 2937 
Q 4700 3075 5137 3137 
Q 5575 3200 5775 3075 
Q 5975 2950 5962 2862 
Q 5950 2775 5750 2787 
Q 5550 2800 5125 2800 
Q 4700 2800 4175 2725 
z
M 4400 4250 
Q 4750 4350 5000 4250 
Q 5250 4150 5012 4050 
Q 4775 3950 4425 3875 
Q 4075 3800 3787 3750 
Q 3500 3700 3212 3825 
Q 2925 3950 3275 4000 
Q 3625 4050 3850 4100 
Q 4075 4150 4400 4250 
z
M 5475 1550 
Q 5750 1425 5912 1200 
Q 6075 975 6025 762 
Q 5975 550 5875 562 
Q 5775 575 5562 825 
Q 5350 1075 5037 1450 
Q 4725 1825 4975 1750 
Q 5225 1675 5475 1550 
z
M 2825 1675 
Q 2975 2025 3025 1862 
Q 3075 1700 3050 1412 
Q 3025 1125 2825 762 
Q 2625 400 2512 650 
Q 2400 900 2537 1112 
Q 2675 1325 2825 1675 
z
" transform="scale(0.015625)"/>
       <path id="KaiTi-51c6" d="M 4075 3150 
Q 3850 3125 3662 3100 
Q 3475 3075 3312 3150 
Q 3150 3225 3462 3300 
Q 3775 3375 4162 3487 
Q 4550 3600 4787 3687 
Q 5025 3775 5200 3700 
Q 5375 3625 5225 3525 
Q 5075 3425 4400 3225 
Q 4500 3075 4487 2987 
Q 4475 2900 4450 2650 
Q 4775 2725 4925 2750 
Q 5075 2775 5200 2662 
Q 5325 2550 5225 2500 
Q 5125 2450 4900 2412 
Q 4675 2375 4450 2325 
Q 4425 2050 4425 1750 
Q 4775 1825 4925 1862 
Q 5075 1900 5212 1775 
Q 5350 1650 5162 1612 
Q 4975 1575 4425 1475 
Q 4425 1175 4400 850 
Q 5025 925 5325 962 
Q 5625 1000 5800 787 
Q 5975 575 5625 600 
Q 5275 625 4900 600 
Q 4525 575 4212 537 
Q 3900 500 3650 450 
Q 3400 400 3150 450 
Q 3125 -250 3025 -462 
Q 2925 -675 2775 -337 
Q 2625 0 2700 250 
Q 2775 500 2812 937 
Q 2850 1375 2887 2237 
Q 2925 3100 2825 3250 
Q 2375 2700 2075 2525 
Q 1775 2350 2012 2612 
Q 2250 2875 2512 3300 
Q 2775 3725 2950 4087 
Q 3125 4450 3187 4700 
Q 3250 4950 3212 5087 
Q 3175 5225 3375 5137 
Q 3575 5050 3700 4937 
Q 3825 4825 3737 4737 
Q 3650 4650 3512 4400 
Q 3375 4150 2950 3425 
Q 3175 3200 3175 2975 
Q 3175 2750 3162 2275 
Q 3150 1800 3150 625 
Q 3650 700 4100 800 
L 4100 1400 
Q 3775 1350 3625 1362 
Q 3475 1375 3350 1462 
Q 3225 1550 3475 1575 
Q 3725 1600 4100 1675 
L 4100 2250 
Q 3800 2225 3675 2225 
Q 3575 2225 3450 2312 
Q 3325 2400 3512 2425 
Q 3700 2450 4100 2550 
Q 4100 2850 4075 3150 
z
M 2050 2325 
Q 2375 2650 1862 1875 
Q 1350 1100 1175 637 
Q 1000 175 812 687 
Q 625 1200 800 1212 
Q 975 1225 1350 1612 
Q 1725 2000 2050 2325 
z
M 975 3675 
Q 675 4050 1037 3975 
Q 1400 3900 1600 3750 
Q 1800 3600 1750 3350 
Q 1700 3100 1487 3212 
Q 1275 3325 975 3675 
z
M 3925 4350 
Q 3775 4550 3850 4600 
Q 3925 4650 4237 4550 
Q 4550 4450 4600 4262 
Q 4650 4075 4575 3962 
Q 4500 3850 4287 4012 
Q 4075 4175 3925 4350 
z
" transform="scale(0.015625)"/>
       <path id="KaiTi-5dee" d="M 3100 3825 
Q 3850 3975 4062 4037 
Q 4275 4100 4475 3950 
Q 4675 3800 4287 3737 
Q 3900 3675 3250 3575 
Q 3375 3475 3350 3387 
Q 3325 3300 3225 3025 
Q 3525 3100 3800 3175 
Q 4075 3250 4262 3112 
Q 4450 2975 4050 2912 
Q 3650 2850 3150 2750 
Q 3075 2450 2975 2200 
Q 3725 2300 4162 2387 
Q 4600 2475 4812 2312 
Q 5025 2150 4750 2112 
Q 4475 2075 4012 2050 
Q 3550 2025 2900 1925 
Q 2525 1175 1987 637 
Q 1450 100 925 -112 
Q 400 -325 812 -50 
Q 1225 225 1687 700 
Q 2150 1175 2525 1875 
L 1800 1750 
Q 1575 1725 1337 1887 
Q 1100 2050 1462 2037 
Q 1825 2025 2625 2150 
Q 2725 2400 2825 2725 
Q 2425 2650 2300 2637 
Q 2175 2625 2012 2762 
Q 1850 2900 2137 2912 
Q 2425 2925 2875 3000 
Q 2925 3175 2950 3550 
Q 2525 3500 2312 3450 
Q 2100 3400 1900 3550 
Q 1700 3700 2050 3712 
Q 2400 3725 3100 3825 
z
M 3625 1025 
Q 3800 900 3750 737 
Q 3700 575 3675 175 
Q 4425 250 4825 312 
Q 5225 375 5437 237 
Q 5650 100 5650 0 
Q 5650 -100 5237 -50 
Q 4825 0 4337 -25 
Q 3850 -50 3125 -125 
Q 2400 -200 2175 -250 
Q 1950 -300 1700 -125 
Q 1450 50 1862 37 
Q 2275 25 3400 125 
Q 3400 950 3350 1000 
Q 2950 950 2725 1062 
Q 2500 1175 2812 1212 
Q 3125 1250 3562 1325 
Q 4000 1400 4212 1450 
Q 4425 1500 4575 1387 
Q 4725 1275 4462 1187 
Q 4200 1100 3625 1025 
z
M 4400 4975 
Q 4625 4875 4462 4800 
Q 4300 4725 3975 4462 
Q 3650 4200 3387 4037 
Q 3125 3875 3312 4112 
Q 3500 4350 3662 4600 
Q 3825 4850 3812 5000 
Q 3800 5150 3987 5112 
Q 4175 5075 4400 4975 
z
M 2350 4350 
Q 2150 4525 2087 4662 
Q 2025 4800 2337 4750 
Q 2650 4700 2787 4537 
Q 2925 4375 2925 4225 
Q 2925 4075 2737 4137 
Q 2550 4200 2350 4350 
z
" transform="scale(0.015625)"/>
       <path id="KaiTi-7684" d="M 1300 3050 
Q 1900 3150 2075 3300 
Q 2250 3450 2437 3362 
Q 2625 3275 2775 3175 
Q 2925 3075 2837 2937 
Q 2750 2800 2700 2575 
Q 2650 2350 2675 1750 
Q 2700 1150 2637 850 
Q 2575 550 2500 387 
Q 2425 225 2337 387 
Q 2250 550 2175 687 
Q 2100 825 2012 837 
Q 1925 850 1300 750 
Q 1200 200 1087 425 
Q 975 650 975 1050 
Q 975 1450 950 2050 
Q 925 2650 775 2875 
Q 625 3100 750 3100 
Q 875 3100 1100 3050 
Q 1325 3350 1562 3862 
Q 1800 4375 1712 4625 
Q 1625 4875 2000 4700 
Q 2450 4500 2287 4362 
Q 2125 4225 1925 3925 
Q 1725 3625 1300 3050 
z
M 3800 3275 
Q 4700 3325 4875 3450 
Q 5050 3575 5262 3487 
Q 5475 3400 5612 3262 
Q 5750 3125 5625 3000 
Q 5500 2875 5450 2350 
Q 5400 1825 5362 1300 
Q 5325 775 5150 412 
Q 4975 50 4650 -137 
Q 4325 -325 4300 -50 
Q 4275 225 3987 550 
Q 3700 875 4012 712 
Q 4325 550 4512 512 
Q 4700 475 4837 800 
Q 4975 1125 5025 1712 
Q 5075 2300 5075 2700 
Q 5075 3100 4975 3162 
Q 4875 3225 4550 3150 
L 4050 3025 
Q 3900 3000 3725 3150 
Q 3300 2700 2950 2475 
Q 2600 2250 3000 2700 
Q 3400 3150 3737 3800 
Q 4075 4450 3987 4712 
Q 3900 4975 4150 4900 
Q 4400 4825 4537 4725 
Q 4675 4625 4562 4500 
Q 4450 4375 4287 4050 
Q 4125 3725 3800 3275 
z
M 1250 1975 
Q 1575 2025 1700 2087 
Q 1825 2150 1962 2037 
Q 2100 1925 1862 1837 
Q 1625 1750 1250 1750 
L 1275 950 
Q 1500 975 1725 1062 
Q 1950 1150 2062 1037 
Q 2175 925 2237 1087 
Q 2300 1250 2312 2000 
Q 2325 2750 2250 2862 
Q 2175 2975 2012 2962 
Q 1850 2950 1225 2825 
L 1250 1975 
z
M 3725 1675 
Q 3400 2125 3337 2250 
Q 3275 2375 3575 2287 
Q 3875 2200 4025 2000 
Q 4175 1800 4112 1525 
Q 4050 1250 3725 1675 
z
" transform="scale(0.015625)"/>
       <path id="KaiTi-7f6e" d="M 3200 3025 
Q 3875 3125 4175 3187 
Q 4475 3250 4725 3087 
Q 4975 2925 4525 2912 
Q 4075 2900 3100 2800 
Q 3000 2650 2825 2350 
Q 3650 2475 3750 2537 
Q 3850 2600 4162 2450 
Q 4475 2300 4375 2175 
Q 4275 2050 4225 1587 
Q 4175 1125 4175 350 
Q 4950 425 5212 450 
Q 5475 475 5687 325 
Q 5900 175 5837 100 
Q 5775 25 5350 75 
Q 4925 125 4187 75 
Q 3450 25 2500 -62 
Q 1550 -150 1275 -187 
Q 1000 -225 812 -162 
Q 625 -100 550 12 
Q 475 125 662 112 
Q 850 100 2175 200 
Q 2150 1350 2112 1712 
Q 2075 2075 1987 2212 
Q 1900 2350 2012 2337 
Q 2125 2325 2275 2300 
Q 2425 2275 2575 2325 
Q 2625 2400 2750 2775 
Q 2050 2650 1875 2612 
Q 1700 2575 1500 2712 
Q 1300 2850 1625 2850 
Q 1975 2850 2825 2975 
Q 2950 3350 2900 3462 
Q 2850 3575 3012 3537 
Q 3175 3500 3275 3437 
Q 3375 3375 3325 3300 
Q 3275 3225 3200 3025 
z
M 4300 3675 
Q 3950 3675 3487 3625 
Q 3025 3575 2125 3475 
Q 2100 3250 2037 3287 
Q 1975 3325 1900 3500 
Q 1825 3675 1712 3987 
Q 1600 4300 1475 4412 
Q 1350 4525 1500 4512 
Q 1650 4500 1762 4487 
Q 1875 4475 2112 4487 
Q 2350 4500 2862 4587 
Q 3375 4675 3862 4762 
Q 4350 4850 4450 4887 
Q 4550 4925 4662 4900 
Q 4775 4875 4950 4762 
Q 5125 4650 5187 4575 
Q 5250 4500 5112 4425 
Q 4975 4350 4850 4162 
Q 4725 3975 4612 3775 
Q 4500 3575 4437 3537 
Q 4375 3500 4350 3525 
Q 4325 3550 4300 3675 
z
M 2425 1825 
Q 2725 1875 3037 1950 
Q 3350 2025 3487 1925 
Q 3625 1825 3387 1762 
Q 3150 1700 2425 1675 
L 2425 1350 
Q 2750 1400 3062 1462 
Q 3375 1525 3500 1412 
Q 3625 1300 3275 1237 
Q 2925 1175 2450 1200 
L 2450 850 
Q 2900 875 3150 937 
Q 3400 1000 3537 862 
Q 3675 725 3200 675 
Q 2725 625 2475 650 
L 2475 225 
Q 3050 250 3875 325 
L 3875 1775 
Q 3875 2225 3775 2262 
Q 3675 2300 3500 2287 
Q 3325 2275 2425 2150 
L 2425 1825 
z
M 3675 4575 
Q 3800 4450 3762 4362 
Q 3725 4275 3687 4175 
Q 3650 4075 3550 3825 
Q 3950 3900 4350 3850 
Q 4450 4125 4475 4275 
Q 4500 4425 4500 4550 
Q 4500 4675 4262 4650 
Q 4025 4625 3675 4575 
z
M 1925 4325 
Q 2000 4000 2100 3600 
Q 2500 3675 2750 3700 
Q 2550 3975 2550 4375 
Q 2300 4350 1925 4325 
z
M 2650 4400 
Q 2925 4125 2850 3725 
Q 3100 3775 3350 3800 
Q 3400 4175 3412 4325 
Q 3425 4475 3375 4500 
Q 3050 4425 2650 4400 
z
" transform="scale(0.015625)"/>
       <path id="KaiTi-4fe1" d="M 4850 375 
Q 5225 100 4837 87 
Q 4450 75 4112 50 
Q 3775 25 3400 0 
Q 3350 -175 3275 -175 
Q 3225 -175 3150 175 
Q 3075 525 3025 750 
Q 2975 975 2875 1100 
Q 2775 1225 2900 1225 
Q 3050 1225 3187 1175 
Q 3325 1125 3800 1237 
Q 4275 1350 4425 1425 
Q 4575 1500 4850 1412 
Q 5125 1325 5225 1212 
Q 5325 1100 5200 1012 
Q 5075 925 4850 375 
z
M 1625 3100 
Q 2000 2850 1950 2662 
Q 1900 2475 1875 1625 
Q 1850 775 1837 387 
Q 1825 0 1725 -237 
Q 1625 -475 1500 -150 
Q 1375 175 1450 350 
Q 1525 525 1575 1112 
Q 1625 1700 1625 2250 
Q 1625 2825 1500 2950 
Q 1250 2600 1000 2312 
Q 750 2025 475 1850 
Q 200 1675 537 2062 
Q 875 2450 1275 3162 
Q 1675 3875 1775 4200 
Q 1875 4525 1850 4725 
Q 1825 4925 2037 4812 
Q 2250 4700 2337 4612 
Q 2425 4525 2337 4425 
Q 2250 4325 2037 3912 
Q 1825 3500 1625 3100 
z
M 3700 3550 
Q 4775 3725 5087 3787 
Q 5400 3850 5625 3775 
Q 5850 3700 5887 3575 
Q 5925 3450 5625 3450 
Q 5325 3450 5000 3425 
Q 4675 3400 4312 3362 
Q 3950 3325 3625 3262 
Q 3300 3200 3175 3187 
Q 3050 3175 2825 3137 
Q 2600 3100 2375 3275 
Q 2150 3450 2387 3425 
Q 2625 3400 3700 3550 
z
M 3325 975 
Q 3350 525 3400 200 
Q 4250 275 4550 325 
Q 4625 800 4612 975 
Q 4600 1150 4387 1125 
Q 4175 1100 3325 975 
z
M 4075 2100 
Q 4650 2250 4825 2125 
Q 5000 2000 4687 1887 
Q 4375 1775 3900 1725 
Q 3425 1675 3187 1787 
Q 2950 1900 3237 1925 
Q 3525 1950 4075 2100 
z
M 4100 2875 
Q 4625 3000 4750 2900 
Q 4875 2800 4675 2712 
Q 4475 2625 4050 2537 
Q 3625 2450 3300 2575 
Q 2975 2700 3275 2737 
Q 3575 2775 4100 2875 
z
M 3900 4750 
Q 4125 4725 4312 4600 
Q 4500 4475 4500 4225 
Q 4500 3975 4225 4100 
Q 3950 4225 3675 4462 
Q 3400 4700 3537 4737 
Q 3675 4775 3900 4750 
z
" transform="scale(0.015625)"/>
       <path id="KaiTi-533a" d="M 1675 400 
Q 3050 525 4037 662 
Q 5025 800 5362 637 
Q 5700 475 5637 362 
Q 5575 250 5075 300 
Q 4575 350 3462 275 
Q 2350 200 1975 125 
Q 1600 50 1475 -25 
Q 1350 -100 1250 100 
Q 1150 300 1225 437 
Q 1300 575 1350 862 
Q 1400 1150 1425 2525 
Q 1450 3900 1325 4162 
Q 1200 4425 1275 4425 
Q 1375 4425 1575 4375 
Q 1775 4325 2100 4337 
Q 2425 4350 3037 4437 
Q 3650 4525 4012 4612 
Q 4375 4700 4587 4725 
Q 4800 4750 4987 4625 
Q 5175 4500 5012 4425 
Q 4850 4350 4287 4287 
Q 3725 4225 3287 4187 
Q 2850 4150 2450 4125 
Q 2050 4100 1775 4100 
Q 1750 3125 1737 2300 
Q 1725 1475 1675 400 
z
M 3800 2375 
Q 4025 2175 4287 1912 
Q 4550 1650 4625 1412 
Q 4700 1175 4625 1037 
Q 4550 900 4275 1225 
Q 4000 1550 3575 2025 
Q 3275 1650 2950 1375 
Q 2625 1100 2275 962 
Q 1925 825 2187 1012 
Q 2450 1200 2750 1537 
Q 3050 1875 3300 2300 
Q 3125 2475 2912 2700 
Q 2700 2925 2450 3150 
Q 2200 3375 2462 3275 
Q 2725 3175 3025 2987 
Q 3325 2800 3525 2625 
Q 3650 2850 3750 3237 
Q 3850 3625 3812 3850 
Q 3775 4075 3987 3987 
Q 4200 3900 4337 3775 
Q 4475 3650 4375 3550 
Q 4275 3450 4112 3062 
Q 3950 2675 3800 2375 
z
" transform="scale(0.015625)"/>
       <path id="KaiTi-95f4" d="M 2625 1375 
Q 2550 900 2400 1112 
Q 2250 1325 2300 1675 
Q 2350 2025 2337 2487 
Q 2325 2950 2200 3187 
Q 2075 3425 2275 3400 
Q 2475 3375 2562 3350 
Q 2650 3325 3025 3387 
Q 3400 3450 3525 3537 
Q 3650 3625 3825 3562 
Q 4000 3500 4125 3412 
Q 4250 3325 4150 3187 
Q 4050 3050 4037 2850 
Q 4025 2650 4050 2100 
Q 4075 1550 3962 1212 
Q 3850 875 3762 1037 
Q 3675 1200 3575 1400 
Q 2900 1375 2625 1375 
z
M 4925 700 
Q 4975 1025 4962 1775 
Q 4950 2525 4925 3350 
Q 4900 4175 4800 4300 
Q 4700 4425 4225 4350 
Q 3750 4275 3425 4187 
Q 3100 4100 2875 4250 
Q 2650 4400 2937 4387 
Q 3225 4375 3887 4512 
Q 4550 4650 4662 4725 
Q 4775 4800 4962 4737 
Q 5150 4675 5350 4537 
Q 5550 4400 5387 4250 
Q 5225 4100 5250 3325 
Q 5275 2550 5337 1700 
Q 5400 850 5350 400 
Q 5300 -50 5162 -312 
Q 5025 -575 4875 -287 
Q 4725 0 4437 250 
Q 4150 500 4387 450 
Q 4625 400 4750 400 
Q 4875 400 4925 700 
z
M 2625 1550 
Q 2975 1575 3212 1600 
Q 3450 1625 3587 1600 
Q 3725 1575 3700 2237 
Q 3675 2900 3650 3050 
Q 3625 3200 3500 3225 
Q 3375 3250 2625 3150 
L 2625 2475 
Q 2800 2475 3050 2537 
Q 3300 2600 3400 2487 
Q 3500 2375 3200 2312 
Q 2900 2250 2625 2275 
L 2625 1550 
z
M 1575 3950 
Q 1775 3850 1662 3675 
Q 1550 3500 1537 2875 
Q 1525 2250 1500 1612 
Q 1475 975 1387 437 
Q 1300 -100 1112 362 
Q 925 825 1062 1087 
Q 1200 1350 1262 2500 
Q 1325 3650 1150 3912 
Q 975 4175 1187 4125 
Q 1400 4075 1575 3950 
z
M 2175 4675 
Q 2375 4500 2300 4262 
Q 2225 4025 2025 4212 
Q 1825 4400 1637 4687 
Q 1450 4975 1725 4912 
Q 2000 4850 2175 4675 
z
" transform="scale(0.015625)"/>
      </defs>
      <use xlink:href="#KaiTi-4e00"/>
      <use xlink:href="#KaiTi-4e2a" x="100"/>
      <use xlink:href="#KaiTi-6807" x="200"/>
      <use xlink:href="#KaiTi-51c6" x="300"/>
      <use xlink:href="#KaiTi-5dee" x="400"/>
      <use xlink:href="#KaiTi-7684" x="500"/>
      <use xlink:href="#KaiTi-7f6e" x="600"/>
      <use xlink:href="#KaiTi-4fe1" x="700"/>
      <use xlink:href="#KaiTi-533a" x="800"/>
      <use xlink:href="#KaiTi-95f4" x="900"/>
     </g>
    </g>
   </g>
  </g>
 </g>
 <defs>
  <clipPath id="pa3325ed771">
   <rect x="57.6" y="41.472" width="357.12" height="266.112"/>
  </clipPath>
 </defs>
</svg>
