<?xml version="1.0" encoding="utf-8" standalone="no"?>
<!DOCTYPE svg PUBLIC "-//W3C//DTD SVG 1.1//EN"
  "http://www.w3.org/Graphics/SVG/1.1/DTD/svg11.dtd">
<svg xmlns:xlink="http://www.w3.org/1999/xlink" width="460.8pt" height="345.6pt" viewBox="0 0 460.8 345.6" xmlns="http://www.w3.org/2000/svg" version="1.1">
 <metadata>
  <rdf:RDF xmlns:dc="http://purl.org/dc/elements/1.1/" xmlns:cc="http://creativecommons.org/ns#" xmlns:rdf="http://www.w3.org/1999/02/22-rdf-syntax-ns#">
   <cc:Work>
    <dc:type rdf:resource="http://purl.org/dc/dcmitype/StillImage"/>
    <dc:date>2023-12-21T14:15:16.037320</dc:date>
    <dc:format>image/svg+xml</dc:format>
    <dc:creator>
     <cc:Agent>
      <dc:title>Matplotlib v3.7.2, https://matplotlib.org/</dc:title>
     </cc:Agent>
    </dc:creator>
   </cc:Work>
  </rdf:RDF>
 </metadata>
 <defs>
  <style type="text/css">*{stroke-linejoin: round; stroke-linecap: butt}</style>
 </defs>
 <g id="figure_1">
  <g id="patch_1">
   <path d="M 0 345.6 
L 460.8 345.6 
L 460.8 0 
L 0 0 
L 0 345.6 
z
" style="fill: none"/>
  </g>
  <g id="axes_1">
   <g id="patch_2">
    <path d="M 57.6 307.584 
L 414.72 307.584 
L 414.72 41.472 
L 57.6 41.472 
L 57.6 307.584 
z
" style="fill: none"/>
   </g>
   <g id="PolyCollection_1">
    <defs>
     <path id="mb4a2788d79" d="M 73.832727 -150.362891 
L 73.832727 -68.439936 
L 77.112066 -80.918777 
L 80.391405 -92.73535 
L 83.670744 -103.898692 
L 86.950083 -114.418501 
L 90.229421 -124.305105 
L 93.50876 -133.569435 
L 96.788099 -142.222999 
L 100.067438 -150.277854 
L 103.346777 -157.74658 
L 106.626116 -164.642253 
L 109.905455 -170.978417 
L 113.184793 -176.769056 
L 116.464132 -182.028571 
L 119.743471 -186.771749 
L 123.02281 -191.013736 
L 126.302149 -194.770012 
L 129.581488 -198.056365 
L 132.860826 -200.888858 
L 136.140165 -203.28381 
L 139.419504 -205.257762 
L 142.698843 -206.827455 
L 145.978182 -208.0098 
L 149.257521 -208.821851 
L 152.53686 -209.280779 
L 155.816198 -209.403846 
L 159.095537 -209.208375 
L 162.374876 -208.711725 
L 165.654215 -207.931264 
L 168.933554 -206.884341 
L 172.212893 -205.588259 
L 175.492231 -204.060249 
L 178.77157 -202.317443 
L 182.050909 -200.376844 
L 185.330248 -198.255302 
L 188.609587 -195.969488 
L 191.888926 -193.535863 
L 195.168264 -190.970653 
L 198.447603 -188.289823 
L 201.726942 -185.509048 
L 205.006281 -182.643688 
L 208.28562 -179.708758 
L 211.564959 -176.718904 
L 214.844298 -173.688375 
L 218.123636 -170.630994 
L 221.402975 -167.560133 
L 224.682314 -164.488688 
L 227.961653 -161.429047 
L 231.240992 -158.393065 
L 234.520331 -155.392038 
L 237.799669 -152.436677 
L 241.079008 -149.537076 
L 244.358347 -146.702691 
L 247.637686 -143.942309 
L 250.917025 -141.264021 
L 254.196364 -138.675199 
L 257.475702 -136.182463 
L 260.755041 -133.791657 
L 264.03438 -131.507825 
L 267.313719 -129.335176 
L 270.593058 -127.277067 
L 273.872397 -125.335966 
L 277.151736 -123.513432 
L 280.431074 -121.810087 
L 283.710413 -120.225583 
L 286.989752 -118.758584 
L 290.269091 -117.406732 
L 293.54843 -116.166623 
L 296.827769 -115.03378 
L 300.107107 -114.002623 
L 303.386446 -113.066447 
L 306.665785 -112.217391 
L 309.945124 -111.446411 
L 313.224463 -110.743255 
L 316.503802 -110.096435 
L 319.78314 -109.4932 
L 323.062479 -108.919509 
L 326.341818 -108.360003 
L 329.621157 -107.79798 
L 332.900496 -107.215365 
L 336.179835 -106.592686 
L 339.459174 -105.909046 
L 342.738512 -105.142093 
L 346.017851 -104.267998 
L 349.29719 -103.261425 
L 352.576529 -102.095504 
L 355.855868 -100.741804 
L 359.135207 -99.170307 
L 362.414545 -97.349379 
L 365.693884 -95.245746 
L 368.973223 -92.824463 
L 372.252562 -90.04889 
L 375.531901 -86.880665 
L 378.81124 -83.279674 
L 382.090579 -79.204028 
L 385.369917 -74.610032 
L 388.649256 -69.45216 
L 391.928595 -63.683029 
L 395.207934 -57.253369 
L 398.487273 -50.112 
L 398.487273 -132.034955 
L 398.487273 -132.034955 
L 395.207934 -139.176324 
L 391.928595 -145.605984 
L 388.649256 -151.375115 
L 385.369917 -156.532986 
L 382.090579 -161.126982 
L 378.81124 -165.202629 
L 375.531901 -168.803619 
L 372.252562 -171.971845 
L 368.973223 -174.747417 
L 365.693884 -177.1687 
L 362.414545 -179.272334 
L 359.135207 -181.093262 
L 355.855868 -182.664759 
L 352.576529 -184.018459 
L 349.29719 -185.18438 
L 346.017851 -186.190953 
L 342.738512 -187.065047 
L 339.459174 -187.832 
L 336.179835 -188.515641 
L 332.900496 -189.13832 
L 329.621157 -189.720935 
L 326.341818 -190.282958 
L 323.062479 -190.842464 
L 319.78314 -191.416155 
L 316.503802 -192.019389 
L 313.224463 -192.666209 
L 309.945124 -193.369365 
L 306.665785 -194.140345 
L 303.386446 -194.989402 
L 300.107107 -195.925578 
L 296.827769 -196.956734 
L 293.54843 -198.089578 
L 290.269091 -199.329687 
L 286.989752 -200.681539 
L 283.710413 -202.148538 
L 280.431074 -203.733041 
L 277.151736 -205.436387 
L 273.872397 -207.258921 
L 270.593058 -209.200021 
L 267.313719 -211.258131 
L 264.03438 -213.430779 
L 260.755041 -215.714612 
L 257.475702 -218.105417 
L 254.196364 -220.598154 
L 250.917025 -223.186976 
L 247.637686 -225.865263 
L 244.358347 -228.625646 
L 241.079008 -231.460031 
L 237.799669 -234.359631 
L 234.520331 -237.314993 
L 231.240992 -240.316019 
L 227.961653 -243.352001 
L 224.682314 -246.411643 
L 221.402975 -249.483088 
L 218.123636 -252.553948 
L 214.844298 -255.611329 
L 211.564959 -258.641859 
L 208.28562 -261.631713 
L 205.006281 -264.566643 
L 201.726942 -267.432003 
L 198.447603 -270.212778 
L 195.168264 -272.893608 
L 191.888926 -275.458818 
L 188.609587 -277.892443 
L 185.330248 -280.178257 
L 182.050909 -282.299798 
L 178.77157 -284.240398 
L 175.492231 -285.983204 
L 172.212893 -287.511214 
L 168.933554 -288.807295 
L 165.654215 -289.854218 
L 162.374876 -290.634679 
L 159.095537 -291.131329 
L 155.816198 -291.3268 
L 152.53686 -291.203734 
L 149.257521 -290.744805 
L 145.978182 -289.932755 
L 142.698843 -288.75041 
L 139.419504 -287.180717 
L 136.140165 -285.206764 
L 132.860826 -282.811813 
L 129.581488 -279.979319 
L 126.302149 -276.692967 
L 123.02281 -272.93669 
L 119.743471 -268.694703 
L 116.464132 -263.951526 
L 113.184793 -258.692011 
L 109.905455 -252.901371 
L 106.626116 -246.565208 
L 103.346777 -239.669535 
L 100.067438 -232.200808 
L 96.788099 -224.145953 
L 93.50876 -215.49239 
L 90.229421 -206.22806 
L 86.950083 -196.341456 
L 83.670744 -185.821647 
L 80.391405 -174.658304 
L 77.112066 -162.841732 
L 73.832727 -150.362891 
z
" style="stroke: #808080; stroke-opacity: 0.2"/>
    </defs>
    <g clip-path="url(#p7b0ff71e38)">
     <use xlink:href="#mb4a2788d79" x="0" y="345.6" style="fill: #808080; fill-opacity: 0.2; stroke: #808080; stroke-opacity: 0.2"/>
    </g>
   </g>
   <g id="matplotlib.axis_1">
    <g id="xtick_1">
     <g id="line2d_1">
      <defs>
       <path id="m2d88754b08" d="M 0 0 
L 0 -3.5 
" style="stroke: #000000; stroke-width: 0.8"/>
      </defs>
      <g>
       <use xlink:href="#m2d88754b08" x="64.284064" y="307.584" style="stroke: #000000; stroke-width: 0.8"/>
      </g>
     </g>
     <g id="text_1">
      <!-- 0 -->
      <g transform="translate(61.784064 317.959) scale(0.1 -0.1)">
       <defs>
        <path id="SimHei-30" d="M 225 2537 
Q 250 3200 412 3587 
Q 575 3975 875 4225 
Q 1175 4475 1612 4475 
Q 2050 4475 2375 4112 
Q 2700 3750 2800 3200 
Q 2900 2650 2862 1937 
Q 2825 1225 2612 775 
Q 2400 325 1975 150 
Q 1550 -25 1125 187 
Q 700 400 525 750 
Q 350 1100 275 1487 
Q 200 1875 225 2537 
z
M 750 2687 
Q 675 2000 800 1462 
Q 925 925 1212 700 
Q 1500 475 1800 612 
Q 2100 750 2237 1162 
Q 2375 1575 2375 2062 
Q 2375 2550 2337 2950 
Q 2300 3350 2112 3675 
Q 1925 4000 1612 4012 
Q 1300 4025 1062 3700 
Q 825 3375 750 2687 
z
" transform="scale(0.015625)"/>
       </defs>
       <use xlink:href="#SimHei-30"/>
      </g>
     </g>
    </g>
    <g id="xtick_2">
     <g id="line2d_2">
      <g>
       <use xlink:href="#m2d88754b08" x="112.02738" y="307.584" style="stroke: #000000; stroke-width: 0.8"/>
      </g>
     </g>
     <g id="text_2">
      <!-- 5 -->
      <g transform="translate(109.52738 317.959) scale(0.1 -0.1)">
       <defs>
        <path id="SimHei-35" d="M 550 1325 
Q 725 650 1150 575 
Q 1575 500 1837 662 
Q 2100 825 2212 1087 
Q 2325 1350 2312 1675 
Q 2300 2000 2137 2225 
Q 1975 2450 1725 2525 
Q 1475 2600 1162 2525 
Q 850 2450 650 2175 
L 225 2225 
Q 275 2375 700 4375 
L 2675 4375 
L 2675 3925 
L 1075 3925 
Q 950 3250 825 2850 
Q 1200 3025 1525 3012 
Q 1850 3000 2150 2862 
Q 2450 2725 2587 2487 
Q 2725 2250 2787 2012 
Q 2850 1775 2837 1500 
Q 2825 1225 2725 937 
Q 2625 650 2425 462 
Q 2225 275 1937 162 
Q 1650 50 1275 75 
Q 900 100 562 350 
Q 225 600 100 1200 
L 550 1325 
z
" transform="scale(0.015625)"/>
       </defs>
       <use xlink:href="#SimHei-35"/>
      </g>
     </g>
    </g>
    <g id="xtick_3">
     <g id="line2d_3">
      <g>
       <use xlink:href="#m2d88754b08" x="159.770695" y="307.584" style="stroke: #000000; stroke-width: 0.8"/>
      </g>
     </g>
     <g id="text_3">
      <!-- 10 -->
      <g transform="translate(154.770695 317.959) scale(0.1 -0.1)">
       <defs>
        <path id="SimHei-31" d="M 1400 3600 
Q 1075 3275 575 2975 
L 575 3450 
Q 1200 3875 1600 4450 
L 1900 4450 
L 1900 150 
L 1400 150 
L 1400 3600 
z
" transform="scale(0.015625)"/>
       </defs>
       <use xlink:href="#SimHei-31"/>
       <use xlink:href="#SimHei-30" x="50"/>
      </g>
     </g>
    </g>
    <g id="xtick_4">
     <g id="line2d_4">
      <g>
       <use xlink:href="#m2d88754b08" x="207.514011" y="307.584" style="stroke: #000000; stroke-width: 0.8"/>
      </g>
     </g>
     <g id="text_4">
      <!-- 15 -->
      <g transform="translate(202.514011 317.959) scale(0.1 -0.1)">
       <use xlink:href="#SimHei-31"/>
       <use xlink:href="#SimHei-35" x="50"/>
      </g>
     </g>
    </g>
    <g id="xtick_5">
     <g id="line2d_5">
      <g>
       <use xlink:href="#m2d88754b08" x="255.257326" y="307.584" style="stroke: #000000; stroke-width: 0.8"/>
      </g>
     </g>
     <g id="text_5">
      <!-- 20 -->
      <g transform="translate(250.257326 317.959) scale(0.1 -0.1)">
       <defs>
        <path id="SimHei-32" d="M 300 250 
Q 325 625 650 925 
Q 975 1225 1475 1862 
Q 1975 2500 2125 2850 
Q 2275 3200 2237 3450 
Q 2200 3700 2000 3862 
Q 1800 4025 1537 4000 
Q 1275 3975 1037 3800 
Q 800 3625 675 3275 
L 200 3350 
Q 400 3925 712 4187 
Q 1025 4450 1450 4475 
Q 1700 4500 1900 4462 
Q 2100 4425 2312 4287 
Q 2525 4150 2662 3875 
Q 2800 3600 2762 3212 
Q 2725 2825 2375 2287 
Q 2025 1750 1025 600 
L 2825 600 
L 2825 150 
L 300 150 
L 300 250 
z
" transform="scale(0.015625)"/>
       </defs>
       <use xlink:href="#SimHei-32"/>
       <use xlink:href="#SimHei-30" x="50"/>
      </g>
     </g>
    </g>
    <g id="xtick_6">
     <g id="line2d_6">
      <g>
       <use xlink:href="#m2d88754b08" x="303.000642" y="307.584" style="stroke: #000000; stroke-width: 0.8"/>
      </g>
     </g>
     <g id="text_6">
      <!-- 25 -->
      <g transform="translate(298.000642 317.959) scale(0.1 -0.1)">
       <use xlink:href="#SimHei-32"/>
       <use xlink:href="#SimHei-35" x="50"/>
      </g>
     </g>
    </g>
    <g id="xtick_7">
     <g id="line2d_7">
      <g>
       <use xlink:href="#m2d88754b08" x="350.743957" y="307.584" style="stroke: #000000; stroke-width: 0.8"/>
      </g>
     </g>
     <g id="text_7">
      <!-- 30 -->
      <g transform="translate(345.743957 317.959) scale(0.1 -0.1)">
       <defs>
        <path id="SimHei-33" d="M 250 1225 
L 700 1300 
Q 800 975 1025 762 
Q 1250 550 1587 562 
Q 1925 575 2125 837 
Q 2325 1100 2300 1437 
Q 2275 1775 2037 1962 
Q 1800 2150 1275 2225 
L 1275 2550 
Q 1800 2600 2037 2825 
Q 2275 3050 2250 3412 
Q 2225 3775 1925 3937 
Q 1625 4100 1287 3975 
Q 950 3850 750 3275 
L 300 3350 
Q 450 3800 712 4100 
Q 975 4400 1425 4450 
Q 1875 4500 2212 4337 
Q 2550 4175 2687 3837 
Q 2825 3500 2725 3100 
Q 2625 2700 2150 2400 
Q 2500 2250 2687 1950 
Q 2875 1650 2812 1162 
Q 2750 675 2375 375 
Q 2000 75 1525 87 
Q 1050 100 700 387 
Q 350 675 250 1225 
z
" transform="scale(0.015625)"/>
       </defs>
       <use xlink:href="#SimHei-33"/>
       <use xlink:href="#SimHei-30" x="50"/>
      </g>
     </g>
    </g>
    <g id="xtick_8">
     <g id="line2d_8">
      <g>
       <use xlink:href="#m2d88754b08" x="398.487273" y="307.584" style="stroke: #000000; stroke-width: 0.8"/>
      </g>
     </g>
     <g id="text_8">
      <!-- 35 -->
      <g transform="translate(393.487273 317.959) scale(0.1 -0.1)">
       <use xlink:href="#SimHei-33"/>
       <use xlink:href="#SimHei-35" x="50"/>
      </g>
     </g>
    </g>
    <g id="text_9">
     <!-- Max方游戏步数/步 -->
     <g transform="translate(188.16 332.630875) scale(0.12 -0.12)">
      <defs>
       <path id="KaiTi-4d" d="M 2925 125 
L 2425 125 
L 2425 3175 
L 2375 3175 
L 1775 125 
L 1375 125 
L 775 3175 
L 725 3175 
L 725 125 
L 225 125 
L 225 4400 
L 1000 4400 
L 1550 1575 
L 1600 1575 
L 2150 4400 
L 2925 4400 
L 2925 125 
z
" transform="scale(0.015625)"/>
       <path id="KaiTi-61" d="M 2875 125 
L 2275 125 
Q 2225 175 2200 262 
Q 2175 350 2175 475 
Q 2000 275 1750 175 
Q 1500 75 1225 75 
Q 825 75 550 275 
Q 275 475 275 850 
Q 275 1225 525 1450 
Q 775 1675 1300 1750 
Q 1650 1800 1912 1875 
Q 2175 1950 2175 2075 
Q 2175 2225 2062 2375 
Q 1950 2525 1575 2525 
Q 1275 2525 1137 2412 
Q 1000 2300 950 2100 
L 400 2100 
Q 450 2500 762 2737 
Q 1075 2975 1575 2975 
Q 2125 2975 2400 2725 
Q 2675 2475 2675 2025 
L 2675 650 
Q 2675 500 2725 375 
Q 2775 250 2875 125 
z
M 2175 1050 
L 2175 1550 
Q 2025 1500 1887 1462 
Q 1750 1425 1425 1375 
Q 1050 1325 937 1200 
Q 825 1075 825 900 
Q 825 750 937 637 
Q 1050 525 1275 525 
Q 1500 525 1762 650 
Q 2025 775 2175 1050 
z
" transform="scale(0.015625)"/>
       <path id="KaiTi-78" d="M 2875 125 
L 2275 125 
L 1550 1200 
L 825 125 
L 225 125 
L 1250 1550 
L 300 2925 
L 900 2925 
L 1550 1875 
L 2200 2925 
L 2800 2925 
L 1850 1550 
L 2875 125 
z
" transform="scale(0.015625)"/>
       <path id="KaiTi-65b9" d="M 3325 3275 
Q 3650 3100 3562 2987 
Q 3475 2875 3350 2575 
Q 3500 2525 3737 2550 
Q 3975 2575 4125 2637 
Q 4275 2700 4462 2625 
Q 4650 2550 4825 2437 
Q 5000 2325 4887 2200 
Q 4775 2075 4637 1562 
Q 4500 1050 4375 750 
Q 4250 450 4062 200 
Q 3875 -50 3637 -137 
Q 3400 -225 3362 12 
Q 3325 250 2987 550 
Q 2650 850 3050 662 
Q 3450 475 3600 475 
Q 3775 475 3912 737 
Q 4050 1000 4187 1437 
Q 4325 1875 4325 2075 
Q 4325 2275 4212 2337 
Q 4100 2400 3950 2387 
Q 3800 2375 3625 2375 
Q 3475 2375 3275 2450 
Q 3050 1925 2737 1500 
Q 2425 1075 2000 712 
Q 1575 350 1037 112 
Q 500 -125 975 225 
Q 1450 575 1787 912 
Q 2125 1250 2437 1687 
Q 2750 2125 2912 2550 
Q 3075 2975 3100 3250 
Q 2400 3175 1937 3075 
Q 1475 2975 1325 2962 
Q 1175 2950 887 3100 
Q 600 3250 925 3250 
Q 1275 3250 1762 3325 
Q 2250 3400 3437 3562 
Q 4625 3725 5112 3837 
Q 5600 3950 5900 3750 
Q 6200 3550 5837 3512 
Q 5475 3475 4850 3450 
Q 4225 3425 3325 3275 
z
M 3050 4625 
Q 2850 4875 3012 4887 
Q 3175 4900 3387 4862 
Q 3600 4825 3762 4687 
Q 3925 4550 3887 4287 
Q 3850 4025 3562 4212 
Q 3275 4400 3050 4625 
z
" transform="scale(0.015625)"/>
       <path id="KaiTi-6e38" d="M 4800 1950 
Q 5200 2050 5550 2112 
Q 5900 2175 6075 1987 
Q 6250 1800 5925 1787 
Q 5600 1775 4875 1725 
Q 4950 1275 4887 612 
Q 4825 -50 4537 -325 
Q 4250 -600 4150 -400 
Q 4050 -200 3775 -25 
Q 3500 150 3712 112 
Q 3925 75 4175 62 
Q 4425 50 4512 537 
Q 4600 1025 4525 1650 
Q 3950 1550 3762 1525 
Q 3575 1500 3362 1637 
Q 3150 1775 3450 1775 
Q 3775 1775 4450 1875 
Q 4400 2175 4200 2312 
Q 4000 2450 4525 2400 
Q 4775 2825 4762 2900 
Q 4750 2975 4425 2887 
Q 4100 2800 3962 2750 
Q 3825 2700 3587 2837 
Q 3350 2975 3650 2975 
Q 3975 2975 4337 3062 
Q 4700 3150 4825 3237 
Q 4950 3325 5262 3125 
Q 5575 2925 5325 2850 
Q 5075 2775 4625 2300 
Q 4750 2175 4800 1950 
z
M 2600 3050 
Q 2800 2850 2762 2787 
Q 2725 2725 2675 2575 
Q 2850 2550 2975 2550 
Q 3100 2550 3237 2450 
Q 3375 2350 3275 2200 
Q 3175 2050 3150 1762 
Q 3125 1475 3000 1025 
Q 2875 575 2612 337 
Q 2350 100 2300 337 
Q 2250 575 2125 775 
Q 2000 975 2062 950 
Q 2125 925 2312 825 
Q 2500 725 2637 1025 
Q 2775 1325 2837 1737 
Q 2900 2150 2850 2287 
Q 2800 2425 2625 2475 
Q 2500 2125 2137 1600 
Q 1775 1075 1437 900 
Q 1100 725 1262 900 
Q 1425 1075 1650 1375 
Q 1875 1675 2125 2112 
Q 2375 2550 2375 3000 
Q 2200 3000 2037 2975 
Q 1875 2950 1712 3037 
Q 1550 3125 1850 3187 
Q 2150 3250 2550 3362 
Q 2950 3475 3162 3537 
Q 3375 3600 3512 3450 
Q 3650 3300 3362 3225 
Q 3075 3150 2600 3050 
z
M 4175 3900 
Q 4875 4050 5137 4175 
Q 5400 4300 5587 4162 
Q 5775 4025 5450 3912 
Q 5125 3800 4775 3750 
Q 4425 3700 4125 3800 
Q 3875 3475 3675 3375 
Q 3475 3275 3675 3575 
Q 3875 3875 4012 4325 
Q 4150 4775 4100 4937 
Q 4050 5100 4200 5062 
Q 4350 5025 4525 4925 
Q 4700 4825 4612 4737 
Q 4525 4650 4425 4425 
Q 4325 4200 4175 3900 
z
M 1450 1925 
Q 1100 1125 987 612 
Q 875 100 662 575 
Q 450 1050 575 1087 
Q 700 1125 887 1375 
Q 1075 1625 1437 2175 
Q 1800 2725 1450 1925 
z
M 1400 4025 
Q 1250 4200 1137 4387 
Q 1025 4575 1275 4525 
Q 1525 4475 1700 4362 
Q 1875 4250 1825 4012 
Q 1775 3775 1662 3825 
Q 1550 3875 1400 4025 
z
M 2625 4275 
Q 2450 4500 2437 4575 
Q 2425 4650 2712 4612 
Q 3000 4575 3100 4425 
Q 3200 4275 3162 4100 
Q 3125 3925 2975 3987 
Q 2825 4050 2625 4275 
z
M 725 2900 
Q 575 3125 512 3300 
Q 450 3475 825 3325 
Q 1200 3175 1175 2887 
Q 1150 2600 1012 2650 
Q 875 2700 725 2900 
z
" transform="scale(0.015625)"/>
       <path id="KaiTi-620f" d="M 3825 3150 
Q 4150 3275 4312 3350 
Q 4475 3425 4625 3337 
Q 4775 3250 4600 3137 
Q 4425 3025 3900 2825 
Q 3925 2500 4100 1950 
Q 4275 2125 4412 2312 
Q 4550 2500 4575 2687 
Q 4600 2875 4700 2837 
Q 4800 2800 4962 2662 
Q 5125 2525 4975 2425 
Q 4825 2325 4687 2125 
Q 4550 1925 4250 1600 
Q 4575 875 5012 512 
Q 5450 150 5537 312 
Q 5625 475 5737 825 
Q 5850 1175 5837 637 
Q 5825 100 5925 -212 
Q 6025 -525 5350 -225 
Q 4675 75 4000 1375 
Q 3350 800 2812 650 
Q 2275 500 2637 700 
Q 3000 900 3337 1187 
Q 3675 1475 3875 1675 
Q 3725 2175 3625 2725 
Q 3400 2675 3237 2612 
Q 3075 2550 2850 2625 
Q 2625 2700 2925 2800 
Q 3225 2900 3550 3025 
Q 3450 3525 3362 4062 
Q 3275 4600 3162 4762 
Q 3050 4925 3175 4937 
Q 3300 4950 3537 4850 
Q 3775 4750 3712 4562 
Q 3650 4375 3825 3150 
z
M 2050 2050 
Q 2550 1725 2637 1562 
Q 2725 1400 2662 1175 
Q 2600 950 2387 1212 
Q 2175 1475 1900 1700 
Q 1625 1275 1337 1037 
Q 1050 800 737 675 
Q 425 550 662 737 
Q 900 925 1175 1250 
Q 1450 1575 1675 1925 
Q 1125 2400 1025 2525 
Q 925 2650 1150 2562 
Q 1375 2475 1800 2250 
Q 1925 2575 2000 2987 
Q 2075 3400 1925 3362 
Q 1775 3325 1425 3187 
Q 1075 3050 862 3162 
Q 650 3275 912 3312 
Q 1175 3350 1562 3487 
Q 1950 3625 2025 3700 
Q 2100 3775 2262 3725 
Q 2425 3675 2525 3587 
Q 2625 3500 2537 3412 
Q 2450 3325 2350 2937 
Q 2250 2550 2050 2050 
z
M 4500 4475 
Q 4750 4475 4912 4337 
Q 5075 4200 4987 4025 
Q 4900 3850 4700 3987 
Q 4500 4125 4300 4275 
Q 4100 4425 4187 4450 
Q 4275 4475 4500 4475 
z
" transform="scale(0.015625)"/>
       <path id="KaiTi-6b65" d="M 3575 4250 
Q 3800 4275 4062 4362 
Q 4325 4450 4525 4337 
Q 4725 4225 4362 4125 
Q 4000 4025 3575 4050 
Q 3550 3450 3550 3175 
Q 4700 3325 4962 3375 
Q 5225 3425 5375 3325 
Q 5525 3225 5575 3112 
Q 5625 3000 5300 3025 
Q 4975 3050 4375 3000 
Q 3775 2950 3175 2875 
Q 3350 2800 3412 2725 
Q 3475 2650 3437 2512 
Q 3400 2375 3400 1975 
Q 3400 1600 3375 1350 
Q 3350 1100 3300 1000 
Q 3250 900 3112 1087 
Q 2975 1275 3037 1487 
Q 3100 1700 3100 2075 
Q 3100 2450 3075 2600 
Q 3050 2750 3000 2850 
Q 2300 2750 2012 2700 
Q 1725 2650 1500 2587 
Q 1275 2525 1037 2687 
Q 800 2850 1025 2850 
Q 1275 2850 2150 2975 
Q 2100 3675 1987 3850 
Q 1875 4025 2025 4012 
Q 2175 4000 2337 3937 
Q 2500 3875 2462 3712 
Q 2425 3550 2425 3000 
Q 2800 3050 3250 3125 
Q 3250 4075 3212 4487 
Q 3175 4900 3075 5050 
Q 2975 5200 3125 5187 
Q 3275 5175 3500 5087 
Q 3725 5000 3650 4887 
Q 3575 4775 3575 4250 
z
M 4900 2575 
Q 5075 2400 4962 2325 
Q 4850 2250 4537 1712 
Q 4225 1175 3750 700 
Q 3275 225 2587 -112 
Q 1900 -450 1200 -537 
Q 500 -625 1237 -400 
Q 1975 -175 2612 212 
Q 3250 600 3662 1100 
Q 4075 1600 4300 2037 
Q 4525 2475 4500 2650 
Q 4475 2825 4600 2787 
Q 4725 2750 4900 2575 
z
M 2125 1925 
Q 2250 2175 2312 2187 
Q 2375 2200 2362 1825 
Q 2350 1450 2075 1062 
Q 1800 675 1737 975 
Q 1675 1275 1850 1487 
Q 2025 1700 2125 1925 
z
" transform="scale(0.015625)"/>
       <path id="KaiTi-6570" d="M 4100 1300 
Q 4275 1625 4312 1987 
Q 4350 2350 4325 2725 
Q 4125 2700 3875 2725 
Q 3575 2375 3325 2225 
Q 3075 2075 3387 2462 
Q 3700 2850 3912 3487 
Q 4125 4125 4100 4275 
Q 4075 4425 4062 4537 
Q 4050 4650 4362 4487 
Q 4675 4325 4562 4175 
Q 4450 4025 4337 3712 
Q 4225 3400 3925 2850 
Q 4525 2975 4912 3162 
Q 5300 3350 5512 3212 
Q 5725 3075 5450 2975 
Q 5175 2875 4425 2725 
Q 4800 2600 4712 2350 
Q 4625 2100 4562 1775 
Q 4500 1450 4325 1025 
Q 4550 750 4837 512 
Q 5125 275 5437 150 
Q 5750 25 5975 -62 
Q 6200 -150 5737 -187 
Q 5275 -225 5037 -187 
Q 4800 -150 4687 25 
Q 4575 200 4125 800 
Q 3900 550 3675 400 
Q 3450 250 3175 175 
Q 2900 100 3162 262 
Q 3425 425 3625 625 
Q 3825 825 3975 1050 
Q 3800 1350 3637 1562 
Q 3475 1775 3362 1900 
Q 3250 2025 3387 2037 
Q 3525 2050 3612 1950 
Q 3700 1850 4100 1300 
z
M 2575 1600 
Q 2625 1750 2612 1862 
Q 2600 1975 2750 1875 
Q 2900 1775 2962 1700 
Q 3025 1625 2962 1500 
Q 2900 1375 2800 1112 
Q 2700 850 2525 550 
Q 2700 425 2837 300 
Q 2975 175 2925 -62 
Q 2875 -300 2712 -100 
Q 2550 100 2325 275 
Q 1925 -25 1587 -150 
Q 1250 -275 912 -300 
Q 575 -325 850 -212 
Q 1125 -100 1450 50 
Q 1775 200 2050 475 
Q 1750 700 1637 750 
Q 1525 800 1587 900 
Q 1650 1000 1700 1250 
Q 1050 1175 862 1062 
Q 675 950 425 1150 
Q 175 1350 500 1337 
Q 825 1325 1775 1475 
Q 1850 1800 1800 1987 
Q 1750 2175 2025 2037 
Q 2300 1900 2250 1825 
Q 2200 1750 2075 1525 
L 2575 1600 
z
M 2875 3425 
Q 3125 3475 3225 3387 
Q 3325 3300 3100 3225 
Q 2875 3150 2350 3075 
L 2350 2875 
Q 2775 2825 2975 2687 
Q 3175 2550 3112 2350 
Q 3050 2150 2812 2412 
Q 2575 2675 2350 2800 
Q 2350 2500 2300 2287 
Q 2250 2075 2137 2262 
Q 2025 2450 2062 2600 
Q 2100 2750 2075 2950 
Q 1475 2175 975 1937 
Q 475 1700 762 1925 
Q 1050 2150 1362 2475 
Q 1675 2800 1800 3050 
Q 1450 2925 1312 2900 
Q 1175 2875 975 3012 
Q 775 3150 1050 3137 
Q 1325 3125 2100 3275 
L 2100 4175 
Q 2100 4700 2012 4837 
Q 1925 4975 1987 4987 
Q 2050 5000 2300 4887 
Q 2550 4775 2462 4625 
Q 2375 4475 2375 3325 
L 2875 3425 
z
M 2250 675 
Q 2450 925 2575 1425 
L 2000 1325 
Q 1825 925 1837 875 
Q 1850 825 1937 800 
Q 2025 775 2250 675 
z
M 3250 4275 
Q 3450 4150 3300 4087 
Q 3150 4025 2762 3737 
Q 2375 3450 2600 3737 
Q 2825 4025 2900 4237 
Q 2975 4450 3025 4425 
Q 3075 4400 3250 4275 
z
M 1550 3600 
Q 1350 3875 1287 4000 
Q 1225 4125 1537 4050 
Q 1850 3975 1812 3662 
Q 1775 3350 1550 3600 
z
" transform="scale(0.015625)"/>
       <path id="KaiTi-2f" d="M 3000 4550 
L 350 -175 
L 100 -25 
L 2750 4700 
L 3000 4550 
z
" transform="scale(0.015625)"/>
      </defs>
      <use xlink:href="#KaiTi-4d"/>
      <use xlink:href="#KaiTi-61" x="50"/>
      <use xlink:href="#KaiTi-78" x="100"/>
      <use xlink:href="#KaiTi-65b9" x="150"/>
      <use xlink:href="#KaiTi-6e38" x="250"/>
      <use xlink:href="#KaiTi-620f" x="350"/>
      <use xlink:href="#KaiTi-6b65" x="450"/>
      <use xlink:href="#KaiTi-6570" x="550"/>
      <use xlink:href="#KaiTi-2f" x="650"/>
      <use xlink:href="#KaiTi-6b65" x="700"/>
     </g>
    </g>
   </g>
   <g id="matplotlib.axis_2">
    <g id="ytick_1">
     <g id="line2d_9">
      <defs>
       <path id="m32a1127be5" d="M 0 0 
L 3.5 0 
" style="stroke: #000000; stroke-width: 0.8"/>
      </defs>
      <g>
       <use xlink:href="#m32a1127be5" x="57.6" y="298.722007" style="stroke: #000000; stroke-width: 0.8"/>
      </g>
     </g>
     <g id="text_10">
      <!-- 0 -->
      <g transform="translate(49.1 302.159507) scale(0.1 -0.1)">
       <use xlink:href="#SimHei-30"/>
      </g>
     </g>
    </g>
    <g id="ytick_2">
     <g id="line2d_10">
      <g>
       <use xlink:href="#m32a1127be5" x="57.6" y="268.78294" style="stroke: #000000; stroke-width: 0.8"/>
      </g>
     </g>
     <g id="text_11">
      <!-- 250 -->
      <g transform="translate(39.1 272.22044) scale(0.1 -0.1)">
       <use xlink:href="#SimHei-32"/>
       <use xlink:href="#SimHei-35" x="50"/>
       <use xlink:href="#SimHei-30" x="100"/>
      </g>
     </g>
    </g>
    <g id="ytick_3">
     <g id="line2d_11">
      <g>
       <use xlink:href="#m32a1127be5" x="57.6" y="238.843873" style="stroke: #000000; stroke-width: 0.8"/>
      </g>
     </g>
     <g id="text_12">
      <!-- 500 -->
      <g transform="translate(39.1 242.281373) scale(0.1 -0.1)">
       <use xlink:href="#SimHei-35"/>
       <use xlink:href="#SimHei-30" x="50"/>
       <use xlink:href="#SimHei-30" x="100"/>
      </g>
     </g>
    </g>
    <g id="ytick_4">
     <g id="line2d_12">
      <g>
       <use xlink:href="#m32a1127be5" x="57.6" y="208.904806" style="stroke: #000000; stroke-width: 0.8"/>
      </g>
     </g>
     <g id="text_13">
      <!-- 750 -->
      <g transform="translate(39.1 212.342306) scale(0.1 -0.1)">
       <defs>
        <path id="SimHei-37" d="M 850 150 
Q 1300 2050 2425 3925 
L 275 3925 
L 275 4375 
L 2950 4375 
L 2950 3950 
Q 1775 2050 1400 150 
L 850 150 
z
" transform="scale(0.015625)"/>
       </defs>
       <use xlink:href="#SimHei-37"/>
       <use xlink:href="#SimHei-35" x="50"/>
       <use xlink:href="#SimHei-30" x="100"/>
      </g>
     </g>
    </g>
    <g id="ytick_5">
     <g id="line2d_13">
      <g>
       <use xlink:href="#m32a1127be5" x="57.6" y="178.965739" style="stroke: #000000; stroke-width: 0.8"/>
      </g>
     </g>
     <g id="text_14">
      <!-- 1000 -->
      <g transform="translate(34.1 182.403239) scale(0.1 -0.1)">
       <use xlink:href="#SimHei-31"/>
       <use xlink:href="#SimHei-30" x="50"/>
       <use xlink:href="#SimHei-30" x="100"/>
       <use xlink:href="#SimHei-30" x="150"/>
      </g>
     </g>
    </g>
    <g id="ytick_6">
     <g id="line2d_14">
      <g>
       <use xlink:href="#m32a1127be5" x="57.6" y="149.026672" style="stroke: #000000; stroke-width: 0.8"/>
      </g>
     </g>
     <g id="text_15">
      <!-- 1250 -->
      <g transform="translate(34.1 152.464172) scale(0.1 -0.1)">
       <use xlink:href="#SimHei-31"/>
       <use xlink:href="#SimHei-32" x="50"/>
       <use xlink:href="#SimHei-35" x="100"/>
       <use xlink:href="#SimHei-30" x="150"/>
      </g>
     </g>
    </g>
    <g id="ytick_7">
     <g id="line2d_15">
      <g>
       <use xlink:href="#m32a1127be5" x="57.6" y="119.087605" style="stroke: #000000; stroke-width: 0.8"/>
      </g>
     </g>
     <g id="text_16">
      <!-- 1500 -->
      <g transform="translate(34.1 122.525105) scale(0.1 -0.1)">
       <use xlink:href="#SimHei-31"/>
       <use xlink:href="#SimHei-35" x="50"/>
       <use xlink:href="#SimHei-30" x="100"/>
       <use xlink:href="#SimHei-30" x="150"/>
      </g>
     </g>
    </g>
    <g id="ytick_8">
     <g id="line2d_16">
      <g>
       <use xlink:href="#m32a1127be5" x="57.6" y="89.148538" style="stroke: #000000; stroke-width: 0.8"/>
      </g>
     </g>
     <g id="text_17">
      <!-- 1750 -->
      <g transform="translate(34.1 92.586038) scale(0.1 -0.1)">
       <use xlink:href="#SimHei-31"/>
       <use xlink:href="#SimHei-37" x="50"/>
       <use xlink:href="#SimHei-35" x="100"/>
       <use xlink:href="#SimHei-30" x="150"/>
      </g>
     </g>
    </g>
    <g id="ytick_9">
     <g id="line2d_17">
      <g>
       <use xlink:href="#m32a1127be5" x="57.6" y="59.209471" style="stroke: #000000; stroke-width: 0.8"/>
      </g>
     </g>
     <g id="text_18">
      <!-- 2000 -->
      <g transform="translate(34.1 62.646971) scale(0.1 -0.1)">
       <use xlink:href="#SimHei-32"/>
       <use xlink:href="#SimHei-30" x="50"/>
       <use xlink:href="#SimHei-30" x="100"/>
       <use xlink:href="#SimHei-30" x="150"/>
      </g>
     </g>
    </g>
    <g id="text_19">
     <!-- 活跃结点个数/个 -->
     <g transform="translate(28.6 219.528) rotate(-90) scale(0.12 -0.12)">
      <defs>
       <path id="KaiTi-6d3b" d="M 3525 2575 
Q 2825 2450 2575 2400 
Q 2325 2350 2087 2512 
Q 1850 2675 2175 2675 
Q 2525 2675 3550 2850 
Q 3575 3050 3575 3300 
Q 3575 3550 3475 3775 
Q 3025 3650 2737 3612 
Q 2450 3575 2875 3762 
Q 3300 3950 3750 4225 
Q 4200 4500 4175 4637 
Q 4150 4775 4375 4700 
Q 4600 4625 4762 4500 
Q 4925 4375 4662 4300 
Q 4400 4225 3675 3875 
Q 4125 3750 4037 3550 
Q 3950 3350 3900 2900 
Q 4775 3050 5212 3137 
Q 5650 3225 5875 3025 
Q 6100 2825 5800 2812 
Q 5500 2800 4987 2775 
Q 4475 2750 3875 2650 
Q 3800 2325 3700 1650 
Q 4350 1750 4487 1850 
Q 4625 1950 4825 1862 
Q 5025 1775 5187 1637 
Q 5350 1500 5187 1362 
Q 5025 1225 4775 675 
Q 5100 325 4750 325 
Q 4425 325 4100 300 
Q 3775 275 3175 225 
Q 3150 125 3100 25 
Q 3050 -75 2975 87 
Q 2900 250 2825 787 
Q 2750 1325 2637 1512 
Q 2525 1700 2662 1687 
Q 2800 1675 2925 1637 
Q 3050 1600 3100 1587 
Q 3150 1575 3425 1600 
Q 3475 2075 3525 2575 
z
M 3125 1400 
Q 3150 900 3175 425 
Q 3700 500 4450 600 
Q 4550 1050 4575 1287 
Q 4600 1525 4487 1550 
Q 4375 1575 4050 1525 
Q 3725 1475 3125 1400 
z
M 1850 1750 
Q 1500 875 1437 437 
Q 1375 0 1212 212 
Q 1050 425 950 662 
Q 850 900 975 937 
Q 1100 975 1300 1250 
Q 1500 1525 1787 1962 
Q 2075 2400 1850 1750 
z
M 1825 4050 
Q 1500 4300 1412 4462 
Q 1325 4625 1612 4587 
Q 1900 4550 2075 4412 
Q 2250 4275 2200 4037 
Q 2150 3800 1825 4050 
z
M 1275 2650 
Q 1100 2775 950 2987 
Q 800 3200 837 3250 
Q 875 3300 1125 3250 
Q 1375 3200 1462 3050 
Q 1550 2900 1500 2712 
Q 1450 2525 1275 2650 
z
" transform="scale(0.015625)"/>
       <path id="KaiTi-8dc3" d="M 2600 3150 
Q 2800 2975 2587 2937 
Q 2375 2900 1975 2825 
Q 2175 2650 2125 2537 
Q 2075 2425 2075 2000 
Q 2275 2025 2425 2087 
Q 2575 2150 2725 2050 
Q 2875 1950 2700 1875 
Q 2525 1800 2075 1825 
L 2075 1075 
Q 2675 1200 2762 1175 
Q 2850 1150 2387 987 
Q 1925 825 1437 650 
Q 950 475 812 375 
Q 675 275 400 487 
Q 125 700 362 725 
Q 600 750 975 825 
Q 925 1700 750 1975 
Q 575 2250 937 2125 
Q 1300 2000 1237 1837 
Q 1175 1675 1225 875 
Q 1675 975 1825 1025 
Q 1825 2375 1750 2775 
L 1600 2725 
Q 1450 2325 1362 2725 
Q 1275 3125 1200 3412 
Q 1125 3700 1025 3875 
Q 925 4050 1200 4000 
Q 1475 3950 1862 4062 
Q 2250 4175 2350 4262 
Q 2450 4350 2775 4187 
Q 3100 4025 2900 3862 
Q 2700 3700 2600 3150 
z
M 3850 3675 
Q 4125 3500 4075 3387 
Q 4025 3275 4025 2750 
Q 4550 2850 4850 2937 
Q 5150 3025 5425 2887 
Q 5700 2750 5237 2687 
Q 4775 2625 4025 2475 
Q 4025 2300 3975 1950 
Q 4125 1800 4487 1387 
Q 4850 975 5212 750 
Q 5575 525 6012 387 
Q 6450 250 6100 200 
Q 5750 150 5387 137 
Q 5025 125 4787 450 
Q 4550 775 3925 1725 
Q 3725 1100 3362 725 
Q 3000 350 2562 212 
Q 2125 75 2587 362 
Q 3050 650 3375 1200 
Q 3700 1750 3725 2400 
Q 3300 2325 3125 2262 
Q 2950 2200 2725 2325 
Q 2500 2450 2862 2500 
Q 3225 2550 3725 2675 
Q 3725 2950 3700 3200 
Q 3675 3450 3600 3575 
Q 2950 3375 3425 3637 
Q 3900 3900 4175 4175 
Q 4450 4450 4462 4625 
Q 4475 4800 4875 4537 
Q 5275 4275 4975 4212 
Q 4675 4150 3850 3675 
z
M 1575 2900 
Q 2025 3075 2300 3100 
Q 2450 4000 2275 3962 
Q 2100 3925 1450 3800 
Q 1550 3100 1575 2900 
z
" transform="scale(0.015625)"/>
       <path id="KaiTi-7ed3" d="M 5175 575 
Q 5475 375 5225 337 
Q 4975 300 3775 250 
Q 3700 -125 3562 175 
Q 3425 475 3325 775 
Q 3225 1075 3150 1200 
Q 3075 1325 3187 1337 
Q 3300 1350 3462 1337 
Q 3625 1325 3975 1375 
Q 4325 1425 4537 1462 
Q 4750 1500 4887 1550 
Q 5025 1600 5212 1525 
Q 5400 1450 5575 1312 
Q 5750 1175 5562 1100 
Q 5375 1025 5175 575 
z
M 4475 3300 
Q 5125 3425 5387 3487 
Q 5650 3550 5862 3387 
Q 6075 3225 5737 3200 
Q 5400 3175 4475 3050 
L 4475 2275 
Q 4750 2325 4987 2362 
Q 5225 2400 5412 2237 
Q 5600 2075 5350 2075 
Q 5100 2075 4600 2012 
Q 4100 1950 3737 1900 
Q 3375 1850 3200 1975 
Q 3025 2100 3300 2125 
Q 3575 2150 4150 2225 
L 4150 2975 
Q 3450 2875 3275 2837 
Q 3100 2800 2900 2937 
Q 2700 3075 2987 3087 
Q 3275 3100 4150 3225 
Q 4150 4075 4100 4312 
Q 4050 4550 3937 4762 
Q 3825 4975 4300 4825 
Q 4675 4675 4575 4525 
Q 4475 4375 4475 3300 
z
M 1975 3000 
Q 2350 3525 2312 3700 
Q 2275 3875 2462 3800 
Q 2650 3725 2812 3612 
Q 2975 3500 2800 3412 
Q 2625 3325 2250 2825 
Q 1875 2325 1725 2125 
Q 1675 2050 1650 2025 
Q 2825 2300 2612 2162 
Q 2400 2025 1925 1837 
Q 1450 1650 1300 1500 
Q 1150 1350 1075 1475 
Q 1000 1600 987 1737 
Q 975 1875 1175 1975 
Q 1375 2075 1875 2825 
Q 1150 2675 987 2587 
Q 825 2500 775 2587 
Q 725 2675 725 2825 
Q 725 2975 937 3037 
Q 1150 3100 1525 3787 
Q 1900 4475 1825 4675 
Q 1750 4875 2125 4675 
Q 2450 4425 2250 4300 
Q 2050 4175 1275 2950 
L 1975 3000 
z
M 3625 1125 
Q 3675 725 3750 425 
Q 4075 450 4412 487 
Q 4750 525 4925 525 
Q 5000 925 5012 1075 
Q 5025 1225 4950 1250 
Q 4875 1275 4575 1250 
Q 4275 1225 3625 1125 
z
M 1625 1025 
Q 2575 1450 2775 1500 
Q 2975 1550 2637 1325 
Q 2300 1100 1762 787 
Q 1225 475 1125 337 
Q 1025 200 700 437 
Q 375 675 637 700 
Q 900 725 1625 1025 
z
" transform="scale(0.015625)"/>
       <path id="KaiTi-70b9" d="M 3375 3925 
Q 4025 4025 4337 4150 
Q 4650 4275 4887 4112 
Q 5125 3950 4412 3800 
Q 3700 3650 3350 3750 
L 3325 2800 
Q 3825 2850 3987 2925 
Q 4150 3000 4400 2912 
Q 4650 2825 4825 2700 
Q 5000 2575 4862 2462 
Q 4725 2350 4625 2262 
Q 4525 2175 4350 1750 
Q 4625 1450 4375 1462 
Q 4125 1475 2400 1300 
Q 2350 1125 2275 1175 
Q 2200 1225 2137 1412 
Q 2075 1600 1987 2000 
Q 1900 2400 1800 2562 
Q 1700 2725 1850 2712 
Q 2000 2700 2087 2675 
Q 2175 2650 2375 2662 
Q 2575 2675 3000 2750 
Q 3000 3850 2975 4212 
Q 2950 4575 2812 4775 
Q 2675 4975 2925 4937 
Q 3175 4900 3350 4825 
Q 3525 4750 3462 4612 
Q 3400 4475 3375 3925 
z
M 2350 2025 
L 2400 1500 
Q 2875 1575 4000 1700 
Q 4100 2200 4125 2425 
Q 4150 2650 3975 2650 
Q 3800 2650 3225 2575 
L 2300 2450 
L 2350 2025 
z
M 4975 1025 
Q 5450 825 5662 575 
Q 5875 325 5812 37 
Q 5750 -250 5475 12 
Q 5200 275 4775 775 
Q 4350 1275 4975 1025 
z
M 1125 750 
Q 1325 1275 1362 750 
Q 1400 225 1137 -187 
Q 875 -600 775 -350 
Q 675 -100 775 87 
Q 875 275 1125 750 
z
M 4000 675 
Q 4175 475 4100 225 
Q 4025 -25 3862 125 
Q 3700 275 3587 462 
Q 3475 650 3400 837 
Q 3325 1025 3575 950 
Q 3825 875 4000 675 
z
M 2350 300 
Q 2175 650 2175 775 
Q 2175 900 2425 775 
Q 2675 650 2762 425 
Q 2850 200 2700 0 
Q 2550 -200 2350 300 
z
" transform="scale(0.015625)"/>
       <path id="KaiTi-4e2a" d="M 3175 4425 
Q 4050 3500 4400 3200 
Q 4750 2900 5125 2687 
Q 5500 2475 5950 2337 
Q 6400 2200 6037 2137 
Q 5675 2075 5225 2100 
Q 4775 2125 4600 2350 
Q 4425 2575 4075 3037 
Q 3725 3500 3075 4275 
Q 2750 3675 2437 3237 
Q 2125 2800 1675 2325 
Q 1225 1850 675 1575 
Q 125 1300 587 1675 
Q 1050 2050 1475 2537 
Q 1900 3025 2200 3487 
Q 2500 3950 2650 4362 
Q 2800 4775 2737 4975 
Q 2675 5175 2887 5100 
Q 3100 5025 3275 4887 
Q 3450 4750 3362 4662 
Q 3275 4575 3175 4425 
z
M 3225 2875 
Q 3425 2800 3337 2650 
Q 3250 2500 3275 1275 
Q 3300 50 3212 -350 
Q 3125 -750 2962 -437 
Q 2800 -125 2837 62 
Q 2875 250 2925 850 
Q 2975 1450 2912 2075 
Q 2850 2700 2712 2862 
Q 2575 3025 2812 3000 
Q 3050 2975 3225 2875 
z
" transform="scale(0.015625)"/>
      </defs>
      <use xlink:href="#KaiTi-6d3b"/>
      <use xlink:href="#KaiTi-8dc3" x="100"/>
      <use xlink:href="#KaiTi-7ed3" x="200"/>
      <use xlink:href="#KaiTi-70b9" x="300"/>
      <use xlink:href="#KaiTi-4e2a" x="400"/>
      <use xlink:href="#KaiTi-6570" x="500"/>
      <use xlink:href="#KaiTi-2f" x="600"/>
      <use xlink:href="#KaiTi-4e2a" x="650"/>
     </g>
    </g>
   </g>
   <g id="line2d_18">
    <defs>
     <path id="m1ebf8c6bc6" d="M 0 3 
C 0.795609 3 1.55874 2.683901 2.12132 2.12132 
C 2.683901 1.55874 3 0.795609 3 0 
C 3 -0.795609 2.683901 -1.55874 2.12132 -2.12132 
C 1.55874 -2.683901 0.795609 -3 0 -3 
C -0.795609 -3 -1.55874 -2.683901 -2.12132 -2.12132 
C -2.683901 -1.55874 -3 -0.795609 -3 0 
C -3 0.795609 -2.683901 1.55874 -2.12132 2.12132 
C -1.55874 2.683901 -0.795609 3 0 3 
z
" style="stroke: #f77189"/>
    </defs>
    <g clip-path="url(#p7b0ff71e38)">
     <use xlink:href="#m1ebf8c6bc6" x="73.832727" y="215.136268" style="fill: #f77189; stroke: #f77189"/>
     <use xlink:href="#m1ebf8c6bc6" x="83.38139" y="217.409868" style="fill: #f77189; stroke: #f77189"/>
     <use xlink:href="#m1ebf8c6bc6" x="92.930053" y="207.603452" style="fill: #f77189; stroke: #f77189"/>
     <use xlink:href="#m1ebf8c6bc6" x="102.478717" y="176.573886" style="fill: #f77189; stroke: #f77189"/>
     <use xlink:href="#m1ebf8c6bc6" x="112.02738" y="73.829902" style="fill: #f77189; stroke: #f77189"/>
     <use xlink:href="#m1ebf8c6bc6" x="121.576043" y="81.191557" style="fill: #f77189; stroke: #f77189"/>
     <use xlink:href="#m1ebf8c6bc6" x="131.124706" y="98.585657" style="fill: #f77189; stroke: #f77189"/>
     <use xlink:href="#m1ebf8c6bc6" x="140.673369" y="103.101321" style="fill: #f77189; stroke: #f77189"/>
     <use xlink:href="#m1ebf8c6bc6" x="150.222032" y="160.564985" style="fill: #f77189; stroke: #f77189"/>
     <use xlink:href="#m1ebf8c6bc6" x="159.770695" y="97.738171" style="fill: #f77189; stroke: #f77189"/>
     <use xlink:href="#m1ebf8c6bc6" x="169.319358" y="74.326982" style="fill: #f77189; stroke: #f77189"/>
     <use xlink:href="#m1ebf8c6bc6" x="178.868021" y="53.568" style="fill: #f77189; stroke: #f77189"/>
     <use xlink:href="#m1ebf8c6bc6" x="188.416684" y="58.627368" style="fill: #f77189; stroke: #f77189"/>
     <use xlink:href="#m1ebf8c6bc6" x="197.965348" y="202.120292" style="fill: #f77189; stroke: #f77189"/>
     <use xlink:href="#m1ebf8c6bc6" x="207.514011" y="153.159832" style="fill: #f77189; stroke: #f77189"/>
     <use xlink:href="#m1ebf8c6bc6" x="217.062674" y="136.925282" style="fill: #f77189; stroke: #f77189"/>
     <use xlink:href="#m1ebf8c6bc6" x="226.611337" y="170.535358" style="fill: #f77189; stroke: #f77189"/>
     <use xlink:href="#m1ebf8c6bc6" x="236.16" y="181.159709" style="fill: #f77189; stroke: #f77189"/>
     <use xlink:href="#m1ebf8c6bc6" x="245.708663" y="126.447074" style="fill: #f77189; stroke: #f77189"/>
     <use xlink:href="#m1ebf8c6bc6" x="255.257326" y="80.535182" style="fill: #f77189; stroke: #f77189"/>
     <use xlink:href="#m1ebf8c6bc6" x="264.805989" y="195.426266" style="fill: #f77189; stroke: #f77189"/>
     <use xlink:href="#m1ebf8c6bc6" x="274.354652" y="170.903958" style="fill: #f77189; stroke: #f77189"/>
     <use xlink:href="#m1ebf8c6bc6" x="283.903316" y="196.293782" style="fill: #f77189; stroke: #f77189"/>
     <use xlink:href="#m1ebf8c6bc6" x="293.451979" y="111.524101" style="fill: #f77189; stroke: #f77189"/>
     <use xlink:href="#m1ebf8c6bc6" x="303.000642" y="191.530338" style="fill: #f77189; stroke: #f77189"/>
     <use xlink:href="#m1ebf8c6bc6" x="312.549305" y="239.142633" style="fill: #f77189; stroke: #f77189"/>
     <use xlink:href="#m1ebf8c6bc6" x="322.097968" y="246.489365" style="fill: #f77189; stroke: #f77189"/>
     <use xlink:href="#m1ebf8c6bc6" x="331.646631" y="195.571941" style="fill: #f77189; stroke: #f77189"/>
     <use xlink:href="#m1ebf8c6bc6" x="341.195294" y="275.652118" style="fill: #f77189; stroke: #f77189"/>
     <use xlink:href="#m1ebf8c6bc6" x="350.743957" y="147.356387" style="fill: #f77189; stroke: #f77189"/>
     <use xlink:href="#m1ebf8c6bc6" x="360.29262" y="182.199158" style="fill: #f77189; stroke: #f77189"/>
     <use xlink:href="#m1ebf8c6bc6" x="369.841283" y="212.61725" style="fill: #f77189; stroke: #f77189"/>
     <use xlink:href="#m1ebf8c6bc6" x="379.389947" y="209.383831" style="fill: #f77189; stroke: #f77189"/>
     <use xlink:href="#m1ebf8c6bc6" x="388.93861" y="200.521867" style="fill: #f77189; stroke: #f77189"/>
     <use xlink:href="#m1ebf8c6bc6" x="398.487273" y="292.494681" style="fill: #f77189; stroke: #f77189"/>
    </g>
   </g>
   <g id="line2d_19">
    <path d="M 73.832727 236.198586 
L 77.112066 223.719745 
L 80.391405 211.903173 
L 83.670744 200.739831 
L 86.950083 190.220021 
L 90.229421 180.333417 
L 93.50876 171.069087 
L 96.788099 162.415524 
L 100.067438 154.360669 
L 103.346777 146.891943 
L 106.626116 139.99627 
L 109.905455 133.660106 
L 113.184793 127.869467 
L 116.464132 122.609951 
L 119.743471 117.866774 
L 123.02281 113.624787 
L 126.302149 109.86851 
L 129.581488 106.582158 
L 132.860826 103.749665 
L 136.140165 101.354713 
L 139.419504 99.38076 
L 142.698843 97.811067 
L 145.978182 96.628723 
L 149.257521 95.816672 
L 152.53686 95.357744 
L 155.816198 95.234677 
L 159.095537 95.430148 
L 162.374876 95.926798 
L 165.654215 96.707259 
L 168.933554 97.754182 
L 172.212893 99.050264 
L 175.492231 100.578273 
L 178.77157 102.32108 
L 182.050909 104.261679 
L 185.330248 106.38322 
L 188.609587 108.669034 
L 191.888926 111.10266 
L 195.168264 113.667869 
L 198.447603 116.348699 
L 201.726942 119.129474 
L 205.006281 121.994835 
L 208.28562 124.929765 
L 211.564959 127.919619 
L 214.844298 130.950148 
L 218.123636 134.007529 
L 221.402975 137.078389 
L 224.682314 140.149834 
L 227.961653 143.209476 
L 231.240992 146.245458 
L 234.520331 149.246485 
L 237.799669 152.201846 
L 241.079008 155.101447 
L 244.358347 157.935832 
L 247.637686 160.696214 
L 250.917025 163.374501 
L 254.196364 165.963324 
L 257.475702 168.45606 
L 260.755041 170.846865 
L 264.03438 173.130698 
L 267.313719 175.303346 
L 270.593058 177.361456 
L 273.872397 179.302557 
L 277.151736 181.12509 
L 280.431074 182.828436 
L 283.710413 184.41294 
L 286.989752 185.879939 
L 290.269091 187.231791 
L 293.54843 188.471899 
L 296.827769 189.604743 
L 300.107107 190.635899 
L 303.386446 191.572075 
L 306.665785 192.421132 
L 309.945124 193.192112 
L 313.224463 193.895268 
L 316.503802 194.542088 
L 319.78314 195.145323 
L 323.062479 195.719014 
L 326.341818 196.278519 
L 329.621157 196.840543 
L 332.900496 197.423158 
L 336.179835 198.045837 
L 339.459174 198.729477 
L 342.738512 199.49643 
L 346.017851 200.370524 
L 349.29719 201.377097 
L 352.576529 202.543018 
L 355.855868 203.896718 
L 359.135207 205.468216 
L 362.414545 207.289143 
L 365.693884 209.392777 
L 368.973223 211.81406 
L 372.252562 214.589633 
L 375.531901 217.757858 
L 378.81124 221.358849 
L 382.090579 225.434495 
L 385.369917 230.028491 
L 388.649256 235.186363 
L 391.928595 240.955494 
L 395.207934 247.385153 
L 398.487273 254.526523 
" clip-path="url(#p7b0ff71e38)" style="fill: none; stroke: #bb9832; stroke-width: 1.5; stroke-linecap: square"/>
   </g>
   <g id="patch_3">
    <path d="M 57.6 307.584 
L 57.6 41.472 
" style="fill: none; stroke: #000000; stroke-width: 0.8; stroke-linejoin: miter; stroke-linecap: square"/>
   </g>
   <g id="patch_4">
    <path d="M 414.72 307.584 
L 414.72 41.472 
" style="fill: none; stroke: #000000; stroke-width: 0.8; stroke-linejoin: miter; stroke-linecap: square"/>
   </g>
   <g id="patch_5">
    <path d="M 57.6 307.584 
L 414.72 307.584 
" style="fill: none; stroke: #000000; stroke-width: 0.8; stroke-linejoin: miter; stroke-linecap: square"/>
   </g>
   <g id="patch_6">
    <path d="M 57.6 41.472 
L 414.72 41.472 
" style="fill: none; stroke: #000000; stroke-width: 0.8; stroke-linejoin: miter; stroke-linecap: square"/>
   </g>
   <g id="legend_1">
    <g id="patch_7">
     <path d="M 275.72 92.089188 
L 407.72 92.089188 
Q 409.72 92.089188 409.72 90.089188 
L 409.72 48.472 
Q 409.72 46.472 407.72 46.472 
L 275.72 46.472 
Q 273.72 46.472 273.72 48.472 
L 273.72 90.089188 
Q 273.72 92.089188 275.72 92.089188 
z
" style="fill: #ffffff; opacity: 0.8; stroke: #cccccc; stroke-linejoin: miter"/>
    </g>
    <g id="line2d_20">
     <g>
      <use xlink:href="#m1ebf8c6bc6" x="287.72" y="55.057938" style="fill: #f77189; stroke: #f77189"/>
     </g>
    </g>
    <g id="text_20">
     <!-- 该次搜索的活跃结点数 -->
     <g transform="translate(305.72 58.557938) scale(0.1 -0.1)">
      <defs>
       <path id="KaiTi-8be5" d="M 3950 3375 
Q 4300 3100 4125 3025 
Q 3950 2950 3350 2150 
L 4125 2200 
Q 4250 2325 4350 2550 
Q 4450 2775 4475 2975 
Q 4500 3175 4650 3075 
Q 4800 2975 4925 2837 
Q 5050 2700 4912 2612 
Q 4775 2525 4525 2187 
Q 4275 1850 3937 1450 
Q 3600 1050 3187 725 
Q 2775 400 2362 212 
Q 1950 25 2362 362 
Q 2775 700 3237 1137 
Q 3700 1575 4000 2050 
Q 3400 1925 3212 1787 
Q 3025 1650 2912 1862 
Q 2800 2075 2912 2137 
Q 3025 2200 3150 2312 
Q 3275 2425 3550 2850 
Q 3825 3275 3700 3325 
Q 3200 3200 3025 3137 
Q 2850 3075 2612 3212 
Q 2375 3350 2725 3387 
Q 3075 3425 3625 3525 
L 4575 3700 
Q 5000 3775 5325 3850 
Q 5650 3925 5862 3762 
Q 6075 3600 5862 3562 
Q 5650 3525 5187 3500 
Q 4725 3475 3950 3375 
z
M 1950 1125 
Q 2375 1450 2537 1512 
Q 2700 1575 2250 1100 
Q 1800 625 1600 337 
Q 1400 50 1262 325 
Q 1125 600 1237 750 
Q 1350 900 1425 1175 
Q 1500 1450 1512 1837 
Q 1525 2225 1537 2525 
Q 1550 2825 1425 2775 
Q 1300 2725 1150 2650 
L 850 2525 
Q 700 2475 475 2612 
Q 250 2750 537 2775 
Q 825 2800 1125 2912 
Q 1425 3025 1550 3150 
Q 1675 3275 1900 3175 
Q 2250 3025 2087 2887 
Q 1925 2750 1875 2575 
Q 1825 2400 1787 1900 
Q 1750 1400 1762 1187 
Q 1775 975 1950 1125 
z
M 4525 825 
Q 5175 550 5412 375 
Q 5650 200 5575 -125 
Q 5500 -450 5237 -112 
Q 4975 225 4425 700 
Q 4100 375 3737 137 
Q 3375 -100 2925 -250 
Q 2475 -400 3175 37 
Q 3875 475 4350 1087 
Q 4825 1700 4875 1937 
Q 4925 2175 5062 2050 
Q 5200 1925 5287 1800 
Q 5375 1675 5262 1612 
Q 5150 1550 4525 825 
z
M 2100 4575 
Q 2325 4450 2287 4150 
Q 2250 3850 1962 4062 
Q 1675 4275 1475 4512 
Q 1275 4750 1575 4725 
Q 1875 4700 2100 4575 
z
M 3825 4550 
Q 3550 4900 3912 4850 
Q 4275 4800 4425 4650 
Q 4575 4500 4537 4262 
Q 4500 4025 4300 4125 
Q 4100 4225 3825 4550 
z
" transform="scale(0.015625)"/>
       <path id="KaiTi-6b21" d="M 3250 1925 
Q 3725 1325 4175 912 
Q 4625 500 4987 375 
Q 5350 250 5737 150 
Q 6125 50 5975 -25 
Q 5825 -100 5150 -150 
Q 4475 -200 4212 162 
Q 3950 525 3175 1725 
Q 2975 900 2612 512 
Q 2250 125 1637 -37 
Q 1025 -200 1500 25 
Q 1975 250 2287 625 
Q 2600 1000 2712 1350 
Q 2825 1700 2862 1950 
Q 2900 2200 2812 2337 
Q 2725 2475 2900 2450 
Q 3075 2425 3225 2350 
Q 3375 2275 3312 2200 
Q 3250 2125 3250 1925 
z
M 3050 3100 
Q 3400 3125 3775 3250 
Q 4150 3375 4337 3487 
Q 4525 3600 4737 3525 
Q 4950 3450 5162 3275 
Q 5375 3100 5025 3000 
Q 4675 2900 4325 2575 
Q 3975 2250 4112 2525 
Q 4250 2800 4300 2950 
Q 4350 3100 4187 3087 
Q 4025 3075 3625 2962 
Q 3225 2850 3000 2975 
Q 2700 2525 2425 2350 
Q 2150 2175 2425 2562 
Q 2700 2950 2950 3675 
Q 3200 4400 3112 4662 
Q 3025 4925 3225 4862 
Q 3425 4800 3587 4675 
Q 3750 4550 3662 4450 
Q 3575 4350 3437 4000 
Q 3300 3650 3050 3100 
z
M 1725 2225 
Q 2050 2600 1875 2237 
Q 1700 1875 1437 1475 
Q 1175 1075 987 650 
Q 800 225 587 600 
Q 375 975 512 1012 
Q 650 1050 1025 1450 
Q 1400 1850 1725 2225 
z
M 1100 3425 
Q 950 3625 862 3775 
Q 775 3925 1162 3812 
Q 1550 3700 1662 3462 
Q 1775 3225 1700 3050 
Q 1625 2875 1437 3050 
Q 1250 3225 1100 3425 
z
" transform="scale(0.015625)"/>
       <path id="KaiTi-641c" d="M 4100 2750 
Q 4450 2800 4800 2900 
Q 4900 3150 4925 3300 
Q 4625 3275 4475 3275 
Q 4350 3275 4312 3350 
Q 4275 3425 4450 3475 
Q 4625 3525 4975 3600 
Q 5000 3775 5025 3887 
Q 5050 4000 4875 3962 
Q 4700 3925 4587 3912 
Q 4475 3900 4362 3987 
Q 4250 4075 4400 4075 
Q 4550 4075 4787 4187 
Q 5025 4300 5087 4312 
Q 5150 4325 5450 4125 
Q 5750 3925 5650 3875 
Q 5550 3825 5387 3512 
Q 5225 3200 5087 2812 
Q 4950 2425 4800 2675 
Q 4675 2650 4100 2550 
L 4100 2050 
Q 4325 2100 4412 2187 
Q 4500 2275 4737 2125 
Q 4975 1975 4925 1900 
Q 4875 1825 4775 1687 
Q 4675 1550 4587 1287 
Q 4500 1025 4300 700 
Q 4675 375 5125 200 
Q 5575 25 5887 -12 
Q 6200 -50 6050 -112 
Q 5900 -175 5412 -225 
Q 4925 -275 4762 -150 
Q 4600 -25 4050 475 
Q 3650 150 3262 50 
Q 2875 -50 2587 -37 
Q 2300 -25 2587 50 
Q 2875 125 3212 275 
Q 3550 425 3850 700 
Q 3700 875 3462 1075 
Q 3225 1275 3062 1362 
Q 2900 1450 3050 1500 
Q 3200 1550 3400 1387 
Q 3600 1225 4025 900 
Q 4200 1125 4287 1425 
Q 4375 1725 4362 1800 
Q 4350 1875 3987 1800 
Q 3625 1725 3437 1700 
Q 3250 1675 3037 1775 
Q 2825 1875 3112 1887 
Q 3400 1900 3850 2000 
L 3850 2475 
Q 3700 2450 3200 2375 
Q 3100 2075 3000 2400 
Q 2900 2725 2800 3062 
Q 2700 3400 2587 3550 
Q 2475 3700 2612 3737 
Q 2750 3775 2875 3775 
Q 3000 3825 3137 3962 
Q 3275 4100 3312 4250 
Q 3350 4400 3462 4375 
Q 3575 4350 3737 4200 
Q 3900 4050 3650 3962 
Q 3400 3875 3000 3675 
L 3050 3150 
Q 3275 3225 3375 3287 
Q 3475 3350 3587 3225 
Q 3700 3100 3500 3062 
Q 3300 3025 3100 2975 
L 3150 2575 
Q 3525 2625 3850 2700 
L 3850 3900 
Q 3850 4700 3762 4887 
Q 3675 5075 3737 5112 
Q 3800 5150 4050 5037 
Q 4300 4925 4275 4862 
Q 4250 4800 4200 4600 
Q 4150 4400 4137 4000 
Q 4125 3600 4100 2750 
z
M 2075 3400 
Q 2525 3500 2475 3325 
Q 2425 3150 2075 3075 
L 2075 2250 
Q 2475 2500 2512 2475 
Q 2550 2450 2075 1975 
L 2075 525 
Q 2075 175 1962 -137 
Q 1850 -450 1737 -237 
Q 1625 -25 1350 200 
Q 1075 425 1337 350 
Q 1600 275 1675 337 
Q 1750 400 1775 762 
Q 1800 1125 1800 1775 
Q 975 1225 812 1012 
Q 650 800 450 1000 
Q 250 1200 275 1237 
Q 300 1275 475 1325 
Q 650 1375 962 1562 
Q 1275 1750 1800 2075 
L 1800 3000 
Q 1550 2950 1375 2925 
Q 1200 2900 1000 3000 
Q 800 3100 1012 3125 
Q 1225 3150 1800 3325 
Q 1825 3900 1800 4262 
Q 1775 4625 1712 4762 
Q 1650 4900 1637 4962 
Q 1625 5025 1812 4975 
Q 2000 4925 2137 4850 
Q 2275 4775 2175 4587 
Q 2075 4400 2075 3400 
z
" transform="scale(0.015625)"/>
       <path id="KaiTi-7d22" d="M 3325 4350 
Q 3475 4375 3775 4450 
Q 4075 4525 4212 4437 
Q 4350 4350 4087 4250 
Q 3825 4150 3275 4050 
L 3200 3450 
Q 3775 3525 4125 3587 
Q 4475 3650 4625 3700 
Q 4775 3750 5125 3537 
Q 5475 3325 5587 3100 
Q 5700 2875 5487 2912 
Q 5275 2950 4975 2900 
Q 4675 2850 4487 2800 
Q 4300 2750 4612 3050 
Q 4925 3350 4575 3375 
Q 4225 3400 2950 3225 
Q 3050 3025 2925 2950 
Q 2800 2875 2587 2650 
Q 2375 2425 2375 2375 
Q 2375 2350 3100 2425 
Q 3450 2825 3475 2962 
Q 3500 3100 3775 2912 
Q 4050 2725 3900 2637 
Q 3750 2550 3575 2437 
Q 3400 2325 2525 1525 
Q 2750 1550 3750 1750 
Q 3400 2150 3662 2100 
Q 3925 2050 4162 1862 
Q 4400 1675 4325 1462 
Q 4250 1250 4100 1362 
Q 3950 1475 3850 1600 
Q 3225 1475 3075 1425 
Q 3325 1250 3300 1187 
Q 3275 1125 3275 875 
Q 3275 625 3300 212 
Q 3325 -200 3162 -487 
Q 3000 -775 2862 -525 
Q 2725 -275 2562 -100 
Q 2400 75 2412 125 
Q 2425 175 2687 62 
Q 2950 -50 2975 100 
Q 3000 250 2975 587 
Q 2950 925 2937 1062 
Q 2925 1200 2800 1350 
Q 2400 1225 2237 1112 
Q 2075 1000 2000 1062 
Q 1925 1125 1837 1287 
Q 1750 1450 2062 1525 
Q 2375 1600 2975 2250 
Q 2325 2125 2212 2037 
Q 2100 1950 2025 2050 
Q 1950 2150 1900 2250 
Q 1850 2350 2100 2512 
Q 2350 2675 2625 3175 
Q 2375 3150 2012 3100 
Q 1650 3050 1275 3050 
Q 1225 2700 1087 2412 
Q 950 2125 837 2362 
Q 725 2600 825 2712 
Q 925 2825 987 3000 
Q 1050 3175 1087 3362 
Q 1125 3550 1275 3225 
Q 1550 3225 2950 3425 
L 2975 4000 
Q 2725 3950 2575 3950 
Q 2425 3950 2262 4050 
Q 2100 4150 2275 4162 
Q 2450 4175 3000 4275 
L 3000 4650 
Q 3000 4925 2925 5050 
Q 2850 5175 2925 5187 
Q 3000 5200 3250 5100 
Q 3500 5000 3425 4887 
Q 3350 4775 3325 4350 
z
M 3975 650 
Q 3725 925 3687 987 
Q 3650 1050 4075 925 
Q 4500 800 4687 537 
Q 4875 275 4775 75 
Q 4675 -125 4450 125 
Q 4225 375 3975 650 
z
M 1675 600 
Q 1775 775 1850 850 
Q 1925 925 1912 575 
Q 1900 225 1675 -12 
Q 1450 -250 1337 -100 
Q 1225 50 1412 250 
Q 1600 450 1675 600 
z
" transform="scale(0.015625)"/>
       <path id="KaiTi-7684" d="M 1300 3050 
Q 1900 3150 2075 3300 
Q 2250 3450 2437 3362 
Q 2625 3275 2775 3175 
Q 2925 3075 2837 2937 
Q 2750 2800 2700 2575 
Q 2650 2350 2675 1750 
Q 2700 1150 2637 850 
Q 2575 550 2500 387 
Q 2425 225 2337 387 
Q 2250 550 2175 687 
Q 2100 825 2012 837 
Q 1925 850 1300 750 
Q 1200 200 1087 425 
Q 975 650 975 1050 
Q 975 1450 950 2050 
Q 925 2650 775 2875 
Q 625 3100 750 3100 
Q 875 3100 1100 3050 
Q 1325 3350 1562 3862 
Q 1800 4375 1712 4625 
Q 1625 4875 2000 4700 
Q 2450 4500 2287 4362 
Q 2125 4225 1925 3925 
Q 1725 3625 1300 3050 
z
M 3800 3275 
Q 4700 3325 4875 3450 
Q 5050 3575 5262 3487 
Q 5475 3400 5612 3262 
Q 5750 3125 5625 3000 
Q 5500 2875 5450 2350 
Q 5400 1825 5362 1300 
Q 5325 775 5150 412 
Q 4975 50 4650 -137 
Q 4325 -325 4300 -50 
Q 4275 225 3987 550 
Q 3700 875 4012 712 
Q 4325 550 4512 512 
Q 4700 475 4837 800 
Q 4975 1125 5025 1712 
Q 5075 2300 5075 2700 
Q 5075 3100 4975 3162 
Q 4875 3225 4550 3150 
L 4050 3025 
Q 3900 3000 3725 3150 
Q 3300 2700 2950 2475 
Q 2600 2250 3000 2700 
Q 3400 3150 3737 3800 
Q 4075 4450 3987 4712 
Q 3900 4975 4150 4900 
Q 4400 4825 4537 4725 
Q 4675 4625 4562 4500 
Q 4450 4375 4287 4050 
Q 4125 3725 3800 3275 
z
M 1250 1975 
Q 1575 2025 1700 2087 
Q 1825 2150 1962 2037 
Q 2100 1925 1862 1837 
Q 1625 1750 1250 1750 
L 1275 950 
Q 1500 975 1725 1062 
Q 1950 1150 2062 1037 
Q 2175 925 2237 1087 
Q 2300 1250 2312 2000 
Q 2325 2750 2250 2862 
Q 2175 2975 2012 2962 
Q 1850 2950 1225 2825 
L 1250 1975 
z
M 3725 1675 
Q 3400 2125 3337 2250 
Q 3275 2375 3575 2287 
Q 3875 2200 4025 2000 
Q 4175 1800 4112 1525 
Q 4050 1250 3725 1675 
z
" transform="scale(0.015625)"/>
      </defs>
      <use xlink:href="#KaiTi-8be5"/>
      <use xlink:href="#KaiTi-6b21" x="100"/>
      <use xlink:href="#KaiTi-641c" x="200"/>
      <use xlink:href="#KaiTi-7d22" x="300"/>
      <use xlink:href="#KaiTi-7684" x="400"/>
      <use xlink:href="#KaiTi-6d3b" x="500"/>
      <use xlink:href="#KaiTi-8dc3" x="600"/>
      <use xlink:href="#KaiTi-7ed3" x="700"/>
      <use xlink:href="#KaiTi-70b9" x="800"/>
      <use xlink:href="#KaiTi-6570" x="900"/>
     </g>
    </g>
    <g id="line2d_21">
     <path d="M 277.72 69.00325 
L 287.72 69.00325 
L 297.72 69.00325 
" style="fill: none; stroke: #bb9832; stroke-width: 1.5; stroke-linecap: square"/>
    </g>
    <g id="text_21">
     <!-- 活跃结点数均值曲线 -->
     <g transform="translate(305.72 72.50325) scale(0.1 -0.1)">
      <defs>
       <path id="KaiTi-5747" d="M 3625 3450 
Q 3900 3425 4300 3512 
Q 4700 3600 4800 3662 
Q 4900 3725 5075 3675 
Q 5250 3625 5462 3500 
Q 5675 3375 5550 3262 
Q 5425 3150 5450 2500 
Q 5475 1850 5425 1200 
Q 5375 550 5237 237 
Q 5100 -75 4825 -300 
Q 4550 -525 4462 -275 
Q 4375 -25 4075 250 
Q 3775 525 4087 412 
Q 4400 300 4562 287 
Q 4725 275 4887 662 
Q 5050 1050 5075 1912 
Q 5100 2775 5012 3100 
Q 4925 3425 4500 3350 
Q 4075 3275 3925 3225 
Q 3775 3175 3525 3325 
Q 3250 2925 2912 2700 
Q 2575 2475 2900 2912 
Q 3225 3350 3487 3950 
Q 3750 4550 3700 4812 
Q 3650 5075 3875 5000 
Q 4100 4925 4262 4787 
Q 4425 4650 4300 4575 
Q 4175 4500 4012 4200 
Q 3850 3900 3625 3450 
z
M 1975 3100 
Q 2225 3175 2400 3212 
Q 2575 3250 2612 3150 
Q 2650 3050 2487 2950 
Q 2325 2850 1975 2725 
Q 1950 2175 1950 1725 
Q 2350 1950 2550 2075 
Q 2750 2200 2675 2075 
Q 2600 1950 2350 1750 
Q 2100 1550 1675 1212 
Q 1250 875 1125 675 
Q 1000 475 700 737 
Q 400 1000 587 1025 
Q 775 1050 987 1162 
Q 1200 1275 1675 1600 
L 1675 2650 
Q 1450 2600 1300 2600 
Q 1150 2600 975 2687 
Q 800 2775 1075 2837 
Q 1350 2900 1675 3000 
Q 1675 3325 1650 3787 
Q 1625 4250 1475 4487 
Q 1325 4725 1550 4687 
Q 1775 4650 1975 4537 
Q 2175 4425 2075 4275 
Q 1975 4125 1975 3100 
z
M 4175 1650 
Q 4700 1875 4487 1687 
Q 4275 1500 3850 1200 
Q 3425 900 3300 775 
Q 3175 650 2900 900 
Q 2625 1150 2887 1175 
Q 3150 1200 3412 1312 
Q 3675 1425 4175 1650 
z
M 3400 2450 
Q 3125 2725 3512 2687 
Q 3900 2650 4050 2500 
Q 4200 2350 4150 2212 
Q 4100 2075 3900 2125 
Q 3700 2175 3400 2450 
z
" transform="scale(0.015625)"/>
       <path id="KaiTi-503c" d="M 4050 3975 
Q 4575 4075 4837 4150 
Q 5100 4225 5287 4062 
Q 5475 3900 5187 3850 
Q 4900 3800 4675 3750 
L 4000 3650 
Q 3875 3150 3825 2975 
Q 4350 3075 4450 3162 
Q 4550 3250 4725 3187 
Q 4900 3125 5062 3025 
Q 5225 2925 5125 2800 
Q 5025 2675 4987 2075 
Q 4950 1475 4925 450 
Q 5250 475 5512 512 
Q 5775 550 5962 475 
Q 6150 400 6225 250 
Q 6300 100 5750 162 
Q 5200 225 4487 162 
Q 3775 100 3312 25 
Q 2850 -50 2600 -112 
Q 2350 -175 2087 0 
Q 1825 175 2100 175 
Q 2375 175 3050 275 
Q 3050 850 3037 1687 
Q 3025 2525 2900 2700 
Q 2775 2875 2900 2875 
Q 3050 2875 3137 2862 
Q 3225 2850 3575 2925 
Q 3600 3100 3675 3600 
Q 3375 3550 3162 3512 
Q 2950 3475 2725 3600 
Q 2500 3725 2762 3737 
Q 3025 3750 3725 3900 
Q 3750 4150 3762 4425 
Q 3775 4700 3700 4850 
Q 3625 5000 3750 5000 
Q 3900 5000 4137 4900 
Q 4375 4800 4275 4675 
Q 4175 4550 4050 3975 
z
M 3325 2275 
Q 3725 2325 3912 2387 
Q 4100 2450 4262 2362 
Q 4425 2275 4062 2187 
Q 3700 2100 3325 2125 
L 3325 1625 
Q 3625 1675 3862 1762 
Q 4100 1850 4237 1737 
Q 4375 1625 4050 1550 
Q 3725 1475 3325 1475 
L 3325 975 
Q 3750 1050 3925 1112 
Q 4100 1175 4262 1087 
Q 4425 1000 4100 912 
Q 3775 825 3325 825 
L 3325 300 
Q 3600 325 4600 425 
Q 4600 1000 4612 1862 
Q 4625 2725 4550 2800 
Q 4475 2875 4300 2862 
Q 4125 2850 3325 2725 
L 3325 2275 
z
M 1600 3150 
Q 1825 2925 1787 2550 
Q 1750 2175 1762 1000 
Q 1775 -175 1662 -337 
Q 1550 -500 1412 -200 
Q 1275 100 1362 437 
Q 1450 775 1462 1275 
Q 1475 1775 1475 2225 
Q 1475 2675 1425 2875 
Q 1200 2525 912 2237 
Q 625 1950 350 1812 
Q 75 1675 350 1962 
Q 625 2250 1012 2850 
Q 1400 3450 1612 3975 
Q 1825 4500 1800 4737 
Q 1775 4975 1937 4900 
Q 2100 4825 2262 4675 
Q 2425 4525 2287 4412 
Q 2150 4300 1600 3150 
z
" transform="scale(0.015625)"/>
       <path id="KaiTi-66f2" d="M 2600 3350 
Q 2750 3350 3350 3450 
L 3350 4425 
Q 3350 4750 3225 4937 
Q 3100 5125 3525 5012 
Q 3950 4900 3875 4700 
Q 3800 4500 3725 3500 
Q 4425 3600 4550 3650 
Q 4675 3700 4937 3612 
Q 5200 3525 5387 3400 
Q 5575 3275 5462 3150 
Q 5350 3025 5312 2800 
Q 5275 2575 5237 1800 
Q 5200 1025 5125 662 
Q 5050 300 4787 -37 
Q 4525 -375 4500 -50 
Q 4475 275 4362 587 
Q 4250 900 3800 900 
Q 3375 900 3062 862 
Q 2750 825 2325 750 
Q 1900 675 1625 725 
Q 1625 200 1487 300 
Q 1350 400 1337 837 
Q 1325 1275 1225 2062 
Q 1125 2850 1012 3000 
Q 900 3150 1012 3175 
Q 1125 3200 1237 3175 
Q 1350 3150 1500 3150 
Q 1675 3150 2300 3275 
Q 2300 3850 2262 4087 
Q 2225 4325 2100 4487 
Q 1975 4650 2350 4550 
Q 2725 4450 2675 4325 
Q 2625 4200 2600 3350 
z
M 3725 3300 
Q 3675 3200 3625 2400 
Q 3800 2425 3975 2475 
Q 4150 2525 4325 2412 
Q 4500 2300 4250 2225 
Q 4000 2150 3600 2075 
Q 3500 1450 3475 1175 
Q 4150 1225 4312 1125 
Q 4475 1025 4550 887 
Q 4625 750 4675 950 
Q 4725 1150 4762 1462 
Q 4800 1775 4812 2362 
Q 4825 2950 4762 3150 
Q 4700 3350 4500 3362 
Q 4300 3375 3725 3300 
z
M 2300 1900 
Q 1950 1875 1800 1962 
Q 1650 2050 1762 2075 
Q 1875 2100 2300 2175 
L 2300 3075 
Q 1925 3025 1500 2975 
Q 1500 2875 1550 2250 
Q 1600 1625 1625 900 
Q 1950 925 2300 1000 
L 2300 1900 
z
M 2575 2225 
Q 2925 2275 3300 2325 
Q 3325 2875 3350 3250 
Q 2950 3200 2600 3125 
Q 2575 2725 2575 2225 
z
M 2550 1050 
Q 2850 1075 3225 1150 
Q 3250 1625 3275 2025 
Q 2700 1950 2575 1925 
Q 2550 1325 2550 1050 
z
" transform="scale(0.015625)"/>
       <path id="KaiTi-7ebf" d="M 4200 1575 
Q 4400 1775 4562 2025 
Q 4725 2275 4725 2400 
Q 4725 2550 4987 2362 
Q 5250 2175 5112 2075 
Q 4975 1975 4825 1812 
Q 4675 1650 4350 1300 
Q 4675 775 4987 487 
Q 5300 200 5387 262 
Q 5475 325 5637 737 
Q 5800 1150 5737 612 
Q 5675 75 5750 -187 
Q 5825 -450 5700 -437 
Q 5575 -425 5262 -225 
Q 4950 -25 4637 350 
Q 4325 725 4100 1125 
Q 3825 900 3512 725 
Q 3200 550 2812 425 
Q 2425 300 2875 562 
Q 3325 825 3975 1400 
Q 3825 1750 3675 2275 
Q 3275 2150 3100 2112 
Q 2925 2075 2687 2125 
Q 2450 2175 2812 2262 
Q 3175 2350 3600 2550 
Q 3475 2850 3425 3100 
Q 3225 3075 3100 3062 
Q 2975 3050 2812 3087 
Q 2650 3125 2862 3187 
Q 3075 3250 3375 3400 
Q 3325 3725 3250 4075 
Q 3175 4425 3062 4587 
Q 2950 4750 2975 4800 
Q 3000 4850 3312 4775 
Q 3625 4700 3587 4512 
Q 3550 4325 3650 3500 
Q 4225 3700 4375 3787 
Q 4525 3875 4712 3787 
Q 4900 3700 4575 3562 
Q 4250 3425 3700 3200 
Q 3750 2950 3825 2675 
Q 4075 2775 4412 2950 
Q 4750 3125 4950 3050 
Q 5150 2975 4900 2837 
Q 4650 2700 3925 2375 
Q 3975 2100 4200 1575 
z
M 1950 2900 
Q 2300 3450 2300 3650 
Q 2300 3875 2437 3800 
Q 2575 3725 2712 3625 
Q 2850 3525 2750 3462 
Q 2650 3400 2525 3212 
Q 2400 3025 2137 2637 
Q 1875 2250 1800 2137 
Q 1725 2025 1587 1862 
Q 1450 1700 1712 1762 
Q 1975 1825 2150 1862 
Q 2325 1900 2575 1912 
Q 2825 1925 2287 1725 
Q 1750 1525 1525 1375 
Q 1300 1225 1212 1175 
Q 1125 1125 1025 1337 
Q 925 1550 1062 1650 
Q 1200 1750 1400 1987 
Q 1600 2225 1875 2725 
Q 1125 2575 1037 2487 
Q 950 2400 850 2612 
Q 750 2825 887 2912 
Q 1025 3000 1150 3187 
Q 1275 3375 1437 3712 
Q 1600 4050 1637 4275 
Q 1675 4500 1662 4600 
Q 1650 4700 1800 4662 
Q 1950 4625 2075 4537 
Q 2200 4450 2100 4300 
Q 2000 4150 1725 3687 
Q 1450 3225 1337 3050 
Q 1225 2875 1325 2875 
L 1500 2875 
Q 1600 2875 1950 2900 
z
M 2250 1000 
Q 2575 1125 2812 1175 
Q 3050 1225 2762 1062 
Q 2475 900 2062 675 
Q 1650 450 1462 262 
Q 1275 75 1012 312 
Q 750 550 825 562 
Q 900 575 1162 612 
Q 1425 650 1687 775 
Q 1950 900 2250 1000 
z
M 4600 4700 
Q 5000 4650 4987 4337 
Q 4975 4025 4525 4325 
Q 4075 4625 4150 4687 
Q 4225 4750 4600 4700 
z
" transform="scale(0.015625)"/>
      </defs>
      <use xlink:href="#KaiTi-6d3b"/>
      <use xlink:href="#KaiTi-8dc3" x="100"/>
      <use xlink:href="#KaiTi-7ed3" x="200"/>
      <use xlink:href="#KaiTi-70b9" x="300"/>
      <use xlink:href="#KaiTi-6570" x="400"/>
      <use xlink:href="#KaiTi-5747" x="500"/>
      <use xlink:href="#KaiTi-503c" x="600"/>
      <use xlink:href="#KaiTi-66f2" x="700"/>
      <use xlink:href="#KaiTi-7ebf" x="800"/>
     </g>
    </g>
    <g id="patch_8">
     <path d="M 277.72 86.839188 
L 297.72 86.839188 
L 297.72 79.839188 
L 277.72 79.839188 
z
" style="fill: #808080; fill-opacity: 0.2; stroke: #808080; stroke-opacity: 0.2; stroke-linejoin: miter"/>
    </g>
    <g id="text_22">
     <!-- 一个标准差的置信区间 -->
     <g transform="translate(305.72 86.839188) scale(0.1 -0.1)">
      <defs>
       <path id="KaiTi-4e00" d="M 675 2075 
Q 350 2325 612 2300 
Q 875 2275 1612 2337 
Q 2350 2400 3175 2525 
Q 4000 2650 4650 2762 
Q 5300 2875 5675 2687 
Q 6050 2500 6012 2375 
Q 5975 2250 5662 2275 
Q 5350 2300 4725 2300 
Q 4100 2300 3387 2237 
Q 2675 2175 2187 2087 
Q 1700 2000 1362 1925 
Q 1025 1850 675 2075 
z
" transform="scale(0.015625)"/>
       <path id="KaiTi-6807" d="M 1975 3425 
Q 2125 3475 2275 3512 
Q 2425 3550 2537 3487 
Q 2650 3425 2625 3337 
Q 2600 3250 1975 3075 
L 1975 2550 
Q 2225 2500 2387 2387 
Q 2550 2275 2525 2075 
Q 2500 1875 2300 2012 
Q 2100 2150 1975 2350 
Q 1975 1475 1962 875 
Q 1950 275 1887 -62 
Q 1825 -400 1712 -250 
Q 1600 -100 1550 87 
Q 1500 275 1562 487 
Q 1625 700 1662 1125 
Q 1700 1550 1725 2375 
Q 1375 1750 1025 1412 
Q 675 1075 462 975 
Q 250 875 537 1187 
Q 825 1500 1162 2037 
Q 1500 2575 1650 3000 
Q 1375 2950 1175 2912 
Q 975 2875 750 2962 
Q 525 3050 875 3112 
Q 1225 3175 1725 3375 
Q 1725 4050 1700 4387 
Q 1675 4725 1575 4875 
Q 1475 5025 1650 5000 
Q 1825 4975 2025 4887 
Q 2225 4800 2112 4650 
Q 2000 4500 1975 3425 
z
M 4175 2725 
Q 4350 2500 4312 2325 
Q 4275 2150 4275 1500 
Q 4275 850 4287 575 
Q 4300 300 4225 75 
Q 4150 -150 4012 -312 
Q 3875 -475 3775 -237 
Q 3675 0 3387 225 
Q 3100 450 3325 400 
Q 3550 350 3687 337 
Q 3825 325 3862 462 
Q 3900 600 3912 1112 
Q 3925 1625 3912 2075 
Q 3900 2525 3775 2675 
Q 3200 2575 2962 2525 
Q 2725 2475 2525 2637 
Q 2325 2800 2625 2800 
Q 2925 2800 3812 2937 
Q 4700 3075 5137 3137 
Q 5575 3200 5775 3075 
Q 5975 2950 5962 2862 
Q 5950 2775 5750 2787 
Q 5550 2800 5125 2800 
Q 4700 2800 4175 2725 
z
M 4400 4250 
Q 4750 4350 5000 4250 
Q 5250 4150 5012 4050 
Q 4775 3950 4425 3875 
Q 4075 3800 3787 3750 
Q 3500 3700 3212 3825 
Q 2925 3950 3275 4000 
Q 3625 4050 3850 4100 
Q 4075 4150 4400 4250 
z
M 5475 1550 
Q 5750 1425 5912 1200 
Q 6075 975 6025 762 
Q 5975 550 5875 562 
Q 5775 575 5562 825 
Q 5350 1075 5037 1450 
Q 4725 1825 4975 1750 
Q 5225 1675 5475 1550 
z
M 2825 1675 
Q 2975 2025 3025 1862 
Q 3075 1700 3050 1412 
Q 3025 1125 2825 762 
Q 2625 400 2512 650 
Q 2400 900 2537 1112 
Q 2675 1325 2825 1675 
z
" transform="scale(0.015625)"/>
       <path id="KaiTi-51c6" d="M 4075 3150 
Q 3850 3125 3662 3100 
Q 3475 3075 3312 3150 
Q 3150 3225 3462 3300 
Q 3775 3375 4162 3487 
Q 4550 3600 4787 3687 
Q 5025 3775 5200 3700 
Q 5375 3625 5225 3525 
Q 5075 3425 4400 3225 
Q 4500 3075 4487 2987 
Q 4475 2900 4450 2650 
Q 4775 2725 4925 2750 
Q 5075 2775 5200 2662 
Q 5325 2550 5225 2500 
Q 5125 2450 4900 2412 
Q 4675 2375 4450 2325 
Q 4425 2050 4425 1750 
Q 4775 1825 4925 1862 
Q 5075 1900 5212 1775 
Q 5350 1650 5162 1612 
Q 4975 1575 4425 1475 
Q 4425 1175 4400 850 
Q 5025 925 5325 962 
Q 5625 1000 5800 787 
Q 5975 575 5625 600 
Q 5275 625 4900 600 
Q 4525 575 4212 537 
Q 3900 500 3650 450 
Q 3400 400 3150 450 
Q 3125 -250 3025 -462 
Q 2925 -675 2775 -337 
Q 2625 0 2700 250 
Q 2775 500 2812 937 
Q 2850 1375 2887 2237 
Q 2925 3100 2825 3250 
Q 2375 2700 2075 2525 
Q 1775 2350 2012 2612 
Q 2250 2875 2512 3300 
Q 2775 3725 2950 4087 
Q 3125 4450 3187 4700 
Q 3250 4950 3212 5087 
Q 3175 5225 3375 5137 
Q 3575 5050 3700 4937 
Q 3825 4825 3737 4737 
Q 3650 4650 3512 4400 
Q 3375 4150 2950 3425 
Q 3175 3200 3175 2975 
Q 3175 2750 3162 2275 
Q 3150 1800 3150 625 
Q 3650 700 4100 800 
L 4100 1400 
Q 3775 1350 3625 1362 
Q 3475 1375 3350 1462 
Q 3225 1550 3475 1575 
Q 3725 1600 4100 1675 
L 4100 2250 
Q 3800 2225 3675 2225 
Q 3575 2225 3450 2312 
Q 3325 2400 3512 2425 
Q 3700 2450 4100 2550 
Q 4100 2850 4075 3150 
z
M 2050 2325 
Q 2375 2650 1862 1875 
Q 1350 1100 1175 637 
Q 1000 175 812 687 
Q 625 1200 800 1212 
Q 975 1225 1350 1612 
Q 1725 2000 2050 2325 
z
M 975 3675 
Q 675 4050 1037 3975 
Q 1400 3900 1600 3750 
Q 1800 3600 1750 3350 
Q 1700 3100 1487 3212 
Q 1275 3325 975 3675 
z
M 3925 4350 
Q 3775 4550 3850 4600 
Q 3925 4650 4237 4550 
Q 4550 4450 4600 4262 
Q 4650 4075 4575 3962 
Q 4500 3850 4287 4012 
Q 4075 4175 3925 4350 
z
" transform="scale(0.015625)"/>
       <path id="KaiTi-5dee" d="M 3100 3825 
Q 3850 3975 4062 4037 
Q 4275 4100 4475 3950 
Q 4675 3800 4287 3737 
Q 3900 3675 3250 3575 
Q 3375 3475 3350 3387 
Q 3325 3300 3225 3025 
Q 3525 3100 3800 3175 
Q 4075 3250 4262 3112 
Q 4450 2975 4050 2912 
Q 3650 2850 3150 2750 
Q 3075 2450 2975 2200 
Q 3725 2300 4162 2387 
Q 4600 2475 4812 2312 
Q 5025 2150 4750 2112 
Q 4475 2075 4012 2050 
Q 3550 2025 2900 1925 
Q 2525 1175 1987 637 
Q 1450 100 925 -112 
Q 400 -325 812 -50 
Q 1225 225 1687 700 
Q 2150 1175 2525 1875 
L 1800 1750 
Q 1575 1725 1337 1887 
Q 1100 2050 1462 2037 
Q 1825 2025 2625 2150 
Q 2725 2400 2825 2725 
Q 2425 2650 2300 2637 
Q 2175 2625 2012 2762 
Q 1850 2900 2137 2912 
Q 2425 2925 2875 3000 
Q 2925 3175 2950 3550 
Q 2525 3500 2312 3450 
Q 2100 3400 1900 3550 
Q 1700 3700 2050 3712 
Q 2400 3725 3100 3825 
z
M 3625 1025 
Q 3800 900 3750 737 
Q 3700 575 3675 175 
Q 4425 250 4825 312 
Q 5225 375 5437 237 
Q 5650 100 5650 0 
Q 5650 -100 5237 -50 
Q 4825 0 4337 -25 
Q 3850 -50 3125 -125 
Q 2400 -200 2175 -250 
Q 1950 -300 1700 -125 
Q 1450 50 1862 37 
Q 2275 25 3400 125 
Q 3400 950 3350 1000 
Q 2950 950 2725 1062 
Q 2500 1175 2812 1212 
Q 3125 1250 3562 1325 
Q 4000 1400 4212 1450 
Q 4425 1500 4575 1387 
Q 4725 1275 4462 1187 
Q 4200 1100 3625 1025 
z
M 4400 4975 
Q 4625 4875 4462 4800 
Q 4300 4725 3975 4462 
Q 3650 4200 3387 4037 
Q 3125 3875 3312 4112 
Q 3500 4350 3662 4600 
Q 3825 4850 3812 5000 
Q 3800 5150 3987 5112 
Q 4175 5075 4400 4975 
z
M 2350 4350 
Q 2150 4525 2087 4662 
Q 2025 4800 2337 4750 
Q 2650 4700 2787 4537 
Q 2925 4375 2925 4225 
Q 2925 4075 2737 4137 
Q 2550 4200 2350 4350 
z
" transform="scale(0.015625)"/>
       <path id="KaiTi-7f6e" d="M 3200 3025 
Q 3875 3125 4175 3187 
Q 4475 3250 4725 3087 
Q 4975 2925 4525 2912 
Q 4075 2900 3100 2800 
Q 3000 2650 2825 2350 
Q 3650 2475 3750 2537 
Q 3850 2600 4162 2450 
Q 4475 2300 4375 2175 
Q 4275 2050 4225 1587 
Q 4175 1125 4175 350 
Q 4950 425 5212 450 
Q 5475 475 5687 325 
Q 5900 175 5837 100 
Q 5775 25 5350 75 
Q 4925 125 4187 75 
Q 3450 25 2500 -62 
Q 1550 -150 1275 -187 
Q 1000 -225 812 -162 
Q 625 -100 550 12 
Q 475 125 662 112 
Q 850 100 2175 200 
Q 2150 1350 2112 1712 
Q 2075 2075 1987 2212 
Q 1900 2350 2012 2337 
Q 2125 2325 2275 2300 
Q 2425 2275 2575 2325 
Q 2625 2400 2750 2775 
Q 2050 2650 1875 2612 
Q 1700 2575 1500 2712 
Q 1300 2850 1625 2850 
Q 1975 2850 2825 2975 
Q 2950 3350 2900 3462 
Q 2850 3575 3012 3537 
Q 3175 3500 3275 3437 
Q 3375 3375 3325 3300 
Q 3275 3225 3200 3025 
z
M 4300 3675 
Q 3950 3675 3487 3625 
Q 3025 3575 2125 3475 
Q 2100 3250 2037 3287 
Q 1975 3325 1900 3500 
Q 1825 3675 1712 3987 
Q 1600 4300 1475 4412 
Q 1350 4525 1500 4512 
Q 1650 4500 1762 4487 
Q 1875 4475 2112 4487 
Q 2350 4500 2862 4587 
Q 3375 4675 3862 4762 
Q 4350 4850 4450 4887 
Q 4550 4925 4662 4900 
Q 4775 4875 4950 4762 
Q 5125 4650 5187 4575 
Q 5250 4500 5112 4425 
Q 4975 4350 4850 4162 
Q 4725 3975 4612 3775 
Q 4500 3575 4437 3537 
Q 4375 3500 4350 3525 
Q 4325 3550 4300 3675 
z
M 2425 1825 
Q 2725 1875 3037 1950 
Q 3350 2025 3487 1925 
Q 3625 1825 3387 1762 
Q 3150 1700 2425 1675 
L 2425 1350 
Q 2750 1400 3062 1462 
Q 3375 1525 3500 1412 
Q 3625 1300 3275 1237 
Q 2925 1175 2450 1200 
L 2450 850 
Q 2900 875 3150 937 
Q 3400 1000 3537 862 
Q 3675 725 3200 675 
Q 2725 625 2475 650 
L 2475 225 
Q 3050 250 3875 325 
L 3875 1775 
Q 3875 2225 3775 2262 
Q 3675 2300 3500 2287 
Q 3325 2275 2425 2150 
L 2425 1825 
z
M 3675 4575 
Q 3800 4450 3762 4362 
Q 3725 4275 3687 4175 
Q 3650 4075 3550 3825 
Q 3950 3900 4350 3850 
Q 4450 4125 4475 4275 
Q 4500 4425 4500 4550 
Q 4500 4675 4262 4650 
Q 4025 4625 3675 4575 
z
M 1925 4325 
Q 2000 4000 2100 3600 
Q 2500 3675 2750 3700 
Q 2550 3975 2550 4375 
Q 2300 4350 1925 4325 
z
M 2650 4400 
Q 2925 4125 2850 3725 
Q 3100 3775 3350 3800 
Q 3400 4175 3412 4325 
Q 3425 4475 3375 4500 
Q 3050 4425 2650 4400 
z
" transform="scale(0.015625)"/>
       <path id="KaiTi-4fe1" d="M 4850 375 
Q 5225 100 4837 87 
Q 4450 75 4112 50 
Q 3775 25 3400 0 
Q 3350 -175 3275 -175 
Q 3225 -175 3150 175 
Q 3075 525 3025 750 
Q 2975 975 2875 1100 
Q 2775 1225 2900 1225 
Q 3050 1225 3187 1175 
Q 3325 1125 3800 1237 
Q 4275 1350 4425 1425 
Q 4575 1500 4850 1412 
Q 5125 1325 5225 1212 
Q 5325 1100 5200 1012 
Q 5075 925 4850 375 
z
M 1625 3100 
Q 2000 2850 1950 2662 
Q 1900 2475 1875 1625 
Q 1850 775 1837 387 
Q 1825 0 1725 -237 
Q 1625 -475 1500 -150 
Q 1375 175 1450 350 
Q 1525 525 1575 1112 
Q 1625 1700 1625 2250 
Q 1625 2825 1500 2950 
Q 1250 2600 1000 2312 
Q 750 2025 475 1850 
Q 200 1675 537 2062 
Q 875 2450 1275 3162 
Q 1675 3875 1775 4200 
Q 1875 4525 1850 4725 
Q 1825 4925 2037 4812 
Q 2250 4700 2337 4612 
Q 2425 4525 2337 4425 
Q 2250 4325 2037 3912 
Q 1825 3500 1625 3100 
z
M 3700 3550 
Q 4775 3725 5087 3787 
Q 5400 3850 5625 3775 
Q 5850 3700 5887 3575 
Q 5925 3450 5625 3450 
Q 5325 3450 5000 3425 
Q 4675 3400 4312 3362 
Q 3950 3325 3625 3262 
Q 3300 3200 3175 3187 
Q 3050 3175 2825 3137 
Q 2600 3100 2375 3275 
Q 2150 3450 2387 3425 
Q 2625 3400 3700 3550 
z
M 3325 975 
Q 3350 525 3400 200 
Q 4250 275 4550 325 
Q 4625 800 4612 975 
Q 4600 1150 4387 1125 
Q 4175 1100 3325 975 
z
M 4075 2100 
Q 4650 2250 4825 2125 
Q 5000 2000 4687 1887 
Q 4375 1775 3900 1725 
Q 3425 1675 3187 1787 
Q 2950 1900 3237 1925 
Q 3525 1950 4075 2100 
z
M 4100 2875 
Q 4625 3000 4750 2900 
Q 4875 2800 4675 2712 
Q 4475 2625 4050 2537 
Q 3625 2450 3300 2575 
Q 2975 2700 3275 2737 
Q 3575 2775 4100 2875 
z
M 3900 4750 
Q 4125 4725 4312 4600 
Q 4500 4475 4500 4225 
Q 4500 3975 4225 4100 
Q 3950 4225 3675 4462 
Q 3400 4700 3537 4737 
Q 3675 4775 3900 4750 
z
" transform="scale(0.015625)"/>
       <path id="KaiTi-533a" d="M 1675 400 
Q 3050 525 4037 662 
Q 5025 800 5362 637 
Q 5700 475 5637 362 
Q 5575 250 5075 300 
Q 4575 350 3462 275 
Q 2350 200 1975 125 
Q 1600 50 1475 -25 
Q 1350 -100 1250 100 
Q 1150 300 1225 437 
Q 1300 575 1350 862 
Q 1400 1150 1425 2525 
Q 1450 3900 1325 4162 
Q 1200 4425 1275 4425 
Q 1375 4425 1575 4375 
Q 1775 4325 2100 4337 
Q 2425 4350 3037 4437 
Q 3650 4525 4012 4612 
Q 4375 4700 4587 4725 
Q 4800 4750 4987 4625 
Q 5175 4500 5012 4425 
Q 4850 4350 4287 4287 
Q 3725 4225 3287 4187 
Q 2850 4150 2450 4125 
Q 2050 4100 1775 4100 
Q 1750 3125 1737 2300 
Q 1725 1475 1675 400 
z
M 3800 2375 
Q 4025 2175 4287 1912 
Q 4550 1650 4625 1412 
Q 4700 1175 4625 1037 
Q 4550 900 4275 1225 
Q 4000 1550 3575 2025 
Q 3275 1650 2950 1375 
Q 2625 1100 2275 962 
Q 1925 825 2187 1012 
Q 2450 1200 2750 1537 
Q 3050 1875 3300 2300 
Q 3125 2475 2912 2700 
Q 2700 2925 2450 3150 
Q 2200 3375 2462 3275 
Q 2725 3175 3025 2987 
Q 3325 2800 3525 2625 
Q 3650 2850 3750 3237 
Q 3850 3625 3812 3850 
Q 3775 4075 3987 3987 
Q 4200 3900 4337 3775 
Q 4475 3650 4375 3550 
Q 4275 3450 4112 3062 
Q 3950 2675 3800 2375 
z
" transform="scale(0.015625)"/>
       <path id="KaiTi-95f4" d="M 2625 1375 
Q 2550 900 2400 1112 
Q 2250 1325 2300 1675 
Q 2350 2025 2337 2487 
Q 2325 2950 2200 3187 
Q 2075 3425 2275 3400 
Q 2475 3375 2562 3350 
Q 2650 3325 3025 3387 
Q 3400 3450 3525 3537 
Q 3650 3625 3825 3562 
Q 4000 3500 4125 3412 
Q 4250 3325 4150 3187 
Q 4050 3050 4037 2850 
Q 4025 2650 4050 2100 
Q 4075 1550 3962 1212 
Q 3850 875 3762 1037 
Q 3675 1200 3575 1400 
Q 2900 1375 2625 1375 
z
M 4925 700 
Q 4975 1025 4962 1775 
Q 4950 2525 4925 3350 
Q 4900 4175 4800 4300 
Q 4700 4425 4225 4350 
Q 3750 4275 3425 4187 
Q 3100 4100 2875 4250 
Q 2650 4400 2937 4387 
Q 3225 4375 3887 4512 
Q 4550 4650 4662 4725 
Q 4775 4800 4962 4737 
Q 5150 4675 5350 4537 
Q 5550 4400 5387 4250 
Q 5225 4100 5250 3325 
Q 5275 2550 5337 1700 
Q 5400 850 5350 400 
Q 5300 -50 5162 -312 
Q 5025 -575 4875 -287 
Q 4725 0 4437 250 
Q 4150 500 4387 450 
Q 4625 400 4750 400 
Q 4875 400 4925 700 
z
M 2625 1550 
Q 2975 1575 3212 1600 
Q 3450 1625 3587 1600 
Q 3725 1575 3700 2237 
Q 3675 2900 3650 3050 
Q 3625 3200 3500 3225 
Q 3375 3250 2625 3150 
L 2625 2475 
Q 2800 2475 3050 2537 
Q 3300 2600 3400 2487 
Q 3500 2375 3200 2312 
Q 2900 2250 2625 2275 
L 2625 1550 
z
M 1575 3950 
Q 1775 3850 1662 3675 
Q 1550 3500 1537 2875 
Q 1525 2250 1500 1612 
Q 1475 975 1387 437 
Q 1300 -100 1112 362 
Q 925 825 1062 1087 
Q 1200 1350 1262 2500 
Q 1325 3650 1150 3912 
Q 975 4175 1187 4125 
Q 1400 4075 1575 3950 
z
M 2175 4675 
Q 2375 4500 2300 4262 
Q 2225 4025 2025 4212 
Q 1825 4400 1637 4687 
Q 1450 4975 1725 4912 
Q 2000 4850 2175 4675 
z
" transform="scale(0.015625)"/>
      </defs>
      <use xlink:href="#KaiTi-4e00"/>
      <use xlink:href="#KaiTi-4e2a" x="100"/>
      <use xlink:href="#KaiTi-6807" x="200"/>
      <use xlink:href="#KaiTi-51c6" x="300"/>
      <use xlink:href="#KaiTi-5dee" x="400"/>
      <use xlink:href="#KaiTi-7684" x="500"/>
      <use xlink:href="#KaiTi-7f6e" x="600"/>
      <use xlink:href="#KaiTi-4fe1" x="700"/>
      <use xlink:href="#KaiTi-533a" x="800"/>
      <use xlink:href="#KaiTi-95f4" x="900"/>
     </g>
    </g>
   </g>
  </g>
 </g>
 <defs>
  <clipPath id="p7b0ff71e38">
   <rect x="57.6" y="41.472" width="357.12" height="266.112"/>
  </clipPath>
 </defs>
</svg>
